<svg width="76" height="75" viewBox="0 0 76 75" fill="none" xmlns="http://www.w3.org/2000/svg">
<path d="M71.7543 48.6132L65.2225 45.0089L71.7548 41.4034C73.1978 40.6068 74.0589 39.1472 74.0585 37.4991C74.0582 35.8517 73.1968 34.3932 71.7546 33.5978L65.2212 29.9925L71.7544 26.3866C73.1969 25.5905 74.0582 24.1316 74.0582 22.4841C74.0582 20.8365 73.1969 19.3777 71.7544 18.5815L66.7493 15.8188C66.2327 15.5335 65.5819 15.7213 65.2965 16.2382C65.0112 16.7552 65.199 17.4055 65.716 17.6909L70.7211 20.4537C71.4718 20.8679 71.9199 21.627 71.9199 22.4842C71.9199 23.3414 71.4718 24.1005 70.7211 24.5147L40.8847 40.9825C38.8437 42.1087 36.4064 42.1087 34.3654 40.9825L4.52893 24.5146C3.77825 24.1004 3.33026 23.3413 3.33026 22.4841C3.33026 21.6269 3.77825 20.8678 4.52893 20.4536L34.3658 3.98551C36.4067 2.85799 38.8434 2.85799 40.8847 3.98566L61.9727 15.6251C62.4894 15.9104 63.1401 15.7226 63.4254 15.2056C63.7107 14.6886 63.5229 14.0383 63.0059 13.7529L41.9184 2.11386C39.2301 0.628738 36.0201 0.628738 33.3322 2.11371L3.49579 18.5815C2.05316 19.3777 1.19198 20.8365 1.19198 22.4841C1.19198 24.1316 2.05316 25.5905 3.49579 26.3866L10.0288 29.9925L3.49551 33.5976C2.05316 34.3932 1.19169 35.8517 1.19141 37.4991C1.19098 39.1472 2.05217 40.6068 3.49522 41.4034L10.0276 45.0089L3.49537 48.6134C2.05302 49.4104 1.19198 50.8697 1.19198 52.5171C1.19198 54.1646 2.05302 55.6241 3.49579 56.4212L15.0612 62.8047C15.225 62.8951 15.4021 62.938 15.5769 62.938C15.9538 62.938 16.3191 62.7384 16.514 62.3852C16.7993 61.8684 16.6115 61.2179 16.0945 60.9325L4.5295 54.5493C3.77867 54.1344 3.33026 53.3747 3.3304 52.5171C3.3304 51.6595 3.77867 50.8998 4.52908 50.4852L12.2404 46.2301L33.3314 57.8714C34.6759 58.6137 36.1503 58.9847 37.6252 58.9847C39.0997 58.9847 40.5749 58.6136 41.9188 57.8716L63.0101 46.2301L70.721 50.485C71.472 50.8998 71.9202 51.6595 71.9202 52.5171C71.9202 53.3747 71.472 54.1344 70.7214 54.549L40.885 71.0154C38.8442 72.1415 36.4064 72.1416 34.3644 71.0154L19.8394 62.9983C19.3224 62.7132 18.6719 62.901 18.3866 63.4177C18.1012 63.9347 18.2891 64.585 18.806 64.8704L33.3311 72.8877C34.6756 73.6293 36.1503 74 37.6249 74C39.0995 74 40.5742 73.6292 41.918 72.8876L71.7548 56.4211C73.1972 55.6242 74.0582 54.1648 74.0582 52.5172C74.0584 50.8697 73.1972 49.4104 71.7543 48.6132ZM40.8853 55.9995C38.844 57.1266 36.4062 57.1266 34.3645 55.9995L4.52865 39.5314C3.77768 39.1168 3.32955 38.3573 3.32969 37.4997C3.32983 36.6426 3.77782 35.8839 4.52836 35.47L12.2414 31.2138L33.3322 42.8545C34.6762 43.5963 36.1506 43.9671 37.625 43.9671C39.0995 43.9671 40.5739 43.5963 41.918 42.8545L63.0087 31.2138L70.7218 35.4702C71.4722 35.8839 71.9202 36.6426 71.9204 37.4997C71.9207 38.3573 71.4724 39.1169 70.7216 39.5314L40.8853 55.9995Z" fill="#17161A"/>
</svg>
