<svg width="76" height="75" viewBox="0 0 76 75" fill="none" xmlns="http://www.w3.org/2000/svg">
<path d="M71.6876 25.5195L65.6984 4.28952C65.3728 3.13321 64.6134 2.17109 63.5598 1.58039C62.5063 0.989684 61.2895 0.843826 60.1353 1.16976L38.9053 7.15935C38.337 7.31961 38.0062 7.91031 38.1664 8.47849L39.6882 13.8788C36.4853 15.3204 34.7276 18.9388 35.7093 22.4223C36.2324 24.2766 37.4472 25.8166 39.1298 26.7589C40.4972 27.5246 42.0401 27.8204 43.5644 27.6237L45.0895 33.0235C45.1667 33.2964 45.3489 33.5276 45.5966 33.666C45.8441 33.8046 46.1364 33.839 46.4094 33.762L51.8081 32.2371C52.4379 33.6429 53.497 34.8046 54.865 35.5703C55.9555 36.1804 57.1578 36.4912 58.3739 36.4912C59.033 36.4912 59.6963 36.3998 60.3478 36.2155C63.8278 35.2348 65.9927 31.8463 65.5486 28.3608L70.9485 26.8391C71.2215 26.7621 71.4528 26.5798 71.5915 26.3323C71.7301 26.085 71.7647 25.7925 71.6876 25.5195ZM64.0153 26.5711C63.7423 26.6481 63.5111 26.8302 63.3724 27.0777C63.2337 27.3252 63.199 27.6175 63.276 27.8904C64.0358 30.5866 62.4619 33.3978 59.7663 34.1576C58.4617 34.5269 57.0918 34.3659 55.9091 33.7042C54.7249 33.0415 53.8697 31.9563 53.5011 30.6488C53.4241 30.3757 53.2419 30.1443 52.9943 30.0057C52.8331 29.9156 52.6531 29.8694 52.4718 29.8694C52.3743 29.8694 52.2767 29.8827 52.1811 29.9096L46.857 31.4134L45.3532 26.0891C45.1926 25.5209 44.6019 25.1901 44.0336 25.3505C42.7294 25.7187 41.359 25.5561 40.1746 24.893C38.9903 24.2299 38.1356 23.1461 37.7676 21.8418C37.0072 19.1437 38.581 16.3306 41.276 15.5711C41.8445 15.4108 42.1754 14.8202 42.0151 14.2518L40.5148 8.92732L60.7159 3.22788C61.32 3.05736 61.9586 3.1345 62.5137 3.44574C63.0689 3.75714 63.4688 4.26258 63.6398 4.86968L69.3388 25.0707L64.0153 26.5711Z" fill="#17161A"/>
<path d="M57.4064 45.1732V41.2852C57.4064 40.6946 56.9278 40.2159 56.3371 40.2159H49.7374C49.1468 40.2159 48.668 40.6946 48.668 41.2852C48.668 44.0852 46.3902 46.3631 43.5902 46.3631C40.788 46.3631 38.5083 44.0852 38.5083 41.2852C38.5083 40.6946 38.0297 40.2159 37.439 40.2159H31.9086V34.6812C31.9086 34.0907 31.43 33.6119 30.8393 33.6119C28.0395 33.6119 25.7615 31.3339 25.7615 28.534C25.7615 25.7319 28.0393 23.452 30.8393 23.452C31.43 23.452 31.9086 22.9732 31.9086 22.3827V15.7827C31.9086 15.1922 31.43 14.7134 30.8393 14.7134H8.78094C6.29494 14.7134 4.27246 16.7377 4.27246 19.2261V63.3441C4.27246 65.8303 6.29494 67.8527 8.78094 67.8527H10.9511C11.4694 71.3268 14.4728 74.0002 18.0885 74.0002C21.7064 74.0002 24.7111 71.3268 25.2298 67.8529H40.838C41.4287 67.8529 41.9074 67.3741 41.9074 66.7835C41.9074 66.193 41.4287 65.7142 40.838 65.7142H31.9086V42.3545H36.4488C36.9675 45.8285 39.9723 48.5018 43.5902 48.5018C47.206 48.5018 50.2093 45.8285 50.7276 42.3545H55.2677V46.1634C55.2677 46.7539 55.7464 47.2327 56.3371 47.2327C59.1392 47.2327 61.4188 49.5124 61.4188 52.3147C61.4188 55.1146 59.1392 57.3926 56.3371 57.3926C55.7465 57.3926 55.2677 57.8714 55.2677 58.4619V63.3443C55.2677 64.6511 54.2045 65.7143 52.8976 65.7143H45.4897C44.899 65.7143 44.4203 66.1931 44.4203 66.7837C44.4203 67.3742 44.899 67.853 45.4897 67.853H52.8976C55.3836 67.853 57.4063 65.8304 57.4063 63.3444V59.4526C60.8823 58.9346 63.5574 55.931 63.5574 52.3149C63.5575 48.6966 60.8825 45.6914 57.4064 45.1732ZM6.41114 19.2263C6.41114 17.9173 7.47435 16.8522 8.78108 16.8522H29.7701V21.3926C26.2963 21.9112 23.6231 24.9162 23.6231 28.5341C23.6231 32.15 26.2964 35.1533 29.7701 35.6717V40.216H24.2397C23.649 40.216 23.1704 40.6948 23.1704 41.2853C23.1704 44.0853 20.8907 46.3633 18.0886 46.3633C15.2888 46.3633 13.0108 44.0853 13.0108 41.2853C13.0108 40.6948 12.5322 40.216 11.9415 40.216H6.41114V19.2263ZM24.2396 65.7142C23.6489 65.7142 23.1703 66.193 23.1703 66.7835C23.1703 69.5835 20.8906 71.8615 18.0885 71.8615C15.2887 71.8615 13.0107 69.5835 13.0107 66.7835C13.0107 66.193 12.532 65.7142 11.9413 65.7142H8.78094C7.47421 65.7142 6.411 64.651 6.411 63.3441V42.3545H10.9511C11.4694 45.8285 14.4727 48.5018 18.0885 48.5018C21.7064 48.5018 24.7111 45.8285 25.2298 42.3545H29.7699V65.7142H24.2396Z" fill="#17161A"/>
</svg>
