<svg width="17" height="17" viewBox="0 0 17 17" fill="none" xmlns="http://www.w3.org/2000/svg">
<g clip-path="url(#clip0_2097_58335)">
<path d="M10.2226 6.96346L10.2044 6.94526C9.78855 6.52949 9.11196 6.52946 8.69619 6.94526C8.49474 7.14668 8.38379 7.41448 8.38379 7.69938C8.38379 7.98424 8.49471 8.25204 8.69616 8.45346L8.71435 8.47165C9.08007 8.83734 9.28149 9.32359 9.28149 9.84078C9.28149 10.358 9.08011 10.8442 8.71435 11.2099L6.88969 13.0345C6.7975 13.1268 6.7975 13.2762 6.88969 13.3684C6.98189 13.4605 7.13134 13.4606 7.22357 13.3684L9.04822 11.5437C9.50309 11.0889 9.75361 10.4841 9.75361 9.84075C9.75361 9.19743 9.50309 8.59264 9.04822 8.13775L9.03 8.11955C8.91778 8.00734 8.85593 7.85808 8.85593 7.69934C8.85593 7.54058 8.91778 7.39135 9.03003 7.2791C9.26173 7.04734 9.63878 7.04734 9.87048 7.2791L9.88867 7.2973C11.2912 8.69976 11.2912 10.9817 9.88867 12.3842L6.99391 15.279C5.59148 16.6815 3.30941 16.6814 1.90701 15.2789C1.22762 14.5996 0.853462 13.6963 0.853462 12.7355C0.853462 11.7747 1.22762 10.8714 1.90701 10.192L4.81889 7.28014C4.91109 7.18792 4.91109 7.03847 4.81889 6.94627C4.72667 6.85411 4.57722 6.85411 4.48502 6.94627L1.57314 9.85815C0.80458 10.6267 0.381348 11.6486 0.381348 12.7355C0.381348 13.8225 0.80458 14.8443 1.57314 15.6129C2.36644 16.4061 3.40847 16.8028 4.45046 16.8028C5.49249 16.8028 6.53451 16.4061 7.32781 15.6129L10.2226 12.7181C11.8091 11.1315 11.8091 8.55003 10.2226 6.96346V6.96346Z" fill="#3D3D4E"/>
<path d="M4.62428 9.15542L2.74687 11.0328C2.28772 11.492 2.03758 12.1034 2.04255 12.7543C2.0475 13.4051 2.30708 14.0126 2.77347 14.465C3.23368 14.9114 3.8351 15.1335 4.43932 15.1335C5.06728 15.1335 5.69829 14.8934 6.17622 14.4155L6.51161 14.0801C6.6038 13.9879 6.6038 13.8384 6.51157 13.7463C6.41941 13.6541 6.26993 13.6541 6.17774 13.7463L5.84239 14.0817C5.08594 14.8381 3.85673 14.858 3.10221 14.1261C2.72735 13.7625 2.5187 13.2741 2.5147 12.7508C2.5107 12.2273 2.71174 11.7357 3.08077 11.3667L4.95818 9.48932C5.05038 9.3971 5.05038 9.24765 4.95818 9.15545C4.86599 9.06329 4.71654 9.06323 4.62428 9.15542V9.15542Z" fill="#3D3D4E"/>
<path d="M15.117 1.99456C14.3484 1.226 13.3265 0.802734 12.2396 0.802734C11.1527 0.802734 10.1309 1.226 9.36234 1.99456L9.20052 2.15635C9.1083 2.24854 9.1083 2.39802 9.20049 2.49019C9.29268 2.58235 9.4421 2.58241 9.53433 2.49022L9.69618 2.32843C10.3755 1.64907 11.2788 1.27488 12.2396 1.27488C13.2004 1.27488 14.1037 1.64907 14.7831 2.32846C16.1856 3.73092 16.1856 6.0129 14.7831 7.41533L11.8712 10.3272C11.779 10.4194 11.779 10.5689 11.8712 10.6611C11.9173 10.7072 11.9778 10.7302 12.0382 10.7302C12.0986 10.7302 12.159 10.7072 12.2051 10.6611L15.117 7.7492C16.7035 6.16263 16.7035 3.58113 15.117 1.99456V1.99456Z" fill="#3D3D4E"/>
<path d="M12.066 8.45211L13.9433 6.5747C14.4025 6.11556 14.6526 5.50422 14.6477 4.85326C14.6427 4.20248 14.3832 3.59493 13.9168 3.14255C12.9782 2.23222 11.4518 2.25428 10.514 3.19203L7.64255 6.0635C6.70351 7.00253 6.70351 8.53049 7.6427 9.46965L7.66077 9.48769C7.89247 9.71942 7.89247 10.0965 7.66077 10.3281C7.54856 10.4404 7.39927 10.5022 7.24053 10.5022C7.08179 10.5022 6.93253 10.4404 6.82029 10.3281L6.80209 10.3099C5.3996 8.90748 5.3996 6.62548 6.80209 5.22304L8.82367 3.20147C8.91586 3.10924 8.91586 2.95979 8.82367 2.8676C8.73144 2.77544 8.58199 2.77544 8.4898 2.8676L6.46822 4.88917C4.88169 6.47574 4.88169 9.05728 6.46822 10.6438L6.48642 10.662C6.69432 10.8699 6.96744 10.9739 7.24053 10.9739C7.51362 10.9739 7.78674 10.8699 7.99464 10.662C8.41041 10.2462 8.41041 9.56968 7.99448 9.15372L7.97642 9.13566C7.22145 8.38073 7.22145 7.15233 7.97642 6.3974L10.8479 3.52593C11.6043 2.76955 12.8336 2.74963 13.588 3.48152C13.9629 3.84513 14.1715 4.33358 14.1755 4.85688C14.1795 5.38036 13.9785 5.87187 13.6095 6.24086L11.7321 8.11828C11.6399 8.2105 11.6399 8.35995 11.7321 8.45215C11.8243 8.54428 11.9737 8.54428 12.066 8.45211V8.45211Z" fill="#3D3D4E"/>
<path d="M12.5641 12.7204C12.472 12.6282 12.3225 12.6282 12.2303 12.7204C12.1381 12.8126 12.1381 12.9621 12.2303 13.0542L13.0065 13.8304C13.0526 13.8765 13.113 13.8995 13.1734 13.8995C13.2338 13.8995 13.2942 13.8765 13.3404 13.8304C13.4325 13.7382 13.4325 13.5887 13.3403 13.4965L12.5641 12.7204Z" fill="#3D3D4E"/>
<path d="M14.3035 11.5696L13.2421 11.29C13.1159 11.2569 12.9868 11.3321 12.9536 11.4582C12.9204 11.5843 12.9958 11.7134 13.1218 11.7466L14.1833 12.0262C14.2035 12.0314 14.2236 12.034 14.2436 12.034C14.3482 12.034 14.4438 11.9639 14.4717 11.858C14.5049 11.7319 14.4296 11.6027 14.3035 11.5696V11.5696Z" fill="#3D3D4E"/>
<path d="M11.2564 13.6128C11.2232 13.4867 11.0942 13.4114 10.968 13.4446C10.8419 13.4778 10.7666 13.6069 10.7998 13.733L11.0793 14.7945C11.1073 14.9004 11.2028 14.9705 11.3075 14.9705C11.3274 14.9705 11.3476 14.968 11.3678 14.9627C11.4938 14.9295 11.5691 14.8003 11.5359 14.6742L11.2564 13.6128Z" fill="#3D3D4E"/>
<path d="M4.0601 4.88398C4.10621 4.9301 4.16662 4.95314 4.22705 4.95314C4.28745 4.95314 4.34789 4.93009 4.39397 4.88401C4.4862 4.79182 4.4862 4.64234 4.394 4.55017L3.61786 3.774C3.52566 3.68177 3.37618 3.6818 3.28402 3.77396C3.19179 3.86616 3.19179 4.01564 3.28399 4.1078L4.0601 4.88398Z" fill="#3D3D4E"/>
<path d="M5.36547 3.99128C5.39339 4.0972 5.48898 4.1673 5.59361 4.1673C5.6135 4.1673 5.63371 4.16475 5.65389 4.15946C5.77995 4.12625 5.85524 3.99713 5.82207 3.87104L5.54255 2.80953C5.50931 2.68347 5.38029 2.60824 5.25413 2.64135C5.12807 2.67456 5.05278 2.80368 5.08596 2.92977L5.36547 3.99128Z" fill="#3D3D4E"/>
<path d="M2.31761 6.0346L3.37909 6.31412C3.39926 6.3194 3.41944 6.32195 3.43936 6.32195C3.54399 6.32195 3.63959 6.25186 3.66751 6.14594C3.70071 6.01984 3.62539 5.89072 3.49933 5.85752L2.43785 5.578C2.31172 5.54489 2.18267 5.62006 2.14943 5.74618C2.11626 5.87225 2.19155 6.0014 2.31761 6.0346V6.0346Z" fill="#3D3D4E"/>
</g>
<defs>
<clipPath id="clip0_2097_58335">
<rect width="16" height="16" fill="white" transform="translate(0.34375 0.802734)"/>
</clipPath>
</defs>
</svg>
