<svg width="20" height="21" viewBox="0 0 20 21" fill="none" xmlns="http://www.w3.org/2000/svg">
<path d="M16.25 4.05957H3.75C2.71447 4.05957 1.875 4.89904 1.875 5.93457V17.1846C1.875 18.2201 2.71447 19.0596 3.75 19.0596H16.25C17.2855 19.0596 18.125 18.2201 18.125 17.1846V5.93457C18.125 4.89904 17.2855 4.05957 16.25 4.05957Z" stroke="#747376" stroke-linejoin="round"/>
<path d="M11.5625 10.9346C12.0803 10.9346 12.5 10.5148 12.5 9.99707C12.5 9.4793 12.0803 9.05957 11.5625 9.05957C11.0447 9.05957 10.625 9.4793 10.625 9.99707C10.625 10.5148 11.0447 10.9346 11.5625 10.9346Z" fill="#747376"/>
<path d="M14.6875 10.9346C15.2053 10.9346 15.625 10.5148 15.625 9.99707C15.625 9.4793 15.2053 9.05957 14.6875 9.05957C14.1697 9.05957 13.75 9.4793 13.75 9.99707C13.75 10.5148 14.1697 10.9346 14.6875 10.9346Z" fill="#747376"/>
<path d="M11.5625 14.0596C12.0803 14.0596 12.5 13.6398 12.5 13.1221C12.5 12.6043 12.0803 12.1846 11.5625 12.1846C11.0447 12.1846 10.625 12.6043 10.625 13.1221C10.625 13.6398 11.0447 14.0596 11.5625 14.0596Z" fill="#747376"/>
<path d="M14.6875 14.0596C15.2053 14.0596 15.625 13.6398 15.625 13.1221C15.625 12.6043 15.2053 12.1846 14.6875 12.1846C14.1697 12.1846 13.75 12.6043 13.75 13.1221C13.75 13.6398 14.1697 14.0596 14.6875 14.0596Z" fill="#747376"/>
<path d="M5.3125 14.0596C5.83027 14.0596 6.25 13.6398 6.25 13.1221C6.25 12.6043 5.83027 12.1846 5.3125 12.1846C4.79473 12.1846 4.375 12.6043 4.375 13.1221C4.375 13.6398 4.79473 14.0596 5.3125 14.0596Z" fill="#747376"/>
<path d="M8.4375 14.0596C8.95527 14.0596 9.375 13.6398 9.375 13.1221C9.375 12.6043 8.95527 12.1846 8.4375 12.1846C7.91973 12.1846 7.5 12.6043 7.5 13.1221C7.5 13.6398 7.91973 14.0596 8.4375 14.0596Z" fill="#747376"/>
<path d="M5.3125 17.1846C5.83027 17.1846 6.25 16.7648 6.25 16.2471C6.25 15.7293 5.83027 15.3096 5.3125 15.3096C4.79473 15.3096 4.375 15.7293 4.375 16.2471C4.375 16.7648 4.79473 17.1846 5.3125 17.1846Z" fill="#747376"/>
<path d="M8.4375 17.1846C8.95527 17.1846 9.375 16.7648 9.375 16.2471C9.375 15.7293 8.95527 15.3096 8.4375 15.3096C7.91973 15.3096 7.5 15.7293 7.5 16.2471C7.5 16.7648 7.91973 17.1846 8.4375 17.1846Z" fill="#747376"/>
<path d="M11.5625 17.1846C12.0803 17.1846 12.5 16.7648 12.5 16.2471C12.5 15.7293 12.0803 15.3096 11.5625 15.3096C11.0447 15.3096 10.625 15.7293 10.625 16.2471C10.625 16.7648 11.0447 17.1846 11.5625 17.1846Z" fill="#747376"/>
<path d="M15 2.80957V4.05957M5 2.80957V4.05957V2.80957Z" stroke="#747376" stroke-linecap="round" stroke-linejoin="round"/>
<path d="M18.125 7.18457H1.875" stroke="#747376" stroke-linejoin="round"/>
</svg>
