<svg width="60" height="61" viewBox="0 0 60 61" fill="none" xmlns="http://www.w3.org/2000/svg">
<g clip-path="url(#clip0_2141_1499)">
<path d="M0.679199 56.8312L1.45698 58.5819L29.3668 47.0093L34.2291 47.5928L35.9793 52.9414L33.6455 55.1783C32.7704 55.9561 32.4788 57.2201 32.9651 58.3872L33.9375 60.8184L50.08 54.4974L49.2048 52.1636C48.816 50.9964 47.7462 50.316 46.4822 50.316H43.2727L41.5225 46.1341L45.8012 43.995C47.1626 43.3141 47.7462 41.7581 47.2599 40.3967L41.7172 25.5183C41.1336 23.9622 39.4803 23.2813 37.9242 23.7676C37.9242 23.7676 37.8274 23.7676 37.8274 23.8649L33.7428 25.6151L33.1593 24.1565L35.3962 21.5311C36.9518 19.7804 37.9242 17.6413 38.2162 15.3074L41.0363 11.9038C42.8839 9.76424 42.495 6.55531 40.3554 4.70726C39.9665 4.41571 39.5776 4.12416 39.1887 3.92948C38.1189 3.44325 37.0491 3.34591 35.8824 3.63793L35.5904 2.76234C35.1042 1.20678 33.3539 0.42853 31.8953 1.0121L11.3763 8.40289C9.82023 8.98646 9.04245 10.6394 9.62602 12.098V12.1954L10.1122 13.4594C7.58376 14.6265 6.41662 17.5439 7.29174 20.0724C7.97265 22.0173 9.72289 23.3787 11.7651 23.6702L16.3359 24.1565C18.1835 25.5183 20.4199 26.3934 22.6569 26.5876L25.8658 26.8796L26.4494 28.3383C25.7685 28.7272 25.2822 29.4081 25.088 30.2832L24.4071 33.5895L0.679199 43.2168L1.36011 45.0643L14.9745 39.6189L18.2808 49.5377L0.679199 56.8312ZM47.2599 52.7472L47.4546 53.3302L35.0068 58.2899L34.7153 57.7063C34.618 57.3174 34.7153 56.9285 34.91 56.637L38.2162 53.5249L42.3976 52.1636H46.2875C46.7737 52.1636 47.0657 52.3578 47.2599 52.7472ZM41.1336 50.4129L37.6327 51.58L36.3687 47.8848C36.9518 47.9817 37.438 47.8848 37.9242 47.5928L39.5776 46.8151L41.1336 50.4129ZM38.5078 25.3236C38.994 25.1289 39.5776 25.3236 39.7723 25.8098L40.55 27.8521L35.7851 29.4081L36.3687 31.2557L41.1336 29.6997L42.3003 32.8117L37.73 34.3673L38.3136 36.2153L42.9812 34.6593L44.1483 37.7709L39.6749 39.2296L40.2585 41.0776L44.8288 39.5216L45.315 40.7856C45.5097 41.2718 45.315 41.7581 44.8288 41.9528L37.1464 45.7453C36.9518 45.8426 36.7576 45.8426 36.5629 45.8426L29.9503 45.0643L26.352 34.2704L27.033 30.6721C27.1303 30.3806 27.3245 30.0886 27.6165 29.9912L38.5078 25.3236ZM38.4104 5.67972C39.9665 6.36063 40.7447 8.20821 40.0638 9.86158C39.9665 10.1531 39.7723 10.3478 39.5776 10.6394L38.4104 12.098C38.3136 11.1256 38.1189 10.2505 37.8274 9.27801L36.5629 5.48551C37.2438 5.38817 37.8274 5.48551 38.4104 5.67972ZM9.23666 19.5862C8.65356 17.9328 9.334 16.1826 10.89 15.4043L12.2514 18.7111C12.7376 19.8777 13.4185 21.0449 14.1963 22.0173L12.154 21.8226C10.7927 21.7253 9.62602 20.8502 9.23666 19.5862ZM23.0458 24.74C19.0586 24.3511 15.5576 21.8226 14.099 18.0301L11.5709 11.6118C11.3763 11.1256 11.5709 10.542 12.0572 10.3478L32.5757 2.95702C32.8677 2.85968 33.0619 2.85968 33.3539 2.95702C33.5481 3.05436 33.7428 3.24857 33.8402 3.54059L35.9793 9.95892C37.1464 13.5567 36.3687 17.4466 33.9375 20.2666L30.9228 23.7676L31.7979 26.1014L28.297 27.5601L27.3245 25.1289L23.0458 24.74ZM16.8221 38.8407L19.0586 37.9656L21.4897 45.3564L23.3373 44.7728L20.8093 37.1878L24.6991 35.6318L28.0054 45.4537L20.1284 48.76L16.8221 38.8407Z" fill="#17161A"/>
<path d="M48.7192 17.8351V18.8075H50.6641V17.8351C50.6641 15.1124 52.8037 12.9728 55.5264 12.9728V11.0279C52.8037 11.0279 50.6641 8.88875 50.6641 6.16557V5.19312H48.7192V6.16557C48.7192 8.88875 46.5801 11.0279 43.8569 11.0279V12.9728C46.5801 12.9728 48.7192 15.1124 48.7192 17.8351ZM49.6917 9.66652C50.2753 10.639 51.053 11.4172 52.0255 12.0003C51.053 12.5839 50.2753 13.3622 49.6917 14.3346C49.1081 13.3622 48.3303 12.5839 47.3579 12.0003C48.3303 11.4172 49.1081 10.639 49.6917 9.66652Z" fill="#17161A"/>
<path d="M5.93017 37.2843V38.2568H7.87509V37.2843C7.87509 34.5616 10.0147 32.422 12.7374 32.422V30.4771C10.0147 30.4771 7.87509 28.338 7.87509 25.6148V24.6423H5.93017V25.6148C5.93017 28.338 3.79104 30.4771 1.06787 30.4771V32.422C3.79104 32.422 5.93017 34.5616 5.93017 37.2843ZM6.90263 29.1157C7.4862 30.0882 8.26398 30.8665 9.23644 31.4495C8.26398 32.0331 7.4862 32.8114 6.90263 33.7838C6.31906 32.8114 5.54128 32.0331 4.56882 31.4495C5.54128 30.8665 6.31906 30.0882 6.90263 29.1157Z" fill="#17161A"/>
<path d="M54.5543 25.6148V24.6423H52.6094V25.6148C52.6094 28.338 50.4702 30.4771 47.7471 30.4771V32.422C50.4702 32.422 52.6094 34.5616 52.6094 37.2843V38.2568H54.5543V37.2843C54.5543 34.5616 56.6939 32.422 59.4166 32.422V30.4771C56.6939 30.4771 54.5543 28.338 54.5543 25.6148ZM53.5818 33.7838C52.9983 32.8114 52.2205 32.0331 51.248 31.4495C52.2205 30.8665 52.9983 30.0882 53.5818 29.1157C54.1654 30.0882 54.9432 30.8665 55.9156 31.4495C54.9432 32.0331 54.1654 32.8114 53.5818 33.7838Z" fill="#17161A"/>
<path d="M29.5624 18.1272L30.9237 19.4886C36.2722 14.14 31.3126 5.97147 31.021 5.67944L29.3677 6.74924C29.465 6.74924 33.8411 13.8485 29.5624 18.1272Z" fill="#17161A"/>
</g>
<defs>
<clipPath id="clip0_2141_1499">
<rect width="60" height="60" fill="white" transform="translate(0 0.818359)"/>
</clipPath>
</defs>
</svg>
