<svg width="80" height="81" viewBox="0 0 80 81" fill="none" xmlns="http://www.w3.org/2000/svg">
<g clip-path="url(#clip0_2141_192)">
<path d="M44.5723 38.459C44.8498 37.8743 44.6009 37.1754 44.016 36.8979C43.4312 36.6204 42.7324 36.8694 42.4549 37.4541C41.9543 38.5088 40.8768 39.1904 39.7097 39.1904C38.5427 39.1904 37.4652 38.5088 36.9647 37.4541C36.6872 36.8694 35.9883 36.6204 35.4036 36.8979C34.819 37.1754 34.5699 37.8743 34.8472 38.459C35.7338 40.3271 37.6424 41.5341 39.7097 41.5341C41.7771 41.5341 43.6857 40.3269 44.5723 38.459Z" fill="#17161A"/>
<path d="M31.0545 33.6331C31.9893 33.6331 32.7471 32.505 32.7471 31.1135C32.7471 29.722 31.9893 28.594 31.0545 28.594C30.1196 28.594 29.3618 29.722 29.3618 31.1135C29.3618 32.505 30.1196 33.6331 31.0545 33.6331Z" fill="#17161A"/>
<path d="M48.3675 33.6331C49.3023 33.6331 50.0601 32.505 50.0601 31.1135C50.0601 29.722 49.3023 28.594 48.3675 28.594C47.4326 28.594 46.6748 29.722 46.6748 31.1135C46.6748 32.505 47.4326 33.6331 48.3675 33.6331Z" fill="#17161A"/>
<path d="M65.185 50.3465C65.0479 49.714 64.4245 49.3124 63.7915 49.4494L50.815 52.2619C50.1825 52.399 49.7809 53.0229 49.9179 53.6554C50.0368 54.2043 50.5225 54.5793 51.062 54.5793C51.1442 54.5793 51.2278 54.5705 51.3114 54.5524L64.2879 51.7399C64.9204 51.6029 65.322 50.9791 65.185 50.3465Z" fill="#17161A"/>
<path d="M63.7906 53.8041L50.814 56.6166C50.1815 56.7537 49.7799 57.3776 49.917 58.0101C50.0359 58.559 50.5215 58.934 51.061 58.934C51.1432 58.934 51.2268 58.9252 51.3104 58.9071L64.287 56.0946C64.9195 55.9576 65.321 55.3337 65.184 54.7011C65.0471 54.0686 64.4237 53.6672 63.7906 53.8041Z" fill="#17161A"/>
<path d="M71.306 46.4728H70.6046V44.4023C70.6046 42.9548 69.9579 41.6034 68.8304 40.6945C67.7032 39.7858 66.2457 39.4406 64.8315 39.7478L58.723 41.0716C59.1299 39.9734 59.3716 38.8142 59.4327 37.6342C59.4723 36.862 59.503 36.0884 59.5284 35.3142C61.8812 34.8009 63.6488 32.7027 63.6488 30.1981C63.6488 27.6644 61.8412 25.5455 59.4482 25.0628C59.3069 22.1272 59.0637 19.1947 58.7202 16.2783C61.4623 13.3525 63.6177 10.0933 64.2944 7.69656C64.7238 6.17594 64.6016 4.95922 63.9312 4.08047C63.3124 3.26953 62.469 2.83828 61.4918 2.83344C60.373 2.82938 59.1507 3.36594 57.7584 4.47266C57.811 3.46844 57.6349 2.63922 57.2301 1.99531C56.8249 1.35047 55.996 0.582031 54.3485 0.582031C52.1576 0.582031 50.4362 1.81172 49.1785 3.2325C49.0555 2.66562 48.8463 2.13656 48.5149 1.70094C47.9584 0.969062 47.1443 0.582031 46.1609 0.582031C44.2616 0.582031 42.7635 2.15719 41.2727 4.06687C40.648 3.71453 39.7818 3.26688 38.7562 2.84672C38.291 2.65719 37.8116 2.48187 37.3266 2.32391C35.6046 1.77172 33.9888 1.53109 32.5241 1.60859C32.5137 1.60906 32.4991 1.61016 32.4855 1.61141C32.4816 1.61156 32.4777 1.61172 32.4737 1.61203C32.2571 1.62437 32.0465 1.64359 31.8271 1.67109C29.3021 1.99219 27.3082 3.27156 25.8866 5.47891C23.3437 4.58813 19.2402 4.26719 17.0041 7.89172C16.6643 8.4425 16.8352 9.16453 17.3862 9.50438C17.578 9.62266 17.7904 9.67906 18.0004 9.67906C18.3935 9.67906 18.7774 9.48141 18.9988 9.12234C21.0888 5.73469 25.6785 7.9125 25.8702 8.00547C26.4432 8.28734 27.1362 8.05875 27.4288 7.49141C28.506 5.40422 30.0415 4.26078 32.1202 3.99641C32.2801 3.97641 32.4354 3.96219 32.5946 3.95281C32.6188 3.95187 32.6437 3.95016 32.6688 3.94812C33.8434 3.88891 35.1693 4.09359 36.6059 4.55422C37.0326 4.69313 37.4585 4.84891 37.8698 5.01656C38.641 5.3325 39.3162 5.66922 39.838 5.95234C38.6085 7.56078 37.3412 9.07531 36.0224 9.56234C35.4152 9.78656 35.1048 10.4605 35.329 11.0677C35.5534 11.6748 36.2273 11.9852 36.8343 11.7611C38.9988 10.9617 40.6604 8.75812 42.2674 6.62719C43.5757 4.89203 45.0585 2.92578 46.1609 2.92578C46.4752 2.92578 46.5776 3.02563 46.649 3.11922C47.2263 3.87703 46.9468 6.22234 46.5765 7.56766C46.409 8.17141 46.746 8.8 47.3415 8.99469C47.9373 9.18969 48.5802 8.88141 48.8018 8.29547C48.8221 8.24172 50.9282 2.92578 54.3485 2.92578C55.0465 2.92578 55.1965 3.16391 55.2457 3.24203C55.789 4.10438 55.0463 6.58594 54.3738 7.99078C54.1141 8.53047 54.3034 9.17906 54.8124 9.49469C55.3213 9.81031 55.9866 9.69125 56.3545 9.21875C56.3627 9.20813 57.189 8.15141 58.3059 7.10078C60.1484 5.36719 61.1337 5.17703 61.4757 5.17703H61.4802C61.6849 5.17813 61.8632 5.23375 62.0677 5.50187C62.2555 5.74813 62.2448 6.33031 62.0388 7.05953C60.8885 11.1336 54.2993 18.542 49.137 20.5366C42.4018 23.1389 33.3996 21.7328 29.0693 17.4025C28.7559 17.0891 28.2926 16.9794 27.872 17.1187C27.4513 17.2583 27.1452 17.623 27.0812 18.0616C27.0785 18.0794 26.8104 19.8595 25.8768 21.637C24.7187 23.8425 23.1105 24.9608 21.0973 24.9608C21.0957 24.9608 21.0943 24.9609 21.0929 24.9609C21.0651 24.9603 21.0374 24.9592 21.0096 24.9592C20.3987 24.9592 19.8123 25.0655 19.2665 25.2588C18.0638 20.1759 17.596 16.0684 17.8804 13.04C17.9409 12.3956 17.4676 11.8242 16.8232 11.7638C16.179 11.7034 15.6074 12.1766 15.547 12.8209C15.2234 16.2678 15.7762 20.9113 17.1855 26.6241C16.3099 27.5608 15.7724 28.8175 15.7724 30.1981C15.7724 32.7031 17.5407 34.8019 19.8943 35.3145C19.9198 36.0895 19.9505 36.8633 19.9902 37.6339C20.0477 38.7639 20.2718 39.8772 20.6485 40.9355L15.1687 39.7478C13.7543 39.4406 12.2965 39.7856 11.169 40.6945C10.0415 41.6034 9.39492 42.9548 9.39492 44.4023V46.4728H8.69352C6.23586 46.4728 4.23633 48.4723 4.23633 50.93V53.8789C4.23633 56.3366 6.23586 58.3361 8.69352 58.3361H9.39492V70.8148C9.39492 73.0414 10.9741 74.9997 13.1499 75.4711L36.6109 80.5555C36.6123 80.5558 36.6137 80.5558 36.6149 80.5561C36.6473 80.563 36.6804 80.568 36.7137 80.572C36.7212 80.573 36.7285 80.5747 36.736 80.5755C36.7748 80.5795 36.8141 80.5816 36.854 80.5817C36.8557 80.5817 36.8574 80.582 36.8591 80.582H43.1404C43.1421 80.582 43.1438 80.5817 43.1455 80.5817C43.1854 80.5816 43.2248 80.5795 43.2635 80.5755C43.271 80.5747 43.2784 80.573 43.2859 80.572C43.3191 80.568 43.3521 80.563 43.3846 80.5561C43.386 80.5558 43.3874 80.5558 43.3887 80.5555L66.8495 75.4711C69.0252 74.9997 70.6044 73.0414 70.6044 70.8148V69.2167C70.6044 68.5695 70.0798 68.0448 69.4326 68.0448C68.7854 68.0448 68.2607 68.5695 68.2607 69.2167V70.8148C68.2607 71.9461 67.4585 72.9409 66.3532 73.1805L44.3121 77.9572V46.5928L65.3284 42.0381C66.0465 41.8822 66.7868 42.0575 67.3596 42.5192C67.9324 42.9809 68.261 43.6673 68.261 44.4023V46.8613C66.7065 47.5581 65.6204 49.1191 65.6204 50.9298V53.8789C65.6204 55.6898 66.7065 57.2508 68.261 57.9475V64.5292C68.261 65.1764 68.7857 65.7011 69.4329 65.7011C70.0801 65.7011 70.6048 65.1764 70.6048 64.5292V58.3361H71.3062C73.7638 58.3361 75.7634 56.3366 75.7634 53.8789V50.9298C75.7632 48.4722 73.7637 46.4728 71.306 46.4728ZM61.3051 30.198C61.3051 31.3758 60.5966 32.3897 59.5845 32.8408C59.6074 31.0739 59.5935 29.3041 59.5426 27.5337C60.5774 27.9752 61.3051 29.003 61.3051 30.198ZM18.1165 30.198C18.1165 29.0042 18.8427 27.9772 19.8762 27.535C19.8257 29.3011 19.814 31.0731 19.8374 32.8408C18.8249 32.3898 18.1165 31.3759 18.1165 30.198ZM22.3312 37.5138C22.1554 34.1091 22.1232 30.6516 22.232 27.2197C24.6265 26.8566 26.589 25.3223 27.9521 22.7267C28.3884 21.8961 28.7027 21.0684 28.9246 20.3627C31.3124 22.1425 34.4641 23.3786 38.0054 23.8995C42.1763 24.5131 46.4296 24.0953 49.9818 22.723C52.158 21.8822 54.4687 20.2844 56.5932 18.3675C57.2484 24.7328 57.4171 31.1622 57.0921 37.5138C57.0157 38.99 56.586 40.4255 55.8466 41.695L43.0149 44.4759H36.9848L23.4932 41.552C22.8043 40.3195 22.4035 38.9339 22.3312 37.5138ZM38.0315 46.8195H41.9684V78.2383H38.0315V46.8195ZM6.58039 53.8789V50.9298C6.58039 49.7645 7.52852 48.8164 8.69383 48.8164H9.92258C11.0879 48.8164 12.036 49.7645 12.036 50.9298V53.8789C12.036 55.0442 11.0879 55.9923 9.92258 55.9923H8.69383C7.52852 55.9923 6.58039 55.0444 6.58039 53.8789ZM11.739 70.8148V57.9477C13.2935 57.2508 14.3796 55.6898 14.3796 53.8791V50.93C14.3796 49.1191 13.2935 47.5581 11.739 46.8614V44.4023C11.739 43.6673 12.0676 42.9809 12.6404 42.5192C13.2132 42.0575 13.9535 41.8822 14.6721 42.0383L35.6877 46.5928V77.9572L13.6465 73.1805C12.5412 72.9409 11.739 71.9461 11.739 70.8148ZM73.4195 53.8789C73.4195 55.0442 72.4713 55.9923 71.306 55.9923H70.0773C68.9119 55.9923 67.9638 55.0442 67.9638 53.8789V50.9298C67.9638 49.7645 68.9119 48.8164 70.0773 48.8164H71.306C72.4713 48.8164 73.4195 49.7645 73.4195 50.9298V53.8789Z" fill="#17161A"/>
</g>
<defs>
<clipPath id="clip0_2141_192">
<rect width="80" height="80" fill="white" transform="translate(0 0.582031)"/>
</clipPath>
</defs>
</svg>
