<svg width="80" height="82" viewBox="0 0 80 82" fill="none" xmlns="http://www.w3.org/2000/svg">
<g clip-path="url(#clip0_2141_217)">
<path d="M45.4784 39.1052C45.7143 39.5744 46.1837 39.8454 46.669 39.8454C46.8716 39.8454 47.0796 39.7979 47.273 39.6977C47.3516 39.657 55.1997 35.6029 59.0703 34.3596C59.7717 34.1332 60.1609 33.3712 59.9382 32.6581C59.7168 31.9448 58.9729 31.5476 58.265 31.7727C54.1877 33.0839 46.393 37.1108 46.0624 37.2816C45.4063 37.6205 45.1451 38.4369 45.4784 39.1052Z" fill="#17161A"/>
<path d="M46.6675 23.5759C46.8701 23.5759 47.0781 23.5284 47.2715 23.4281C47.3501 23.3875 55.1982 19.3334 59.0688 18.0901C59.7702 17.8637 60.1594 17.1016 59.9368 16.3885C59.7154 15.6753 58.9714 15.2781 58.2635 15.5032C54.1862 16.8144 46.3915 20.8413 46.0609 21.0121C45.405 21.351 45.1436 22.1672 45.4769 22.8356C45.7128 23.3047 46.1822 23.5759 46.6675 23.5759Z" fill="#17161A"/>
<path d="M78.6666 20.8639C77.9293 20.8639 77.3333 21.4713 77.3333 22.2197V75.0981C77.3333 77.3407 75.5386 79.1657 73.3333 79.1657H41.3336V76.0459C43.2776 75.3544 48.3415 73.7423 53.3335 73.7423C64.9481 73.7423 72.8348 76.3578 72.9134 76.3848C73.3146 76.5203 73.7627 76.4526 74.1133 76.1976C74.4613 75.9428 74.6666 75.5333 74.6666 75.0979V15.4405C74.6666 14.8046 74.2333 14.2541 73.6226 14.1171C73.6226 14.1171 72.5773 13.8799 70.7906 13.5462C70.0692 13.4107 69.372 13.8988 69.2385 14.6337C69.1053 15.3712 69.5838 16.0777 70.3079 16.2132C70.9893 16.3406 71.5599 16.4531 71.9999 16.5427V73.2961C68.9785 72.4907 62.2694 71.0305 53.3333 71.0305C47.524 71.0305 41.8175 72.9707 40.0521 73.6284C38.4827 72.9234 33.7388 71.0305 28.0001 71.0305C18.8161 71.0305 11.2509 72.5708 8.00027 73.3532V16.4898C10.6629 15.8241 18.5269 14.0846 28.0001 14.0846C32.8615 14.0846 37.0307 15.6234 38.6667 16.319V69.6747C38.6667 70.1628 38.9253 70.6144 39.3427 70.8543C39.76 71.0957 40.2747 71.0889 40.6867 70.8367C40.8188 70.7568 54.0293 62.7327 65.7545 58.7587C66.2998 58.573 66.6665 58.0564 66.6665 57.472V1.88184C66.6665 1.43711 66.4518 1.02082 66.0918 0.767389C65.7345 0.513802 65.2759 0.455489 64.8639 0.611519C54.196 4.68036 43.4016 11.5112 43.2934 11.579C42.6694 11.9762 42.4787 12.8128 42.8694 13.4474C43.2587 14.082 44.0814 14.2759 44.7067 13.8786C44.8053 13.8149 54.196 7.87356 63.9998 3.8643V56.5014C54.8985 59.7175 45.3959 64.9687 41.3333 67.3197V15.4405C41.3333 14.9267 41.048 14.4575 40.596 14.2271C40.3666 14.1119 34.9027 11.3729 28.0001 11.3729C15.9522 11.3729 6.68965 14.0237 6.30028 14.1375C5.72826 14.3029 5.33357 14.8358 5.33357 15.4405V75.0983C5.33357 75.5227 5.53091 75.924 5.86294 76.1803C6.09763 76.3606 6.38028 76.4542 6.667 76.4542C6.78965 76.4542 6.91231 76.4366 7.03231 76.4013C7.12434 76.3756 16.3443 73.7425 28.0001 73.7425C32.8748 73.7425 37.04 75.2854 38.6667 75.9782V79.1658H6.667C4.4617 79.1658 2.66703 77.3408 2.66703 75.0983V22.2199C2.66703 21.4715 2.06969 20.864 1.33376 20.864C0.597827 20.864 0.000488281 21.4715 0.000488281 22.2199V75.0983C0.000488281 78.8363 2.99109 81.8776 6.66715 81.8776H73.3333C77.0093 81.8776 80 78.8365 80 75.0983V22.2199C79.9999 21.4713 79.4039 20.8639 78.6666 20.8639Z" fill="#17161A"/>
<path d="M45.4784 30.9704C45.7143 31.4396 46.1837 31.7107 46.669 31.7107C46.8716 31.7107 47.0796 31.6632 47.273 31.5629C47.3516 31.5222 55.1997 27.4682 59.0703 26.2249C59.7717 25.9984 60.1609 25.2364 59.9382 24.5233C59.7168 23.8101 58.9729 23.4128 58.265 23.638C54.1877 24.9491 46.393 28.976 46.0624 29.1468C45.4063 29.4858 45.1451 30.3021 45.4784 30.9704Z" fill="#17161A"/>
<path d="M45.4784 47.2402C45.7143 47.7094 46.1837 47.9805 46.669 47.9805C46.8716 47.9805 47.0796 47.933 47.273 47.8327C47.3516 47.792 55.1997 43.738 59.0703 42.4946C59.7717 42.2682 60.1609 41.5062 59.9382 40.7931C59.7168 40.0798 58.9729 39.6826 58.265 39.9078C54.1877 41.2189 46.393 45.2458 46.0624 45.4166C45.4063 45.7555 45.1451 46.5719 45.4784 47.2402Z" fill="#17161A"/>
<path d="M32.3034 25.6882C24.0702 23.7235 14.7142 26.2265 14.3209 26.3336C13.6103 26.5274 13.1876 27.2704 13.3783 27.9945C13.5383 28.6005 14.0768 28.9991 14.665 28.9991C14.7797 28.9991 14.8956 28.9842 15.0117 28.9531C15.1011 28.9273 24.109 26.5179 31.6956 28.328C32.4089 28.4975 33.1303 28.046 33.2983 27.3165C33.4661 26.5885 33.0208 25.859 32.3034 25.6882Z" fill="#17161A"/>
<path d="M32.3034 33.8231C24.0702 31.8598 14.7142 34.3614 14.3209 34.4685C13.6103 34.6623 13.1876 35.4054 13.3783 36.1293C13.5383 36.7353 14.0768 37.134 14.665 37.134C14.7797 37.134 14.8956 37.1191 15.0117 37.0879C15.1011 37.0622 24.109 34.6528 31.6956 36.4628C32.4089 36.6324 33.1303 36.1808 33.2983 35.4514C33.4661 34.7233 33.0208 33.9939 32.3034 33.8231Z" fill="#17161A"/>
<path d="M45.4784 55.3762C45.7143 55.8454 46.1837 56.1164 46.669 56.1164C46.8716 56.1164 47.0796 56.0689 47.273 55.9687C47.3516 55.928 55.1997 51.8739 59.0703 50.6306C59.7717 50.4042 60.1609 49.6422 59.9382 48.9291C59.7168 48.216 58.9729 47.8186 58.265 48.0437C54.1877 49.3549 46.393 53.3818 46.0624 53.5526C45.4063 53.8915 45.1451 54.7079 45.4784 55.3762Z" fill="#17161A"/>
<path d="M32.3034 41.9583C24.0702 39.9951 14.7142 42.4952 14.3209 42.6037C13.6103 42.7976 13.1876 43.5407 13.3783 44.2646C13.5383 44.8706 14.0768 45.2707 14.665 45.2707C14.7797 45.2707 14.8956 45.2545 15.0117 45.2232C15.1011 45.1974 24.109 42.788 31.6956 44.5981C32.4089 44.7676 33.1303 44.3161 33.2983 43.5866C33.4661 42.8586 33.0208 42.1291 32.3034 41.9583Z" fill="#17161A"/>
<path d="M32.3034 58.229C24.0702 56.2643 14.7142 58.7673 14.3209 58.8744C13.6103 59.0682 13.1876 59.8113 13.3783 60.5352C13.5383 61.1413 14.0768 61.5413 14.665 61.5413C14.7797 61.5413 14.8956 61.5251 15.0117 61.4938C15.1011 61.4681 24.109 59.0587 31.6956 60.8688C32.4089 61.0369 33.1303 60.5867 33.2983 59.8573C33.4661 59.1292 33.0208 58.3998 32.3034 58.229Z" fill="#17161A"/>
<path d="M32.3034 50.0935C24.0702 48.1288 14.7142 50.6303 14.3209 50.7389C13.6103 50.9327 13.1876 51.6758 13.3783 52.3997C13.5383 53.0057 14.0768 53.4058 14.665 53.4058C14.7797 53.4058 14.8956 53.3896 15.0117 53.3583C15.1011 53.3326 24.109 50.9232 31.6956 52.7332C32.4089 52.9028 33.1303 52.4512 33.2983 51.7217C33.4661 50.9937 33.0208 50.2643 32.3034 50.0935Z" fill="#17161A"/>
</g>
<defs>
<clipPath id="clip0_2141_217">
<rect width="80" height="81.3521" fill="white" transform="translate(0 0.525391)"/>
</clipPath>
</defs>
</svg>
