<svg width="60" height="61" viewBox="0 0 60 61" fill="none" xmlns="http://www.w3.org/2000/svg">
<g clip-path="url(#clip0_2141_516)">
<path d="M59.6139 24.3942L52.5352 19.6009C52.3871 19.5007 52.2154 19.4518 52.043 19.4517V19.4497H49.4169C53.118 14.2628 54.8926 7.90769 54.3497 1.44984C54.3137 1.02258 53.9747 0.683552 53.5474 0.647693C50.1688 0.363982 46.8103 0.70863 43.565 1.6725C43.0997 1.81066 42.8346 2.29992 42.9728 2.76527C43.1109 3.23051 43.6 3.49605 44.0655 3.35754C46.8599 2.52761 49.7435 2.18836 52.6501 2.34738C53.0423 9.53801 50.3742 16.5334 45.2646 21.6431L34.8516 32.0559L22.9414 20.1457L33.3541 9.73301C35.5396 7.54863 38.074 5.80078 40.887 4.53773C41.3298 4.33898 41.5276 3.81879 41.3288 3.37594C41.13 2.93308 40.6097 2.73527 40.167 2.93414C37.1586 4.28472 34.4483 6.15398 32.1112 8.48976L29.7469 10.8544L22.6447 10.3699C19.9737 10.1871 17.6025 11.9496 17.0061 14.5596L15.8889 19.4496H7.95703V19.4516C7.78465 19.4517 7.61285 19.5006 7.46484 19.6009L0.386133 24.3942C0.144609 24.5577 0 24.8304 0 25.122V40.8217C0 41.147 0.179648 41.4456 0.466992 41.598C0.75375 41.7502 1.10191 41.7321 1.37168 41.5493L7.07812 37.6853V49.2504C7.07812 49.7358 7.47164 50.1293 7.95703 50.1293C8.44242 50.1293 8.83594 49.7358 8.83594 49.2504V36.907H51.1641V56.632C51.1641 57.6342 50.3482 58.4496 49.3453 58.4496H10.6547C9.6518 58.4496 8.83594 57.6342 8.83594 56.632V52.7519C8.83594 52.2666 8.44242 51.873 7.95703 51.873C7.47164 51.873 7.07812 52.2666 7.07812 52.7519V56.632C7.07812 58.6035 8.68254 60.2074 10.6547 60.2074H49.3453C51.3175 60.2074 52.9219 58.6035 52.9219 56.632V37.6852L58.6283 41.5493C58.8981 41.732 59.2464 41.7502 59.533 41.598C59.8204 41.4456 60 41.1469 60 40.8217V25.122C60 24.8304 59.8554 24.5577 59.6139 24.3942ZM46.5074 22.886C47.0476 22.3458 47.562 21.7854 48.0505 21.2075H51.1635V35.1493H44.0638C44.4935 34.2959 44.6943 33.3348 44.6276 32.3529L44.1428 25.2507L46.5074 22.886ZM34.2438 35.1493L35.47 33.9232C35.4709 33.9223 35.4721 33.9214 35.473 33.9205L42.4935 26.9L42.8739 32.4723C42.9409 33.461 42.6079 34.4189 41.9549 35.1495H34.2438V35.1493ZM18.7198 14.9512C19.1223 13.1898 20.7224 12.0005 22.5252 12.1236L28.0976 12.5038L21.0771 19.5244C21.0741 19.5274 21.0715 19.5308 21.0684 19.534L16.6672 23.9352L18.7198 14.9512ZM14.7053 27.4839C15.0455 27.6724 15.4739 27.6144 15.752 27.3361L21.699 21.3891L33.6086 33.2987L31.758 35.1492H28.5222C29.7393 32.7377 29.3387 29.7486 27.3524 27.7281C27.3388 27.714 27.3261 27.6993 27.3123 27.6854C27.2578 27.6309 27.2018 27.5787 27.1444 27.5283C25.63 26.1176 23.5377 25.5149 21.4978 25.9173C19.3818 26.3348 17.6222 27.7725 16.7906 29.763L14.5421 35.1492H8.83652V21.2074H15.4873L14.2737 26.5188C14.1864 26.9007 14.3624 27.2943 14.7053 27.4839ZM26.5649 30.5586C26.4459 31.1607 26.053 31.6416 25.4866 31.8779L21.424 33.5737L23.1198 29.5111C23.3562 28.9447 23.8371 28.5517 24.4391 28.4328C24.5605 28.4089 24.6814 28.3971 24.801 28.3971C25.2664 28.3971 25.7077 28.577 26.0517 28.9127C26.0575 28.9184 26.0636 28.9235 26.0693 28.9293C26.0855 28.9454 26.1004 28.9622 26.1163 28.9785C26.5155 29.4075 26.6794 29.9793 26.5649 30.5586ZM21.4976 28.8339L18.9782 34.8698C18.9403 34.9604 18.9202 35.0548 18.9138 35.1493H16.4469L18.4125 30.4405C19.0266 28.9704 20.2752 27.9504 21.8379 27.642C22.0235 27.6054 22.2087 27.5804 22.3931 27.5655C22.0112 27.9122 21.7029 28.3421 21.4976 28.8339ZM26.1639 33.5C26.6593 33.2932 27.092 32.9816 27.44 32.5953C27.3741 33.5012 27.0434 34.3922 26.4477 35.1492H22.2128L26.1639 33.5ZM1.75781 25.5882L7.07871 21.9852V35.562L1.75781 39.165V25.5882ZM58.2422 39.165L52.9213 35.562V21.9852L58.2422 25.5882V39.165Z" fill="white"/>
<path d="M34.652 10.8152C32.0242 13.4431 32.0242 17.719 34.652 20.3468C35.9659 21.6607 37.6919 22.3177 39.4178 22.3177C41.1437 22.3177 42.8697 21.6607 44.1834 20.3468C46.8113 17.719 46.8113 13.4431 44.1834 10.8152C41.5558 8.18742 37.2798 8.18754 34.652 10.8152ZM42.9406 12.0582C44.8831 14.0007 44.8831 17.1614 42.9406 19.1039C40.9979 21.0464 37.8374 21.0463 35.8949 19.1039C34.9539 18.1629 34.4357 16.9118 34.4357 15.581C34.4357 14.2502 34.9539 12.9991 35.8949 12.0581C36.8661 11.0869 38.142 10.6013 39.4178 10.6013C40.6936 10.6014 41.9693 11.087 42.9406 12.0582Z" fill="white"/>
</g>
<defs>
<clipPath id="clip0_2141_516">
<rect width="60" height="60" fill="white" transform="translate(0 0.379883)"/>
</clipPath>
</defs>
</svg>
