<svg width="15" height="16" viewBox="0 0 15 16" fill="none" xmlns="http://www.w3.org/2000/svg">
<path d="M12.1875 2.45557H2.8125C2.03585 2.45557 1.40625 3.08517 1.40625 3.86182V12.2993C1.40625 13.076 2.03585 13.7056 2.8125 13.7056H12.1875C12.9642 13.7056 13.5938 13.076 13.5938 12.2993V3.86182C13.5938 3.08517 12.9642 2.45557 12.1875 2.45557Z" stroke="#747376" stroke-linejoin="round"/>
<path d="M8.67188 7.61182C9.0602 7.61182 9.375 7.29702 9.375 6.90869C9.375 6.52037 9.0602 6.20557 8.67188 6.20557C8.28355 6.20557 7.96875 6.52037 7.96875 6.90869C7.96875 7.29702 8.28355 7.61182 8.67188 7.61182Z" fill="#747376"/>
<path d="M11.0156 7.61182C11.404 7.61182 11.7188 7.29702 11.7188 6.90869C11.7188 6.52037 11.404 6.20557 11.0156 6.20557C10.6273 6.20557 10.3125 6.52037 10.3125 6.90869C10.3125 7.29702 10.6273 7.61182 11.0156 7.61182Z" fill="#747376"/>
<path d="M8.67188 9.95557C9.0602 9.95557 9.375 9.64077 9.375 9.25244C9.375 8.86412 9.0602 8.54932 8.67188 8.54932C8.28355 8.54932 7.96875 8.86412 7.96875 9.25244C7.96875 9.64077 8.28355 9.95557 8.67188 9.95557Z" fill="#747376"/>
<path d="M11.0156 9.95557C11.404 9.95557 11.7188 9.64077 11.7188 9.25244C11.7188 8.86412 11.404 8.54932 11.0156 8.54932C10.6273 8.54932 10.3125 8.86412 10.3125 9.25244C10.3125 9.64077 10.6273 9.95557 11.0156 9.95557Z" fill="#747376"/>
<path d="M3.98438 9.95557C4.3727 9.95557 4.6875 9.64077 4.6875 9.25244C4.6875 8.86412 4.3727 8.54932 3.98438 8.54932C3.59605 8.54932 3.28125 8.86412 3.28125 9.25244C3.28125 9.64077 3.59605 9.95557 3.98438 9.95557Z" fill="#747376"/>
<path d="M6.32812 9.95557C6.71645 9.95557 7.03125 9.64077 7.03125 9.25244C7.03125 8.86412 6.71645 8.54932 6.32812 8.54932C5.9398 8.54932 5.625 8.86412 5.625 9.25244C5.625 9.64077 5.9398 9.95557 6.32812 9.95557Z" fill="#747376"/>
<path d="M3.98438 12.2993C4.3727 12.2993 4.6875 11.9845 4.6875 11.5962C4.6875 11.2079 4.3727 10.8931 3.98438 10.8931C3.59605 10.8931 3.28125 11.2079 3.28125 11.5962C3.28125 11.9845 3.59605 12.2993 3.98438 12.2993Z" fill="#747376"/>
<path d="M6.32812 12.2993C6.71645 12.2993 7.03125 11.9845 7.03125 11.5962C7.03125 11.2079 6.71645 10.8931 6.32812 10.8931C5.9398 10.8931 5.625 11.2079 5.625 11.5962C5.625 11.9845 5.9398 12.2993 6.32812 12.2993Z" fill="#747376"/>
<path d="M8.67188 12.2993C9.0602 12.2993 9.375 11.9845 9.375 11.5962C9.375 11.2079 9.0602 10.8931 8.67188 10.8931C8.28355 10.8931 7.96875 11.2079 7.96875 11.5962C7.96875 11.9845 8.28355 12.2993 8.67188 12.2993Z" fill="#747376"/>
<path d="M11.25 1.51807V2.45557M3.75 1.51807V2.45557V1.51807Z" stroke="#747376" stroke-linecap="round" stroke-linejoin="round"/>
<path d="M13.5938 4.79932H1.40625" stroke="#747376" stroke-linejoin="round"/>
</svg>
