<svg width="16" height="17" viewBox="0 0 16 17" fill="none" xmlns="http://www.w3.org/2000/svg">
<g clip-path="url(#clip0_2097_56546)">
<path d="M8.00957 4.32184C5.39844 4.32184 3.27416 6.44612 3.27416 9.05724C3.27416 11.6684 5.39848 13.7927 8.00957 13.7927C10.6207 13.7927 12.745 11.6684 12.745 9.05724C12.745 6.44612 10.6207 4.32184 8.00957 4.32184ZM8.00957 13.1677C5.74307 13.1677 3.89913 11.3237 3.89913 9.05721C3.89913 6.79074 5.74304 4.94681 8.00957 4.94681C10.2761 4.94681 12.12 6.79071 12.12 9.05721C12.12 11.3237 10.2761 13.1677 8.00957 13.1677Z" fill="#747376"/>
<path d="M10.8124 7.53009C10.7296 7.37862 10.5398 7.32287 10.3883 7.40556C10.3833 7.40834 10.3786 7.41153 10.3737 7.41453C10.2335 7.50125 10.1839 7.68319 10.2638 7.82959C10.468 8.20369 10.576 8.62834 10.576 9.05759C10.576 10.4729 9.42452 11.6244 8.00917 11.6244C6.5938 11.6244 5.44236 10.4729 5.44236 9.05759C5.44236 7.64225 6.59383 6.49078 8.00917 6.49078C8.14499 6.49078 8.2813 6.50147 8.41427 6.52256C8.5792 6.54875 8.7337 6.44075 8.7683 6.27966C8.76952 6.27406 8.77092 6.26856 8.77183 6.26281C8.79883 6.09235 8.68255 5.93225 8.51208 5.90525C8.34683 5.87906 8.17761 5.86578 8.00914 5.86578C6.2492 5.86578 4.81733 7.29762 4.81733 9.05759C4.81733 10.8176 6.24917 12.2494 8.00914 12.2494C9.76911 12.2494 11.201 10.8175 11.201 9.05759C11.201 8.52397 11.0666 7.99578 10.8124 7.53009Z" fill="#747376"/>
<path d="M10.0059 6.44596C9.99157 6.43158 9.97564 6.41846 9.95845 6.40721C9.94157 6.39596 9.92345 6.38627 9.90439 6.37846C9.88564 6.37065 9.86595 6.36471 9.84595 6.36065C9.80564 6.35252 9.76407 6.35252 9.72376 6.36065C9.70376 6.36471 9.68439 6.37065 9.66532 6.37846C9.64657 6.38627 9.62845 6.39596 9.61157 6.40721C9.59439 6.41846 9.57845 6.43158 9.56376 6.44596C9.54939 6.46033 9.53657 6.47627 9.52501 6.49346C9.51376 6.51033 9.50407 6.52846 9.49626 6.54752C9.49132 6.55933 9.48742 6.57158 9.48401 6.58399C9.48201 6.59127 9.47998 6.59855 9.47848 6.60596C9.47445 6.62593 9.47254 6.64655 9.47254 6.66686C9.47254 6.68749 9.47442 6.70783 9.47848 6.72814C9.48254 6.74814 9.48848 6.76752 9.49629 6.78655C9.5041 6.80533 9.51379 6.82346 9.52504 6.84033C9.5366 6.85752 9.54942 6.87346 9.56379 6.88783C9.57848 6.90221 9.59442 6.91533 9.6116 6.92689C9.62848 6.93814 9.6466 6.94783 9.66535 6.95564C9.68442 6.96345 9.70379 6.96939 9.72379 6.97345C9.7441 6.97752 9.76473 6.97936 9.78504 6.97936C9.80535 6.97936 9.82598 6.97749 9.84598 6.97345C9.86598 6.96942 9.88567 6.96345 9.90442 6.95564C9.92079 6.94892 9.93626 6.94061 9.95104 6.93133C9.95348 6.9298 9.95607 6.92849 9.95845 6.92689C9.97564 6.91533 9.99157 6.90221 10.0059 6.88783C10.0203 6.87346 10.0334 6.85752 10.0447 6.84033C10.0559 6.82346 10.0656 6.80533 10.0734 6.78655C10.0813 6.76752 10.0872 6.74783 10.0913 6.72814C10.0953 6.70783 10.0975 6.68749 10.0975 6.66686C10.0975 6.58468 10.0641 6.50405 10.0059 6.44596Z" fill="#747376"/>
<path d="M15.9915 13.5328L14.978 5.27826C14.9074 4.70376 14.727 4.15705 14.4417 3.65336C14.2666 3.34414 14.0538 3.05661 13.8094 2.79873L13.7821 2.76995C13.5739 2.55023 13.2624 2.49167 12.9884 2.62076C12.7146 2.74983 12.5614 3.02742 12.5983 3.32792L13.8831 13.7917C13.8872 13.8253 13.8929 13.8583 13.9 13.8908C14.0068 14.3771 14.4411 14.7245 14.9365 14.7245C14.9795 14.7245 15.023 14.7219 15.0667 14.7165C15.4119 14.6741 15.6983 14.4697 15.8592 14.1889C15.8761 14.1594 15.8916 14.129 15.9057 14.0978C15.9198 14.0667 15.9324 14.0348 15.9434 14.0022C15.9932 13.8558 16.0116 13.6963 15.9915 13.5328ZM13.2187 3.25173C13.2172 3.2392 13.2131 3.2058 13.2549 3.18608C13.2664 3.18067 13.2765 3.17858 13.2852 3.17858C13.3084 3.17858 13.3223 3.19326 13.3285 3.19989L13.3558 3.22867C13.5654 3.4498 13.7478 3.6963 13.8979 3.96136C14.1425 4.39317 14.2972 4.86189 14.3577 5.35442L14.8979 9.7538L14.0301 9.86033L13.2187 3.25173ZM15.3441 13.822C15.2872 13.9663 15.1551 14.0759 14.9906 14.0961C14.7513 14.1257 14.5329 13.9548 14.5035 13.7155L14.1063 10.4807L14.974 10.3741L15.3712 13.609C15.3804 13.6837 15.37 13.7565 15.3441 13.822Z" fill="#747376"/>
<path d="M3.8536 2.85304C3.68222 2.83191 3.52638 2.95385 3.50535 3.12513L3.22113 5.43988C3.17682 5.80063 2.88528 6.07279 2.5245 6.09479L2.31735 6.06935L2.69113 3.02519C2.71216 2.85391 2.59035 2.69797 2.41903 2.67691C2.24769 2.65569 2.09182 2.77772 2.07079 2.94901L1.697 5.99316L1.48966 5.96772C1.14497 5.85904 0.928004 5.52447 0.972285 5.16375L1.2565 2.84904C1.27753 2.67775 1.15572 2.52182 0.98441 2.50076C0.813129 2.47951 0.657191 2.60157 0.63616 2.77285L0.351941 5.08757C0.280847 5.66672 0.576441 6.20972 1.07507 6.47016L0.0119412 13.3119C0.0118162 13.3127 0.0116912 13.3135 0.0115662 13.3143C-0.0315901 13.6068 0.0433162 13.8973 0.222472 14.1325C0.401629 14.3677 0.66191 14.517 0.955097 14.553L0.960785 14.5537C1.00607 14.5593 1.05125 14.562 1.0961 14.562C1.34325 14.562 1.58085 14.4785 1.77653 14.3206C2.00775 14.1341 2.14994 13.8684 2.17691 13.5726L2.80528 6.68266C3.35216 6.55063 3.77041 6.09526 3.8415 5.51607L4.12572 3.20132C4.14672 3.03004 4.02491 2.8741 3.8536 2.85304ZM1.55453 13.5158C1.54303 13.6418 1.48253 13.7548 1.38413 13.8342C1.28572 13.9136 1.16253 13.949 1.03719 13.9334L1.0315 13.9328C0.906629 13.9174 0.795847 13.8539 0.719629 13.7538C0.643566 13.654 0.61166 13.5307 0.629722 13.4066L1.68413 6.62132L1.93072 6.6516C1.93085 6.6516 1.93094 6.65163 1.93107 6.65166C1.93116 6.65166 1.93125 6.65166 1.93135 6.65166L2.17775 6.68191L1.55453 13.5158Z" fill="#747376"/>
</g>
<defs>
<clipPath id="clip0_2097_56546">
<rect width="16" height="16" fill="white" transform="translate(0 0.611328)"/>
</clipPath>
</defs>
</svg>
