<svg width="76" height="76" viewBox="0 0 76 76" fill="none" xmlns="http://www.w3.org/2000/svg">
<g clip-path="url(#clip0_2097_39793)">
<path d="M0.331617 7.65918L5.33352 16.412C5.50224 16.7078 5.78464 16.9217 6.11487 17.0046L10.7814 18.1712L26.7866 34.1764L28.555 32.4084L12.2993 16.1533C12.1394 15.9928 11.9388 15.8791 11.7191 15.824L7.23521 14.6991L2.9766 7.24252L6.62772 3.5914L14.0874 7.85413L15.2128 12.338C15.2674 12.5582 15.3816 12.7593 15.5415 12.9193L31.7972 29.175L33.5651 27.4065L17.56 11.4013L16.3934 6.73739C16.3105 6.40664 16.0966 6.12373 15.8008 5.9545L7.04746 0.953111C6.5593 0.675342 5.94512 0.757644 5.54699 1.15424L0.545602 6.15614C0.143351 6.5517 0.0559056 7.16691 0.331617 7.65918Z" fill="#17161A"/>
<path d="M52.3174 25.4224L24.8085 52.9318L23.04 51.1633L50.5495 23.6544L52.3174 25.4224Z" fill="#17161A"/>
<path d="M19.9938 53.9061C19.7675 53.5296 19.3611 53.2997 18.9218 53.2997H11.4195C10.9807 53.2997 10.5738 53.5296 10.348 53.9061L6.59659 60.158C6.35843 60.5541 6.35843 61.0494 6.59659 61.446L10.348 67.6978C10.5738 68.0739 10.9807 68.3043 11.4195 68.3043H18.9218C19.3611 68.3043 19.7675 68.0739 19.9938 67.6978L23.7447 61.446C23.9829 61.0494 23.9829 60.5541 23.7447 60.158L19.9938 53.9061ZM18.2145 65.8034H12.1273L9.12635 60.802L12.1273 55.8001H18.2145L21.2155 60.802L18.2145 65.8034Z" fill="#17161A"/>
<path d="M60.1848 30.7919C68.4433 30.8197 75.1612 24.1471 75.189 15.8886C75.1931 14.6314 75.0388 13.3794 74.7297 12.1608C74.563 11.4906 73.8845 11.0827 73.2143 11.2493C72.9941 11.3044 72.7935 11.4181 72.633 11.578L64.8493 19.3566L58.6736 17.2985L56.614 11.1244L64.3977 3.3391C64.8858 2.85044 64.8853 2.05879 64.3967 1.57064C64.2356 1.40964 64.033 1.29544 63.8113 1.24092C55.8023 -0.787311 47.6662 4.06079 45.638 12.0693C45.3298 13.2843 45.176 14.5332 45.1801 15.7868C45.1832 16.7713 45.2846 17.7527 45.4842 18.7167L18.0997 46.1006C17.1357 45.9016 16.1543 45.8002 15.1702 45.7966C6.88294 45.7966 0.165039 52.5145 0.165039 60.8018C0.165039 69.0886 6.88294 75.8065 15.1702 75.8065C23.457 75.8065 30.1749 69.0886 30.1749 60.8018C30.1719 59.8173 30.07 58.8358 29.8709 57.8719L36.4268 51.316L39.294 54.1832C39.7827 54.6713 40.5738 54.6713 41.0625 54.1832L41.6875 53.5577C42.2358 53.013 43.1221 53.013 43.6704 53.5577C44.2182 54.104 44.2193 54.9908 43.673 55.5386C43.6725 55.5391 43.6714 55.5401 43.6704 55.5412L43.0454 56.1662C42.5573 56.6543 42.5573 57.4459 43.0454 57.9341L57.9617 72.8503C61.8849 76.8095 68.2746 76.8383 72.2339 72.9151C76.1926 68.9919 76.2214 62.6017 72.2982 58.6429C72.2771 58.6213 72.2555 58.5997 72.2339 58.5781L57.3176 43.6624C56.8295 43.1743 56.0378 43.1743 55.5497 43.6624L54.9247 44.2874C54.3759 44.8327 53.4901 44.8327 52.9412 44.2874C52.3939 43.7411 52.3924 42.8543 52.9387 42.307C52.9397 42.306 52.9407 42.3055 52.9412 42.3045L53.5667 41.679C54.0549 41.1908 54.0549 40.3992 53.5667 39.911L50.6995 37.0438L57.2554 30.4879C58.2194 30.687 59.2008 30.7889 60.1848 30.7919ZM65.0978 73.306C64.1894 73.3045 63.2887 73.1404 62.4384 72.821L72.204 63.0548C73.6777 66.975 71.6948 71.3473 67.7746 72.821C66.9192 73.1425 66.0123 73.3071 65.0978 73.306ZM50.932 40.8076C49.5473 42.4593 49.7644 44.9211 51.4161 46.3054C52.8677 47.5219 54.9834 47.5209 56.4334 46.3018L70.4659 60.3466C70.6182 60.4994 70.7607 60.6604 70.8985 60.8239L60.2075 71.515C60.0434 71.3776 59.8824 71.2351 59.7296 71.0824L45.6863 57.038C47.071 55.3863 46.854 52.9245 45.2023 51.5403C43.7507 50.3232 41.6345 50.3248 40.1844 51.5434L38.184 49.5429L48.9311 38.8118L50.932 40.8076ZM55.9813 28.2313L27.6153 56.5916C27.3041 56.9022 27.1791 57.3534 27.2851 57.7798C29.0006 64.5167 24.9297 71.3689 18.1923 73.0838C11.4553 74.7993 4.60318 70.7285 2.88769 63.991C1.17272 57.2541 5.24359 50.4019 11.981 48.6865C14.019 48.1679 16.1543 48.1679 18.1923 48.6865C18.6187 48.7909 19.0688 48.6659 19.3805 48.3567L47.7397 19.996C48.0504 19.6853 48.1754 19.2342 48.0684 18.8083C46.3648 12.15 50.3811 5.37145 57.0394 3.66728C58.2976 3.34579 59.599 3.22234 60.8952 3.3031L54.2992 9.90165C53.9644 10.236 53.8471 10.7314 53.9968 11.1804L56.4972 18.6833C56.6222 19.0562 56.9154 19.3494 57.2888 19.4734L64.7917 21.9743C65.2402 22.124 65.7356 22.0072 66.0705 21.6729L72.6665 15.0769C72.6814 15.3156 72.6891 15.5517 72.6891 15.7868C72.7241 22.6574 67.1831 28.2555 60.3124 28.291C59.2502 28.2961 58.1916 28.1655 57.1628 27.9021C56.7364 27.7956 56.2853 27.9201 55.9746 28.2308H55.9813V28.2313Z" fill="#17161A"/>
<path d="M64.822 63.6689L63.0536 65.4374L50.5498 52.9336L52.3178 51.1652L64.822 63.6689Z" fill="#17161A"/>
</g>
<defs>
<clipPath id="clip0_2097_39793">
<rect width="75" height="75" fill="white" transform="translate(0.09375 0.779297)"/>
</clipPath>
</defs>
</svg>
