<svg width="var(--icon-size)" height="var(--icon-size)" viewBox="0 0 46 46" fill="none" xmlns="http://www.w3.org/2000/svg">
<g clip-path="url(#clip0_2492_31666)">
<path d="M23 7.76611C21.4703 7.76611 19.9749 8.21973 18.703 9.06959C17.4311 9.91945 16.4398 11.1274 15.8544 12.5407C15.269 13.9539 15.1158 15.5091 15.4142 17.0094C15.7127 18.5097 16.4493 19.8878 17.531 20.9695C18.6126 22.0512 19.9908 22.7878 21.4911 23.0862C22.9914 23.3847 24.5465 23.2315 25.9598 22.6461C27.3731 22.0607 28.581 21.0694 29.4309 19.7975C30.2808 18.5256 30.7344 17.0302 30.7344 15.5005C30.7321 13.4499 29.9164 11.484 28.4665 10.034C27.0165 8.58406 25.0506 7.76844 23 7.76611ZM23 21.8286C21.7484 21.8286 20.5249 21.4575 19.4843 20.7621C18.4436 20.0668 17.6325 19.0785 17.1536 17.9222C16.6746 16.7658 16.5493 15.4935 16.7935 14.2659C17.0376 13.0384 17.6403 11.9108 18.5253 11.0258C19.4103 10.1408 20.5379 9.53813 21.7654 9.29396C22.993 9.04978 24.2654 9.1751 25.4217 9.65406C26.578 10.133 27.5663 10.9441 28.2616 11.9848C28.957 13.0254 29.3281 14.2489 29.3281 15.5005C29.3262 17.1782 28.6589 18.7867 27.4726 19.9731C26.2862 21.1594 24.6777 21.8267 23 21.8286Z" fill="#D92C0A"/>
<path d="M23 9.87549C21.8875 9.87549 20.7999 10.2054 19.8749 10.8235C18.9499 11.4416 18.2289 12.3201 17.8032 13.3479C17.3774 14.3757 17.266 15.5067 17.4831 16.5979C17.7001 17.689 18.2359 18.6913 19.0225 19.478C19.8092 20.2646 20.8115 20.8004 21.9026 21.0174C22.9938 21.2344 24.1248 21.1231 25.1526 20.6973C26.1804 20.2716 27.0589 19.5506 27.677 18.6256C28.2951 17.7005 28.625 16.613 28.625 15.5005C28.6233 14.0092 28.0302 12.5794 26.9756 11.5249C25.9211 10.4703 24.4913 9.87716 23 9.87549ZM23 19.7192C22.1656 19.7192 21.35 19.4718 20.6562 19.0082C19.9624 18.5447 19.4217 17.8858 19.1024 17.1149C18.7831 16.3441 18.6995 15.4958 18.8623 14.6775C19.0251 13.8591 19.4269 13.1074 20.0169 12.5174C20.6069 11.9274 21.3586 11.5256 22.177 11.3628C22.9953 11.2 23.8436 11.2836 24.6144 11.6029C25.3853 11.9222 26.0442 12.4629 26.5078 13.1567C26.9713 13.8504 27.2188 14.6661 27.2188 15.5005C27.2175 16.619 26.7726 17.6913 25.9817 18.4822C25.1908 19.2731 24.1185 19.718 23 19.7192Z" fill="#17161A"/>
<path d="M33.5469 4.25049H28.3561L27.1449 1.82646C27.0864 1.70972 26.9965 1.61156 26.8854 1.54295C26.7743 1.47435 26.6462 1.43801 26.5156 1.43799H19.4844C19.3538 1.43801 19.2257 1.47435 19.1146 1.54295C19.0035 1.61156 18.9136 1.70972 18.8551 1.82646L17.6439 4.25049H16.6719V2.84424C16.6719 2.65776 16.5978 2.47892 16.4659 2.34705C16.3341 2.21519 16.1552 2.14111 15.9688 2.14111H12.4531C12.2666 2.14111 12.0878 2.21519 11.9559 2.34705C11.8241 2.47892 11.75 2.65776 11.75 2.84424V4.31025C10.7676 4.47753 9.87599 4.98668 9.23268 5.74772C8.58936 6.50877 8.23576 7.47272 8.23438 8.46924V22.5317C8.23556 23.6503 8.68042 24.7226 9.47133 25.5135C10.2622 26.3044 11.3346 26.7493 12.4531 26.7505H13.8594V28.8599C13.8594 29.0463 13.9335 29.2252 14.0653 29.357C14.1972 29.4889 14.376 29.563 14.5625 29.563H15.6682L10.3859 44.0887C10.3474 44.1949 10.335 44.3088 10.3498 44.4208C10.3646 44.5328 10.4062 44.6396 10.4711 44.7322C10.5359 44.8247 10.6221 44.9002 10.7223 44.9524C10.8226 45.0045 10.9339 45.0317 11.0469 45.0317H13.8594C14.0038 45.0317 14.1447 44.9873 14.2629 44.9044C14.3812 44.8215 14.471 44.7043 14.5203 44.5686L19.9766 29.563H20.8906V44.3286C20.8906 44.5151 20.9647 44.6939 21.0966 44.8258C21.2284 44.9577 21.4073 45.0317 21.5938 45.0317H24.4062C24.5927 45.0317 24.7716 44.9577 24.9034 44.8258C25.0353 44.6939 25.1094 44.5151 25.1094 44.3286V29.563H26.0234L31.4797 44.5686C31.529 44.7043 31.6188 44.8215 31.7371 44.9044C31.8553 44.9873 31.9962 45.0317 32.1406 45.0317H34.9531C35.0661 45.0317 35.1774 45.0045 35.2777 44.9524C35.3779 44.9002 35.4641 44.8247 35.5289 44.7322C35.5938 44.6396 35.6354 44.5328 35.6502 44.4208C35.665 44.3088 35.6526 44.1949 35.6141 44.0887L30.3318 29.563H31.4375C31.624 29.563 31.8028 29.4889 31.9347 29.357C32.0665 29.2252 32.1406 29.0463 32.1406 28.8599V26.7505H33.5469C34.6654 26.7493 35.7378 26.3044 36.5287 25.5135C37.3196 24.7226 37.7644 23.6503 37.7656 22.5317V8.46924C37.7644 7.35072 37.3196 6.27835 36.5287 5.48744C35.7378 4.69653 34.6654 4.25167 33.5469 4.25049ZM13.1562 3.54736H15.2656V4.25049H13.1562V3.54736ZM13.3672 43.6255H12.0506L17.1641 29.563H18.4807L13.3672 43.6255ZM23.7031 43.6255H22.2969V29.563H23.7031V43.6255ZM33.9494 43.6255H32.6328L27.5193 29.563H28.8359L33.9494 43.6255ZM30.7344 28.1567H15.2656V26.7505H30.7344V28.1567ZM36.3594 22.5317C36.3584 23.2774 36.0618 23.9922 35.5345 24.5194C35.0073 25.0466 34.2925 25.3433 33.5469 25.3442H12.4531C11.7075 25.3433 10.9927 25.0466 10.4655 24.5194C9.93823 23.9922 9.6416 23.2774 9.64062 22.5317V8.46924C9.6416 7.72362 9.93823 7.00881 10.4655 6.48158C10.9927 5.95434 11.7075 5.65771 12.4531 5.65674H18.0781C18.2087 5.65672 18.3368 5.62038 18.4479 5.55177C18.559 5.48317 18.6489 5.38501 18.7074 5.26826L19.9186 2.84424H26.0814L27.2926 5.26826C27.3511 5.38501 27.441 5.48317 27.5521 5.55177C27.6632 5.62038 27.7913 5.65672 27.9219 5.65674H33.5469C34.2925 5.65771 35.0073 5.95434 35.5345 6.48158C36.0618 7.00881 36.3584 7.72362 36.3594 8.46924V22.5317Z" fill="#17161A"/>
<path d="M15.9688 10.5786V7.76611C15.9688 7.57963 15.8947 7.40079 15.7628 7.26893C15.6309 7.13707 15.4521 7.06299 15.2656 7.06299H11.75C11.5635 7.06299 11.3847 7.13707 11.2528 7.26893C11.121 7.40079 11.0469 7.57963 11.0469 7.76611V10.5786C11.0469 10.7651 11.121 10.9439 11.2528 11.0758C11.3847 11.2077 11.5635 11.2817 11.75 11.2817H15.2656C15.4521 11.2817 15.6309 11.2077 15.7628 11.0758C15.8947 10.9439 15.9688 10.7651 15.9688 10.5786ZM14.5625 9.87549H12.4531V8.46924H14.5625V9.87549Z" fill="#D92C0A"/>
<path d="M32.8438 19.7192C32.4266 19.7192 32.0187 19.843 31.6718 20.0747C31.325 20.3065 31.0546 20.636 30.8949 21.0214C30.7353 21.4068 30.6935 21.831 30.7749 22.2401C30.8563 22.6493 31.0572 23.0252 31.3522 23.3202C31.6472 23.6152 32.0231 23.8161 32.4322 23.8975C32.8414 23.9789 33.2655 23.9371 33.651 23.7774C34.0364 23.6178 34.3659 23.3474 34.5976 23.0005C34.8294 22.6536 34.9531 22.2458 34.9531 21.8286C34.9525 21.2694 34.73 20.7332 34.3346 20.3378C33.9391 19.9423 33.403 19.7199 32.8438 19.7192ZM32.8438 22.5317C32.7047 22.5317 32.5687 22.4905 32.4531 22.4132C32.3375 22.336 32.2474 22.2262 32.1942 22.0977C32.1409 21.9692 32.127 21.8278 32.1541 21.6914C32.1813 21.555 32.2482 21.4298 32.3466 21.3314C32.4449 21.2331 32.5702 21.1661 32.7066 21.139C32.843 21.1119 32.9843 21.1258 33.1128 21.179C33.2413 21.2322 33.3511 21.3224 33.4284 21.438C33.5056 21.5536 33.5469 21.6896 33.5469 21.8286C33.5467 22.015 33.4725 22.1938 33.3407 22.3256C33.2089 22.4574 33.0302 22.5315 32.8438 22.5317Z" fill="#D92C0A"/>
</g>
<defs>
<clipPath id="clip0_2492_31666">
<rect width="45" height="45" fill="white" transform="translate(0.5 0.734863)"/>
</clipPath>
</defs>
</svg>
