<svg width="60" height="46" viewBox="0 0 60 46" fill="none" xmlns="http://www.w3.org/2000/svg">
<path d="M7.88867 45.7544H52.1101C56.4598 45.7544 60 42.2421 60 37.9289V14.7447C60 10.4338 56.4683 6.92761 52.1271 6.91911L52.1878 6.9179V5.70183C52.2303 5.03311 51.7982 4.49062 51.1271 4.49062H46.8793C46.2082 4.49062 45.6657 5.03311 45.6657 5.70426V6.9179H44.0964C43.4484 3.24663 40.2176 0.444336 36.3328 0.444336H23.666C19.7824 0.444336 16.5529 3.24663 15.9036 6.9179H7.88867C3.53898 6.9179 0 10.429 0 14.7447V37.9289C0 42.2421 3.53898 45.7544 7.88867 45.7544ZM2.60811 14.7447C2.60811 11.8671 4.97714 9.52723 7.88867 9.52723H15.7773H18.3855L18.5881 6.9179C19.1962 4.69936 21.2314 3.05366 23.666 3.05366H36.3328C38.7686 3.05366 40.8038 4.69815 41.4119 6.9179L41.6145 9.52723H44.2227H52.1101C55.0229 9.52723 57.3919 11.8671 57.3919 14.7447V37.9289C57.3919 40.8052 55.0229 43.1463 52.1101 43.1463H7.88867C4.97836 43.1463 2.60811 40.8052 2.60811 37.9289V14.7447ZM22.1344 8.93983H37.6836C38.2285 8.93983 38.669 8.49927 38.669 7.95435C38.669 7.40942 38.2285 6.96887 37.6836 6.96887H22.1344C21.5907 6.96887 21.1489 7.40942 21.1489 7.95435C21.1489 8.49927 21.5907 8.93983 22.1344 8.93983ZM30.0012 40.8901C38.1193 40.8901 44.7251 34.2855 44.7251 26.1663C44.7251 18.0482 38.1205 11.4424 30.0012 11.4424C21.882 11.4424 15.2773 18.047 15.2773 26.1663C15.2773 34.2855 21.882 40.8901 30.0012 40.8901ZM30.0012 13.9073C36.7612 13.9073 42.2602 19.4063 42.2602 26.1675C42.2602 32.9274 36.7612 38.4277 30.0012 38.4277C23.2412 38.4277 17.741 32.9287 17.741 26.1675C17.741 19.4063 23.24 13.9073 30.0012 13.9073ZM22.2412 26.9879C22.2412 22.1054 26.2122 18.1344 31.0947 18.1344C31.5486 18.1344 31.9163 17.7666 31.9163 17.3127C31.9163 16.8588 31.5486 16.4911 31.0947 16.4911C25.3081 16.4911 20.5991 21.2 20.5991 26.9867C20.5991 27.4406 20.9669 27.8083 21.4208 27.8083C21.8735 27.8095 22.2412 27.4418 22.2412 26.9879Z" fill="#17161A"/>
</svg>
