<svg width="60" height="62" viewBox="0 0 60 62" fill="none" xmlns="http://www.w3.org/2000/svg">
<path d="M30 0.0996094C13.42 0.0996094 0 13.8284 0 30.7952C0 47.7596 13.4177 61.4907 30 61.4907C46.58 61.4907 60 47.762 60 30.7952C60 13.8307 46.5823 0.0996094 30 0.0996094ZM54.757 43.4402C39.2863 16.0228 40.5156 18.1347 40.0764 17.5784H54.4695C58.5605 25.4841 58.7767 35.2211 54.757 43.4402ZM38.5952 41.9959C37.8914 43.2396 36.5822 44.0119 35.1773 44.0119C33.7718 44.0119 25.7297 44.0119 24.8225 44.0119C23.4159 44.0119 22.1053 43.2375 21.4021 41.9912L16.2246 32.8158C15.5214 31.5694 15.5214 30.0208 16.2246 28.7745L21.4021 19.5991C22.1053 18.3527 23.4161 17.5784 24.8225 17.5784H35.1773C36.5839 17.5784 37.8947 18.3528 38.5978 19.5991L43.7753 28.7745C44.4785 30.0209 44.4785 31.5695 43.7753 32.8158C43.1204 33.9765 39.1648 40.9867 38.5952 41.9959ZM28.3166 2.5489L27.8865 3.31101C27.5629 3.88452 27.7549 4.61785 28.3154 4.94891C28.8734 5.27853 29.5913 5.08608 29.9162 4.51006L31.0407 2.51712C40.2619 2.86377 48.2837 7.80096 53.0749 15.1802C53.0609 15.1802 24.551 15.1453 23.8515 15.2579L25.2431 12.7919C25.5668 12.2184 25.3747 11.485 24.8142 11.154C24.2539 10.823 23.5371 11.0193 23.2134 11.5928C20.4581 16.4492 14.1252 27.5452 13.7753 28.4747L6.58055 15.7245C11.2336 8.18717 19.1815 3.10646 28.3166 2.5489ZM5.24297 18.15C12.3413 30.7748 19.3118 43.2369 19.9236 44.0119H5.53066C1.43941 36.106 1.22332 26.3691 5.24297 18.15ZM6.92508 46.41C37.8636 46.41 35.4584 46.4433 36.1484 46.3323L28.9852 59.0272C28.9766 59.0424 28.9684 59.0577 28.9605 59.0731C19.7389 58.7268 11.7159 53.7887 6.92508 46.41ZM31.6834 59.0414C47.1429 31.6441 45.9738 33.7826 46.2248 33.1154L53.4195 45.8657C48.7571 53.4183 40.8022 58.485 31.6834 59.0414Z" fill="#17161A"/>
<path d="M26.4658 9.42488H26.4687C27.116 9.42488 27.6391 8.88819 27.6391 8.22611C27.6391 7.56403 27.113 7.02734 26.4658 7.02734C25.8186 7.02734 25.2939 7.56403 25.2939 8.22611C25.2939 8.88819 25.8186 9.42488 26.4658 9.42488Z" fill="#17161A"/>
</svg>
