<svg width="16" height="17" viewBox="0 0 16 17" fill="none" xmlns="http://www.w3.org/2000/svg">
<g clip-path="url(#clip0_2097_12734)">
<path d="M8 0.116211C4.62047 0.116211 0 2.67054 0 8.11621C0 13.4233 4.44409 16.1162 8 16.1162C14.1008 16.1162 16 10.7713 16 8.11621C16 4.1981 13.0016 0.116211 8 0.116211ZM6.14488 0.868967C5.31024 1.58078 4.61732 2.75873 4.17008 4.22015C3.59055 3.87684 3.05827 3.45164 2.58583 2.95716C3.5622 1.93353 4.79685 1.21542 6.14488 0.868967ZM2.24252 3.34141C2.77165 3.89259 3.37323 4.36188 4.02835 4.73353C3.78268 5.68786 3.6378 6.74613 3.6189 7.85794H0.522835C0.579528 6.1981 1.18425 4.61385 2.24252 3.34141ZM2.24252 12.891C1.1811 11.6186 0.579528 10.0343 0.522835 8.37448H3.6189C3.6378 9.48944 3.78268 10.5446 4.02835 11.4989C3.37638 11.8737 2.7748 12.3398 2.24252 12.891ZM2.58583 13.2784C3.05827 12.7839 3.59055 12.3587 4.17008 12.0154C4.61732 13.4737 5.31024 14.6548 6.14488 15.3666C4.79685 15.017 3.5622 14.2989 2.58583 13.2784ZM7.74173 15.5808C6.4 15.4107 5.24409 13.9115 4.62047 11.7635C5.58425 11.2753 6.64882 11.0013 7.74173 10.9603V15.5808ZM7.74173 10.4469C6.60157 10.4847 5.49291 10.765 4.48819 11.2564C4.27717 10.3745 4.15118 9.40125 4.13228 8.37448H7.74173V10.4469ZM7.74173 7.85794H4.13228C4.15118 6.83117 4.27717 5.85794 4.48819 4.97605C5.49606 5.46739 6.60472 5.74771 7.74173 5.7855V7.85794ZM7.74173 5.27212C6.64567 5.23432 5.58425 4.95716 4.62047 4.46897C5.24409 2.31779 6.4 0.821723 7.74173 0.651644V5.27212ZM13.7575 3.34141C14.8157 4.61385 15.4205 6.1981 15.4772 7.85794H12.3843C12.3654 6.74298 12.2205 5.68786 11.9748 4.73353C12.6268 4.35873 13.2283 3.89259 13.7575 3.34141ZM13.4142 2.95401C12.9417 3.44849 12.4094 3.87369 11.8299 4.217C11.3827 2.75873 10.6898 1.58078 9.85512 0.865817C11.2031 1.21542 12.4378 1.93353 13.4142 2.95401ZM8.25827 0.651644C9.6 0.821723 10.7559 2.32094 11.3795 4.46897C10.4157 4.95716 9.35433 5.23117 8.25827 5.27212V0.651644ZM8.25827 5.7855C9.39843 5.74771 10.5071 5.46739 11.5118 4.97605C11.7228 5.85794 11.8488 6.83117 11.8677 7.85794H8.25827V5.7855ZM8.25827 8.37448H11.8677C11.8488 9.40125 11.7228 10.3745 11.5118 11.2564C10.5071 10.7619 9.39843 10.4816 8.25827 10.4469V8.37448ZM8.25827 15.5808V10.9603C9.35433 10.9981 10.4157 11.2753 11.3795 11.7635C10.7559 13.9146 9.6 15.4107 8.25827 15.5808ZM9.85512 15.3635C10.6898 14.6516 11.3827 13.4737 11.8299 12.0123C12.4094 12.3556 12.9417 12.7808 13.4142 13.2753C12.4378 14.2989 11.2031 15.017 9.85512 15.3635ZM13.7575 12.891C13.2283 12.3398 12.6268 11.8737 11.9748 11.4989C12.2205 10.5446 12.3654 9.48629 12.3843 8.37448H15.4772C15.4205 10.0343 14.8157 11.6186 13.7575 12.891Z" fill="#17161A"/>
</g>
<defs>
<clipPath id="clip0_2097_12734">
<rect width="16" height="16" fill="white" transform="translate(0 0.116211)"/>
</clipPath>
</defs>
</svg>
