<svg width="16" height="17" viewBox="0 0 16 17" fill="none" xmlns="http://www.w3.org/2000/svg">
<g clip-path="url(#clip0_2097_12741)">
<path d="M2.81409 12.4896C2.59009 12.4896 2.37476 12.5455 2.18372 12.6505C1.17737 11.3605 0.625 9.75793 0.625 8.11621C0.625 4.04956 3.93335 0.741211 8 0.741211C8.49438 0.741211 8.98853 0.790405 9.46875 0.887451C9.6377 0.921631 9.80273 0.812256 9.83691 0.643066C9.87109 0.473877 9.76172 0.309082 9.59253 0.27478C9.07166 0.169556 8.53589 0.116211 8 0.116211C5.86316 0.116211 3.85413 0.948364 2.34314 2.45935C0.832153 3.97034 0 5.97937 0 8.11621C0 9.9137 0.610352 11.6678 1.72156 13.0741C1.57849 13.2878 1.50159 13.5391 1.50159 13.8021C1.50159 14.1527 1.63818 14.4823 1.88611 14.7301C2.13391 14.978 2.4635 15.1146 2.81409 15.1146C3.16467 15.1146 3.49426 14.978 3.74219 14.7301C3.99011 14.4823 4.12659 14.1526 4.12659 13.802C4.12659 13.4515 3.99011 13.1218 3.74219 12.874C3.49426 12.6261 3.16467 12.4896 2.81409 12.4896ZM3.30017 14.2882C3.17041 14.4181 2.99768 14.4896 2.81409 14.4896C2.63049 14.4896 2.45789 14.4181 2.328 14.2882C2.19812 14.1583 2.12659 13.9857 2.12659 13.8021C2.12659 13.6184 2.19812 13.4458 2.328 13.3159C2.45776 13.186 2.63049 13.1146 2.81409 13.1146C2.99768 13.1146 3.17029 13.1862 3.30017 13.3159C3.43005 13.4458 3.50159 13.6184 3.50159 13.8021C3.50159 13.9857 3.43005 14.1583 3.30017 14.2882Z" fill="#17161A"/>
<path d="M14.2787 3.15784C14.6184 2.64819 14.5639 1.95142 14.1145 1.50208C13.8666 1.25427 13.537 1.11768 13.1864 1.11768C12.8358 1.11768 12.5062 1.25427 12.2583 1.50208C12.0104 1.75 11.8739 2.07959 11.8739 2.43018C11.8739 2.78076 12.0104 3.11035 12.2583 3.35828C12.5062 3.6062 12.8358 3.74268 13.1864 3.74268C13.4104 3.74268 13.6257 3.68677 13.8168 3.58179C14.8231 4.87195 15.3755 6.47437 15.3755 8.11609C15.3755 12.1827 12.0672 15.4911 8.0005 15.4911C7.511 15.4911 7.0215 15.4429 6.54579 15.3477C6.3766 15.3138 6.21193 15.4236 6.17799 15.5928C6.14418 15.7621 6.25392 15.9266 6.42311 15.9606C6.9391 16.0637 7.46986 16.1161 8.0005 16.1161C10.1373 16.1161 12.1464 15.2839 13.6574 13.7729C15.1684 12.262 16.0005 10.2529 16.0005 8.11609C16.0005 6.31848 15.39 4.56421 14.2787 3.15784ZM12.7003 2.91638C12.5704 2.7865 12.4989 2.61389 12.4989 2.43018C12.4989 2.24658 12.5704 2.07397 12.7003 1.94409C12.8301 1.81421 13.0028 1.74268 13.1864 1.74268C13.37 1.74268 13.5427 1.81421 13.6726 1.94409C13.9406 2.21216 13.9406 2.64832 13.6726 2.91638C13.5427 3.04614 13.37 3.11768 13.1864 3.11768C13.0027 3.11768 12.8301 3.04614 12.7003 2.91638Z" fill="#17161A"/>
<path d="M6.71094 13.4912C6.71094 13.6638 6.85095 13.8037 7.02344 13.8037H8.97742C9.15002 13.8037 9.28992 13.6638 9.28992 13.4912V12.8854C9.70081 12.7748 10.0936 12.6119 10.4628 12.3993L10.8905 12.827C10.9491 12.8856 11.0286 12.9186 11.1116 12.9186C11.1943 12.9186 11.2739 12.8856 11.3325 12.8269L12.7136 11.4448C12.8356 11.3228 12.8356 11.1249 12.7136 11.0029L12.2864 10.5757C12.499 10.2065 12.6619 9.81372 12.7725 9.40283H13.376C13.5486 9.40283 13.6885 9.26294 13.6885 9.09033V7.13635C13.6885 6.96375 13.5486 6.82385 13.376 6.82385H12.7723C12.6617 6.41309 12.499 6.02026 12.2864 5.65112L12.7113 5.2262C12.7699 5.1676 12.8029 5.08801 12.8029 5.00513C12.8027 4.92224 12.7698 4.84265 12.7112 4.78406L11.329 3.40295C11.207 3.28101 11.0092 3.28101 10.8871 3.40308L10.4628 3.82751C10.0936 3.61487 9.70081 3.45203 9.28992 3.34143V2.74121C9.28992 2.5686 9.15002 2.42871 8.97742 2.42871H7.02344C6.85095 2.42871 6.71094 2.5686 6.71094 2.74121V3.34155C6.30017 3.45203 5.90735 3.61487 5.53821 3.82751L5.11377 3.40308C4.99182 3.28113 4.79395 3.28101 4.67188 3.40295L3.2898 4.78418C3.23108 4.84277 3.19812 4.92224 3.19812 5.00513C3.19812 5.08801 3.23108 5.1676 3.28967 5.2262L3.7146 5.65112C3.50195 6.02026 3.33911 6.41296 3.22852 6.82385H2.6261C2.45349 6.82385 2.3136 6.96375 2.3136 7.13623L2.3125 9.09021C2.31238 9.1731 2.34534 9.25269 2.40393 9.31128C2.46252 9.36987 2.54199 9.40283 2.625 9.40283H3.22852C3.33911 9.81372 3.50195 10.2065 3.7146 10.5757L3.28735 11.0029C3.16541 11.1249 3.16528 11.3228 3.28735 11.4448L4.66846 12.8269C4.72705 12.8855 4.80652 12.9186 4.8894 12.9186H4.88953C4.97241 12.9186 5.05188 12.8856 5.11047 12.827L5.53809 12.3993C5.90735 12.6119 6.30017 12.7748 6.71094 12.8854V13.4912ZM5.66064 11.7421C5.53699 11.6621 5.37427 11.6794 5.27002 11.7836L4.88953 12.1641L3.9502 11.224L4.33032 10.8438C4.43445 10.7396 4.45178 10.5769 4.37183 10.4532C4.0885 10.0148 3.88928 9.53418 3.77991 9.02466C3.7489 8.88074 3.6217 8.77783 3.47437 8.77783H2.93762L2.93835 7.44885H3.47437C3.6217 7.44885 3.7489 7.34607 3.77991 7.20203C3.88928 6.69263 4.0885 6.21204 4.37183 5.77356C4.45178 5.6499 4.43445 5.48718 4.33032 5.38306L3.95264 5.00525L4.8927 4.06592L5.27002 4.44336C5.37427 4.54749 5.53687 4.5647 5.66064 4.48486C6.099 4.20154 6.57959 4.00232 7.08911 3.89294C7.23303 3.86194 7.33594 3.73462 7.33594 3.5874V3.05371H8.66492V3.58728C8.66492 3.73462 8.7677 3.86194 8.91174 3.89282C9.42114 4.00232 9.90186 4.20142 10.3402 4.48474C10.4639 4.5647 10.6266 4.54749 10.7307 4.44324L11.1082 4.06592L12.0482 5.00525L11.6705 5.38293C11.5663 5.48718 11.5491 5.6499 11.629 5.77356C11.9124 6.21204 12.1115 6.69263 12.2209 7.20203C12.2518 7.34607 12.3792 7.44885 12.5265 7.44885H13.0635V8.77783H12.5265C12.3792 8.77783 12.252 8.88074 12.2209 9.02466C12.1116 9.53406 11.9124 10.0148 11.629 10.4531C11.5491 10.5769 11.5664 10.7396 11.6705 10.8438L12.0507 11.2239L11.1113 12.1639L10.7308 11.7836C10.6266 11.6793 10.4639 11.6621 10.3402 11.7421C9.90173 12.0254 9.42114 12.2245 8.91174 12.334C8.7677 12.365 8.66492 12.4922 8.66492 12.6395V13.1787H7.33594V12.6395C7.33594 12.4923 7.23303 12.365 7.08911 12.334C6.57971 12.2246 6.09912 12.0254 5.66064 11.7421Z" fill="#17161A"/>
<path d="M10.5823 8.11633C10.5823 6.6925 9.42395 5.53418 8.00012 5.53418C6.57629 5.53418 5.41797 6.6925 5.41797 8.11633C5.41797 9.54016 6.57629 10.6985 8.00012 10.6985C9.42395 10.6985 10.5823 9.54016 10.5823 8.11633ZM6.04297 8.11633C6.04297 7.03711 6.9209 6.15918 8.00012 6.15918C9.07935 6.15918 9.95728 7.03723 9.95728 8.11633C9.95728 9.19543 9.07935 10.0735 8.00012 10.0735C6.9209 10.0735 6.04297 9.19556 6.04297 8.11633Z" fill="#17161A"/>
<path d="M10.877 1.29822C10.9592 1.29822 11.0398 1.26477 11.0979 1.20667C11.156 1.14819 11.1895 1.06763 11.1895 0.985352C11.1895 0.903564 11.1561 0.822876 11.0979 0.764404C11.0398 0.706299 10.9592 0.672852 10.877 0.672852C10.7944 0.672852 10.7142 0.706299 10.6561 0.764404C10.5979 0.822876 10.5645 0.903198 10.5645 0.985352C10.5645 1.06787 10.5979 1.14819 10.6561 1.20667C10.7142 1.26477 10.7944 1.29822 10.877 1.29822Z" fill="#17161A"/>
<path d="M5.13672 14.9399C5.05457 14.9399 4.97388 14.9734 4.91577 15.0315C4.85767 15.0896 4.82422 15.1703 4.82422 15.2524C4.82422 15.335 4.85767 15.4153 4.91577 15.4734C4.97388 15.5315 5.05457 15.5649 5.13672 15.5649C5.21887 15.5649 5.29956 15.5315 5.35767 15.4734C5.41577 15.4153 5.44922 15.3346 5.44922 15.2524C5.44922 15.1703 5.41577 15.0896 5.35767 15.0315C5.29956 14.9734 5.21887 14.9399 5.13672 14.9399Z" fill="#17161A"/>
</g>
<defs>
<clipPath id="clip0_2097_12741">
<rect width="16" height="16" fill="white" transform="translate(0 0.116211)"/>
</clipPath>
</defs>
</svg>
