<svg width="76" height="76" viewBox="0 0 76 76" fill="none" xmlns="http://www.w3.org/2000/svg">
<g clip-path="url(#clip0_2097_39757)">
<path d="M30.0911 53.423C29.8078 53.423 29.5224 53.3256 29.2895 53.1272L21.2771 46.3047C21.0007 46.069 20.8418 45.7249 20.8418 45.3615C20.8418 44.9987 21.0014 44.6546 21.2771 44.419L29.2895 37.5964C29.8098 37.1528 30.5913 37.2157 31.0349 37.736C31.4778 38.257 31.4156 39.0385 30.8946 39.4814L23.9898 45.3615L30.8946 51.2416C31.4156 51.6852 31.4778 52.4667 31.0349 52.987C30.7896 53.2751 30.4414 53.423 30.0911 53.423Z" fill="#17161A"/>
<path d="M45.9097 53.423C45.5594 53.423 45.2112 53.2751 44.9666 52.987C44.523 52.4667 44.5858 51.6852 45.1061 51.2416L52.0109 45.3615L45.1061 39.4814C44.5858 39.0385 44.523 38.257 44.9666 37.736C45.4095 37.2157 46.1916 37.1528 46.7112 37.5964L54.7237 44.419C55 44.6546 55.159 44.9987 55.159 45.3615C55.159 45.7249 55 46.069 54.7237 46.3047L46.7112 53.1272C46.4784 53.3256 46.193 53.423 45.9097 53.423Z" fill="#17161A"/>
<path d="M35.163 58.539C35.078 58.539 34.9923 58.5301 34.906 58.5121C34.2371 58.3711 33.8087 57.714 33.9497 57.0452L38.9433 33.3362C39.0842 32.6673 39.7406 32.2389 40.4102 32.3799C41.079 32.5208 41.5074 33.1772 41.3665 33.8468L36.3729 57.5558C36.2499 58.139 35.7358 58.539 35.163 58.539Z" fill="#17161A"/>
<path d="M67.1863 71.4564H8.81368C4.22982 71.4564 0.5 67.7273 0.5 63.1427V13.5992C0.5 9.01535 4.22982 5.28552 8.81368 5.28552H67.1863C71.7702 5.28552 75.5 9.01535 75.5 13.5992V63.1427C75.5 67.7273 71.7702 71.4564 67.1863 71.4564ZM8.81368 7.76194C5.59517 7.76194 2.97642 10.3807 2.97642 13.5992V63.1427C2.97642 66.3612 5.59517 68.98 8.81368 68.98H67.1863C70.4048 68.98 73.0236 66.3612 73.0236 63.1427V13.5992C73.0236 10.3807 70.4048 7.76194 67.1863 7.76194H8.81368Z" fill="#17161A"/>
<path d="M74.2618 25.1128H1.73821C1.05415 25.1128 0.5 24.5586 0.5 23.8746C0.5 23.1912 1.05415 22.6364 1.73821 22.6364H74.2618C74.9458 22.6364 75.5 23.1912 75.5 23.8746C75.5 24.5586 74.9458 25.1128 74.2618 25.1128Z" fill="#17161A"/>
<path d="M21.6558 19.1874C19.4958 19.1874 17.7373 17.4289 17.7373 15.2689C17.7373 13.1083 19.4958 11.3505 21.6558 11.3505C23.8164 11.3505 25.5742 13.1083 25.5742 15.2689C25.5742 17.4289 23.8164 19.1874 21.6558 19.1874ZM21.6558 13.8269C20.8612 13.8269 20.2137 14.4736 20.2137 15.2689C20.2137 16.0642 20.8612 16.711 21.6558 16.711C22.4511 16.711 23.0978 16.0642 23.0978 15.2689C23.0978 14.4736 22.4511 13.8269 21.6558 13.8269Z" fill="#17161A"/>
<path d="M9.6167 19.1494C7.45605 19.1494 5.69824 17.3916 5.69824 15.231C5.69824 13.0703 7.45605 11.3125 9.6167 11.3125C11.7773 11.3125 13.5352 13.0703 13.5352 15.231C13.5352 17.3916 11.7773 19.1494 9.6167 19.1494ZM9.6167 13.7889C8.82209 13.7889 8.17466 14.4363 8.17466 15.231C8.17466 16.0263 8.82209 16.673 9.6167 16.673C10.412 16.673 11.0587 16.0263 11.0587 15.231C11.0587 14.4363 10.412 13.7889 9.6167 13.7889Z" fill="#17161A"/>
<path d="M33.6951 19.2248C31.5352 19.2248 29.7773 17.467 29.7773 15.3063C29.7773 13.1464 31.5352 11.3885 33.6951 11.3885C35.8558 11.3885 37.6136 13.1464 37.6136 15.3063C37.6136 17.467 35.8558 19.2248 33.6951 19.2248ZM33.6951 13.8643C32.9005 13.8643 32.2538 14.511 32.2538 15.3063C32.2538 16.1016 32.9005 16.7484 33.6951 16.7484C34.4904 16.7484 35.1372 16.1016 35.1372 15.3063C35.1372 14.511 34.4904 13.8643 33.6951 13.8643Z" fill="#17161A"/>
</g>
<defs>
<clipPath id="clip0_2097_39757">
<rect width="75" height="75" fill="white" transform="translate(0.5 0.863281)"/>
</clipPath>
</defs>
</svg>
