<svg width="76" height="76" viewBox="0 0 76 76" fill="none" xmlns="http://www.w3.org/2000/svg">
<g clip-path="url(#clip0_2097_39778)">
<path d="M17.2373 14.1781C17.844 14.1781 18.3359 13.6863 18.3359 13.0795C18.3359 12.4728 17.844 11.9809 17.2373 11.9809C16.6305 11.9809 16.1386 12.4728 16.1386 13.0795C16.1386 13.6863 16.6304 14.1781 17.2373 14.1781ZM8.44819 14.1781C9.05493 14.1781 9.54683 13.6863 9.54683 13.0795C9.54683 12.4728 9.05493 11.9809 8.44819 11.9809C7.84145 11.9809 7.34956 12.4728 7.34956 13.0795C7.34956 13.6863 7.84131 14.1781 8.44819 14.1781ZM12.8427 14.1781C13.4495 14.1781 13.9414 13.6863 13.9414 13.0795C13.9414 12.4728 13.4495 11.9809 12.8427 11.9809C12.236 11.9809 11.7441 12.4728 11.7441 13.0795C11.7441 13.6863 12.2358 14.1781 12.8427 14.1781ZM12.6018 25.8168C12.6085 25.8169 12.6152 25.8169 12.622 25.8169L22.5549 25.8194H22.5555C23.2418 25.8194 23.8244 25.3748 24.0056 24.713C24.1869 24.0509 23.9117 23.3714 23.321 23.022L21.8104 22.1281C24.2385 19.7216 25.6041 16.438 25.5825 12.9976C25.539 6.11755 19.9078 0.439966 13.0298 0.340943C5.90259 0.23855 0.102539 6.00374 0.102539 13.0798C0.102539 19.8654 5.69356 25.6698 12.6018 25.8168V25.8168ZM5.44189 5.57102C7.46777 3.57415 10.1455 2.49822 12.9983 2.53792C18.6896 2.6198 23.3492 7.31814 23.3852 13.0114C23.4047 16.083 22.0875 19.0041 19.7713 21.0253C19.384 21.3631 19.1811 21.87 19.228 22.3814C19.2749 22.8925 19.5668 23.3536 20.0084 23.6148L20.0194 23.6213L12.6328 23.6195C6.92256 23.5099 2.2998 18.8057 2.2998 13.0798C2.2998 10.2349 3.41572 7.56834 5.44189 5.57102V5.57102ZM74.0039 73.1424H72.9053V56.7815C72.9053 52.4951 70.3724 48.6027 66.4402 46.8597L60.6502 44.3781C62.0591 43.9335 63.3319 43.1408 64.3676 42.0411C65.9301 40.3822 66.8262 38.1311 66.8262 35.8652C66.8262 33.783 66.0987 31.8178 64.7222 30.1814C63.0004 28.1369 62.0522 25.5386 62.0522 22.8647V17.6C62.0522 12.989 60.2565 8.65481 56.996 5.39597C53.7356 2.13523 49.401 0.339624 44.7905 0.339624C35.2731 0.339624 27.5303 8.0825 27.5303 17.5999V22.6931C27.5309 25.4599 26.4435 28.1009 24.6766 30.2298C22.4528 32.909 21.9908 36.5314 23.471 39.6833C24.5697 42.0229 26.5513 43.7038 28.9236 44.4153L23.1741 46.9155C19.1404 48.613 16.5338 52.5374 16.5338 56.9135V69.8466C16.5338 70.4533 17.0256 70.9452 17.6325 70.9452C18.2394 70.9452 18.7311 70.4533 18.7311 69.8466V56.9135C18.7311 53.424 20.8096 50.2943 24.0384 48.9357L31.2451 45.8018V52.4148H27.9341C27.001 52.4148 26.1079 52.8127 25.4837 53.5064C24.8597 54.2002 24.5583 55.1302 24.6567 56.058L26.4677 73.1424H1.20117C0.594287 73.1424 0.102539 73.6343 0.102539 74.241C0.102539 74.8477 0.594287 75.3396 1.20117 75.3396H74.0039C74.6108 75.3396 75.1025 74.8477 75.1025 74.241C75.1025 73.6343 74.6108 73.1424 74.0039 73.1424V73.1424ZM63.0412 31.5962C64.0799 32.831 64.6289 34.3072 64.6289 35.865C64.6289 37.577 63.9507 39.2788 62.7681 40.5345C61.516 41.8638 59.7958 42.596 57.9245 42.596H56.4927L54.612 41.7899C52.9692 41.0853 51.8454 39.5749 51.6157 37.8363C55.0055 36.0111 57.3151 32.4289 57.3151 28.3167V20.0574C57.6366 20.0793 57.9579 20.0911 58.2782 20.0911C58.8066 20.0911 59.3329 20.0611 59.8551 20.0019V22.8645C59.855 26.0555 60.9867 29.1566 63.0412 31.5962V31.5962ZM45.0576 48.9401C41.1272 49.0096 37.2265 48.5116 33.4424 47.462V44.8463L33.7601 44.7081C33.7626 44.7071 33.7651 44.7059 33.7677 44.7049L35.7277 43.8527C37.9094 42.9042 39.4512 40.9615 39.9186 38.6913C40.8753 38.9695 41.885 39.1215 42.9303 39.1215H46.5103C47.5595 39.1215 48.573 38.9683 49.533 38.6881C50.0158 40.9479 51.5634 42.8731 53.7461 43.8095L55.8379 44.7059C55.8393 44.7065 55.8406 44.7071 55.8419 44.7075L55.9969 44.7739V47.2461C52.4413 48.3055 48.7654 48.8753 45.0576 48.9401V48.9401ZM55.9966 49.5336V52.415H33.4424V49.7372C37.004 50.6711 40.6608 51.1436 44.3424 51.1436C44.5935 51.1436 44.8447 51.1414 45.0959 51.137C48.7859 51.0726 52.4457 50.5334 55.9966 49.5336V49.5336ZM59.855 17.7865C56.8288 18.1953 53.4176 17.3847 51.0674 15.5637C50.5879 15.1923 49.8979 15.2796 49.5261 15.7593C49.1544 16.2389 49.242 16.929 49.7216 17.3006C51.2581 18.4909 53.1113 19.3294 55.1178 19.7522V25.7333C54.5899 26.9365 54.0022 27.9371 52.6772 29.0302C52.1194 29.4905 51.5089 29.8726 50.855 30.1759C50.321 29.1339 49.2366 28.4188 47.9877 28.4188H45.4131C43.6373 28.4188 42.1926 29.8635 42.1926 31.6392C42.1926 33.4149 43.6373 34.8597 45.4131 34.8597H47.9877C49.4821 34.8597 50.7419 33.8364 51.1036 32.4538C52.5732 31.8938 54.9696 29.8961 54.9702 29.8953C54.2262 33.8895 50.717 36.9237 46.5104 36.9237H42.9302C38.1841 36.9237 34.3228 33.0625 34.3228 28.3162V19.824C38.0542 19.239 41.5793 17.9763 44.8122 16.0641C49.7347 13.1525 52.8921 9.34768 54.7976 6.34167C58.0579 9.24543 59.9125 13.4084 59.855 17.7865V17.7865ZM49.0106 31.6423C49.009 32.2052 48.5508 32.6627 47.9875 32.6627H45.4129C44.8487 32.6627 44.3897 32.2036 44.3897 31.6395C44.3897 31.0754 44.8488 30.6163 45.4129 30.6163H47.9875C48.5506 30.6163 49.0087 31.0735 49.0106 31.6362V31.6423ZM29.7275 17.5999C29.7275 9.29407 36.4847 2.53689 44.7905 2.53689C47.7693 2.53689 50.6158 3.39675 53.0481 4.99753C51.2946 7.80842 48.3431 11.4231 43.6935 14.1735C40.5038 16.0602 37.005 17.2647 33.294 17.7537H33.2254C33.225 17.7537 33.2246 17.7537 33.224 17.7537C33.2234 17.7537 33.2231 17.7537 33.2225 17.7537H29.7274V17.5999H29.7275ZM25.4597 38.7493C24.3457 36.3765 24.6935 33.6497 26.366 31.6347C28.4647 29.1062 29.7299 25.982 29.7275 22.6931V19.951H32.1255V28.3167C32.1255 32.4313 34.438 36.0152 37.8309 37.8393C37.6187 39.5911 36.4982 41.1215 34.8514 41.8375L33.1071 42.596H31.5146C28.894 42.596 26.574 41.122 25.4597 38.7493V38.7493ZM63.7049 55.8266L61.8693 73.1424H28.6772L26.8417 55.8266C26.8084 55.5127 26.9063 55.2106 27.1173 54.9761C27.3284 54.7414 27.6186 54.6122 27.9341 54.6122H62.6124C62.9279 54.6122 63.2181 54.7414 63.4292 54.9761C63.6403 55.2106 63.7381 55.5127 63.7049 55.8266ZM70.708 73.1424H64.0789L65.8898 56.0583C65.9883 55.1303 65.6867 54.2003 65.0628 53.5066C64.4386 52.8128 63.5457 52.415 62.6124 52.415H58.1938V45.7158L65.5622 48.8739C68.6881 50.2596 70.708 53.3635 70.708 56.7815V73.1424ZM45.2732 59.7024C42.9712 59.7024 41.0984 61.5752 41.0984 63.8772C41.0984 66.1792 42.9712 68.052 45.2732 68.052C47.5752 68.052 49.448 66.1792 49.448 63.8772C49.448 61.5752 47.5752 59.7024 45.2732 59.7024ZM45.2732 65.8548C44.1828 65.8548 43.2957 64.9677 43.2957 63.8772C43.2957 62.7868 44.1828 61.8997 45.2732 61.8997C46.3636 61.8997 47.2507 62.7868 47.2507 63.8772C47.2507 64.9677 46.3638 65.8548 45.2732 65.8548Z" fill="#17161A"/>
</g>
<defs>
<clipPath id="clip0_2097_39778">
<rect width="75" height="75" fill="white" transform="translate(0.102539 0.339844)"/>
</clipPath>
</defs>
</svg>
