<svg width="15" height="15" viewBox="0 0 15 15" fill="none" xmlns="http://www.w3.org/2000/svg">
<g clip-path="url(#clip0_2097_4615)">
<path d="M11.4844 2.22852H2.73438C2.0095 2.22852 1.42188 2.81614 1.42188 3.54102V11.416C1.42188 12.1409 2.0095 12.7285 2.73438 12.7285H11.4844C12.2092 12.7285 12.7969 12.1409 12.7969 11.416V3.54102C12.7969 2.81614 12.2092 2.22852 11.4844 2.22852Z" stroke="#747376" stroke-width="0.8" stroke-linejoin="round"/>
<path d="M8.20312 7.04102C8.56556 7.04102 8.85938 6.7472 8.85938 6.38477C8.85938 6.02233 8.56556 5.72852 8.20312 5.72852C7.84069 5.72852 7.54688 6.02233 7.54688 6.38477C7.54688 6.7472 7.84069 7.04102 8.20312 7.04102Z" fill="#747376"/>
<path d="M10.3906 7.04102C10.7531 7.04102 11.0469 6.7472 11.0469 6.38477C11.0469 6.02233 10.7531 5.72852 10.3906 5.72852C10.0282 5.72852 9.73438 6.02233 9.73438 6.38477C9.73438 6.7472 10.0282 7.04102 10.3906 7.04102Z" fill="#747376"/>
<path d="M8.20312 9.22852C8.56556 9.22852 8.85938 8.9347 8.85938 8.57227C8.85938 8.20983 8.56556 7.91602 8.20312 7.91602C7.84069 7.91602 7.54688 8.20983 7.54688 8.57227C7.54688 8.9347 7.84069 9.22852 8.20312 9.22852Z" fill="#747376"/>
<path d="M10.3906 9.22852C10.7531 9.22852 11.0469 8.9347 11.0469 8.57227C11.0469 8.20983 10.7531 7.91602 10.3906 7.91602C10.0282 7.91602 9.73438 8.20983 9.73438 8.57227C9.73438 8.9347 10.0282 9.22852 10.3906 9.22852Z" fill="#747376"/>
<path d="M3.82812 9.22852C4.19056 9.22852 4.48438 8.9347 4.48438 8.57227C4.48438 8.20983 4.19056 7.91602 3.82812 7.91602C3.46569 7.91602 3.17188 8.20983 3.17188 8.57227C3.17188 8.9347 3.46569 9.22852 3.82812 9.22852Z" fill="#747376"/>
<path d="M6.01562 9.22852C6.37806 9.22852 6.67188 8.9347 6.67188 8.57227C6.67188 8.20983 6.37806 7.91602 6.01562 7.91602C5.65319 7.91602 5.35938 8.20983 5.35938 8.57227C5.35938 8.9347 5.65319 9.22852 6.01562 9.22852Z" fill="#747376"/>
<path d="M3.82812 11.416C4.19056 11.416 4.48438 11.1222 4.48438 10.7598C4.48438 10.3973 4.19056 10.1035 3.82812 10.1035C3.46569 10.1035 3.17188 10.3973 3.17188 10.7598C3.17188 11.1222 3.46569 11.416 3.82812 11.416Z" fill="#747376"/>
<path d="M6.01562 11.416C6.37806 11.416 6.67188 11.1222 6.67188 10.7598C6.67188 10.3973 6.37806 10.1035 6.01562 10.1035C5.65319 10.1035 5.35938 10.3973 5.35938 10.7598C5.35938 11.1222 5.65319 11.416 6.01562 11.416Z" fill="#747376"/>
<path d="M8.20312 11.416C8.56556 11.416 8.85938 11.1222 8.85938 10.7598C8.85938 10.3973 8.56556 10.1035 8.20312 10.1035C7.84069 10.1035 7.54688 10.3973 7.54688 10.7598C7.54688 11.1222 7.84069 11.416 8.20312 11.416Z" fill="#747376"/>
<path d="M10.6094 1.35352V2.22852M3.60938 1.35352V2.22852V1.35352Z" stroke="#747376" stroke-width="0.8" stroke-linecap="round" stroke-linejoin="round"/>
<path d="M12.7969 4.41602H1.42188" stroke="#747376" stroke-width="0.8" stroke-linejoin="round"/>
</g>
<defs>
<clipPath id="clip0_2097_4615">
<rect width="14" height="14" fill="white" transform="translate(0.109375 0.0410156)"/>
</clipPath>
</defs>
</svg>
