<svg width="15" height="15" viewBox="0 0 15 15" fill="none" xmlns="http://www.w3.org/2000/svg">
<g clip-path="url(#clip0_2097_4609)">
<path d="M13.7365 2.313L11.8274 0.402309C11.3464 -0.0791073 10.5097 -0.080032 10.0268 0.403234L1.47447 9.03994C1.43656 9.07818 1.4092 9.12516 1.39429 9.17677L0.121587 13.6351C0.0898787 13.7461 0.120961 13.8659 0.202693 13.9476C0.263277 14.0083 0.344383 14.041 0.427667 14.041C0.456869 14.041 0.486401 14.0369 0.514977 14.0288L4.96949 12.755C5.02106 12.7401 5.06798 12.7127 5.1062 12.6748L13.7365 4.11425C13.977 3.87355 14.1094 3.55384 14.1094 3.21364C14.1094 2.87343 13.977 2.55369 13.7365 2.313ZM8.64026 2.71775L9.81148 3.88898L3.69658 10.0039L3.25773 9.12591C3.20365 9.01808 3.09367 8.95004 2.9731 8.95004H2.46355L8.64026 2.71775ZM0.890947 13.2595L1.3054 11.8086L2.34173 12.845L0.890947 13.2595ZM4.56399 12.2101L3.04164 12.645L1.50534 11.1087L1.94022 9.58639H2.77637L3.32478 10.6832C3.35554 10.7448 3.40556 10.7948 3.4671 10.8256L4.56396 11.374V12.2101H4.56399ZM5.20037 11.6869V11.1773C5.20037 11.0567 5.13233 10.9468 5.02449 10.8927L4.14649 10.4538L10.2614 4.33892L11.4326 5.51014L5.20037 11.6869ZM13.2875 3.67179L11.8846 5.06222L9.08815 2.26581L10.4777 0.863799C10.7182 0.623285 11.137 0.623285 11.3775 0.863799L13.2866 2.77288C13.4068 2.89312 13.473 3.05283 13.473 3.2228C13.473 3.39276 13.4068 3.55247 13.2875 3.67179Z" fill="#747376"/>
</g>
<defs>
<clipPath id="clip0_2097_4609">
<rect width="14" height="14" fill="white" transform="translate(0.109375 0.0410156)"/>
</clipPath>
</defs>
</svg>
