<svg width="60" height="61" viewBox="0 0 60 61" fill="none" xmlns="http://www.w3.org/2000/svg">
<g clip-path="url(#clip0_2141_1469)">
<path d="M57.444 30.6037L57.3997 30.6053C56.0388 30.6565 54.8641 31.6128 54.5431 32.9309L53.6015 36.7975C52.7071 40.4696 50.2469 43.5277 46.8516 45.1875C46.453 45.3823 46.0031 45.3396 45.6482 45.0729C45.2934 44.8063 45.1272 44.3861 45.2035 43.9488L45.9468 39.6914C46.1708 38.4086 45.3459 37.2032 44.0689 36.9472C43.0996 36.7533 42.1291 37.1656 41.5961 37.9982L36.7851 45.5134C36.0963 45.0169 35.1278 45.0763 34.5084 45.6955L31.0187 49.1853C30.6754 49.5286 30.6754 50.085 31.0187 50.4283L41.1514 60.561C41.3231 60.7326 41.5481 60.8183 41.773 60.8183C41.9978 60.8183 42.2228 60.7326 42.3945 60.561L45.8843 57.0713C46.5369 56.4185 46.5687 55.3777 45.9818 54.6853C47.1011 54.0627 48.1938 53.3493 49.2304 52.5627C49.6171 52.2694 49.6927 51.718 49.3993 51.3313C49.1062 50.9447 48.5548 50.869 48.1679 51.1624C46.3857 52.5144 44.892 53.2717 44.6954 53.3885L38.0715 46.7646L43.0766 38.9461C43.216 38.7283 43.47 38.621 43.7236 38.671C44.0579 38.738 44.2737 39.0535 44.215 39.3892L43.4717 43.6466C43.2823 44.7317 43.7117 45.8167 44.5921 46.4782C45.4727 47.1399 46.6341 47.2504 47.6236 46.7667C51.4895 44.8767 54.2909 41.3947 55.3093 37.2135L56.2509 33.3469C56.5539 32.1019 58.3448 32.044 58.2392 33.135C57.6608 39.0988 54.9955 44.7097 50.7342 48.9342C50.3895 49.276 50.3871 49.8325 50.7288 50.1771C51.0705 50.5218 51.6268 50.5245 51.9717 50.1825C56.5237 45.6699 59.3709 39.6758 59.9887 33.3046C60.132 31.8288 58.9456 30.5505 57.444 30.6037ZM41.773 58.6965L32.8838 49.8074L35.7593 46.9385L44.6411 55.8281L41.773 58.6965Z" fill="#17161A"/>
<path d="M18.5863 15.6425L19.7549 16.29C19.7646 16.2956 19.7727 16.3034 19.7784 16.3131L21.6067 19.4798C21.6123 19.4894 21.6152 19.5004 21.6149 19.5115L21.5916 20.8476C21.5801 21.5083 21.9284 22.124 22.5007 22.4545L25.1491 23.9833C25.4304 24.1459 25.7446 24.227 26.0586 24.227C26.3831 24.227 26.7073 24.1404 26.9951 23.9674L28.141 23.2789C28.1502 23.2734 28.161 23.2704 28.1722 23.2704H31.8289C31.84 23.2704 31.8509 23.2734 31.8604 23.2791L33.0059 23.9675C33.5725 24.3078 34.28 24.314 34.8518 23.9834L37.5002 22.4545C38.0725 22.1241 38.4207 21.5084 38.4093 20.8476L38.3861 19.5115C38.3859 19.5004 38.3887 19.4895 38.3942 19.4799L40.2228 16.313C40.2283 16.3034 40.2364 16.2956 40.2458 16.2903L41.4146 15.6425C41.9926 15.3222 42.3516 14.7126 42.3516 14.0518V10.9938C42.3516 10.3331 41.9927 9.72356 41.4146 9.40306L40.2461 8.75548C40.2364 8.74997 40.2283 8.74212 40.2226 8.73227L40.117 8.54935C39.8743 8.12911 39.3365 7.98509 38.9164 8.2279C38.496 8.4706 38.3521 9.00813 38.5949 9.42849L38.7003 9.61118C38.8652 9.89688 39.1048 10.1324 39.3937 10.2926L40.5623 10.9403C40.5817 10.9512 40.5939 10.9716 40.5939 10.9938V14.0518C40.5939 14.0739 40.5819 14.0943 40.5625 14.1051L39.3933 14.7531C39.1048 14.9131 38.8652 15.1488 38.7004 15.4342L36.8718 18.6011C36.7069 18.8869 36.6228 19.2124 36.6285 19.5421L36.6517 20.8782C36.6522 20.9003 36.6405 20.9209 36.6213 20.9321L33.9728 22.4611C33.9537 22.472 33.9298 22.4718 33.9112 22.4606L32.7658 21.7723C32.4829 21.6024 32.159 21.5125 31.829 21.5125H28.1723C27.842 21.5125 27.518 21.6024 27.2356 21.7723L26.09 22.4606C26.0711 22.4719 26.0474 22.4722 26.0283 22.461L23.38 20.9322C23.3608 20.9209 23.3489 20.9004 23.3494 20.8782L23.3727 19.5421C23.3785 19.2124 23.2943 18.8869 23.1293 18.601L21.301 15.4343C21.1361 15.1486 20.8964 14.9131 20.6076 14.7529L19.4388 14.1051C19.4194 14.0944 19.4073 14.0739 19.4073 14.0518V10.9938C19.4073 10.9716 19.4195 10.9511 19.4386 10.9404L20.6079 10.2924C20.8964 10.1324 21.1361 9.89677 21.3009 9.6113L23.1295 6.44442C23.2943 6.1586 23.3785 5.83317 23.3727 5.50341L23.3494 4.16735C23.3489 4.14532 23.3607 4.1247 23.3799 4.11356L26.0284 2.58438C26.0477 2.57337 26.0711 2.5736 26.0901 2.58509L27.2357 3.27345C27.5185 3.44325 27.8424 3.53313 28.1723 3.53313H31.829C32.1586 3.53313 32.4824 3.44337 32.7657 3.27333L33.9112 2.58509C33.9302 2.5736 33.9537 2.57337 33.9729 2.5845L36.6215 4.11368C36.6405 4.1247 36.6522 4.14532 36.6517 4.16735L36.6285 5.50352C36.6237 5.77985 36.6852 6.06075 36.8065 6.31563C37.0151 6.75392 37.5397 6.94036 37.9777 6.732C38.4161 6.52353 38.6024 5.99911 38.3941 5.56083C38.3881 5.54841 38.3861 5.53856 38.3862 5.53411L38.4094 4.19806C38.4209 3.53712 38.0725 2.92142 37.5003 2.5913L34.8518 1.06212C34.2796 0.731533 33.572 0.737509 33.0057 1.07817L31.8606 1.76618C31.8509 1.77204 31.8399 1.77509 31.8289 1.77509H28.1722C28.161 1.77509 28.1501 1.77204 28.1406 1.76642L26.9954 1.07829C26.4292 0.737861 25.7215 0.731415 25.1492 1.062L22.5009 2.59095C21.9285 2.9213 21.5802 3.537 21.5916 4.19782L21.6149 5.53388C21.6152 5.54501 21.6123 5.55591 21.6068 5.56552L19.7782 8.73239C19.7727 8.742 19.7646 8.74985 19.7553 8.75513L18.586 9.40306C18.0082 9.72356 17.6494 10.3332 17.6494 10.9936V14.0517C17.6494 14.7126 18.0084 15.3221 18.5863 15.6425Z" fill="#17161A"/>
<path d="M30.0003 7.20703C27.0695 7.20703 24.6851 9.59156 24.6851 12.5224C24.6851 15.4533 27.0696 17.8377 30.0003 17.8377C32.9313 17.8377 35.3157 15.4532 35.3157 12.5224C35.3158 9.59144 32.9313 7.20703 30.0003 7.20703ZM30.0003 16.08C28.0387 16.08 26.4429 14.4841 26.4429 12.5225C26.4429 10.5609 28.0387 8.96484 30.0003 8.96484C31.9619 8.96484 33.5579 10.5608 33.5579 12.5224C33.5579 14.484 31.9619 16.08 30.0003 16.08Z" fill="#17161A"/>
<path d="M45.9902 29.781C48.171 29.781 49.9452 28.0068 49.9452 25.8261C49.9452 23.6453 48.171 21.8711 45.9902 21.8711C43.8095 21.8711 42.0352 23.6453 42.0352 25.8261C42.0352 28.0068 43.8095 29.781 45.9902 29.781ZM45.9902 23.6289C47.2017 23.6289 48.1874 24.6146 48.1874 25.8261C48.1874 27.0375 47.2017 28.0232 45.9902 28.0232C44.7786 28.0232 43.793 27.0375 43.793 25.8261C43.793 24.6146 44.7787 23.6289 45.9902 23.6289Z" fill="#17161A"/>
<path d="M39.8905 20.0592L39.9056 20.9225L38.7008 23.0092L37.946 23.4277C37.4595 23.6971 37.1572 24.2102 37.1572 24.7665V26.8867C37.1572 27.4428 37.4593 27.9558 37.9458 28.2255L38.7008 28.6441L39.9056 30.7307L39.8905 31.5942C39.8809 32.1501 40.174 32.6683 40.6555 32.9464L42.4918 34.0065C42.7287 34.1432 42.9928 34.2114 43.2571 34.2114C43.5301 34.2114 43.803 34.1385 44.0454 33.993L44.7854 33.5483H47.195L47.9351 33.993C48.4117 34.2793 49.0069 34.2846 49.4888 34.0065L51.3248 32.9464C51.8065 32.6684 52.0996 32.1503 52.09 31.5942L52.0748 30.7307L53.2796 28.6441L54.035 28.2254C54.5212 27.9556 54.8234 27.4427 54.8234 26.8867V24.7665C54.8234 24.2103 54.5213 23.6974 54.0349 23.4278L53.2796 23.0091L52.0748 20.9225L52.09 20.0592C52.0996 19.503 51.8065 18.9849 51.325 18.7069L49.4886 17.6468C49.0073 17.3687 48.4119 17.3742 47.9351 17.6603L47.195 18.1051H44.7854L44.0454 17.6603C43.5688 17.3741 42.9735 17.3688 42.4917 17.6468L40.6554 18.7071C40.174 18.985 39.8809 19.5032 39.8905 20.0592ZM41.6503 20.1623L43.2546 19.236L43.9343 19.6444C44.1723 19.7874 44.4448 19.8629 44.7225 19.8629H47.258C47.5356 19.8629 47.808 19.7873 48.0463 19.6443L48.7259 19.236L50.3302 20.1623L50.3163 20.955C50.3115 21.2329 50.3824 21.507 50.5212 21.7469L51.7887 23.9422C51.9274 24.1829 52.1292 24.3813 52.3722 24.5159L53.0655 24.9003V26.7529L52.3719 27.1373C52.129 27.2721 51.9272 27.4706 51.7888 27.7106L50.5212 29.9061C50.3822 30.1467 50.3114 30.4205 50.3162 30.6984L50.33 31.491L48.7257 32.4172L48.0461 32.0089C47.808 31.8659 47.5356 31.7905 47.2579 31.7905H44.7225C44.4449 31.7905 44.1724 31.866 43.9341 32.009L43.2546 32.4172L41.6503 31.491L41.6641 30.6984C41.6689 30.4205 41.5982 30.1467 41.4593 29.9063L40.1918 27.711C40.053 27.4703 39.8513 27.2719 39.6082 27.1373L38.9149 26.753V24.9004L39.6075 24.5165C39.8508 24.382 40.0529 24.1834 40.1916 23.9428L41.4589 21.7476C41.598 21.5071 41.6689 21.233 41.6641 20.9551L41.6503 20.1623Z" fill="#17161A"/>
<path d="M14.0092 29.781C16.1899 29.781 17.9641 28.0068 17.9641 25.8261C17.9641 23.6453 16.1899 21.8711 14.0092 21.8711C11.8284 21.8711 10.0542 23.6453 10.0542 25.8261C10.0542 28.0068 11.8284 29.781 14.0092 29.781ZM14.0092 23.6289C15.2206 23.6289 16.2063 24.6146 16.2063 25.8261C16.2063 27.0375 15.2206 28.0232 14.0092 28.0232C12.7977 28.0232 11.812 27.0375 11.812 25.8261C11.812 24.6146 12.7977 23.6289 14.0092 23.6289Z" fill="#17161A"/>
<path d="M5.96531 28.2254L6.72059 28.644L7.92527 30.7306L7.91004 31.594C7.90043 32.1501 8.19363 32.6683 8.67516 32.9463L10.5113 34.0062C10.9925 34.2844 11.588 34.2793 12.065 33.9929L12.8051 33.5481H15.2146L15.9547 33.9929C16.1971 34.1384 16.4699 34.2113 16.7432 34.2113C17.0073 34.2113 17.2716 34.1431 17.5083 34.0063L19.3444 32.9463C19.826 32.6683 20.1192 32.1501 20.1096 31.5939L20.0944 30.7306L21.2991 28.644L22.0546 28.2252C22.5408 27.9555 22.843 27.4426 22.843 26.8866V24.7663C22.843 24.2102 22.5408 23.6972 22.0545 23.4277L21.2992 23.009L20.0944 20.9224L20.1096 20.059C20.1192 19.503 19.826 18.9848 19.3445 18.7068L17.5084 17.6467C17.027 17.3684 16.4317 17.3738 15.9548 17.6602L15.2146 18.1049H12.8051L12.0648 17.6601C11.588 17.3737 10.9928 17.3688 10.5114 17.6466L8.67527 18.7068C8.19363 18.9848 7.90043 19.503 7.91004 20.0592L7.92527 20.9224L6.72059 23.009L5.96543 23.4276C5.47898 23.6972 5.17676 24.2102 5.17676 24.7663V26.8866C5.17676 27.4427 5.47887 27.9556 5.96531 28.2254ZM6.93457 24.9003L7.62715 24.5164C7.8702 24.382 8.07223 24.1836 8.21133 23.9426L9.47918 21.7468C9.61793 21.5063 9.68871 21.2324 9.68391 20.9548L9.66996 20.1624L11.2744 19.236L11.9537 19.6442C12.1917 19.7873 12.4643 19.8629 12.7421 19.8629H15.2777C15.5555 19.8629 15.828 19.7872 16.0659 19.6443L16.7456 19.236L18.3499 20.1624L18.336 20.9549C18.3312 21.2324 18.402 21.5063 18.5408 21.7469L19.8087 23.9429C19.9478 24.1837 20.1497 24.382 20.3927 24.5165L21.0853 24.9004V26.753L20.392 27.1373C20.1492 27.2718 19.9474 27.4701 19.8086 27.7107L18.5406 29.9069C18.4018 30.1475 18.3312 30.4211 18.336 30.6986L18.3499 31.491L16.7455 32.4173L16.0662 32.0092C15.8282 31.8661 15.5556 31.7906 15.2777 31.7906H12.7421C12.4644 31.7906 12.1918 31.8663 11.9539 32.0091L11.2744 32.4173L9.66996 31.491L9.68391 30.6985C9.68871 30.4211 9.61805 30.1475 9.47906 29.9064L8.21121 27.7104C8.07234 27.4701 7.87066 27.2719 7.62773 27.1373L6.93445 26.753V24.9003H6.93457Z" fill="#17161A"/>
<path d="M25.4921 45.6953C24.8727 45.0761 23.9042 45.0167 23.2154 45.5132L18.4044 37.9979C17.8715 37.1654 16.9003 36.7522 15.9315 36.9471C14.6546 37.2029 13.8296 38.4083 14.0537 39.6912L14.7969 43.9486C14.8732 44.3857 14.707 44.8059 14.3522 45.0727C13.9976 45.3393 13.5474 45.382 13.1488 45.1872C9.75349 43.5272 7.29326 40.4691 6.399 36.7972L5.45728 32.9306C5.13631 31.6125 3.96162 30.6563 2.60013 30.605L2.55701 30.6034C1.06709 30.5463 -0.131976 31.8204 0.011696 33.3043C0.884626 42.3055 6.11939 50.2911 14.0192 54.6847C13.4319 55.3768 13.4633 56.4181 14.1163 57.0711L17.606 60.5609C17.7777 60.7324 18.0026 60.8182 18.2276 60.8182C18.4524 60.8182 18.6774 60.7324 18.849 60.5609L22.7492 56.6609C23.0925 56.3175 23.0925 55.7611 22.7492 55.4179C22.406 55.0749 21.8496 55.0746 21.5062 55.4179L18.2283 58.6958L15.3594 55.8205L24.2491 46.9385L27.1175 49.8068L23.991 52.9331C23.6477 53.2765 23.6477 53.8329 23.991 54.1761C24.3343 54.5192 24.8908 54.5194 25.2338 54.1761L28.9817 50.4284C29.1466 50.2635 29.2392 50.04 29.2392 49.8068C29.2392 49.5736 29.1466 49.3502 28.9819 49.1852L25.4921 45.6953ZM1.76131 33.1348C1.71947 32.7029 2.07291 32.3406 2.49138 32.3603C2.5031 32.3608 2.5467 32.3623 2.53498 32.3619C3.12338 32.384 3.61146 32.7797 3.74939 33.3466L4.69111 37.2133C5.70935 41.3944 8.51072 44.8764 12.3767 46.7665C13.3661 47.2501 14.5278 47.1397 15.4081 46.478C16.2887 45.8163 16.7179 44.7314 16.5286 43.6464L15.7854 39.389C15.7267 39.0532 15.9426 38.7377 16.2767 38.6707C16.5309 38.6201 16.7844 38.7278 16.9238 38.9459L21.9289 46.7644L15.305 53.3883C15.1986 53.2895 3.16826 47.6422 1.76131 33.1348Z" fill="#17161A"/>
</g>
<defs>
<clipPath id="clip0_2141_1469">
<rect width="60" height="60" fill="white" transform="translate(0 0.818359)"/>
</clipPath>
</defs>
</svg>
