<svg width="60" height="61" viewBox="0 0 60 61" fill="none" xmlns="http://www.w3.org/2000/svg">
<g clip-path="url(#clip0_2141_1486)">
<path d="M57.7895 16.2287C56.3729 13.0412 54.3545 10.2109 51.7907 7.8165C50.96 7.04084 49.7603 8.32557 50.5909 9.10123C52.9814 11.3338 54.8631 13.9719 56.1833 16.9426C57.5496 20.0168 58.2423 23.2945 58.2423 26.6847C58.2423 33.9084 55.0274 40.6905 49.422 45.2919C49.2186 45.4589 49.1007 45.7081 49.1007 45.9712V52.5677L42.7045 49.4786C42.4945 49.3773 42.253 49.3635 42.0329 49.4402C39.461 50.3372 36.7655 50.792 34.0212 50.792C31.3229 50.792 28.6826 50.3542 26.1601 49.4926C26.3864 48.5279 26.5063 47.5228 26.5063 46.4905C26.5063 39.2137 20.561 33.2937 13.2532 33.2937C12.416 33.2937 11.5918 33.3716 10.7886 33.5212C10.1331 31.3107 9.80004 29.0149 9.80004 26.6849C9.80004 13.3922 20.6655 2.57775 34.0212 2.57775C38.4891 2.57775 42.8543 3.79803 46.6452 6.10662C47.6157 6.69783 48.53 5.19643 47.5596 4.60533C43.493 2.12869 38.8114 0.819824 34.0209 0.819824C27.0825 0.819824 20.5591 3.50975 15.6525 8.39412C10.7448 13.2794 8.04211 19.7753 8.04211 26.6847C8.04211 29.1622 8.39297 31.604 9.08414 33.9572C6.21223 34.8995 3.72023 36.8086 2.04516 39.4456C1.4359 40.4051 2.91949 41.3472 3.52898 40.3882C5.65148 37.0465 9.28664 35.0515 13.2531 35.0515C19.5916 35.0515 24.7484 40.183 24.7484 46.4905C24.7484 52.798 19.5916 57.9295 13.2531 57.9295C11.9504 57.9295 10.6709 57.7136 9.45012 57.2878C9.2298 57.2109 8.98852 57.2247 8.77852 57.3262L6.26461 58.5403V55.9984C6.26461 55.7353 6.14672 55.486 5.9434 55.319C3.28336 53.1355 1.75781 49.9175 1.75781 46.4904C1.75781 45.7869 1.8232 45.0797 1.95199 44.3885C2.16012 43.2712 0.432422 42.9493 0.223945 44.0662C0.0753516 44.8635 0 45.6791 0 46.4904C0 50.3056 1.63734 53.8954 4.50668 56.4054V59.9408C4.50668 60.5779 5.19563 61.0086 5.76785 60.7323L9.22149 59.0644C10.5225 59.4778 11.8767 59.6872 13.253 59.6872C18.9053 59.6872 23.7415 56.1451 25.6431 51.1734C28.3332 52.086 31.1468 52.5497 34.0209 52.5497C36.8396 52.5497 39.6111 52.1019 42.2645 51.2182L49.5973 54.7597C50.1151 55.0098 50.8584 54.5683 50.8584 53.9682V46.3826C56.6736 41.4526 60 34.2975 60 26.6846C60 23.0469 59.2562 19.529 57.7895 16.2287Z" fill="#17161A"/>
<path d="M17.9873 27.1839C17.9873 29.6205 19.9695 31.6027 22.4061 31.6027C24.8427 31.6027 26.8249 29.6205 26.8249 27.1839C26.8249 24.7474 24.8427 22.7651 22.4061 22.7651C19.9695 22.7651 17.9873 24.7474 17.9873 27.1839ZM25.0671 27.1839C25.0671 28.6512 23.8733 29.8449 22.4061 29.8449C20.9389 29.8449 19.7451 28.6511 19.7451 27.1839C19.7451 25.7167 20.9389 24.5229 22.4061 24.5229C23.8733 24.5229 25.0671 25.7167 25.0671 27.1839Z" fill="#17161A"/>
<path d="M29.6016 27.1839C29.6016 29.6205 31.5838 31.6027 34.0204 31.6027C36.4569 31.6027 38.4392 29.6205 38.4392 27.1839C38.4392 24.7474 36.4569 22.7651 34.0204 22.7651C31.5838 22.7651 29.6016 24.7474 29.6016 27.1839ZM36.6815 27.1839C36.6815 28.6512 35.4877 29.8449 34.0205 29.8449C32.5533 29.8449 31.3595 28.6511 31.3595 27.1839C31.3595 25.7167 32.5533 24.5229 34.0205 24.5229C35.4877 24.5229 36.6815 25.7167 36.6815 27.1839Z" fill="#17161A"/>
<path d="M41.2183 27.1839C41.2183 29.6205 43.2005 31.6027 45.6371 31.6027C48.0736 31.6027 50.0558 29.6205 50.0558 27.1839C50.0558 24.7474 48.0736 22.7651 45.6371 22.7651C43.2005 22.7651 41.2183 24.7474 41.2183 27.1839ZM48.298 27.1839C48.298 28.6512 47.1042 29.8449 45.6371 29.8449C44.1699 29.8449 42.9761 28.6511 42.9761 27.1839C42.9761 25.7167 44.1699 24.5229 45.6371 24.5229C47.1042 24.5229 48.298 25.7167 48.298 27.1839Z" fill="#17161A"/>
</g>
<defs>
<clipPath id="clip0_2141_1486">
<rect width="60" height="60" fill="white" transform="translate(0 0.818359)"/>
</clipPath>
</defs>
</svg>
