<svg width="60" height="61" viewBox="0 0 60 61" fill="none" xmlns="http://www.w3.org/2000/svg">
<g clip-path="url(#clip0_2141_1512)">
<path d="M23.0042 8.82728C20.7955 8.82728 19.0049 7.0367 19.0049 4.82795C19.0049 2.61919 20.7955 0.828613 23.0042 0.828613C25.213 0.828613 27.0036 2.61919 27.0036 4.82795C27.0011 7.03558 25.212 8.82478 23.0042 8.82728ZM23.0042 2.82828C21.8998 2.82828 21.0046 3.72351 21.0046 4.82795C21.0046 5.93239 21.8998 6.82761 23.0042 6.82761C24.1087 6.82761 25.0039 5.93239 25.0039 4.82795C25.0026 3.72401 24.108 2.82953 23.0042 2.82828Z" fill="#17161A"/>
<path d="M5.00715 26.8244C2.79839 26.8244 1.00781 25.0338 1.00781 22.825C1.00781 20.6163 2.79839 18.8257 5.00715 18.8257C7.2159 18.8257 9.00648 20.6163 9.00648 22.825C9.00398 25.0327 7.2149 26.8219 5.00715 26.8244ZM5.00715 20.8254C3.9027 20.8254 3.00748 21.7206 3.00748 22.825C3.00748 23.9295 3.9027 24.8247 5.00715 24.8247C6.11159 24.8247 7.00681 23.9295 7.00681 22.825C7.00556 21.7211 6.11096 20.8266 5.00715 20.8254Z" fill="#17161A"/>
<path d="M11.6297 15.4515C9.42095 15.4515 7.63037 13.661 7.63037 11.4522C7.63037 9.24346 9.42095 7.45288 11.6297 7.45288C13.8385 7.45288 15.629 9.24346 15.629 11.4522C15.6265 13.6598 13.8375 15.449 11.6297 15.4515ZM11.6297 9.45255C10.5253 9.45255 9.63004 10.3478 9.63004 11.4522C9.63004 12.5567 10.5253 13.4519 11.6297 13.4519C12.7341 13.4519 13.6294 12.5567 13.6294 11.4522C13.6281 10.3483 12.7335 9.4538 11.6297 9.45255Z" fill="#17161A"/>
<path d="M29.4927 60.8186C21.4409 60.8309 13.713 57.6478 8.00599 51.9679V55.8194C8.00599 58.0281 6.21541 59.8187 4.00666 59.8187C1.7979 59.8187 0.00732422 58.0281 0.00732422 55.8194V37.8231C0.0074492 35.6144 1.79803 33.8239 4.00691 33.8241C4.29848 33.8241 4.58931 33.8559 4.87389 33.9192L22.8709 37.9185C25.031 38.3794 26.4084 40.5043 25.9475 42.6645C25.4866 44.8246 23.3617 46.202 21.2015 45.7411C21.1797 45.7364 21.1578 45.7316 21.1359 45.7264L11.2818 43.5364C12.5657 45.3025 14.0971 46.8746 15.8288 48.2045C19.7469 51.2133 24.5527 52.8365 29.4927 52.8199C41.9026 52.8199 51.9987 42.7352 51.9987 30.3391C52.0153 25.3792 50.3741 20.556 47.3357 16.6357C44.3634 12.7897 40.2334 10.0013 35.5553 8.682C33.4218 8.11034 32.1556 5.91733 32.7274 3.78381C33.2992 1.6503 35.492 0.384132 37.6256 0.955911C37.6512 0.962785 37.6768 0.969909 37.7024 0.977283C44.0429 2.76336 49.6409 6.54073 53.6704 11.7517C63.9343 25.096 61.4371 44.2342 48.0929 54.498C42.7601 58.5997 36.2203 60.8219 29.4927 60.8186ZM7.00616 48.4132C7.29986 48.4132 7.57856 48.5424 7.76853 48.7663C17.9543 60.7667 35.9398 62.2377 47.9402 52.0519C54.3158 46.6403 57.993 38.7017 57.9977 30.3391C58.018 24.0532 55.9374 17.9408 52.0861 12.9728C48.3211 8.10285 43.0901 4.57268 37.1653 2.90321C36.0988 2.61638 35.0017 3.24853 34.7149 4.31498C34.4317 5.36793 35.0444 6.45362 36.0921 6.75569C41.1858 8.19158 45.683 11.2272 48.9194 15.4145C52.2286 19.6842 54.0162 24.9372 53.9983 30.3391C53.9983 43.8378 43.0052 54.8196 29.4927 54.8196C24.1134 54.8374 18.8804 53.0694 14.6143 49.7928C12.0366 47.8114 9.87243 45.3436 8.24445 42.5294C7.9685 42.0511 8.13247 41.4397 8.61077 41.1636C8.82748 41.0386 9.08306 40.9992 9.32727 41.0536L21.5699 43.774C22.6461 44.0217 23.7194 43.3501 23.9671 42.2739C24.2148 41.1977 23.5432 40.1244 22.467 39.8767C22.4571 39.8744 22.4473 39.8722 22.4375 39.8702L4.44046 35.8708C3.36239 35.6313 2.29419 36.311 2.05461 37.3891C2.02299 37.5317 2.00699 37.6773 2.00699 37.8233V55.8194C2.00699 56.9238 2.90222 57.8191 4.00666 57.8191C5.1111 57.8191 6.00632 56.9238 6.00632 55.8194V49.413C6.00632 48.8608 6.454 48.4131 7.00616 48.4131V48.4132Z" fill="#17161A"/>
</g>
<defs>
<clipPath id="clip0_2141_1512">
<rect width="60" height="60" fill="white" transform="translate(0 0.818115)"/>
</clipPath>
</defs>
</svg>
