<svg width="80" height="81" viewBox="0 0 80 81" fill="none" xmlns="http://www.w3.org/2000/svg">
<g clip-path="url(#clip0_2141_184)">
<path d="M72.3504 17.3158C71.8365 12.5667 67.8525 8.84227 62.9782 8.84227H38.5517L19.7217 1.25671C18.8009 0.887932 17.8916 0.696289 17.0197 0.696289C13.7403 0.696289 11.5353 3.25942 11.5353 7.08465V10.6289C9.39286 12.1621 7.94447 14.561 7.64975 17.315C6.51287 19.0391 5.84326 21.0945 5.84326 23.3132V69.7657C5.84326 75.8021 10.7374 80.6955 16.773 80.6955H63.2255C69.2619 80.6955 74.1553 75.8014 74.1553 69.7657V23.3132C74.1568 21.0945 73.4872 19.0398 72.3504 17.3158ZM39.3167 11.5803V12.3865V71.024H38.5486L19.7217 63.4346C15.9622 61.9183 12.9012 57.254 12.9012 53.037V13.1203V13.0248V11.3779V9.83409V7.08771C12.9012 4.03516 14.5161 2.06222 17.0189 2.06222C17.716 2.06222 18.4535 2.22104 19.2102 2.5211L34.8952 8.8438L38.2837 10.2097L39.3167 10.6251V11.5803ZM69.7193 64.2768C69.7193 67.9959 66.6973 71.0233 62.9751 71.0233H40.6803V12.3858V11.5795H45.6646V12.3858V18.7581L48.3232 16.5225L50.9848 18.7581V12.3858V11.5795H62.9782C64.6289 11.5795 66.1155 12.1995 67.2897 13.1806C68.7626 14.4236 69.7216 16.2545 69.7216 18.3259V64.2761L69.7193 64.2768ZM26.8454 24.8296L35.3029 28.2395V29.6276L26.8454 26.2177V24.8296ZM26.8454 30.1254L35.3029 33.5299V34.9233L26.8454 31.5134V30.1254ZM18.3886 32.0632L35.3006 38.8783V40.2664L18.3886 33.4513V32.0632ZM18.3886 37.3505L35.3006 44.1657V45.5591L18.3886 38.744V37.3505ZM18.3886 42.6982L35.3006 49.5134V50.9015L18.3886 44.0863V42.6982ZM19.837 29.0954L20.2768 27.7455L22.8232 28.7701L23.2797 30.4835L24.0204 30.7812L24.7633 31.079L22.3887 22.6108L21.5771 22.2833L20.7655 21.958L18.3909 28.5082L19.1178 28.7923L19.837 29.0954ZM21.5557 23.9554V23.95H21.5588L21.5557 23.9554L22.4467 27.3271L20.6677 26.6033L21.5557 23.9554ZM45.137 44.2635H64.0654V45.6515H45.137V44.2635ZM45.137 49.6111H64.0654V50.9992H45.137V49.6111ZM46.7686 38.9348V36.4374C47.1787 36.4267 47.6704 36.4213 48.2415 36.4267C49.0363 36.4267 49.6517 36.2297 50.067 35.8334C50.4824 35.4341 50.6931 34.8638 50.6931 34.101C50.6931 33.3848 50.4824 32.8359 50.067 32.4587C49.6517 32.0846 49.0424 31.9013 48.2415 31.9013H46.028H45.2928V38.9264H46.0334H46.7686V38.9348ZM46.7686 33.1207H47.9903C48.4003 33.1207 48.7118 33.2001 48.9195 33.3719C49.1218 33.5414 49.2257 33.7872 49.2257 34.1232C49.2257 34.4866 49.1218 34.7622 48.9195 34.9455C48.7118 35.1287 48.4056 35.2211 47.9903 35.2211H46.7686V33.1207ZM54.7199 38.9348C55.7285 38.9348 56.4905 38.6264 57.0151 37.9919C57.5343 37.3658 57.7939 36.4534 57.7939 35.2432C57.7939 34.1529 57.5427 33.3222 57.0426 32.7511C56.5371 32.1853 55.8049 31.9013 54.8375 31.9013H52.5638H51.8285V38.9264H52.5638H54.7199V38.9348ZM53.2967 33.1207H54.6573C55.2147 33.1207 55.6301 33.3008 55.9087 33.6643C56.1844 34.0331 56.3187 34.5767 56.3187 35.3089C56.3187 36.1175 56.1714 36.7214 55.8759 37.123C55.5781 37.5277 55.1299 37.73 54.5313 37.73H53.2937L53.2967 33.1207ZM59.6416 38.9348H58.904V31.9067H63.9066V32.5266V33.155H60.3738V34.7508H63.4531V35.3547V35.964H60.3738V38.9371H59.6416V38.9348Z" fill="#17161A"/>
</g>
<defs>
<clipPath id="clip0_2141_184">
<rect width="80" height="80" fill="white" transform="translate(0 0.696289)"/>
</clipPath>
</defs>
</svg>
