<svg width="80" height="81" viewBox="0 0 80 81" fill="none" xmlns="http://www.w3.org/2000/svg">
<g clip-path="url(#clip0_2141_167)">
<path d="M61.7043 62.3047H28.8845C28.2327 62.3047 27.7041 62.8339 27.7041 63.4857C27.7041 64.1376 28.2327 64.6661 28.8845 64.6661H61.7037C62.3562 64.6661 62.8848 64.1376 62.8848 63.4857C62.8848 62.8339 62.3562 62.3047 61.7043 62.3047Z" fill="#17161A"/>
<path d="M61.7043 54.0112H28.8845C28.2327 54.0112 27.7041 54.5398 27.7041 55.1917C27.7041 55.8441 28.2327 56.3727 28.8845 56.3727H61.7037C62.3562 56.3727 62.8848 55.8441 62.8848 55.1917C62.8848 54.5398 62.3562 54.0112 61.7043 54.0112Z" fill="#17161A"/>
<path d="M27.7041 46.8933C27.7041 47.5458 28.2327 48.0743 28.8845 48.0743H49.7689C50.4214 48.0743 50.95 47.5458 50.95 46.8933C50.95 46.2415 50.4214 45.7129 49.7689 45.7129H28.8845C28.2327 45.7129 27.7041 46.2415 27.7041 46.8933Z" fill="#17161A"/>
<path d="M74.1663 16.1858L72.0374 13.875V5.61023C72.0374 2.90088 69.8267 0.696289 67.1088 0.696289H14.2957C11.5778 0.696289 9.36707 2.90088 9.36707 5.61023V14.9327H7.20764C4.61182 14.9327 2.5 17.0458 2.5 19.6428V33.9366C2.5 36.5337 4.61182 38.6467 7.20764 38.6467H9.36707V71.5844C9.36707 74.2937 11.5778 76.4983 14.2957 76.4983H16.9934C17.2839 78.861 19.3024 80.6963 21.7432 80.6963H72.5537C75.1959 80.6963 77.345 78.5497 77.345 75.9111V24.9077C77.345 20.7335 77.2192 19.5049 74.1663 16.1858ZM74.9347 22.4779H66.0895C64.7498 22.4779 63.6597 21.3909 63.6597 20.0554L63.6676 9.78748C65.2203 9.90283 65.6348 10.3618 66.9958 11.8755C67.2217 12.127 67.4683 12.4004 67.7423 12.6982L69.9994 15.1482C70.0073 15.1567 70.0153 15.1659 70.0238 15.1744L72.4286 17.7849C74.3036 19.8235 74.8022 20.6792 74.9347 22.4779ZM11.7285 5.61023C11.7285 4.20276 12.8802 3.05774 14.2957 3.05774H67.1088C68.5242 3.05774 69.6759 4.20276 69.6759 5.61023V11.3115L69.4794 11.0979C69.2114 10.808 68.9722 10.5413 68.7524 10.2965C66.8115 8.13831 65.9631 7.39185 62.489 7.39185H62.4884H21.7432C19.1034 7.39185 16.9562 9.53845 16.9562 12.177V14.9327H11.7285V5.61023ZM74.9835 75.9111C74.9835 77.2472 73.8934 78.3348 72.5537 78.3348H21.7432C20.4059 78.3348 19.3176 77.2478 19.3176 75.9111V58.8005C19.3176 58.1487 18.7891 57.6201 18.1366 57.6201C17.4847 57.6201 16.9562 58.1487 16.9562 58.8005V74.1368H14.2957C12.8802 74.1368 11.7285 72.9918 11.7285 71.585V38.6467H16.9562V53.394C16.9562 54.0459 17.4847 54.5745 18.1366 54.5745C18.7891 54.5745 19.3176 54.0459 19.3176 53.394V38.6467H25.4468C26.0986 38.6467 26.6272 38.1182 26.6272 37.4657C26.6272 36.8138 26.0986 36.2853 25.4468 36.2853H7.20764C5.9137 36.2853 4.86145 35.2318 4.86145 33.9366V19.6428C4.86145 18.3477 5.9137 17.2942 7.20764 17.2942H38.3032C39.599 17.2942 40.6537 18.3477 40.6537 19.6428V33.9366C40.6537 35.2318 39.599 36.2853 38.3032 36.2853H30.8563C30.2039 36.2853 29.6753 36.8138 29.6753 37.4657C29.6753 38.1182 30.2039 38.6467 30.8563 38.6467H38.3032C40.9015 38.6467 43.0151 36.5337 43.0151 33.9366V19.6428C43.0151 17.0458 40.9015 14.9327 38.3032 14.9327H19.3176V12.177C19.3176 10.8403 20.4059 9.7533 21.7432 9.7533H61.3062L61.2982 20.0548C61.2982 22.6934 63.4479 24.84 66.0895 24.84H74.9835V24.9077V75.9111Z" fill="#17161A"/>
<path d="M14.3201 21.7334H11.4917C11.1444 21.7334 10.849 21.8549 10.6061 22.0984C10.3632 22.3413 10.2417 22.641 10.2417 22.998V31.3599C10.2417 31.7072 10.3607 31.9995 10.5988 32.2375C10.8368 32.4762 11.12 32.5952 11.4471 32.5952C11.7749 32.5952 12.0575 32.4762 12.2955 32.2375C12.5342 31.9995 12.6532 31.7169 12.6532 31.3898V28.9648H14.469C15.5707 28.9648 16.4539 28.6353 17.1185 27.9755C17.7832 27.3157 18.1158 26.4502 18.1158 25.379C18.1158 24.2981 17.7637 23.4198 17.0593 22.7454C16.3544 22.0709 15.4413 21.7334 14.3201 21.7334ZM15.1984 26.4203C14.9103 26.7084 14.5734 26.8518 14.1864 26.8518H12.6532V23.891H14.201C14.6082 23.891 14.9475 24.0375 15.2209 24.3298C15.4938 24.6228 15.6299 24.9774 15.6299 25.3937C15.6299 25.7904 15.4865 26.1328 15.1984 26.4203Z" fill="#17161A"/>
<path d="M28.0114 24.5677C27.6592 23.7993 27.1654 23.1816 26.5306 22.7153C25.6475 22.0708 24.5061 21.7485 23.1072 21.7485H20.6212C20.2733 21.7485 19.981 21.8724 19.7429 22.1202C19.5043 22.3687 19.3853 22.6512 19.3853 22.9686V31.256C19.3853 31.613 19.4994 31.9054 19.7277 32.1337C19.9755 32.3522 20.2782 32.4608 20.6359 32.4608H23.3153C24.7637 32.4608 25.9252 32.069 26.7986 31.2853C27.9595 30.2245 28.5399 28.8207 28.5399 27.0751C28.5399 26.1724 28.3635 25.3368 28.0114 24.5677ZM25.28 29.4109C24.7637 29.9962 24.0795 30.2886 23.2256 30.2886H21.7968V23.9354H23.0919C24.005 23.9354 24.7271 24.218 25.2581 24.7838C25.7885 25.349 26.054 26.1125 26.054 27.0751C26.054 28.0474 25.7958 28.8256 25.28 29.4109Z" fill="#17161A"/>
<path d="M31.313 32.625C31.6499 32.625 31.9355 32.5054 32.1687 32.2673C32.4019 32.0293 32.5184 31.7467 32.5184 31.4196V28.2207H34.8109C35.1387 28.2207 35.4115 28.1145 35.6294 27.9009C35.8479 27.6879 35.9572 27.4321 35.9572 27.1343C35.9572 26.8273 35.8455 26.5667 35.6221 26.3536C35.3987 26.1406 35.1283 26.0338 34.8109 26.0338H32.5184V23.9354H35.2278C35.5354 23.9354 35.7936 23.8268 36.0017 23.6083C36.2104 23.3904 36.3142 23.1371 36.3142 22.8496C36.3142 22.5322 36.208 22.2667 35.9944 22.0537C35.7808 21.8401 35.5256 21.7339 35.2278 21.7339H31.3276C30.9803 21.7339 30.6874 21.8578 30.4493 22.1056C30.2113 22.354 30.0923 22.6415 30.0923 22.9686V31.4196C30.0923 31.7473 30.2162 32.0299 30.4646 32.2679C30.7124 32.5054 30.995 32.625 31.313 32.625Z" fill="#17161A"/>
</g>
<defs>
<clipPath id="clip0_2141_167">
<rect width="80" height="80" fill="white" transform="translate(0 0.696289)"/>
</clipPath>
</defs>
</svg>
