<svg width="60" height="61" viewBox="0 0 60 61" fill="none" xmlns="http://www.w3.org/2000/svg">
<g clip-path="url(#clip0_2141_525)">
<path d="M29.999 0.379883C13.4573 0.379883 -0.000976562 13.8382 -0.000976562 30.3799C-0.000976562 46.9216 13.4573 60.3799 29.999 60.3799C46.5407 60.3799 59.999 46.9216 59.999 30.3799C59.999 13.8382 46.5407 0.379883 29.999 0.379883ZM29.999 57.8799C14.8354 57.8799 2.49898 45.5435 2.49898 30.3799C2.49898 15.2163 14.8354 2.87984 29.999 2.87984C45.1626 2.87984 57.4991 15.2163 57.4991 30.3799C57.4991 45.5435 45.1626 57.8799 29.999 57.8799Z" fill="white"/>
<path d="M46.0988 35.4326C45.4189 35.2702 44.7511 35.6877 44.5936 36.359C42.9823 43.1424 36.9814 47.8801 29.9989 47.8801C23.0079 47.8801 17.0045 43.1352 15.4005 36.3432C15.2405 35.6694 14.563 35.2604 13.8966 35.413C13.2239 35.5717 12.8077 36.2455 12.9663 36.9169C14.8389 44.8441 21.8433 50.3799 29.9989 50.3799C38.1446 50.3799 45.1465 44.8526 47.0253 36.9376C47.1852 36.2651 46.7703 35.5912 46.0988 35.4326Z" fill="white"/>
<path d="M14.9989 25.3798C14.9989 22.6223 17.2413 20.3798 19.9989 20.3798C22.7566 20.3798 24.9989 22.6222 24.9989 25.3798C24.9989 26.0708 25.558 26.6299 26.249 26.6299C26.9399 26.6299 27.499 26.0708 27.499 25.3798C27.499 21.244 24.1348 17.8798 19.999 17.8798C15.8632 17.8798 12.499 21.244 12.499 25.3798C12.499 26.0708 13.0581 26.6299 13.7491 26.6299C14.4398 26.6299 14.9989 26.0708 14.9989 25.3798Z" fill="white"/>
<path d="M40 17.8798C35.8642 17.8798 32.5 21.244 32.5 25.3798C32.5 26.0708 33.0591 26.6299 33.75 26.6299C34.441 26.6299 35.0001 26.0708 35.0001 25.3798C35.0001 22.6223 37.2425 20.3798 40.0001 20.3798C42.7577 20.3798 45.0002 22.6222 45.0002 25.3798C45.0002 26.0708 45.5593 26.6299 46.2502 26.6299C46.9411 26.6299 47.5002 26.0708 47.5002 25.3798C47.5 21.2442 44.1358 17.8798 40 17.8798Z" fill="white"/>
</g>
<defs>
<clipPath id="clip0_2141_525">
<rect width="60" height="60" fill="white" transform="translate(-0.000976562 0.379883)"/>
</clipPath>
</defs>
</svg>
