<svg width="60" height="61" viewBox="0 0 60 61" fill="none" xmlns="http://www.w3.org/2000/svg">
<g clip-path="url(#clip0_2141_488)">
<path d="M41.2485 60.3796H8.74854C5.30353 60.3796 2.49854 57.5746 2.49854 54.1296V19.1296C2.49854 15.6846 5.30353 12.8796 8.74854 12.8796H11.2485C11.9385 12.8796 12.4985 13.4396 12.4985 14.1296C12.4985 14.8196 11.9385 15.3796 11.2485 15.3796H8.74854C6.68104 15.3796 4.99854 17.0621 4.99854 19.1296V54.1296C4.99854 56.1971 6.68104 57.8796 8.74854 57.8796H41.2485C43.316 57.8796 44.9985 56.1971 44.9985 54.1296V51.6296C44.9985 50.9396 45.5585 50.3796 46.2485 50.3796C46.9385 50.3796 47.4985 50.9396 47.4985 51.6296V54.1296C47.4985 57.5746 44.6935 60.3796 41.2485 60.3796Z" fill="white"/>
<path d="M51.2485 45.3799H23.7485C20.3035 45.3799 17.4985 42.5749 17.4985 39.1299V6.62988C17.4985 3.18488 20.3035 0.379883 23.7485 0.379883H51.2485C54.6935 0.379883 57.4985 3.18488 57.4985 6.62988V39.1299C57.4985 42.5749 54.6935 45.3799 51.2485 45.3799ZM23.7485 2.87988C21.681 2.87988 19.9985 4.56238 19.9985 6.62988V39.1299C19.9985 41.1974 21.681 42.8799 23.7485 42.8799H51.2485C53.316 42.8799 54.9985 41.1974 54.9985 39.1299V6.62988C54.9985 4.56238 53.316 2.87988 51.2485 2.87988H23.7485Z" fill="white"/>
</g>
<defs>
<clipPath id="clip0_2141_488">
<rect width="60" height="60" fill="white" transform="translate(-0.000976562 0.379883)"/>
</clipPath>
</defs>
</svg>
