<svg width="60" height="61" viewBox="0 0 60 61" fill="none" xmlns="http://www.w3.org/2000/svg">
<g clip-path="url(#clip0_2141_498)">
<path d="M48.7575 26.623C48.7595 26.5091 48.7587 26.7109 48.7587 23.4366C48.7587 17.8676 31.271 15.6848 18.6981 17.2822C18.2154 17.3433 17.8736 17.7838 17.9346 18.2665C17.9957 18.749 18.4374 19.092 18.9189 19.0299C26.3914 18.0834 36.5352 18.4344 42.8509 20.5744C45.9082 21.6092 46.9969 22.7319 46.9969 23.4367C46.9969 24.0558 46.217 24.8003 44.8569 25.4803C42.6206 26.5995 39.0113 27.4781 34.695 27.9549C21.175 29.4396 7.5472 26.4183 7.5472 23.4364C7.5472 22.6648 8.80157 21.4539 12.3217 20.3721C13.2777 20.0784 14.3489 19.8118 15.5046 19.5805C15.9814 19.4853 16.2904 19.0214 16.1952 18.5447C16.0989 18.0667 15.6349 17.7577 15.1581 17.854C11.912 18.5013 5.78539 20.1374 5.78539 23.4364C5.91488 24.4486 4.60554 37.6579 12.2582 47.4624C8.68134 48.0744 0.757324 49.7212 0.757324 53.3385C0.757324 60.2216 30.4408 62.2613 45.9704 58.5557C51.4425 57.2509 54.2179 55.4948 54.2179 53.3385C54.2179 49.647 45.9784 48.0031 42.34 47.3977C42.7029 46.9292 43.0541 46.4382 43.3911 45.9273C51.2321 45.5214 56.8851 42.0713 58.9441 34.4288C60.8503 27.3492 53.2217 22.8347 48.7575 26.623ZM57.2435 33.9696C56.6221 36.2753 54.7922 43.0593 44.5093 44.0777C44.6127 43.8921 44.7137 43.7042 44.8136 43.5139C45.039 43.0829 44.8734 42.5507 44.4424 42.3253C44.0114 42.0986 43.4793 42.2654 43.2526 42.6964C40.5343 47.8902 35.895 52.4577 30.0111 52.4577H24.5331C22.8195 52.4577 21.1189 52.0584 19.478 51.269C19.0399 51.0576 18.5138 51.2421 18.3022 51.6801C18.092 52.1194 18.2765 52.6458 18.7145 52.856C21.2577 54.0807 23.3052 54.2459 25.4704 54.2319H30.011C34.2829 54.2319 38.097 52.0798 41.001 48.9706C42.637 49.2137 44.1663 49.5038 45.5616 49.8363C51.0042 51.1342 52.456 52.6492 52.456 53.3386C52.456 54.0292 51.0042 55.5443 45.5616 56.8422C35.592 59.2191 19.3887 59.2205 9.41341 56.8422C3.97191 55.5443 2.51901 54.0292 2.51901 53.3386C2.51901 52.6492 3.97191 51.134 9.41341 49.8363C10.7019 49.5286 12.1043 49.2584 13.5994 49.0282C14.2277 49.6953 14.8878 50.3083 15.5784 50.8626C15.7405 50.993 15.9355 51.0565 16.1293 51.0565C16.9573 51.0565 17.3298 50.0096 16.6814 49.4897C7.18368 41.8403 7.60345 26.6079 7.5472 26.2507C14.68 31.4012 39.9135 31.3392 46.9969 26.2519C46.9675 26.5907 47.2431 32.8385 44.6572 39.5779C44.4834 40.0325 44.7101 40.5422 45.1635 40.716C45.6198 40.8904 46.1283 40.6628 46.3016 40.2098C47.5067 37.0703 48.2854 33.6065 48.6001 30.0361C49.1546 27.8868 51.3485 26.5784 53.5049 27.1186C56.1563 27.7811 58.1997 30.4281 57.2435 33.9696Z" fill="white"/>
<path d="M22.629 7.86181C22.629 6.65548 23.7832 6.46599 23.7832 4.55571C23.7832 4.06914 23.3887 3.6748 22.9023 3.6748C22.4158 3.6748 22.0214 4.06914 22.0214 4.55571C22.0214 5.76192 20.8673 5.95142 20.8672 7.86181C20.8672 8.96537 21.2925 9.57452 21.6029 10.0192C21.8639 10.393 22.0214 10.6185 22.0214 11.1679C22.0214 12.374 20.8673 12.5635 20.8672 14.4737C20.8673 14.9601 21.2616 15.3546 21.7481 15.3546C22.2345 15.3546 22.629 14.9602 22.629 14.4737C22.629 13.2689 23.7832 13.0781 23.7832 11.1679C23.7832 10.0644 23.358 9.45534 23.0475 9.01072C22.7865 8.63689 22.629 8.41131 22.629 7.86181Z" fill="white"/>
<path d="M32.94 9.01072C32.6791 8.63689 32.5216 8.41131 32.5216 7.86181C32.5216 6.65548 33.6756 6.46599 33.6756 4.55571C33.6756 4.06914 33.2813 3.6748 32.7947 3.6748C32.3082 3.6748 31.9138 4.06914 31.9138 4.55571C31.9138 5.76192 30.7598 5.95142 30.7598 7.86181C30.7598 8.96537 31.1849 9.57451 31.4955 10.0191C31.7564 10.393 31.9139 10.6185 31.9139 11.1679C31.9139 12.374 30.7599 12.5635 30.7599 14.4737C30.7599 14.9602 31.1542 15.3546 31.6408 15.3546C32.1273 15.3546 32.5217 14.9602 32.5217 14.4737C32.5217 13.2676 33.6758 13.0781 33.6758 11.1679C33.6758 10.0645 33.2506 9.45545 32.94 9.01072Z" fill="white"/>
<path d="M28.729 1.26078C28.729 0.77422 28.3345 0.379883 27.8481 0.379883C27.3616 0.379883 26.9672 0.77422 26.9672 1.26078C26.9672 3.09325 25.813 3.23224 25.813 5.62498C25.813 7.98702 26.9672 8.18812 26.9672 9.9893C26.9672 11.8048 25.813 11.9701 25.813 14.353C25.813 14.8395 26.2074 15.2339 26.6939 15.2339C27.1803 15.2339 27.5748 14.8396 27.5748 14.353C27.5748 12.5207 28.729 12.3818 28.729 9.9893C28.729 7.62714 27.5748 7.42604 27.5748 5.62498C27.5747 3.79216 28.729 3.65376 28.729 1.26078Z" fill="white"/>
</g>
<defs>
<clipPath id="clip0_2141_498">
<rect width="60" height="60" fill="white" transform="translate(0 0.379883)"/>
</clipPath>
</defs>
</svg>
