<svg width="50" height="50" viewBox="0 0 50 50" fill="none" xmlns="http://www.w3.org/2000/svg">
<path d="M17.1787 23.4376C20.625 23.4376 23.4287 21.1595 23.4287 18.3594C23.4287 18.1522 23.3464 17.9535 23.1999 17.807C23.0534 17.6605 22.8547 17.5782 22.6475 17.5782C22.4403 17.5782 22.2415 17.6605 22.095 17.807C21.9485 17.9535 21.8662 18.1522 21.8662 18.3594C21.8662 20.0983 20.1739 21.5455 17.96 21.8253V19.3458C18.0426 19.3046 18.1219 19.2569 18.1971 19.2033L19.5229 18.2571C19.7663 18.0805 19.964 17.8485 20.0997 17.5803C20.2355 17.3121 20.3054 17.0153 20.3036 16.7147C20.3036 15.6833 19.4966 14.8441 18.5046 14.8441H15.8527C14.8607 14.8441 14.0537 15.6833 14.0537 16.7147C14.0519 17.0153 14.1218 17.3121 14.2576 17.5803C14.3933 17.8485 14.5911 18.0805 14.8344 18.2571L16.1603 19.2033C16.2355 19.257 16.3148 19.3046 16.3975 19.3458V21.8253C14.1835 21.5455 12.4912 20.0983 12.4912 18.3594C12.4912 18.1522 12.4089 17.9535 12.2624 17.807C12.1159 17.6605 11.9172 17.5782 11.71 17.5782C11.5028 17.5782 11.304 17.6605 11.1575 17.807C11.011 17.9535 10.9287 18.1522 10.9287 18.3594C10.9287 21.1595 13.7324 23.4376 17.1787 23.4376ZM15.7422 16.985C15.7016 16.9528 15.6691 16.9116 15.6473 16.8646C15.6254 16.8176 15.6149 16.7662 15.6164 16.7144C15.6164 16.5474 15.7248 16.4063 15.8529 16.4063H18.5049C18.6331 16.4063 18.7414 16.5474 18.7414 16.7144C18.7429 16.7662 18.7324 16.8177 18.7105 16.8646C18.6886 16.9116 18.6561 16.9528 18.6155 16.985L17.2896 17.9311C17.2579 17.9556 17.2189 17.9689 17.1789 17.9689C17.1388 17.9689 17.0998 17.9556 17.0681 17.9311L15.7422 16.985Z" fill="black"/>
<path d="M21.8662 14.8438C22.2977 14.8438 22.6475 14.494 22.6475 14.0625C22.6475 13.631 22.2977 13.2812 21.8662 13.2812C21.4347 13.2812 21.085 13.631 21.085 14.0625C21.085 14.494 21.4347 14.8438 21.8662 14.8438Z" fill="black"/>
<path d="M12.4912 14.8438C12.9227 14.8438 13.2725 14.494 13.2725 14.0625C13.2725 13.631 12.9227 13.2812 12.4912 13.2812C12.0597 13.2812 11.71 13.631 11.71 14.0625C11.71 14.494 12.0597 14.8438 12.4912 14.8438Z" fill="black"/>
<path d="M37.5 30.4688C38.1181 30.4688 38.7223 30.2855 39.2362 29.9421C39.7501 29.5987 40.1506 29.1107 40.3871 28.5396C40.6237 27.9686 40.6855 27.3403 40.565 26.7341C40.4444 26.1279 40.1468 25.5711 39.7097 25.134C39.2727 24.697 38.7159 24.3994 38.1097 24.2788C37.5035 24.1582 36.8751 24.2201 36.3041 24.4566C35.7331 24.6932 35.245 25.0937 34.9017 25.6076C34.5583 26.1215 34.375 26.7257 34.375 27.3438C34.3759 28.1723 34.7055 28.9666 35.2913 29.5524C35.8772 30.1383 36.6715 30.4678 37.5 30.4688ZM37.5 25.7813C37.809 25.7813 38.1111 25.8729 38.3681 26.0446C38.625 26.2163 38.8253 26.4603 38.9436 26.7458C39.0618 27.0313 39.0928 27.3455 39.0325 27.6486C38.9722 27.9517 38.8234 28.2301 38.6049 28.4486C38.3863 28.6671 38.1079 28.8159 37.8048 28.8762C37.5017 28.9365 37.1876 28.9056 36.9021 28.7873C36.6166 28.6691 36.3725 28.4688 36.2008 28.2118C36.0291 27.9549 35.9375 27.6528 35.9375 27.3438C35.938 26.9295 36.1028 26.5324 36.3957 26.2394C36.6886 25.9465 37.0858 25.7817 37.5 25.7813Z" fill="black"/>
<path d="M48.4374 32.0313H43.7499V21.875C43.75 21.7147 43.7006 21.5583 43.6083 21.4273L38.1396 13.6148C38.0675 13.5119 37.9717 13.4278 37.8603 13.3698C37.7489 13.3118 37.6251 13.2815 37.4995 13.2815C37.3739 13.2815 37.2501 13.3118 37.1387 13.3698C37.0273 13.4278 36.9315 13.5119 36.8595 13.6148L31.3907 21.4273C31.2988 21.5584 31.2496 21.7148 31.2499 21.875V26.764C30.1801 25.3257 28.7527 24.1324 26.9903 23.2118C28.7304 21.1665 29.6786 18.5089 29.6786 15.625C29.6827 14.3507 29.4895 13.0835 29.1057 11.8684C29.8666 11.4667 30.522 10.8912 31.0187 10.1885C31.5153 9.48589 31.8391 8.67597 31.9638 7.82461C32.0885 6.97325 32.0106 6.10448 31.7363 5.28892C31.4621 4.47335 30.9993 3.73402 30.3855 3.131C29.7717 2.52798 29.0243 2.0783 28.204 1.81851C27.3837 1.55872 26.5137 1.49616 25.6647 1.6359C24.8156 1.77564 24.0116 2.11375 23.3178 2.62274C22.6241 3.13173 22.0602 3.79724 21.6721 4.56517C20.2168 4.11677 18.7013 3.89455 17.1786 3.90628C15.656 3.89456 14.1406 4.11681 12.6855 4.56526C12.2973 3.79733 11.7335 3.13182 11.0397 2.62282C10.346 2.11382 9.54194 1.7757 8.69292 1.63595C7.8439 1.49619 6.97389 1.55875 6.1536 1.81852C5.33331 2.0783 4.58589 2.52797 3.9721 3.13098C3.35831 3.73399 2.89547 4.47332 2.6212 5.28888C2.34692 6.10444 2.26896 6.97321 2.39365 7.82457C2.51834 8.67593 2.84216 9.48586 3.33879 10.1885C3.83542 10.8912 4.49083 11.4667 5.25177 11.8684C4.86793 13.0835 4.67459 14.3507 4.67863 15.625C4.67863 18.5089 5.62726 21.1666 7.367 23.2118C3.56349 25.1984 1.32091 28.4565 0.860852 32.6981C0.859875 32.7078 0.858899 32.7176 0.858215 32.7274L0.783118 33.7998C0.780627 33.8351 0.780627 33.8704 0.783118 33.9057C0.845584 34.8202 1.17424 35.6964 1.72858 36.4264C2.28292 37.1563 3.03872 37.7082 3.90284 38.0139C3.38739 39.0703 3.12125 40.2309 3.12491 41.4063C3.12491 45.2832 5.92863 48.4375 9.37492 48.4375C11.2304 48.4375 12.8986 47.5223 14.0443 46.0731C15.0084 46.5993 16.0891 46.875 17.1874 46.875C18.2857 46.875 19.3664 46.5993 20.3305 46.0731C21.4762 47.5223 23.1444 48.4375 24.9999 48.4375C27.4487 48.4375 29.5719 46.8442 30.5965 44.5313H48.4374C48.6446 44.5313 48.8433 44.449 48.9898 44.3025C49.1364 44.1559 49.2187 43.9572 49.2187 43.75V32.8125C49.2187 32.6053 49.1364 32.4066 48.9898 32.2601C48.8433 32.1136 48.6446 32.0313 48.4374 32.0313ZM37.4999 15.4248L41.4682 21.0938H33.5317L37.4999 15.4248ZM32.8124 22.6563H42.1874V32.0313H33.4065C33.2833 31.2329 33.0844 30.4481 32.8124 29.6875V22.6563ZM30.4693 38.0084C31.2055 37.7442 31.8644 37.301 32.3867 36.7188H33.5937V39.8438H31.0924C30.9646 39.2077 30.7552 38.5908 30.4693 38.0084ZM31.9413 32.8522L32.0116 33.8534C31.9554 34.5147 31.6905 35.141 31.2552 35.642C30.8199 36.143 30.2367 36.4927 29.5898 36.6407C28.6104 35.4478 27.2694 34.6375 25.7647 34.4299C25.6224 31.2523 24.5513 28.3202 22.8013 26.2675C23.9046 25.8014 24.9278 25.1645 25.8332 24.3804C29.4118 26.0947 31.5204 29.0129 31.9413 32.8516V32.8522ZM26.5536 3.12503C27.412 3.12475 28.2466 3.40723 28.9284 3.9288C29.6101 4.45037 30.1011 5.18198 30.3254 6.01055C30.5497 6.83912 30.4949 7.7185 30.1693 8.51276C29.8437 9.30702 29.2656 9.97193 28.5243 10.4047C27.979 9.26191 27.2387 8.22282 26.3368 7.33401C25.4062 6.42118 24.3245 5.67627 23.1399 5.13226C23.4791 4.52441 23.9742 4.01798 24.5742 3.66517C25.1743 3.31235 25.8575 3.1259 26.5536 3.12503ZM3.89738 7.03128C3.89714 6.16586 4.1843 5.32487 4.71378 4.64032C5.24326 3.95578 5.98506 3.46644 6.82275 3.24913C7.66044 3.03182 8.54658 3.09885 9.34205 3.43968C10.1375 3.78051 10.7973 4.37586 11.2178 5.13226C10.0331 5.67622 8.95145 6.42113 8.02081 7.33401C7.11887 8.22275 6.37863 9.26182 5.83331 10.4046C5.24468 10.0598 4.75639 9.56705 4.41682 8.97536C4.07724 8.38366 3.89818 7.71349 3.89738 7.03128ZM9.11642 8.44808C11.0984 6.49905 13.8866 5.46878 17.1786 5.46878C20.4706 5.46878 23.2588 6.49905 25.2409 8.44817C27.095 10.2714 28.1161 12.8201 28.1161 15.625C28.1161 18.4299 27.095 20.9786 25.2409 22.8019C23.2588 24.751 20.4709 25.7813 17.1786 25.7813C13.8863 25.7813 11.0984 24.751 9.11642 22.802C7.26222 20.9786 6.24113 18.4299 6.24113 15.625C6.24113 12.8201 7.26222 10.2714 9.11642 8.44808ZM2.34572 33.8533L2.41583 32.8519C2.83683 29.0128 4.94513 26.0946 8.52394 24.3801C9.43337 25.1676 10.4615 25.8066 11.5703 26.2733C9.8255 28.3266 8.75324 31.2672 8.61017 34.4295C7.10402 34.6373 5.76163 35.4492 4.78224 36.6436C4.13209 36.4982 3.54526 36.1492 3.10707 35.6474C2.66888 35.1456 2.40217 34.5171 2.34572 33.8533ZM9.37492 46.875C6.79015 46.875 4.68741 44.4218 4.68741 41.4063C4.68741 38.3908 6.79015 35.9375 9.37492 35.9375C11.9597 35.9375 14.0624 38.3908 14.0624 41.4063C14.0624 44.4218 11.9597 46.875 9.37492 46.875ZM17.1874 45.3125C16.3822 45.3099 15.5893 45.1147 14.8749 44.7432C15.3723 43.7013 15.6286 42.5608 15.6249 41.4063C15.6249 37.8342 13.2443 34.8779 10.1745 34.4346C10.3247 31.3877 11.4193 28.6026 13.1771 26.8295C14.482 27.1788 15.8278 27.3518 17.1786 27.3438C18.534 27.3519 19.8844 27.1779 21.1934 26.8262C22.9567 28.5988 24.0513 31.3729 24.2006 34.4348C21.1307 34.8777 18.7499 37.834 18.7499 41.4063C18.7462 42.5608 19.0026 43.7013 19.4999 44.7432C18.7855 45.1147 17.9926 45.3099 17.1874 45.3125ZM24.9999 46.875C22.4152 46.875 20.3124 44.4218 20.3124 41.4063C20.3124 38.3908 22.4152 35.9375 24.9999 35.9375C27.5847 35.9375 29.6874 38.3908 29.6874 41.4063C29.6874 44.4218 27.5847 46.875 24.9999 46.875ZM31.2499 41.4063H34.3749C34.5821 41.4063 34.7808 41.324 34.9273 41.1775C35.0739 41.0309 35.1562 40.8322 35.1562 40.625V35.9375C35.1562 35.7303 35.0739 35.5316 34.9273 35.3851C34.7808 35.2386 34.5821 35.1563 34.3749 35.1563H33.316C33.4593 34.7533 33.5462 34.3325 33.5744 33.9057C33.5768 33.8704 33.5768 33.8351 33.5744 33.7998L33.56 33.5938H36.7187V42.9688H31.0924C31.1969 42.4545 31.2497 41.9311 31.2499 41.4063ZM47.6562 42.9688H38.2812V33.5938H47.6562V42.9688Z" fill="black"/>
<path d="M40.625 41.4063H45.3125C45.4456 41.4063 45.5766 41.3723 45.6929 41.3074C45.8092 41.2426 45.907 41.1491 45.977 41.0358C46.047 40.9225 46.0869 40.7932 46.0929 40.6602C46.0989 40.5271 46.0708 40.3948 46.0112 40.2757L43.6675 35.5882C43.6026 35.4584 43.5028 35.3493 43.3794 35.273C43.256 35.1968 43.1138 35.1564 42.9687 35.1564C42.8237 35.1564 42.6814 35.1968 42.558 35.273C42.4346 35.3493 42.3349 35.4584 42.27 35.5882L39.9262 40.2757C39.8667 40.3948 39.8386 40.5271 39.8445 40.6602C39.8505 40.7932 39.8904 40.9225 39.9604 41.0358C40.0304 41.1491 40.1282 41.2426 40.2445 41.3074C40.3608 41.3723 40.4918 41.4063 40.625 41.4063ZM42.9687 37.6845L44.0484 39.8438H41.889L42.9687 37.6845Z" fill="black"/>
</svg>
