<svg width="50" height="50" viewBox="0 0 50 50" fill="none" xmlns="http://www.w3.org/2000/svg">
<path d="M24.0561 26.4656L18.7989 24.8885V22.7591C20.7418 21.3204 22.0562 19.079 22.2429 16.5281C23.2577 16.2227 23.9991 15.2794 23.9991 14.1663C23.9991 13.4458 23.6753 12.7629 23.1324 12.2986V7.23273C23.1324 5.84386 22.429 4.54474 21.2762 3.76622C20.8907 2.31818 19.5919 1.30011 18.0664 1.30011H11.1328C7.38359 1.30011 4.3335 4.35021 4.3335 8.09943V12.2986C3.79063 12.7629 3.4668 13.4457 3.4668 14.1663C3.4668 15.2794 4.2082 16.2227 5.22305 16.5281C5.40967 19.079 6.72402 21.3204 8.66699 22.7591V24.8885L2.3749 26.7761C0.954395 27.2023 0 28.485 0 29.9681V38.4339C0 38.8384 0.32793 39.1663 0.732422 39.1663H0.866699V47.9676C0.866699 48.3721 1.19463 48.7 1.59912 48.7C2.00361 48.7 2.33154 48.3721 2.33154 47.9676V39.1663H5.2002V47.9676C5.2002 48.3721 5.52812 48.7 5.93262 48.7C6.33711 48.7 6.66504 48.3721 6.66504 47.9676V34.1004C6.66504 33.9866 6.63857 33.8745 6.5877 33.7729L4.8543 30.3061C4.67344 29.9443 4.23359 29.7976 3.87168 29.9785C3.50986 30.1594 3.36318 30.5993 3.54414 30.9611L5.2002 34.2734V37.7015H1.59912H1.46484V29.9681C1.46484 29.1369 1.9998 28.418 2.7959 28.1791L5.42607 27.3901C6.32021 31.1894 9.76123 33.966 13.733 33.966C15.7751 33.966 17.7511 33.2333 19.2969 31.9028C20.6697 30.7211 21.6274 29.1356 22.0382 27.3895L23.6351 27.8687C23.7053 27.8898 23.7761 27.8997 23.8458 27.8997C24.1608 27.8997 24.4519 27.6948 24.5471 27.3776C24.6633 26.9902 24.4435 26.5819 24.0561 26.4656ZM6.66504 15.8997C6.66504 15.4952 6.33711 15.1673 5.93262 15.1673C5.38066 15.1673 4.93164 14.7183 4.93164 14.1663C4.93164 13.811 5.11953 13.4896 5.43428 13.3064C5.45049 13.2969 5.46523 13.2858 5.48057 13.2752C5.61992 13.2044 5.77451 13.1653 5.93262 13.1653H7.04131C7.73076 13.1653 8.34043 12.7259 8.5584 12.0719L9.06299 10.5582C10.7849 10.5202 16.2114 10.2792 19.2606 8.7545C19.6225 8.57365 19.7691 8.1337 19.5882 7.77189C19.4073 7.41007 18.9675 7.26339 18.6056 7.44435C15.335 9.0796 8.60029 9.1004 8.53262 9.1004C8.21738 9.1005 7.9375 9.30216 7.83789 9.60119L7.16875 11.6087C7.15039 11.6636 7.09932 11.7005 7.04131 11.7005H5.93262C5.88779 11.7005 5.84307 11.7025 5.79834 11.7049V8.09943C5.79834 5.15802 8.19141 2.76495 11.1328 2.76495H18.0664C18.9852 2.76495 19.7571 3.42706 19.902 4.33927C19.937 4.55997 20.0709 4.75265 20.2655 4.86242C21.1303 5.35011 21.6674 6.25831 21.6674 7.23273V12.6734C21.6674 12.9341 21.8061 13.1752 22.0314 13.3064C22.3462 13.4896 22.5341 13.811 22.5341 14.1663C22.5341 14.7183 22.0851 15.1673 21.5331 15.1673C21.1286 15.1673 20.8007 15.4952 20.8007 15.8997C20.8007 19.797 17.6301 22.9676 13.7328 22.9676C9.83555 22.9676 6.66504 19.7969 6.66504 15.8997ZM17.334 23.6334V25.4334C17.334 27.4191 15.7186 29.0345 13.7329 29.0345C11.7504 29.0345 10.1372 27.4241 10.132 25.4428C10.132 25.4393 10.1318 25.4358 10.1318 25.4323V23.6334C11.2267 24.1452 12.4467 24.4324 13.7329 24.4324C15.0191 24.4324 16.2392 24.1453 17.334 23.6334ZM18.3411 30.7926C17.061 31.8944 15.4244 32.5013 13.7329 32.5013C10.4126 32.5013 7.54141 30.1588 6.83359 26.9679L8.75889 26.3903C9.20762 28.7276 11.2668 30.4993 13.7329 30.4993C16.1991 30.4993 18.2582 28.7276 18.7069 26.3902L20.6321 26.9679C20.3039 28.4476 19.5016 29.7939 18.3411 30.7926Z" fill="black"/>
<path d="M15.9281 17.9311C15.6139 17.6762 15.1527 17.7244 14.8979 18.0385C14.5864 18.4227 14.1728 18.6342 13.7333 18.6342C13.2939 18.6342 12.8803 18.4227 12.5688 18.0385C12.3141 17.7244 11.8528 17.6763 11.5386 17.9311C11.2245 18.1859 11.1764 18.6471 11.4312 18.9613C12.0175 19.6842 12.8566 20.099 13.7332 20.099C14.6099 20.099 15.449 19.6842 16.0355 18.9613C16.2903 18.647 16.2422 18.1859 15.9281 17.9311Z" fill="black"/>
<path d="M10.2656 13.4339C9.86113 13.4339 9.5332 13.7618 9.5332 14.1663V15.033C9.5332 15.4375 9.86113 15.7654 10.2656 15.7654C10.6701 15.7654 10.998 15.4375 10.998 15.033V14.1663C10.998 13.7619 10.6701 13.4339 10.2656 13.4339Z" fill="black"/>
<path d="M17.1992 13.4339C16.7947 13.4339 16.4668 13.7618 16.4668 14.1663V15.033C16.4668 15.4375 16.7947 15.7654 17.1992 15.7654C17.6037 15.7654 17.9316 15.4375 17.9316 15.033V14.1663C17.9316 13.7619 17.6037 13.4339 17.1992 13.4339Z" fill="black"/>
<path d="M39.3285 22.2644C39.0143 22.0095 38.5531 22.0577 38.2983 22.3718C37.9868 22.756 37.5732 22.9675 37.1337 22.9675C36.6943 22.9675 36.2807 22.756 35.9692 22.3718C35.7145 22.0577 35.2532 22.0096 34.939 22.2644C34.6248 22.5192 34.5768 22.9804 34.8316 23.2946C35.418 24.0176 36.2572 24.4323 37.1338 24.4323C38.0105 24.4323 38.8494 24.0176 39.4359 23.2946C39.6907 22.9805 39.6426 22.5192 39.3285 22.2644Z" fill="black"/>
<path d="M33.667 17.7674C33.2625 17.7674 32.9346 18.0953 32.9346 18.4998V19.3665C32.9346 19.771 33.2625 20.0989 33.667 20.0989C34.0715 20.0989 34.3994 19.771 34.3994 19.3665V18.4998C34.3994 18.0952 34.0715 17.7674 33.667 17.7674Z" fill="black"/>
<path d="M40.6006 17.7674C40.1961 17.7674 39.8682 18.0953 39.8682 18.4998V19.3665C39.8682 19.771 40.1961 20.0989 40.6006 20.0989C41.0051 20.0989 41.333 19.771 41.333 19.3665V18.4998C41.333 18.0954 41.0051 17.7674 40.6006 17.7674Z" fill="black"/>
<path d="M47.9052 32.7666L41.9622 30.3894C41.9117 30.3692 41.8637 30.345 41.8182 30.3178C45.8434 29.5072 47.7284 28.7454 47.8118 28.7112C48.1179 28.5859 48.302 28.2708 48.2609 27.9426C48.2523 27.8736 47.3999 20.9854 47.3999 15.0329C47.3999 9.37219 42.7945 4.76682 37.1338 4.76682C31.473 4.76682 26.8677 9.37228 26.8677 15.0331C26.8677 20.9827 26.0152 27.8738 26.0066 27.9428C25.9656 28.271 26.1496 28.586 26.4558 28.7114C26.5392 28.7456 28.4242 29.5073 32.4494 30.318C32.4039 30.3452 32.3559 30.3694 32.3054 30.3896L26.3625 32.7667C25.0899 33.2757 24.2677 34.4902 24.2677 35.8609V37.7016H22.2656V34.2735L23.9217 30.9612C24.1026 30.5994 23.956 30.1595 23.5941 29.9786C23.2323 29.7977 22.7924 29.9444 22.6115 30.3062L20.8781 33.773C20.8272 33.8747 20.8008 33.9867 20.8008 34.1005V47.9677C20.8008 48.3722 21.1287 48.7001 21.5332 48.7001C21.9377 48.7001 22.2656 48.3722 22.2656 47.9677V39.1664H24.2676V40.1678C24.2676 40.3621 24.3448 40.5485 24.4822 40.6859C24.6195 40.8232 24.8058 40.9002 25 40.9002C25.0001 40.9002 25.0002 40.9002 25.0004 40.9002H25.1343V47.9677C25.1343 48.3722 25.4622 48.7001 25.8667 48.7001C26.2712 48.7001 26.5991 48.3722 26.5991 47.9677V40.8998H28.6011V47.9677C28.6011 48.3722 28.929 48.7001 29.3335 48.7001C29.738 48.7001 30.0659 48.3722 30.0659 47.9677V38.434C30.0659 38.0295 29.738 37.7016 29.3335 37.7016C28.929 37.7016 28.6011 38.0295 28.6011 38.434V39.435H25.7324V35.8608C25.7324 35.0926 26.1933 34.4119 26.9064 34.1267L29.828 32.958C30.8318 36.1235 33.7766 38.2996 37.1338 38.2996C40.491 38.2996 43.4357 36.1234 44.4396 32.958L47.3611 34.1267C48.0743 34.4119 48.5352 35.0927 48.5352 35.8608V39.435H45.6665V38.434C45.6665 38.0295 45.3386 37.7016 44.9341 37.7016C44.5296 37.7016 44.2017 38.0295 44.2017 38.434V47.9677C44.2017 48.3722 44.5296 48.7001 44.9341 48.7001C45.3386 48.7001 45.6665 48.3722 45.6665 47.9677V40.8998H47.6685V47.9677C47.6685 48.3722 47.9964 48.7001 48.4009 48.7001C48.8054 48.7001 49.1333 48.3722 49.1333 47.9677V40.8998H49.2676C49.6721 40.8998 50 40.5719 50 40.1674V35.8608C50 34.4902 49.1777 33.2757 47.9052 32.7666ZM28.3324 15.033C28.3325 10.1799 32.2808 6.23176 37.1338 6.23176C41.9868 6.23176 45.9351 10.18 45.9351 15.033C45.9351 20.0613 46.5331 25.7384 46.7389 27.5426C45.9274 27.8183 44.1517 28.3615 41.333 28.9209V27.66C41.7396 27.4305 42.1286 27.1679 42.4941 26.8724C43.9823 25.6695 45.0338 23.9849 45.455 22.1289C45.5953 21.5105 45.6665 20.8727 45.6665 20.2332C45.6665 15.9671 42.5764 15.3536 39.5881 14.7604C37.677 14.381 35.7008 13.9886 34.1245 12.7277C33.9521 12.5897 33.7264 12.5373 33.5106 12.5845C33.2949 12.6316 33.1117 12.7738 33.0123 12.9711C33.0082 12.9792 32.5979 13.787 31.9038 14.5737C31.316 15.2399 30.3929 16.034 29.3334 16.034C28.9729 16.034 28.6304 16.1124 28.3214 16.2522C28.3285 15.8433 28.3324 15.4361 28.3324 15.033ZM37.1338 27.3012C35.4984 27.3012 33.9633 26.7589 32.6942 25.7331C31.4609 24.7362 30.5897 23.3411 30.241 21.8047C30.1248 21.2925 30.0659 20.7637 30.0659 20.2332C30.0659 19.8287 29.738 19.5008 29.3335 19.5008C28.7815 19.5008 28.3325 19.0518 28.3325 18.4998C28.3325 17.9479 28.7815 17.4988 29.3335 17.4988C31.5545 17.4988 33.1654 15.4877 33.8929 14.3625C35.601 15.4622 37.5546 15.8501 39.3028 16.1973C42.5219 16.8363 44.2017 17.3061 44.2017 20.2333C44.2017 20.7639 44.1427 21.2926 44.0266 21.8048C43.6779 23.3412 42.8066 24.7363 41.5733 25.7332C40.3043 26.759 38.7691 27.3012 37.1338 27.3012ZM27.5287 27.5426C27.6583 26.4061 27.9436 23.7329 28.1369 20.6534C28.2903 20.739 28.4528 20.8101 28.624 20.8616C28.6553 21.2892 28.7183 21.7134 28.8126 22.1289C29.2338 23.9849 30.2853 25.6695 31.7734 26.8724C32.139 27.1679 32.5279 27.4305 32.9346 27.66V28.9209C30.1154 28.3614 28.3396 27.8182 27.5287 27.5426ZM37.1338 36.8349C34.3818 36.8349 31.9719 35.0281 31.1918 32.4126L32.8493 31.7496C33.7909 31.373 34.3994 30.4743 34.3994 29.4602V28.3132C35.2754 28.6095 36.1994 28.7661 37.1338 28.7661C38.0682 28.7661 38.9922 28.6095 39.8682 28.3132V29.4602C39.8682 30.4743 40.4766 31.373 41.4182 31.7496L43.0758 32.4127C42.2957 35.0279 39.8858 36.8349 37.1338 36.8349Z" fill="black"/>
</svg>
