<svg width="18" height="19" viewBox="0 0 18 19" fill="none" xmlns="http://www.w3.org/2000/svg">
<g clip-path="url(#clip0_2097_56142)">
<path d="M8.01257 1.57669C7.9219 1.64236 7.87893 1.75561 7.90315 1.86492L8.56633 4.84883C9.22304 7.80884 9.09346 10.8891 8.19007 13.7835C8.16332 13.8686 8.17878 13.9616 8.23162 14.0336C8.28435 14.1057 8.36844 14.1481 8.4578 14.1481C8.46766 14.1481 8.47709 14.1481 8.48586 14.1468L13.8163 13.5857C13.9307 13.5737 14.0262 13.493 14.0573 13.3823C15.2454 9.12302 13.4306 4.59623 9.62935 2.337L8.3202 1.56277C8.22405 1.50565 8.10313 1.51113 8.01257 1.57669ZM9.34309 2.82093C12.8659 4.91373 14.5864 9.07895 13.5674 13.0476L8.84755 13.5445C9.66915 10.6734 9.7608 7.64253 9.11429 4.72703L8.59188 2.37581L9.34309 2.82093Z" fill="#3D3D4E"/>
<path d="M0.65404 15.947C0.607994 16.0104 0.590562 16.0901 0.60602 16.1669L0.82485 17.2622L0.640007 17.2359L0.560303 17.7914L1.23357 17.8875C2.13268 18.0159 3.04966 17.9033 3.89099 17.5613L3.9389 17.5427C4.86816 17.1626 5.89609 17.0962 6.86646 17.3534L6.90373 17.3629C7.77269 17.5901 8.68584 17.5859 9.55239 17.3505L10.2479 17.1615C11.3564 16.858 12.5394 16.9969 13.5475 17.5489L14.0505 17.8233C14.6988 18.1787 15.4602 18.268 16.1731 18.0719C17.0009 17.8465 17.5341 17.0432 17.42 16.193C17.3058 15.3427 16.5799 14.7083 15.722 14.7091H15.6511L15.7257 14.5448C15.7673 14.453 15.7567 14.3459 15.6976 14.2642C15.6377 14.1829 15.539 14.1396 15.4388 14.1506L0.850175 15.834C0.771787 15.8424 0.700525 15.8834 0.65404 15.947ZM15.722 15.2702C16.3007 15.2672 16.7915 15.6942 16.8685 16.2677C16.9453 16.8411 16.5843 17.3824 16.0253 17.5318C15.4947 17.6771 14.9294 17.626 14.4335 17.3879L14.6036 17.0135C14.8092 17.157 15.054 17.234 15.3049 17.2341H15.4696C15.9343 17.2341 16.3112 16.8573 16.3112 16.3924C16.3112 15.9277 15.9343 15.5508 15.4696 15.5508V16.1119C15.6245 16.1119 15.7501 16.2375 15.7501 16.3924C15.7501 16.5474 15.6245 16.673 15.4696 16.673H15.3052C15.1325 16.6731 14.9667 16.6066 14.8419 16.4873L15.3949 15.2702H15.722ZM15.0094 14.7654L13.9372 17.125L13.8154 17.0588C12.6804 16.437 11.3482 16.2804 10.0998 16.6223L9.4046 16.8114C8.63256 17.021 7.81907 17.0248 7.04527 16.8223L7.00789 16.8128C5.92032 16.5242 4.76828 16.5988 3.72687 17.025L3.68115 17.0437C2.96304 17.3344 2.18289 17.4377 1.41402 17.3441L1.21756 16.3557L15.0094 14.7654Z" fill="#3D3D4E"/>
<path d="M4.04395 13.2394L3.44381 14.2886C3.39371 14.3756 3.39371 14.4826 3.44392 14.5694C3.49425 14.6563 3.587 14.7097 3.68742 14.7094H3.71286L6.79895 14.4289C6.89531 14.4198 6.98017 14.3615 7.02348 14.2749C8.50113 11.3258 8.81687 7.92898 7.9079 4.75814L7.60333 3.69195C7.56792 3.56774 7.45237 3.48376 7.32311 3.48847C7.19407 3.49318 7.08498 3.58539 7.05878 3.71201L6.33201 7.20068C5.89096 9.32111 5.1188 11.359 4.04395 13.2394ZM7.37716 4.93849C8.22342 7.91528 7.94385 11.0996 6.59163 13.8833L4.19799 14.1009L4.53127 13.5177C5.63584 11.5862 6.42915 9.49269 6.88216 7.31426L7.37716 4.93849Z" fill="#3D3D4E"/>
</g>
<defs>
<clipPath id="clip0_2097_56142">
<rect width="18" height="18" fill="white" transform="translate(0 0.847656)"/>
</clipPath>
</defs>
</svg>
