<svg width="18" height="19" viewBox="0 0 18 19" fill="none" xmlns="http://www.w3.org/2000/svg">
<g clip-path="url(#clip0_2097_56132)">
<path d="M17.1782 11.5862L17.6932 11.0713C18.0173 10.7471 18.0173 10.2196 17.6932 9.89536C17.5361 9.73839 17.3274 9.65188 17.1052 9.65188C16.9385 9.65188 16.7792 9.70063 16.6438 9.7914L16.5353 9.42721L17.0927 8.86965C17.4169 8.54541 17.4169 8.01793 17.0927 7.69384C16.7943 7.39528 16.3238 7.37235 15.9979 7.62352L15.3373 5.40593C15.6012 5.15187 15.8538 4.90468 16.092 4.66655C16.7782 3.98018 17.3362 3.25384 17.6632 2.62103C18.2156 1.55151 17.9844 0.979806 17.6931 0.688531C17.402 0.397255 16.8303 0.16613 15.7606 0.718606C15.1279 1.04545 14.4015 1.60342 13.7152 2.28979C13.4771 2.52792 13.2298 2.78047 12.9758 3.04428L10.7581 2.38372C11.0093 2.05798 10.9863 1.58749 10.6879 1.28893C10.3637 0.964837 9.83621 0.9647 9.51212 1.28893L8.95456 1.84649L8.59022 1.738C8.681 1.60246 8.72975 1.44316 8.72975 1.27644C8.72975 1.05438 8.64323 0.845498 8.48627 0.688531C8.16217 0.364296 7.63455 0.364296 7.31045 0.688531L6.79561 1.20338L4.17138 0.4217C4.07786 0.393959 3.97679 0.419503 3.90798 0.488442L3.23246 1.16396C3.11903 1.27726 3.134 1.47103 3.26336 1.56565L9.88455 6.41214C8.39165 8.09539 6.95353 9.78069 5.93826 10.9848L3.99066 10.2357C3.89274 10.198 3.78191 10.2215 3.70776 10.2957L2.90713 11.0963C2.80358 11.2 2.80358 11.3679 2.90713 11.4715L6.91014 15.4745C7.01231 15.5768 7.18315 15.5768 7.28546 15.4745L8.08595 14.674C8.16011 14.5999 8.18373 14.4889 8.14596 14.391L7.39697 12.4435C8.60107 11.4282 10.2862 9.99012 11.9696 8.49707L12.4956 9.21586C12.589 9.34343 12.7784 9.35991 12.8929 9.25115C12.9883 9.16051 13.0015 9.00849 12.9239 8.90247L12.3679 8.14276C13.2482 7.3571 14.1175 6.56444 14.9061 5.8175L17.4062 14.2104L17.0614 14.5551L13.6253 9.86062C13.5387 9.74238 13.3727 9.7167 13.2545 9.80321C13.1361 9.88987 13.1104 10.0559 13.1971 10.1741L16.8161 15.1184C16.9107 15.2478 17.1045 15.2627 17.2178 15.1493L17.8933 14.4738C17.9623 14.405 17.9878 14.3038 17.9601 14.2104L17.1782 11.5862ZM9.88744 1.66426C10.0033 1.54835 10.1968 1.54835 10.3127 1.66426C10.43 1.78153 10.43 1.97228 10.3127 2.08956L10.1883 2.21398L9.53285 2.0187L9.88744 1.66426ZM7.68577 1.06385C7.80292 0.946572 7.9938 0.946572 8.11108 1.06385C8.22836 1.18113 8.22836 1.37188 8.11108 1.48916L8.02923 1.57087L7.3739 1.37573L7.68577 1.06385ZM3.82655 1.32025L4.17138 0.975549L12.5643 3.47549C11.8173 4.26431 11.0247 5.13361 10.2389 6.01389L3.82655 1.32025ZM3.96113 10.7929L5.57681 11.4144C5.17155 11.8969 4.86077 12.2703 4.67744 12.4913L3.47004 11.2839L3.96113 10.7929ZM5.05441 12.8683C5.97946 11.7522 10.8691 5.88644 14.0905 2.66497C14.7297 2.02571 15.4273 1.4882 16.0042 1.19019C16.4374 0.966348 17.0169 0.762826 17.3179 1.06385C17.6189 1.36488 17.4153 1.94441 17.1916 2.37754C16.8936 2.95446 16.3559 3.65196 15.7167 4.29123C12.4955 7.51242 6.62957 12.4022 5.5135 13.3274L5.05441 12.8683ZM7.58882 14.4206L7.09787 14.9116L5.89047 13.7042C6.11129 13.521 6.48483 13.2102 6.9674 12.805L7.58882 14.4206ZM16.8926 10.2707C17.0099 10.1534 17.2006 10.1534 17.3179 10.2707C17.4352 10.388 17.4352 10.5787 17.3179 10.696L17.006 11.0079L16.8108 10.3525L16.8926 10.2707ZM16.2922 8.06902C16.4093 7.95174 16.6002 7.95188 16.7175 8.06902C16.8334 8.18492 16.8334 8.37842 16.7175 8.49433L16.3629 8.84891L16.1676 8.19344L16.2922 8.06902Z" fill="#3D3D4E"/>
<path d="M15.9289 15.6655L13.6645 17.9299C13.5679 18.0266 13.5615 18.1862 13.6503 18.29C13.7496 18.4059 13.9318 18.4132 14.0398 18.3053L16.3042 16.0409C16.4079 15.9372 16.4079 15.7692 16.3042 15.6655C16.2006 15.562 16.0326 15.562 15.9289 15.6655V15.6655Z" fill="#3D3D4E"/>
<path d="M15.1723 14.908C15.2759 14.8045 15.2759 14.6364 15.1723 14.5328C15.0687 14.4292 14.9006 14.4292 14.7971 14.5328L13.3817 15.948C13.2852 16.0447 13.2787 16.2043 13.3676 16.3081C13.4669 16.424 13.6491 16.4313 13.7571 16.3233L15.1723 14.908Z" fill="#3D3D4E"/>
<path d="M14.3215 13.4934C14.4251 13.3897 14.4251 13.2216 14.3215 13.118C14.2178 13.0144 14.0498 13.0144 13.9461 13.118L12.9555 14.1087C12.8589 14.2053 12.8525 14.365 12.9414 14.4688C13.0406 14.5847 13.2228 14.592 13.3308 14.4841L14.3215 13.4934Z" fill="#3D3D4E"/>
<path d="M2.71836 2.21975C2.61468 2.1162 2.44659 2.1162 2.34304 2.21975L0.0786172 4.4843C-0.0250664 4.58785 -0.0250664 4.75594 0.0786172 4.85949C0.18079 4.96166 0.351628 4.96166 0.453938 4.85949L2.71836 2.59507C2.82191 2.49139 2.82191 2.32343 2.71836 2.21975Z" fill="#3D3D4E"/>
<path d="M3.85026 3.35291C3.74658 3.24923 3.57863 3.24923 3.47508 3.35291L2.05977 4.76822C1.96309 4.86477 1.95677 5.02434 2.04562 5.12816C2.14491 5.24407 2.32701 5.25135 2.43495 5.14341L3.85026 3.72823C3.95395 3.62455 3.95395 3.45646 3.85026 3.35291Z" fill="#3D3D4E"/>
<path d="M3.90005 5.56745C4.00236 5.66962 4.17306 5.66962 4.27537 5.56745L5.26606 4.57676C5.36961 4.47308 5.36961 4.30512 5.26606 4.20144C5.16238 4.09789 4.99442 4.09789 4.89074 4.20144L3.90005 5.19213C3.7965 5.29581 3.7965 5.46377 3.90005 5.56745Z" fill="#3D3D4E"/>
</g>
<defs>
<clipPath id="clip0_2097_56132">
<rect width="18" height="18" fill="white" transform="translate(0 0.347656)"/>
</clipPath>
</defs>
</svg>
