<svg width="18" height="19" viewBox="0 0 18 19" fill="none" xmlns="http://www.w3.org/2000/svg">
<g clip-path="url(#clip0_2097_56128)">
<path d="M17.2319 10.0341H16.6071C16.5486 9.08411 16.3172 8.16716 15.9167 7.30515C15.8556 7.17317 15.6991 7.11604 15.5671 7.17715C15.4351 7.2384 15.3778 7.39496 15.4391 7.52693C15.807 8.31918 16.0216 9.16142 16.0793 10.0341H4.01825C3.87282 10.0341 3.75499 10.152 3.75499 10.2974C3.75499 10.4428 3.87282 10.5607 4.01825 10.5607H17.2319C17.3651 10.5607 17.4733 10.669 17.4733 10.8022V11.1236C17.4733 11.2568 17.3651 11.3651 17.2319 11.3651H0.768082C0.634872 11.3651 0.526657 11.2568 0.526657 11.1236V10.8022C0.526657 10.669 0.634872 10.5607 0.768082 10.5607H2.79094C2.93637 10.5607 3.05434 10.4428 3.05434 10.2974C3.05434 10.152 2.93637 10.0341 2.79094 10.0341H1.92068C2.03673 8.28499 2.78682 6.65778 4.05107 5.42703C5.26945 4.24106 6.8438 3.54288 8.52635 3.43219C8.52731 3.43219 8.52827 3.43233 8.52924 3.43219C8.60092 3.42752 8.67178 3.42395 8.74182 3.42134C8.75583 3.42093 8.7697 3.42024 8.78371 3.41983C8.8087 3.41901 8.83356 3.41846 8.85814 3.41791C8.90538 3.41708 8.95262 3.41626 9 3.41626C9.0629 3.41626 9.12579 3.4175 9.18855 3.41914C9.20709 3.41969 9.22549 3.42024 9.24417 3.42079C9.29251 3.42244 9.34071 3.42491 9.38892 3.42752C9.41446 3.42889 9.44 3.43027 9.46568 3.43192C11.6274 3.57391 13.6162 4.69809 14.8538 6.50067C14.9361 6.62042 15.1 6.65105 15.2199 6.56865C15.3398 6.48639 15.3703 6.32242 15.2879 6.20253C14.0701 4.42865 12.1745 3.26685 10.0794 2.96719C10.2107 2.7634 10.2844 2.52348 10.2844 2.27217C10.2844 2.12907 10.2206 1.86526 9.79294 1.70789C9.57939 1.62933 9.29773 1.58594 9 1.58594C8.70213 1.58594 8.42047 1.62933 8.20692 1.70789C7.77928 1.86526 7.71556 2.12907 7.71556 2.27217C7.71556 2.5228 7.78903 2.7623 7.91949 2.96568C6.32881 3.19077 4.85349 3.91092 3.68372 5.04965C2.31715 6.37996 1.5098 8.14162 1.39293 10.034H0.768082C0.344559 10.0341 0 10.3787 0 10.8022V11.1236C0 11.5472 0.344559 11.8918 0.768082 11.8918H3.60461C3.46303 11.9888 3.32735 12.0975 3.20032 12.2182L3.1951 12.2232C3.187 12.2307 3.17931 12.2388 3.1723 12.2475L1.9222 13.7655C1.76537 13.666 1.5797 13.6297 1.3965 13.6649C1.20547 13.7014 1.04027 13.8102 0.931229 13.9711L0.43959 14.6961C0.214783 15.0277 0.301575 15.4808 0.63295 15.7058L3.9971 17.9913C4.11905 18.0741 4.25995 18.1172 4.40428 18.1172C4.45015 18.1172 4.49643 18.1128 4.54257 18.104C4.73346 18.0675 4.89867 17.9587 5.00771 17.7978L5.49934 17.0728C5.72415 16.7412 5.6375 16.2881 5.30612 16.063L5.2869 16.05C5.52104 15.7843 5.83319 15.5938 6.17281 15.5152C6.88843 15.3495 7.73053 15.4562 8.30168 15.5508C9.00824 15.6678 9.75037 15.6278 10.4479 15.4352L11.4174 15.1672C12.0633 14.9887 12.6576 14.6881 13.1841 14.2736C13.1881 14.2705 13.192 14.2673 13.1958 14.2639L14.8604 12.7897C15.1441 12.5725 15.2059 12.1965 15.108 11.8918H17.2319C17.6554 11.8918 18 11.5472 18 11.1237V10.8022C18 10.3787 17.6554 10.0341 17.2319 10.0341ZM9 2.11259C9.44344 2.11259 9.70917 2.22232 9.75778 2.28329C9.75421 2.5331 9.62787 2.76353 9.42229 2.90169C9.37051 2.89894 9.31943 2.89674 9.26848 2.89482C9.25131 2.89427 9.23415 2.89345 9.21698 2.89304C9.14351 2.89084 9.071 2.88974 9 2.88974C8.9496 2.88974 8.89824 2.89043 8.84647 2.89153C8.82147 2.89194 8.79634 2.89262 8.77121 2.89345C8.74127 2.89441 8.71106 2.89537 8.68085 2.89661C8.64638 2.89812 8.61191 2.89963 8.57758 2.90155C8.37199 2.7634 8.24579 2.53296 8.24222 2.28329C8.29083 2.22232 8.55656 2.11259 9 2.11259ZM10.8883 12.0188C10.8686 11.9743 10.8452 11.932 10.8186 11.8918H13.3443L12.2522 12.6146L10.6956 13.0649L10.6427 13.0661C10.9424 12.8163 11.0517 12.3898 10.8883 12.0188ZM8.03293 11.8918L7.65294 11.971L7.35919 11.8918H8.03293ZM5.06346 16.7773L4.57196 17.5022C4.54189 17.5467 4.49629 17.5767 4.44356 17.5868C4.39096 17.5969 4.3374 17.5859 4.29305 17.5557L0.928894 15.2702C0.837433 15.2082 0.813538 15.0832 0.87561 14.9917L1.36725 14.2666C1.39732 14.2223 1.44278 14.1922 1.49551 14.1822C1.50829 14.1797 1.52106 14.1785 1.53369 14.1785C1.57352 14.1785 1.61238 14.1904 1.64603 14.2133L1.82771 14.3367C1.82771 14.3368 1.82785 14.3368 1.82785 14.3368L5.01018 16.4986C5.10164 16.5607 5.12553 16.6858 5.06346 16.7773ZM14.5372 12.3738C14.5309 12.3784 14.5249 12.3833 14.519 12.3885L12.8526 13.8645C12.3828 14.233 11.8527 14.5005 11.2772 14.6595L10.3076 14.9275C9.68335 15.1001 9.0195 15.1359 8.38792 15.0313C7.77242 14.9294 6.8611 14.8153 6.05402 15.0022C5.58655 15.1104 5.15973 15.379 4.84923 15.7525L2.36041 14.0619L3.56836 12.5949C4.02525 12.1636 4.60464 11.9075 5.15945 11.8918H5.17017C5.34224 11.8889 5.52434 11.9396 5.71701 11.9936C5.75574 12.0043 5.79433 12.0151 5.83305 12.0256L7.57658 12.4959C7.61655 12.5066 7.65843 12.5079 7.69894 12.4993L9.98245 12.0232C10.086 12.0018 10.1948 12.0228 10.2809 12.0812C10.3365 12.1189 10.3799 12.1709 10.4064 12.2311C10.4847 12.4087 10.4109 12.6172 10.236 12.7073L9.45689 13.1198C9.34909 13.1769 9.29471 13.3005 9.32533 13.4186C9.35609 13.5369 9.46362 13.6173 9.58585 13.6157L10.7415 13.5907C10.7644 13.5901 10.7871 13.5867 10.8089 13.5804L12.4372 13.1094C12.4629 13.1019 12.4872 13.0907 12.5094 13.076L14.1522 11.9886C14.2901 11.9035 14.4735 11.8334 14.5712 11.9775C14.6472 12.0896 14.649 12.2913 14.5372 12.3738Z" fill="#3D3D4E"/>
</g>
<defs>
<clipPath id="clip0_2097_56128">
<rect width="18" height="18" fill="white" transform="translate(0 0.847656)"/>
</clipPath>
</defs>
</svg>
