<svg width="50" height="51" viewBox="0 0 50 51" fill="none" xmlns="http://www.w3.org/2000/svg">
<g clip-path="url(#clip0_2251_284)">
<path d="M31.9085 17.7416L31.5996 18.0791L31.9085 18.4167L40.2006 27.4777C40.2885 27.5805 40.315 27.7224 40.2701 27.85C40.2273 27.9586 40.1191 28.0274 40.0021 28.0198L39.9859 28.0187H39.9696H12.9916H12.4916V28.5187V49.9473C12.4916 50.1263 12.3465 50.2715 12.1674 50.2715C11.9884 50.2715 11.8432 50.1263 11.8432 49.9473V6.7056V6.35394L11.5123 6.23504C10.4701 5.86064 9.75604 4.89635 9.70089 3.79158C9.76049 2.38483 10.9179 1.27292 12.3276 1.27149C13.7006 1.2988 14.7996 2.41973 14.7994 3.79329L14.7993 3.81148L14.8007 3.82963C14.8852 4.99331 14.0651 6.02814 12.913 6.21172L12.4916 6.27886V6.70549V7.6945H12.9916H13.3214V8.06333C13.2955 8.08512 13.2726 8.09961 13.2576 8.10837C13.2282 8.12546 13.2041 8.13491 13.1918 8.13937C13.1783 8.14422 13.1685 8.1468 13.1643 8.14786C13.1604 8.14884 13.1582 8.14926 13.1582 8.14926C13.1582 8.14926 13.1602 8.14887 13.1647 8.14826C13.1726 8.14716 13.1838 8.14592 13.198 8.14474C13.2267 8.14234 13.258 8.14098 13.2837 8.14026L13.3131 8.13967L13.3204 8.1396L13.3214 8.1396H13.3217H39.9624C40.0966 8.14457 40.2181 8.22031 40.2817 8.3381C40.3222 8.45245 40.2955 8.58043 40.2113 8.6691L40.2113 8.66904L40.2053 8.67564L31.9085 17.7416ZM13.3214 8.06328L13.3214 7.6945H13.4916C13.4916 7.82629 13.4394 7.93017 13.3856 7.99736C13.364 8.02438 13.3418 8.0461 13.3214 8.06328Z" stroke="white"/>
<rect x="6.64062" y="49.6243" width="10.9895" height="1.14724" rx="0.573622" fill="white"/>
</g>
<defs>
<clipPath id="clip0_2251_284">
<rect width="50" height="50" fill="white" transform="translate(0 0.771484)"/>
</clipPath>
</defs>
</svg>
