<svg width="51" height="51" viewBox="0 0 51 51" fill="none" xmlns="http://www.w3.org/2000/svg">
<path d="M41.5313 44.749C41.3772 44.7492 41.2277 44.6968 41.1076 44.6004L21.7995 29.0686C21.7806 29.0531 21.7623 29.0369 21.7454 29.02L7.49612 14.7706C5.47309 12.7478 3.73955 10.4549 2.34477 7.95713C1.93098 7.21125 1.77121 6.35095 1.88958 5.50624C2.00796 4.66152 2.39806 3.87829 3.00093 3.27488C3.60381 2.67147 4.3867 2.28068 5.23131 2.16155C6.07592 2.04243 6.93636 2.20144 7.6826 2.61456C10.1815 4.00941 12.4754 5.74343 14.4988 7.76727L28.7495 22.0159C28.7664 22.0328 28.7826 22.051 28.7981 22.07L44.3292 41.3794C44.4337 41.5092 44.4865 41.673 44.4775 41.8394C44.4685 42.0058 44.3984 42.163 44.2806 42.2808L42.009 44.5524C41.9463 44.6151 41.8718 44.6647 41.7898 44.6985C41.7078 44.7322 41.6199 44.7494 41.5313 44.749ZM22.6752 28.0382L41.4819 43.1673L42.8961 41.7531L27.7677 22.9456L13.5448 8.72267C11.61 6.78775 9.41692 5.12971 7.02787 3.79565C6.53839 3.52466 5.97402 3.42034 5.42001 3.49843C4.866 3.57652 4.35245 3.83279 3.95695 4.22852C3.56145 4.62425 3.30548 5.13795 3.2277 5.692C3.14993 6.24606 3.25458 6.81037 3.52585 7.2997C4.85947 9.68845 6.51732 11.8811 8.4522 13.8152L22.6752 28.0382Z" fill="white"/>
<path d="M42.2837 40.596C42.1501 40.5959 42.0195 40.5563 41.9084 40.482C41.7973 40.4078 41.7107 40.3023 41.6596 40.1788C41.6085 40.0554 41.5951 39.9195 41.6211 39.7885C41.6472 39.6575 41.7115 39.5371 41.806 39.4426L47.5181 33.7304L46.2621 32.4743C46.1019 32.3159 45.9052 32.1995 45.6892 32.1353C45.4733 32.0712 45.2449 32.0614 45.0242 32.1068L36.9803 33.8074C36.805 33.8445 36.6221 33.8105 36.4719 33.7127C36.3216 33.6149 36.2164 33.4615 36.1793 33.2862C36.1422 33.1108 36.1763 32.9279 36.2741 32.7777C36.3718 32.6275 36.5252 32.5222 36.7006 32.4851L44.7445 30.7845C45.1853 30.6941 45.6416 30.7139 46.073 30.842C46.5043 30.9701 46.8974 31.2026 47.2175 31.5189L48.9513 33.2527C49.0779 33.3794 49.1491 33.5513 49.1491 33.7304C49.1491 33.9096 49.0779 34.0814 48.9513 34.2081L42.7614 40.398C42.6988 40.4609 42.6244 40.5109 42.5424 40.5448C42.4604 40.5788 42.3725 40.5962 42.2837 40.596Z" fill="white"/>
<path d="M33.4604 49.4205C33.2813 49.4205 33.1094 49.3493 32.9827 49.2225L31.249 47.4887C30.9324 47.1689 30.6997 46.7758 30.5716 46.3444C30.4435 45.913 30.4239 45.4566 30.5145 45.0158L32.2152 36.9752C32.2523 36.7999 32.3575 36.6465 32.5077 36.5487C32.6579 36.451 32.8408 36.4169 33.0162 36.454C33.1915 36.4911 33.345 36.5963 33.4427 36.7465C33.5405 36.8967 33.5746 37.0796 33.5375 37.255L31.8368 45.2989C31.7914 45.5193 31.8012 45.7475 31.8654 45.9633C31.9295 46.179 32.046 46.3755 32.2044 46.5354L33.4604 47.7921L39.1726 42.08C39.3001 41.9569 39.4707 41.8888 39.6479 41.8903C39.825 41.8919 39.9945 41.9629 40.1198 42.0882C40.2451 42.2135 40.3161 42.3829 40.3177 42.5601C40.3192 42.7373 40.2511 42.9079 40.128 43.0354L33.9382 49.2252C33.811 49.351 33.6392 49.4212 33.4604 49.4205Z" fill="white"/>
<path d="M44.9371 45.8834C44.7579 45.8834 44.5861 45.8121 44.4594 45.6854L35.8371 37.0597C35.7141 36.9323 35.6459 36.7616 35.6475 36.5845C35.649 36.4073 35.7201 36.2378 35.8454 36.1126C35.9706 35.9873 36.1401 35.9162 36.3173 35.9147C36.4944 35.9132 36.6651 35.9813 36.7925 36.1043L45.4148 44.73C45.5093 44.8245 45.5736 44.9449 45.5997 45.0759C45.6257 45.207 45.6124 45.3428 45.5612 45.4663C45.5101 45.5897 45.4235 45.6952 45.3124 45.7695C45.2013 45.8437 45.0707 45.8834 44.9371 45.8834Z" fill="white"/>
<path d="M28.6007 23.5777C28.455 23.5778 28.3133 23.5307 28.1965 23.4436C28.0798 23.3566 27.9943 23.2341 27.9528 23.0944C27.9113 22.9548 27.9161 22.8055 27.9663 22.6688C28.0166 22.5321 28.1097 22.4153 28.2318 22.3358L43.8703 12.1649L40.3568 8.65136C40.1172 8.41308 39.8148 8.24782 39.4848 8.17484C39.1549 8.10187 38.811 8.12419 38.4933 8.23919L20.2608 14.8858C20.0928 14.946 19.9077 14.9372 19.7461 14.8614C19.5845 14.7855 19.4594 14.6488 19.3983 14.4811C19.3371 14.3134 19.3449 14.1283 19.4198 13.9662C19.4947 13.8042 19.6306 13.6783 19.798 13.6162L38.0298 6.96892C38.5893 6.7667 39.1948 6.72761 39.7757 6.8562C40.3565 6.9848 40.8889 7.27579 41.3108 7.69527L45.4149 11.7993C45.486 11.8705 45.5403 11.9566 45.5739 12.0514C45.6074 12.1462 45.6194 12.2473 45.6089 12.3474C45.5984 12.4474 45.5657 12.5438 45.5132 12.6296C45.4607 12.7154 45.3897 12.7884 45.3054 12.8432L28.969 23.4682C28.8594 23.5396 28.7315 23.5776 28.6007 23.5777Z" fill="white"/>
<path d="M23.2642 13.7542C23.085 13.7541 22.9132 13.6829 22.7865 13.5562L21.3291 12.0988C21.2036 11.9733 21.104 11.8243 21.036 11.6603C20.9681 11.4963 20.9331 11.3205 20.9331 11.143C20.9331 10.9655 20.9681 10.7897 21.036 10.6258C21.104 10.4618 21.2036 10.3128 21.3291 10.1873L22.7055 8.81228C22.9629 8.5664 23.3052 8.4292 23.6612 8.4292C24.0172 8.4292 24.3595 8.5664 24.6169 8.81228L27.1561 11.3521C27.2792 11.4796 27.3473 11.6503 27.3458 11.8274C27.3442 12.0046 27.2732 12.174 27.1479 12.2993C27.0226 12.4246 26.8531 12.4957 26.676 12.4972C26.4988 12.4987 26.3281 12.4306 26.2007 12.3075L23.6609 9.76768L22.2845 11.144L23.7426 12.6008C23.8371 12.6953 23.9014 12.8157 23.9275 12.9467C23.9535 13.0778 23.9401 13.2136 23.889 13.337C23.8379 13.4605 23.7513 13.566 23.6402 13.6403C23.5291 13.7145 23.3985 13.7541 23.2649 13.7542H23.2642Z" fill="white"/>
<path d="M12.0059 45.8836C11.8267 45.8836 11.6549 45.8124 11.5282 45.6857L7.42415 41.5823C7.00425 41.1605 6.713 40.628 6.58438 40.0469C6.45577 39.4658 6.4951 38.8601 6.6978 38.3005L13.3451 20.0688C13.4072 19.9014 13.533 19.7654 13.6951 19.6905C13.8571 19.6156 14.0422 19.6079 14.21 19.669C14.3777 19.7302 14.5144 19.8552 14.5902 20.0168C14.6661 20.1785 14.6749 20.3635 14.6147 20.5316L7.96739 38.7634C7.85228 39.081 7.8299 39.4248 7.90288 39.7546C7.97587 40.0845 8.14119 40.3868 8.37955 40.6262L11.8931 44.1397L22.0647 28.5019C22.1125 28.4262 22.1749 28.3608 22.2482 28.3094C22.3214 28.258 22.4042 28.2217 22.4917 28.2026C22.5791 28.1835 22.6695 28.182 22.7575 28.1981C22.8456 28.2142 22.9295 28.2476 23.0045 28.2965C23.0796 28.3453 23.1441 28.4085 23.1945 28.4825C23.2449 28.5565 23.28 28.6398 23.2979 28.7275C23.3158 28.8152 23.3162 28.9055 23.2989 28.9934C23.2815 29.0812 23.247 29.1647 23.1971 29.239L12.5721 45.5762C12.5172 45.6605 12.4442 45.7315 12.3584 45.784C12.2726 45.8364 12.1762 45.8691 12.0762 45.8796C12.0528 45.8822 12.0294 45.8836 12.0059 45.8836Z" fill="white"/>
<path d="M11.5585 27.6253C11.3793 27.6253 11.2075 27.5541 11.0808 27.4273L8.54092 24.8868C8.28758 24.6334 8.14526 24.2897 8.14526 23.9314C8.14526 23.5731 8.28758 23.2294 8.54092 22.976L9.91727 21.5996C10.1746 21.3536 10.517 21.2163 10.873 21.2163C11.2291 21.2163 11.5714 21.3536 11.8288 21.5996L13.2862 23.0564C13.4132 23.1831 13.4848 23.3551 13.485 23.5345C13.4853 23.7139 13.4142 23.8861 13.2875 24.0132C13.1609 24.1402 12.9889 24.2117 12.8094 24.212C12.63 24.2122 12.4578 24.1412 12.3308 24.0145L10.8727 22.5551L9.49633 23.9314L12.0362 26.4719C12.1307 26.5664 12.195 26.6868 12.221 26.8179C12.2471 26.9489 12.2337 27.0847 12.1826 27.2082C12.1315 27.3316 12.0449 27.4372 11.9338 27.5114C11.8227 27.5856 11.6921 27.6253 11.5585 27.6253Z" fill="white"/>
</svg>
