<svg width="51" height="51" viewBox="0 0 51 51" fill="none" xmlns="http://www.w3.org/2000/svg">
<g clip-path="url(#clip0_2251_276)">
<path d="M5.04495 16.5627C5.11714 16.5894 5.19388 16.6016 5.27079 16.5986C5.3477 16.5956 5.42326 16.5774 5.49315 16.5452C5.56304 16.513 5.62589 16.4673 5.67809 16.4107C5.7303 16.3541 5.77084 16.2878 5.79739 16.2156C6.84908 13.3725 8.61692 10.8491 10.9298 8.88953C10.9895 8.84009 11.0388 8.7793 11.0748 8.71068C11.1108 8.64207 11.1328 8.56699 11.1396 8.48979C11.1464 8.4126 11.1379 8.33482 11.1144 8.26097C11.0909 8.18711 11.0531 8.11864 11.003 8.05952C10.9529 8.0004 10.8915 7.95181 10.8225 7.91656C10.7535 7.88131 10.6782 7.86009 10.6009 7.85414C10.5237 7.8482 10.446 7.85764 10.3724 7.88192C10.2988 7.90619 10.2308 7.94483 10.1722 7.99558C7.70518 10.0858 5.81954 12.7776 4.69778 15.8102C4.67117 15.8824 4.65904 15.9592 4.66208 16.0361C4.66512 16.1129 4.68328 16.1885 4.71552 16.2584C4.74776 16.3282 4.79344 16.3911 4.84997 16.4433C4.90649 16.4955 4.97275 16.5361 5.04495 16.5627Z" fill="white"/>
<path d="M12.1145 7.84247C12.2314 7.84249 12.3457 7.80734 12.4424 7.74159C12.6093 7.6286 12.7803 7.51698 12.9502 7.40956C13.0161 7.36898 13.0733 7.31575 13.1185 7.25294C13.1637 7.19013 13.196 7.11899 13.2136 7.04363C13.2312 6.96826 13.2336 6.89017 13.2208 6.81384C13.2081 6.73752 13.1803 6.66449 13.1391 6.59896C13.0979 6.53343 13.0442 6.47671 12.981 6.43206C12.9178 6.38741 12.8464 6.35573 12.7709 6.33884C12.6953 6.32195 12.6172 6.32018 12.541 6.33364C12.4648 6.3471 12.392 6.37553 12.3269 6.41727C12.1451 6.53143 11.9628 6.65038 11.7849 6.77089C11.681 6.84121 11.6024 6.94303 11.5607 7.06136C11.519 7.17969 11.5163 7.30828 11.5532 7.42822C11.59 7.54815 11.6644 7.65309 11.7654 7.72759C11.8663 7.8021 11.9885 7.84222 12.114 7.84208L12.1145 7.84247Z" fill="white"/>
<path d="M43.7315 40.4412C43.6217 40.3314 43.4726 40.2696 43.3173 40.2696C43.1619 40.2696 43.0129 40.3314 42.903 40.4412L42.4603 40.8841L41.8789 40.3027C43.052 38.7448 43.7181 36.8641 43.787 34.9151C43.8559 32.9661 43.3244 31.043 42.2643 29.4061C43.8303 24.8844 43.8191 19.9656 42.2324 15.4511C40.6456 10.9366 37.5769 7.09241 33.5261 4.54487C29.4754 1.99732 24.6813 0.896546 19.925 1.42187C15.1687 1.9472 10.7304 4.06767 7.33324 7.43782C3.93608 10.808 1.78025 15.2292 1.21698 19.9812C0.65371 24.7332 1.71619 29.5358 4.23132 33.6068C6.74646 37.6778 10.566 40.7771 15.0677 42.3998C19.5694 44.0225 24.488 44.073 29.0221 42.5431C30.6611 43.6233 32.5942 44.1702 34.5563 44.1087C36.5184 44.0472 38.4134 43.3803 39.9815 42.1994L40.563 42.7808L40.1202 43.2235C40.0103 43.3334 39.9486 43.4824 39.9486 43.6378C39.9486 43.7932 40.0103 43.9423 40.1202 44.0521L45.6035 49.5355C45.84 49.7734 46.1214 49.962 46.4313 50.0903C46.7412 50.2187 47.0735 50.2843 47.409 50.2833C47.914 50.2833 48.4076 50.1335 48.8275 49.8529C49.2474 49.5724 49.5746 49.1736 49.7679 48.707C49.9611 48.2405 50.0117 47.7271 49.9131 47.2318C49.8146 46.7365 49.5714 46.2816 49.2143 45.9245L43.7315 40.4412ZM35.4237 7.40302C38.2218 9.85324 40.2824 13.034 41.375 16.5891C42.4675 20.1443 42.5488 23.9333 41.6097 27.532L40.7396 27.5929C39.3876 26.3354 37.6991 25.4982 35.8797 25.1834C34.0604 24.8685 32.1887 25.0895 30.4928 25.8195C30.5227 25.5737 30.6403 25.347 30.824 25.181L34.4444 21.9735C35.0393 21.4453 35.4705 20.7578 35.6868 19.9922C35.9032 19.2266 35.8956 18.415 35.6651 17.6536C35.4265 16.8695 34.9656 16.1714 34.3382 15.644C33.7109 15.1165 32.944 14.7824 32.1306 14.6819L31.7629 14.6367C31.468 14.6007 31.1968 14.4572 31.0012 14.2337C30.9438 14.169 30.9074 14.0883 30.897 14.0024C30.8865 13.9166 30.9024 13.8295 30.9426 13.7529L31.703 12.4527C32.6214 10.8835 33.7049 9.41682 34.9349 8.07773L35.4237 7.40302ZM12.6231 4.89267L14.989 6.67167C15.2046 6.83362 15.4293 6.98305 15.662 7.11923C16.4003 7.5528 17.0357 8.14129 17.5246 8.84413L18.9229 10.8606C19.1188 11.1416 19.2198 11.4778 19.2112 11.8202C19.2026 12.1626 19.0848 12.4932 18.875 12.764L18.2264 13.6054C18.1296 13.7305 18.002 13.8282 17.8559 13.8888C17.7099 13.9495 17.5505 13.971 17.3936 13.9512L16.658 13.8575C16.0249 13.7762 15.3819 13.8835 14.8096 14.1661C14.2372 14.4486 13.761 14.8938 13.4406 15.4459C13.3454 15.6 13.2073 15.723 13.0434 15.8001C12.8794 15.8771 12.6966 15.9049 12.5172 15.8799L10.8341 15.6661C10.2203 15.5861 9.59628 15.6788 9.0322 15.9337C8.46812 16.1887 7.98626 16.5958 7.64072 17.1094C7.31018 17.5971 7.12925 18.1708 7.12014 18.7599C7.11104 19.3491 7.27414 19.928 7.58945 20.4258L8.71201 22.1974C9.09989 22.805 9.70241 23.2442 10.3996 23.4276C11.0967 23.6109 11.8374 23.525 12.474 23.1868L13.6293 22.5678C13.864 22.4428 14.127 22.3806 14.3928 22.3871C14.6586 22.3935 14.9183 22.4685 15.1467 22.6047L17.3394 23.9203C17.5226 24.0305 17.7335 24.086 17.9472 24.0803C18.7333 24.0595 19.5059 24.4728 20.017 25.1854L21.0898 26.681C21.174 26.7981 21.2644 26.914 21.3586 27.0248L22.7621 28.6759C22.7752 28.6907 22.7847 28.7084 22.79 28.7275C22.7952 28.7466 22.7959 28.7667 22.7922 28.7861C22.7813 28.8262 22.7566 28.8611 22.7224 28.8846L20.6143 30.5034C19.9534 31.0091 19.4671 31.7086 19.2233 32.5043L18.5147 34.8032C18.4815 34.9117 18.4269 35.0124 18.3543 35.0995L17.6644 35.929C17.0733 36.6287 16.7093 37.4919 16.6211 38.4036C16.6135 38.4883 16.5848 38.5697 16.5376 38.6405C16.4904 38.7112 16.4263 38.769 16.351 38.8085L15.709 34.9561C15.6122 34.3787 15.3763 33.8336 15.0218 33.3678L12.6415 30.2471C12.4723 30.0255 12.3472 29.7736 12.2729 29.5049L11.4875 26.6706C11.3215 26.0776 11.0049 25.5376 10.5686 25.1031C10.1322 24.6686 9.59094 24.3543 8.99726 24.1907L8.82597 24.1439C8.57166 24.0744 8.33824 23.9436 8.14609 23.7631L6.68076 22.3843C6.48965 22.2045 6.32547 21.998 6.19326 21.7714C5.81191 21.1166 5.2461 20.5888 4.56649 20.2537C3.88689 19.9187 3.12364 19.7913 2.37206 19.8875C2.78144 16.7581 3.92305 13.7694 5.7042 11.164C7.48534 8.55865 9.85581 6.41004 12.6231 4.89267ZM22.2332 42.4828C11.191 42.4829 2.2081 33.4994 2.2081 22.4573C2.2081 21.9997 2.22499 21.5461 2.25537 21.0961L2.35361 21.0766C2.90012 20.9706 3.46607 21.0375 3.97286 21.2678C4.47964 21.4982 4.90213 21.8807 5.18163 22.3621C5.37056 22.6859 5.60513 22.9807 5.87812 23.2376L7.34345 24.6168C7.67541 24.9287 8.07864 25.1546 8.51796 25.2748L8.68915 25.3215C9.08715 25.4311 9.45003 25.6418 9.74254 25.933C10.0351 26.2243 10.2472 26.5863 10.3585 26.9839L11.1436 29.8183C11.2578 30.2308 11.4501 30.6176 11.7101 30.9576L14.0903 34.0784C14.3293 34.3923 14.4882 34.7596 14.5534 35.1486L15.2004 39.0304C15.241 39.2996 15.377 39.5452 15.5836 39.7225C15.7901 39.8999 16.0535 39.9971 16.3258 39.9966C16.4763 39.9967 16.6253 39.9669 16.7642 39.9087C17.046 39.7909 17.2903 39.5984 17.4709 39.352C17.6514 39.1056 17.7612 38.8146 17.7886 38.5103C17.8554 37.8349 18.1264 37.1958 18.5655 36.6782L19.2552 35.8487C19.4269 35.6428 19.5558 35.4047 19.6345 35.1483L20.3432 32.8494C20.5157 32.2861 20.86 31.7908 21.3278 31.4328L23.4359 29.8145C23.7088 29.6098 23.8926 29.308 23.9493 28.9716C23.9794 28.7849 23.9687 28.594 23.9178 28.4119C23.867 28.2298 23.7773 28.061 23.6549 27.9169L22.2515 26.2659C22.178 26.1795 22.1075 26.0892 22.0418 25.9976L20.969 24.502C20.2341 23.4775 19.099 22.8828 17.9305 22.9081L15.7494 21.5995C15.347 21.3596 14.8894 21.2275 14.4211 21.2162C13.9527 21.2048 13.4893 21.3145 13.0757 21.5347L11.9205 22.1536C11.5451 22.3531 11.1083 22.4039 10.6971 22.2957C10.286 22.1876 9.93064 21.9285 9.70195 21.5701L8.57968 19.7982C8.38643 19.4933 8.28645 19.1385 8.29202 18.7775C8.29759 18.4165 8.40846 18.065 8.61103 17.7661C8.83553 17.4323 9.14863 17.1677 9.51518 17.002C9.88174 16.8363 10.2872 16.776 10.6861 16.828L12.3696 17.0419C12.7777 17.0978 13.1931 17.0321 13.564 16.8529C13.9348 16.6737 14.2445 16.389 14.4542 16.0346C14.6589 15.6819 14.9631 15.3975 15.3288 15.2169C15.6944 15.0364 16.1052 14.9678 16.5097 15.0196L17.2457 15.1138C17.6053 15.1587 17.9705 15.1093 18.3051 14.9702C18.6398 14.8312 18.9326 14.6074 19.1545 14.3209L19.8031 13.4794C20.1654 13.012 20.3688 12.441 20.3837 11.8498C20.3986 11.2586 20.2242 10.6781 19.8859 10.1931L18.4874 8.17636C17.9011 7.33342 17.139 6.62767 16.2535 6.10781C16.0595 5.99423 15.8722 5.86968 15.6924 5.73476L13.7881 4.30243C17.125 2.74746 20.8265 2.14421 24.4845 2.55918C28.1425 2.97416 31.6148 4.39125 34.5186 6.65419L34.048 7.31083C32.7714 8.70451 31.6464 10.2298 30.6918 11.861L29.9281 13.1667C29.765 13.455 29.6957 13.787 29.7299 14.1165C29.7641 14.4459 29.9001 14.7566 30.1189 15.0053C30.5039 15.4457 31.0378 15.7287 31.6185 15.7999L31.9851 15.845C32.5729 15.9176 33.1271 16.1593 33.5804 16.5406C34.0336 16.922 34.3665 17.4267 34.5386 17.9935C34.7034 18.5405 34.7081 19.1234 34.5521 19.6731C34.3961 20.2227 34.0859 20.7162 33.6582 21.0951L30.0481 24.3025C29.8117 24.5151 29.6234 24.7757 29.4957 25.0668C29.368 25.358 29.3039 25.673 29.3077 25.9909V26.4324C28.0358 27.2041 26.9623 28.263 26.1732 29.5243C25.3842 30.7856 24.9016 32.2141 24.764 33.6955C24.6264 35.1769 24.8377 36.6698 25.381 38.0548C25.9243 39.4398 26.7844 40.6783 27.8925 41.6711C26.0546 42.2111 24.1488 42.4845 22.2332 42.4829V42.4828ZM34.2578 42.9418C32.6038 42.9418 30.9869 42.4513 29.6116 41.5324C28.2363 40.6134 27.1644 39.3073 26.5314 37.7792C25.8984 36.251 25.7328 34.5695 26.0555 32.9472C26.3782 31.325 27.1747 29.8348 28.3443 28.6652C29.5139 27.4957 31.0041 26.6992 32.6263 26.3765C34.2486 26.0538 35.9301 26.2194 37.4583 26.8524C38.9864 27.4854 40.2925 28.5573 41.2114 29.9326C42.1303 31.3079 42.6208 32.9249 42.6208 34.5789C42.6183 36.7961 41.7363 38.9218 40.1685 40.4896C38.6007 42.0573 36.475 42.9392 34.2578 42.9417V42.9418ZM41.115 41.1968L41.6311 41.7129L41.3918 41.9522L40.8757 41.4361C40.9567 41.3577 41.0365 41.2779 41.115 41.1967V41.1968ZM41.3634 43.6382L43.3165 41.6845L43.918 42.2859L41.9643 44.2391L41.3634 43.6382ZM48.3859 48.7065C48.1267 48.9652 47.7753 49.1105 47.4091 49.1105C47.0428 49.1105 46.6915 48.9652 46.4322 48.7065L42.7934 45.0677L44.7472 43.1145L48.3859 46.7534C48.6448 47.0125 48.7903 47.3637 48.7903 47.73C48.7903 48.0962 48.6448 48.4475 48.3859 48.7065Z" fill="white"/>
<path d="M34.2582 27.3162C32.8218 27.3162 31.4175 27.7421 30.2231 28.5402C29.0287 29.3383 28.0978 30.4726 27.5481 31.7997C26.9984 33.1269 26.8546 34.5872 27.1348 35.9961C27.415 37.405 28.1068 38.6991 29.1225 39.7149C30.1383 40.7306 31.4324 41.4224 32.8413 41.7026C34.2502 41.9828 35.7105 41.839 37.0377 41.2893C38.3648 40.7396 39.4991 39.8087 40.2972 38.6143C41.0953 37.4199 41.5212 36.0156 41.5212 34.5792C41.519 32.6536 40.7531 30.8075 39.3915 29.4459C38.0299 28.0843 36.1838 27.3184 34.2582 27.3162ZM34.2582 28.488C35.43 28.4871 36.5769 28.8264 37.5596 29.4646C37.4482 29.6399 37.3502 29.8233 37.2666 30.0134L37.1388 30.3259C36.9723 30.7102 36.698 31.0379 36.3492 31.2696C36.0003 31.5013 35.5918 31.6269 35.1731 31.6313H33.0475C32.9457 31.6267 32.849 31.5852 32.7755 31.5146C32.702 31.4439 32.6567 31.349 32.6481 31.2474L32.5631 30.3867C32.5102 29.8602 32.3554 29.349 32.1073 28.8816C32.7944 28.621 33.5233 28.4877 34.2582 28.488ZM28.1672 34.5792C28.1678 33.541 28.4337 32.5201 28.9397 31.6136C29.4457 30.707 30.175 29.9449 31.0583 29.3994C31.2434 29.7376 31.3586 30.1095 31.397 30.4931L31.482 31.3643C31.5187 31.7553 31.699 32.1189 31.9882 32.3846C32.2774 32.6504 32.6548 32.7995 33.0475 32.8032H35.1731C35.8195 32.7986 36.4507 32.6066 36.9901 32.2504C37.5295 31.8942 37.954 31.3891 38.212 30.7963L38.3398 30.4941C38.3843 30.3945 38.4339 30.2973 38.4886 30.203C39.0409 30.7365 39.4877 31.3693 39.8057 32.0682C37.9435 35.4779 35.128 38.271 31.7035 40.1059C30.6485 39.6176 29.7552 38.8379 29.1287 37.8587C28.5022 36.8795 28.1686 35.7416 28.1672 34.5792ZM34.2582 40.6702C33.9143 40.6698 33.5711 40.6404 33.2322 40.5823C36.0985 38.8461 38.5107 36.4529 40.2696 33.6004C40.4121 34.4717 40.3634 35.3636 40.1268 36.2142C39.8903 37.0648 39.4715 37.8537 38.8996 38.5264C38.3278 39.199 37.6164 39.7392 36.815 40.1094C36.0135 40.4797 35.1411 40.6713 34.2582 40.6708V40.6702Z" fill="white"/>
</g>
<defs>
<clipPath id="clip0_2251_276">
<rect width="50" height="50" fill="white" transform="translate(0.5 0.771484)"/>
</clipPath>
</defs>
</svg>
