<svg width="40" height="41" viewBox="0 0 40 41" fill="none" xmlns="http://www.w3.org/2000/svg">
<g clip-path="url(#clip0_2097_57970)">
<path d="M13.3311 23.3705C14.0678 23.3705 14.6644 23.9675 14.6644 24.7038C14.6644 25.0719 14.9629 25.3704 15.3311 25.3704C15.6993 25.3704 15.9977 25.0719 15.9977 24.7038C15.9932 23.4916 15.1716 22.4349 13.9978 22.1319V21.3705C13.9978 21.0024 13.6993 20.7039 13.3311 20.7039C12.963 20.7039 12.6645 21.0024 12.6645 21.3705V22.1319C11.3657 22.4662 10.5187 23.7145 10.688 25.0449C10.8573 26.3753 11.99 27.372 13.3311 27.3704C14.0678 27.3704 14.6644 27.9674 14.6644 28.7037C14.6644 29.44 14.0678 30.037 13.3311 30.037C12.5948 30.037 11.9979 29.44 11.9979 28.7037C11.9979 28.3355 11.6994 28.037 11.3312 28.037C10.963 28.037 10.6646 28.3355 10.6646 28.7037C10.6691 29.9159 11.491 30.9725 12.6645 31.2756V32.0369C12.6645 32.4051 12.963 32.7036 13.3311 32.7036C13.6993 32.7036 13.9978 32.4051 13.9978 32.0369V31.2775C15.3008 30.9465 16.152 29.6958 15.9824 28.3625C15.8129 27.0289 14.6755 26.0312 13.3311 26.0371C12.5948 26.0371 11.9979 25.4401 11.9979 24.7038C11.9979 23.9675 12.5948 23.3705 13.3311 23.3705Z" fill="#D92C0A"/>
<path d="M15.3311 16.7041H11.3312C10.963 16.7041 10.6646 17.0026 10.6646 17.3708C10.6646 17.7389 10.963 18.0374 11.3312 18.0374H15.3311C15.6993 18.0374 15.9978 17.7389 15.9978 17.3708C15.9978 17.0026 15.6993 16.7041 15.3311 16.7041Z" fill="#17161A"/>
<path d="M15.3311 35.3699H11.3312C10.963 35.3699 10.6646 35.6684 10.6646 36.0365C10.6646 36.4047 10.963 36.7032 11.3312 36.7032H15.3311C15.6993 36.7032 15.9978 36.4047 15.9978 36.0365C15.9978 35.6684 15.6993 35.3699 15.3311 35.3699Z" fill="#17161A"/>
<path d="M36.5297 25.7036L26.7428 8.75383C27.345 8.15651 27.8778 7.49279 28.3306 6.77536C29.4419 4.97527 29.6405 3.26665 28.8892 1.96557C27.3941 -0.624535 22.6722 -0.603703 18.1395 2.01277C17.5376 2.3653 16.9588 2.7556 16.4064 3.18137L15.8684 2.5707C15.2268 1.84416 14.3043 1.4275 13.3349 1.42685C12.3658 1.4275 11.4433 1.84416 10.8017 2.5707L3.51382 10.8293C2.96891 11.4465 2.66813 12.2417 2.66846 13.0653V34.0368C2.67236 37.3489 5.35622 40.0331 8.66832 40.0366H18.0014C21.3135 40.0331 23.9977 37.3489 24.0013 34.0368V13.0653C24 12.423 23.8148 11.7945 23.4681 11.2538H23.4733C24.2705 10.7928 25.027 10.2652 25.7347 9.67666L35.3751 26.3703C36.6647 28.6023 35.9004 31.4571 33.6677 32.7461L25.5853 37.4127C25.2298 37.6158 24.8486 37.7711 24.4521 37.8739C24.0964 37.9687 23.8844 38.3339 23.9792 38.6897C24.0736 39.0455 24.4388 39.2574 24.7949 39.1626C25.3034 39.0289 25.7923 38.8287 26.2486 38.5673L34.3311 33.9007C37.2025 32.2448 38.1872 28.5743 36.5297 25.7036ZM22.668 34.0368C22.6651 36.6129 20.5776 38.7004 18.0014 38.7033H8.66832C6.09253 38.7004 4.00469 36.6129 4.00176 34.0368V13.0653C4.00176 12.5666 4.18372 12.0851 4.51379 11.7111L11.8017 3.4535C12.1897 3.01308 12.748 2.76048 13.3349 2.76015C13.9218 2.76048 14.4804 3.01308 14.8684 3.4535L21.3702 10.8218C19.8839 11.523 18.2596 11.8833 16.6164 11.8765C16.6467 11.7095 16.6639 11.5402 16.6681 11.3706C16.6662 9.53051 15.175 8.03965 13.3349 8.03738C13.2616 8.03965 13.1894 8.0543 13.121 8.08067C12.7851 8.03933 12.4726 8.25938 12.3977 8.58945C12.1604 9.50056 12.277 10.4677 12.7236 11.2964C13.1666 12.0301 13.8557 12.5825 14.6682 12.8546C14.0839 13.3878 13.2392 13.5242 12.5165 13.2026C11.7936 12.8807 11.33 12.1616 11.3349 11.3706C11.3349 11.0025 11.0364 10.704 10.6683 10.704C10.3001 10.704 10.0016 11.0025 10.0016 11.3706C10 12.8485 10.9726 14.1505 12.3906 14.5678C13.8082 14.9851 15.3313 14.4178 16.1304 13.1746C16.3928 13.2023 16.6564 13.2169 16.9204 13.2179C18.7814 13.1616 20.6082 12.7017 22.2741 11.87C22.5284 12.217 22.666 12.6353 22.668 13.0653V34.0368ZM15.3348 11.3706C15.3322 11.4683 15.3225 11.5656 15.3055 11.662C14.7173 11.509 14.2079 11.1408 13.8785 10.6298C13.6728 10.2544 13.5845 9.82607 13.6249 9.39997C14.6041 9.54353 15.3309 10.3811 15.3348 11.3706ZM22.806 10.0933C22.7396 10.1321 22.6729 10.1653 22.6062 10.2027L17.2928 4.18069C17.7765 3.81384 18.282 3.47661 18.8061 3.17063C22.5616 1.0014 26.6507 0.756292 27.734 2.63743C28.2294 3.49419 28.038 4.71746 27.1959 6.08072C26.8629 6.60967 26.4791 7.10478 26.0494 7.55855L26.0426 7.5465C25.6315 6.8333 24.9733 6.2949 24.1927 6.03254L21.5821 5.15007C21.237 5.04493 20.8708 5.2334 20.7559 5.57519C20.6407 5.91731 20.8188 6.28872 21.1576 6.41339L23.7682 7.2913C24.2406 7.45048 24.6387 7.77631 24.888 8.20794L25.0579 8.50188C24.3584 9.1018 23.6045 9.635 22.806 10.0953V10.0933Z" fill="#17161A"/>
<path d="M25.421 26.9084C25.605 27.2271 26.0128 27.3365 26.3315 27.1523L30.9502 24.4857C31.1582 24.3675 31.2868 24.1468 31.2875 23.9075C31.2878 23.6683 31.1602 23.4473 30.9528 23.3281C30.7452 23.209 30.49 23.21 30.2836 23.3311L25.6649 25.9977C25.3462 26.1819 25.2368 26.5894 25.421 26.9084Z" fill="#17161A"/>
<path d="M26.2648 31.0355C26.4484 31.3545 26.8563 31.4642 27.1753 31.2799L32.9486 27.9467C33.2676 27.7628 33.377 27.3549 33.1927 27.0359C33.0088 26.7169 32.6009 26.6075 32.2819 26.7914L26.5086 30.1247C26.1899 30.3089 26.0806 30.7165 26.2648 31.0355Z" fill="#17161A"/>
<path d="M26.6398 23.0215C26.7567 23.0215 26.8716 22.9906 26.9731 22.932L29.2824 21.5987C29.4904 21.4805 29.619 21.2598 29.6196 21.0206C29.6199 20.7817 29.4923 20.5603 29.285 20.4412C29.0776 20.322 28.8221 20.323 28.6157 20.4441L26.3065 21.7774C26.0451 21.9285 25.9178 22.2357 25.9959 22.5274C26.0741 22.8187 26.3381 23.0215 26.6398 23.0215Z" fill="#17161A"/>
</g>
<defs>
<clipPath id="clip0_2097_57970">
<rect width="40" height="40" fill="white" transform="translate(0 0.0361328)"/>
</clipPath>
</defs>
</svg>
