<svg width="40" height="41" viewBox="0 0 40 41" fill="none" xmlns="http://www.w3.org/2000/svg">
<g clip-path="url(#clip0_2097_57987)">
<path d="M38.5275 24.2693L37.1478 23.4727C37.3795 22.3202 37.4967 21.1662 37.4967 20.0361C37.4967 18.8897 37.3814 17.7345 37.1536 16.5961L38.5275 15.8029C38.953 15.5572 39.2575 15.1605 39.3846 14.6859C39.5117 14.2113 39.4465 13.7156 39.2008 13.2901L35.4434 6.78212C35.1977 6.3566 34.8011 6.05218 34.3265 5.92506C33.8518 5.79793 33.3562 5.86314 32.9306 6.10885L31.5555 6.90275C29.8186 5.37468 27.7745 4.19206 25.5985 3.45625V1.87566C25.5985 0.861338 24.7733 0.0361328 23.759 0.0361328H16.2443C15.23 0.0361328 14.4048 0.861338 14.4048 1.87566V3.45633C12.2404 4.18917 10.1991 5.37335 8.45573 6.90744L7.07264 6.10885C6.64704 5.86314 6.15131 5.79785 5.67671 5.92506C5.20211 6.05226 4.80548 6.3566 4.55976 6.78212L0.802424 13.2901C0.55671 13.7156 0.491504 14.2113 0.618627 14.6859C0.745751 15.1605 1.05017 15.5572 1.47569 15.8029L2.85542 16.5995C2.62387 17.752 2.50653 18.906 2.50653 20.0361C2.50653 21.1824 2.62191 22.3376 2.8497 23.4761L1.47577 24.2693C0.597336 24.7765 0.29534 25.9037 0.802424 26.7822L4.55976 33.2901C5.06693 34.1685 6.19413 34.4706 7.07264 33.9634L8.44759 33.1695C10.1846 34.6976 12.2286 35.8802 14.4048 36.6161V38.1966C14.4048 39.2109 15.23 40.0361 16.2443 40.0361H23.759C24.7733 40.0361 25.5985 39.2109 25.5985 38.1966V36.6159C27.763 35.8831 29.8043 34.6989 31.5476 33.1649L32.9306 33.9634C33.809 34.4706 34.9364 34.1685 35.4435 33.2901L39.2009 26.7822C39.7079 25.9037 39.4059 24.7765 38.5275 24.2693ZM38.1839 26.1951L34.4266 32.703C34.2432 33.0208 33.8355 33.13 33.5177 32.9465L31.7649 31.9345C31.5422 31.8059 31.2616 31.8373 31.0728 32.0119C29.2808 33.6693 27.1247 34.9198 24.8377 35.6283C24.5919 35.7045 24.4243 35.9318 24.4243 36.1891V38.1966C24.4243 38.5635 24.1259 38.862 23.759 38.862H16.2443C15.8774 38.862 15.5789 38.5635 15.5789 38.1966V36.1892C15.5789 35.9319 15.4113 35.7045 15.1656 35.6284C12.8646 34.9155 10.7058 33.6666 8.92258 32.0167C8.81135 31.9138 8.66818 31.8606 8.52376 31.8606C8.42309 31.8606 8.32188 31.8864 8.23037 31.9392L6.48556 32.9465C6.16775 33.1299 5.76008 33.0207 5.57667 32.703L1.81933 26.1951C1.63593 25.8774 1.7452 25.4696 2.06285 25.2862L3.80626 24.2796C4.02888 24.151 4.14199 23.8927 4.0854 23.6419C3.81683 22.4516 3.6807 21.2383 3.6807 20.0361C3.6807 18.8541 3.81886 17.6421 4.09143 16.4336C4.14794 16.1829 4.03483 15.9245 3.81229 15.7961L2.06285 14.786C1.90896 14.6972 1.7989 14.5537 1.75287 14.382C1.70692 14.2104 1.73049 14.031 1.81933 13.8772L5.57667 7.3692C5.66552 7.21531 5.809 7.10517 5.98074 7.05922C6.15233 7.0132 6.33174 7.03684 6.48563 7.12568L8.23843 8.13766C8.46121 8.26635 8.74176 8.23488 8.93056 8.06024C10.7227 6.40286 12.8787 5.15238 15.1656 4.44388C15.4114 4.36772 15.579 4.1404 15.579 3.8831V1.87566C15.579 1.50877 15.8775 1.2103 16.2444 1.2103H23.7591C24.1259 1.2103 24.4244 1.50877 24.4244 1.87566V3.8831C24.4244 4.1404 24.592 4.36772 24.8377 4.44388C27.1387 5.15668 29.2975 6.4056 31.0808 8.05555C31.2696 8.23026 31.5502 8.26165 31.773 8.13304L33.5178 7.12568C33.6718 7.03684 33.8511 7.0132 34.0227 7.05922C34.1944 7.10525 34.3378 7.21531 34.4268 7.3692L38.1841 13.8772C38.273 14.031 38.2966 14.2104 38.2506 14.382C38.2045 14.5537 38.0945 14.6972 37.9406 14.786L36.1972 15.7926C35.9746 15.9211 35.8614 16.1795 35.918 16.4303C36.1866 17.6206 36.3227 18.8337 36.3227 20.0361C36.3227 21.2181 36.1846 22.4302 35.912 23.6386C35.8555 23.8893 35.9686 24.1476 36.1912 24.2761L37.9406 25.2862C38.2582 25.4696 38.3674 25.8774 38.1839 26.1951Z" fill="#17161A"/>
<path d="M19.9997 8.177C13.4605 8.177 8.14062 13.497 8.14062 20.0361C8.14062 26.5752 13.4605 31.8952 19.9997 31.8952C26.5389 31.8952 31.8588 26.5752 31.8588 20.0361C31.8588 13.497 26.5389 8.177 19.9997 8.177ZM19.9997 30.721C14.1081 30.721 9.31479 25.9278 9.31479 20.0361C9.31479 14.1444 14.1081 9.35117 19.9997 9.35117C25.8914 9.35117 30.6847 14.1444 30.6847 20.0361C30.6847 25.9278 25.8914 30.721 19.9997 30.721Z" fill="#17161A"/>
<path d="M22.1905 16.9443H19.9987C19.6745 16.9443 19.4116 17.2072 19.4116 17.5314V22.5412C19.4116 22.8654 19.6745 23.1283 19.9987 23.1283C20.3229 23.1283 20.5858 22.8654 20.5858 22.5412V21.2496H22.1905C23.3775 21.2496 24.3431 20.284 24.3431 19.097C24.3431 17.91 23.3775 16.9443 22.1905 16.9443ZM22.1905 20.0755H20.5858V18.1185H22.1905C22.7301 18.1185 23.169 18.5574 23.169 19.097C23.169 19.6365 22.7301 20.0755 22.1905 20.0755Z" fill="#D92C0A"/>
<path d="M16.7951 17.3253C16.7092 17.0962 16.4901 16.9443 16.2454 16.9443H15.6192C15.3745 16.9443 15.1554 17.0961 15.0695 17.3253L13.1909 22.3351C13.077 22.6387 13.2309 22.9771 13.5344 23.091C13.838 23.2048 14.1764 23.051 14.2903 22.7474L14.617 21.8758H17.2476L17.5744 22.7473C17.6627 22.983 17.8865 23.1284 18.1241 23.1284C18.1926 23.1284 18.2623 23.1164 18.3301 23.091C18.6337 22.9771 18.7876 22.6387 18.6737 22.3351L16.7951 17.3253ZM15.0573 20.7017L15.9323 18.3684L16.8073 20.7017H15.0573Z" fill="#D92C0A"/>
<path d="M25.6349 16.9443C25.3107 16.9443 25.0479 17.2072 25.0479 17.5314V22.5412C25.0479 22.8654 25.3107 23.1283 25.6349 23.1283C25.9592 23.1283 26.222 22.8654 26.222 22.5412V17.5314C26.222 17.2072 25.9592 16.9443 25.6349 16.9443Z" fill="#D92C0A"/>
<path d="M24.2024 6.87043C24.6099 7.00029 25.0161 7.15113 25.4096 7.31864C25.4846 7.35058 25.5625 7.36569 25.6392 7.36569C25.8675 7.36569 26.0846 7.23168 26.1797 7.00843C26.3066 6.71011 26.1678 6.3653 25.8694 6.23833C25.4422 6.0565 25.0013 5.89274 24.5589 5.75176C24.2501 5.65329 23.9198 5.82393 23.8213 6.13282C23.7229 6.4417 23.8936 6.77195 24.2024 6.87043Z" fill="#17161A"/>
<path d="M7.8648 26.6434C7.70949 26.3588 7.35278 26.2539 7.06824 26.4092C6.78362 26.5645 6.67873 26.9212 6.83403 27.2058C7.07763 27.6523 7.3473 28.0915 7.63552 28.5112C7.74934 28.6769 7.93306 28.766 8.11998 28.766C8.2345 28.766 8.3502 28.7326 8.4518 28.6628C8.71912 28.4793 8.78699 28.1138 8.60343 27.8465C8.33783 27.4597 8.0893 27.0549 7.8648 26.6434Z" fill="#17161A"/>
<path d="M18.8027 33.8006C15.6568 33.5295 12.6707 32.1662 10.3944 29.9617C10.1615 29.7361 9.78979 29.7422 9.56427 29.975C9.33876 30.208 9.34463 30.5797 9.57758 30.8052C12.0472 33.197 15.2877 34.6762 18.7019 34.9704C18.719 34.9718 18.736 34.9725 18.7529 34.9725C19.0544 34.9725 19.3108 34.7417 19.3372 34.4359C19.365 34.1129 19.1257 33.8284 18.8027 33.8006Z" fill="#17161A"/>
<path d="M28.4501 7.65198C28.1824 7.46905 27.8171 7.53778 27.6342 7.80541C27.4512 8.07312 27.52 8.43844 27.7876 8.62137C30.5151 10.4854 32.4881 13.2592 33.3431 16.4316C33.4137 16.6935 33.6507 16.8661 33.9096 16.8661C33.9602 16.8661 34.0116 16.8595 34.0627 16.8457C34.3758 16.7613 34.5612 16.4391 34.4768 16.1261C33.5491 12.6834 31.4087 9.67398 28.4501 7.65198Z" fill="#17161A"/>
</g>
<defs>
<clipPath id="clip0_2097_57987">
<rect width="40" height="40" fill="white" transform="translate(0 0.0361328)"/>
</clipPath>
</defs>
</svg>
