<svg width="16" height="16" viewBox="0 0 16 16" fill="none" xmlns="http://www.w3.org/2000/svg">
<g clip-path="url(#clip0_2097_58325)">
<path d="M14.1934 1.01062L13.2481 1.60752C13.167 1.65874 13.0622 1.65874 12.9811 1.60752L11.5359 0.694931C11.2926 0.541306 10.9782 0.541306 10.7349 0.694931L9.28975 1.60752C9.20862 1.65874 9.10384 1.65874 9.02272 1.60752L7.57756 0.694931C7.33428 0.541306 7.01988 0.541306 6.77659 0.694931L5.33144 1.60752C5.25031 1.65874 5.14553 1.65874 5.06441 1.60752L4.11912 1.01062C3.61922 0.694931 2.96875 1.05352 2.96875 1.64471V10.8911C2.96875 11.0292 3.08069 11.1411 3.21875 11.1411C3.35681 11.1411 3.46875 11.0292 3.46875 10.8911V1.64471C3.46875 1.44749 3.68575 1.32824 3.85219 1.43337L4.79747 2.03027C5.04075 2.18393 5.35516 2.18393 5.59844 2.03027L7.04359 1.11768C7.12472 1.06646 7.2295 1.06646 7.31063 1.11768L8.75581 2.03027C8.99909 2.18393 9.3135 2.18393 9.55678 2.03027L11.002 1.11768C11.0831 1.06646 11.1879 1.06646 11.269 1.11768L12.7142 2.03027C12.9575 2.18393 13.2718 2.18393 13.5151 2.03027L14.4604 1.43337C14.6272 1.32802 14.8438 1.4479 14.8438 1.64471V13.995C14.8438 14.583 14.3754 15.0693 13.7996 15.0789C13.7858 15.0792 1.90959 15.0791 1.90634 15.0791C1.32047 15.0791 0.843844 14.6025 0.843844 14.0166V12.8947C0.843844 12.6975 1.06088 12.5782 1.22728 12.6834L2.17256 13.2803C2.41584 13.4339 2.73025 13.4339 2.97353 13.2803L4.41869 12.3677C4.49981 12.3165 4.60459 12.3165 4.68572 12.3677L6.13091 13.2803C6.37419 13.4339 6.68859 13.4339 6.93188 13.2803L8.37706 12.3677C8.45819 12.3165 8.56297 12.3165 8.64409 12.3677L10.0892 13.2803C10.3325 13.4339 10.6469 13.4339 10.8902 13.2803L11.8354 12.6834C12.0022 12.578 12.2189 12.6979 12.2189 12.8948V14.0166C12.2189 14.1546 12.3308 14.2666 12.4689 14.2666C12.607 14.2666 12.7189 14.1546 12.7189 14.0166V12.8948C12.7189 12.3035 12.0684 11.945 11.5684 12.2607L10.6233 12.8575C10.5421 12.9087 10.4373 12.9087 10.3562 12.8575L8.91106 11.9449C8.66775 11.7913 8.35337 11.7913 8.11009 11.9449L6.66475 12.8575C6.58363 12.9087 6.47884 12.9087 6.39772 12.8575L4.95253 11.9449C4.70925 11.7913 4.39484 11.7913 4.15156 11.9449L2.70644 12.8575C2.62531 12.9087 2.52053 12.9087 2.43941 12.8575L1.49413 12.2606C0.994187 11.9449 0.34375 12.3035 0.34375 12.8947V14.0166C0.34375 14.8781 1.04469 15.5791 1.90625 15.5791C1.91828 15.5791 13.7768 15.5792 13.8079 15.5788C14.6547 15.5647 15.3438 14.8542 15.3438 13.9949V1.64471C15.3438 1.05349 14.6933 0.694962 14.1934 1.01062Z" fill="#3D3D4E"/>
<path d="M12.7192 3.51624H5.59424C5.18071 3.51624 4.84424 3.8527 4.84424 4.26624V4.95374C4.84424 5.36727 5.18071 5.70374 5.59424 5.70374H12.7192C12.8573 5.70374 12.9692 5.5918 12.9692 5.45374C12.9692 5.31567 12.8573 5.20374 12.7192 5.20374H5.59424C5.45639 5.20374 5.34424 5.09158 5.34424 4.95374V4.26624C5.34424 4.12839 5.45639 4.01624 5.59424 4.01624H12.7192C12.8571 4.01624 12.9692 4.12839 12.9692 4.26624C12.9692 4.4043 13.0812 4.51624 13.2192 4.51624C13.3573 4.51624 13.4692 4.4043 13.4692 4.26624C13.4692 3.8527 13.1328 3.51624 12.7192 3.51624Z" fill="#3D3D4E"/>
<path d="M6.1256 11.4187C6.26366 11.4187 6.3756 11.3067 6.3756 11.1687V10.8302C6.92572 10.7354 7.34006 10.3341 7.34006 9.85485C7.34006 9.10167 6.6671 8.96385 6.17575 8.86326C5.59266 8.74385 5.41113 8.65907 5.41113 8.36148C5.41113 8.09226 5.73832 7.86479 6.1256 7.86479C6.38957 7.86479 6.63213 7.96829 6.7586 8.13489C6.84206 8.24489 6.99891 8.26635 7.10888 8.18285C7.21888 8.09939 7.24035 7.94254 7.15685 7.83257C6.97928 7.59864 6.6975 7.44032 6.3756 7.38595V7.04773C6.3756 6.90967 6.26366 6.79773 6.1256 6.79773C5.98754 6.79773 5.8756 6.90967 5.8756 7.04773V7.38617C5.32548 7.48101 4.91113 7.88226 4.91113 8.36151C4.91113 9.1147 5.5841 9.25251 6.07544 9.3531C6.65853 9.47251 6.84007 9.55729 6.84007 9.85489C6.84007 10.1241 6.51288 10.3516 6.1256 10.3516C5.86163 10.3516 5.61907 10.2481 5.4926 10.0815C5.40913 9.97151 5.25229 9.95004 5.14232 10.0335C5.03232 10.117 5.01085 10.2739 5.09435 10.3838C5.27191 10.6178 5.55369 10.7761 5.8756 10.8304V11.1687C5.8756 11.3067 5.98754 11.4187 6.1256 11.4187Z" fill="#3D3D4E"/>
<path d="M13.2178 6.89111H8.87402C8.73596 6.89111 8.62402 7.00305 8.62402 7.14111C8.62402 7.27918 8.73596 7.39112 8.87402 7.39112H13.2178C13.3558 7.39112 13.4678 7.27918 13.4678 7.14111C13.4678 7.00305 13.3558 6.89111 13.2178 6.89111Z" fill="#3D3D4E"/>
<path d="M13.2178 8.64111H8.87402C8.73596 8.64111 8.62402 8.75305 8.62402 8.89111C8.62402 9.02917 8.73596 9.1411 8.87402 9.1411H13.2178C13.3558 9.1411 13.4678 9.02917 13.4678 8.89111C13.4678 8.75305 13.3558 8.64111 13.2178 8.64111Z" fill="#3D3D4E"/>
<path d="M13.2178 10.3911H9.81152C9.67346 10.3911 9.56152 10.503 9.56152 10.6411C9.56152 10.7792 9.67346 10.8911 9.81152 10.8911H13.2178C13.3558 10.8911 13.4678 10.7792 13.4678 10.6411C13.4678 10.503 13.3558 10.3911 13.2178 10.3911Z" fill="#3D3D4E"/>
</g>
<defs>
<clipPath id="clip0_2097_58325">
<rect width="15" height="15" fill="white" transform="translate(0.34375 0.579102)"/>
</clipPath>
</defs>
</svg>
