<svg width="17" height="17" viewBox="0 0 17 17" fill="none" xmlns="http://www.w3.org/2000/svg">
<g clip-path="url(#clip0_2097_58349)">
<path d="M15.4438 8.42286V5.24309C15.4438 4.50789 14.8456 3.90976 14.1104 3.90976H13.6585L13.7587 3.56172C13.9218 2.99522 13.5953 2.40472 13.0287 2.24159L10.003 1.37059C9.86145 1.32986 9.71372 1.41156 9.67302 1.55309C9.63225 1.69462 9.71398 1.84236 9.85552 1.88312L11.7577 2.43069C11.5224 2.88909 11.5138 3.43586 11.7518 3.90976H6.17708V1.80976C6.17708 1.66249 6.05768 1.54309 5.91042 1.54309C5.76315 1.54309 5.64375 1.66249 5.64375 1.80976V3.90976H4.74375V1.80976C4.74375 1.66249 4.62435 1.54309 4.47708 1.54309C4.32982 1.54309 4.21042 1.66249 4.21042 1.80976V3.90976H3.04375V1.60976C3.04375 1.31569 3.28302 1.07642 3.57708 1.07642H8.07708C8.37115 1.07642 8.61042 1.31569 8.61042 1.60976V3.07642C8.61042 3.22369 8.72982 3.34309 8.87708 3.34309C9.02435 3.34309 9.14375 3.22369 9.14375 3.07642V1.60976C9.14375 1.02159 8.66525 0.543091 8.07708 0.543091H3.57708C2.98892 0.543091 2.51042 1.02159 2.51042 1.60976V3.90976H1.67708C0.941883 3.90976 0.34375 4.50789 0.34375 5.24309V15.1764C0.34375 15.9116 0.941883 16.5098 1.67708 16.5098H14.1104C14.8456 16.5098 15.4438 15.9116 15.4438 15.1764V13.2264C15.4438 13.0792 15.3244 12.9598 15.1771 12.9598C15.0298 12.9598 14.9104 13.0792 14.9104 13.2264V15.1764C14.9104 15.6175 14.5515 15.9764 14.1104 15.9764H1.67708C1.23598 15.9764 0.877083 15.6175 0.877083 15.1764V5.24309C0.877083 4.80199 1.23598 4.44309 1.67708 4.44309H14.1104C14.5515 4.44309 14.9104 4.80199 14.9104 5.24309V8.40976H12.7104C12.1223 8.40976 11.6438 8.88826 11.6438 9.47642V10.9431C11.6438 11.5313 12.1223 12.0098 12.7104 12.0098H15.2778C15.8634 12.0098 16.3438 11.5329 16.3438 10.9431V9.47642C16.3438 8.94496 15.953 8.50312 15.4438 8.42286ZM12.2848 2.58246L12.8812 2.75416C13.1645 2.83572 13.3277 3.13092 13.2462 3.41419L13.1035 3.90976H12.3907C12.054 3.53522 12.0228 2.99056 12.2848 2.58246V2.58246ZM15.8104 10.9431C15.8104 11.2372 15.5712 11.4764 15.2771 11.4764H12.7104C12.4164 11.4764 12.1771 11.2372 12.1771 10.9431V9.47642C12.1771 9.18236 12.4164 8.94309 12.7104 8.94309H15.2771C15.5712 8.94309 15.8104 9.18236 15.8104 9.47642V10.9431ZM13.7104 10.2098C13.7104 10.357 13.591 10.4764 13.4438 10.4764H13.0438C12.8965 10.4764 12.7771 10.357 12.7771 10.2098C12.7771 10.0625 12.8965 9.94309 13.0438 9.94309H13.4438C13.591 9.94309 13.7104 10.0625 13.7104 10.2098Z" fill="#3D3D4E"/>
</g>
<defs>
<clipPath id="clip0_2097_58349">
<rect width="16" height="16" fill="white" transform="translate(0.34375 0.526367)"/>
</clipPath>
</defs>
</svg>
