<svg width="30" height="31" viewBox="0 0 30 31" fill="none" xmlns="http://www.w3.org/2000/svg">
<g clip-path="url(#clip0_2205_282)">
<path d="M16.217 8.21438C16.1069 8.06122 15.9298 7.9704 15.7412 7.9704H14.2598C14.0712 7.9704 13.8941 8.06122 13.784 8.21438L7.59125 16.8298C6.98527 17.6729 6.98879 18.8032 7.59992 19.6424L11.1688 24.5433H10.9934C10.6698 24.5433 10.4075 24.8057 10.4075 25.1293C10.4075 25.4529 10.6698 25.7152 10.9934 25.7152H11.3229L10.2243 28.6978C10.1581 28.8775 10.184 29.0783 10.2935 29.2354C10.4031 29.3925 10.5826 29.4862 10.7742 29.4862H19.2269C19.4185 29.4862 19.598 29.3926 19.7076 29.2354C19.8171 29.0783 19.843 28.8775 19.7768 28.6978L18.6782 25.7152H19.0077C19.3313 25.7152 19.5936 25.4529 19.5936 25.1293C19.5936 24.8057 19.3313 24.5433 19.0077 24.5433H18.8323L22.4011 19.6424C23.0123 18.8032 23.0158 17.6729 22.4098 16.8298L16.217 8.21438ZM11.6144 28.3143L12.5716 25.7152H17.4293L18.3866 28.3143H11.6144ZM21.4537 18.9526L17.3825 24.5433H12.6184L8.54721 18.9526C8.23461 18.5233 8.23279 17.9451 8.54276 17.5138L14.5602 9.14227H15.4407L21.4581 17.5138C21.7682 17.945 21.7664 18.5233 21.4537 18.9526Z" fill="#D92C0A"/>
<path d="M15.0001 15.0181C13.5236 15.0181 12.3223 16.2238 12.3223 17.7058C12.3223 19.1878 13.5235 20.3936 15.0001 20.3936C16.4766 20.3936 17.6779 19.1878 17.6779 17.7058C17.6779 16.2238 16.4766 15.0181 15.0001 15.0181ZM15.0001 19.2217C14.1697 19.2217 13.4941 18.5417 13.4941 17.7058C13.4941 16.87 14.1697 16.1899 15.0001 16.1899C15.8305 16.1899 16.506 16.8699 16.506 17.7058C16.506 18.5417 15.8304 19.2217 15.0001 19.2217Z" fill="#17161A"/>
<path d="M29.4141 0.805664H25.8558C25.5322 0.805664 25.2698 1.06799 25.2698 1.3916V2.5933H17.3651V1.3916C17.3651 1.06799 17.1028 0.805664 16.7791 0.805664H13.2209C12.8972 0.805664 12.6349 1.06799 12.6349 1.3916V2.5933H4.73016V1.3916C4.73016 1.06799 4.46783 0.805664 4.14422 0.805664H0.585938C0.262324 0.805664 0 1.06799 0 1.3916V4.96682C0 5.29043 0.262324 5.55275 0.585938 5.55275H4.14422C4.46783 5.55275 4.73016 5.29043 4.73016 4.96682V3.76518H9.69246C8.04387 4.5242 6.55945 5.63537 5.35254 7.0357C3.38262 9.32139 2.28246 12.2361 2.24502 15.2594C1.27764 15.5188 0.563145 16.406 0.563145 17.4574C0.563145 18.7117 1.57998 19.7321 2.82996 19.7321C4.07994 19.7321 5.09678 18.7117 5.09678 17.4574C5.09678 16.4067 4.38334 15.5201 3.41707 15.2599C3.49195 9.83186 7.38973 5.11787 12.635 4.02V4.96682C12.635 5.29043 12.8974 5.55275 13.221 5.55275H16.7793C17.1029 5.55275 17.3652 5.29043 17.3652 4.96682V4.02C22.6128 5.11805 26.5084 9.82647 26.5832 15.26C25.6169 15.5202 24.9035 16.4067 24.9035 17.4574C24.9035 18.7117 25.9203 19.7322 27.1703 19.7322C28.4203 19.7322 29.4371 18.7117 29.4371 17.4574C29.4371 16.406 28.7225 15.5189 27.7552 15.2595C27.7177 12.2293 26.6132 9.30955 24.6354 7.02152C23.4304 5.62752 21.9506 4.5215 20.3079 3.76523H25.27V4.96688C25.27 5.29049 25.5323 5.55281 25.856 5.55281H29.4141C29.7377 5.55281 30 5.29049 30 4.96688V1.3916C30 1.06799 29.7377 0.805664 29.4141 0.805664ZM3.55828 4.38088H1.17188V1.97754H3.55828V4.38088ZM3.92479 17.4574C3.92479 18.0655 3.43359 18.5603 2.82984 18.5603C2.22609 18.5603 1.7349 18.0655 1.7349 17.4574C1.7349 16.8492 2.22609 16.3545 2.82984 16.3545C3.43359 16.3545 3.92479 16.8492 3.92479 17.4574ZM28.265 17.4574C28.265 18.0655 27.7738 18.5603 27.1701 18.5603C26.5663 18.5603 26.0752 18.0655 26.0752 17.4574C26.0752 16.8492 26.5663 16.3545 27.1701 16.3545C27.7738 16.3545 28.265 16.8492 28.265 17.4574ZM16.1932 4.38088H13.8068V1.97754H16.1932V4.38088ZM28.8281 4.38088H26.4417V1.97754H28.8281V4.38088Z" fill="#17161A"/>
</g>
<defs>
<clipPath id="clip0_2205_282">
<rect width="30" height="30" fill="white" transform="translate(0 0.145996)"/>
</clipPath>
</defs>
</svg>
