<svg width="30" height="31" viewBox="0 0 30 31" fill="none" xmlns="http://www.w3.org/2000/svg">
<g clip-path="url(#clip0_2205_265)">
<path d="M26.9995 0.217041H23.9995C23.4473 0.217041 22.9995 0.664756 22.9995 1.21704V5.21704H6.99951C6.44723 5.21704 5.99951 5.66476 5.99951 6.21704V14.732C5.99951 15.0082 6.22337 15.232 6.49951 15.232C6.77566 15.232 6.99951 15.0082 6.99951 14.732V6.21704H22.9995V16.217C22.9995 16.7693 23.4473 17.217 23.9995 17.217H26.879C27.4686 17.2199 28.0321 17.4608 28.4415 17.885C28.8118 18.2574 29.0134 18.7651 28.9995 19.29C28.9641 20.3677 28.0778 21.2217 26.9995 21.217H15.3645C15.0884 21.217 14.8645 21.4409 14.8645 21.717C14.8645 21.9932 15.0884 22.217 15.3645 22.217H26.9995C28.6166 22.2223 29.9452 20.9417 29.9995 19.3255C29.9995 19.295 29.9995 19.2645 29.9995 19.2335C29.9998 19.228 29.9998 19.2225 29.9995 19.217V3.21704C29.9979 1.56087 28.6557 0.218695 26.9995 0.217041ZM26.879 16.217H23.9995V1.21704H26.9995C28.1041 1.21704 28.9995 2.11247 28.9995 3.21704V17.0395C28.418 16.5138 27.663 16.221 26.879 16.217Z" fill="#17161A"/>
<path d="M19.5003 19.7171C19.7764 19.7171 20.0003 19.4932 20.0003 19.2171V15.3276C20.6031 15.8728 21.5308 15.8375 22.0904 15.2479C22.6499 14.6584 22.6368 13.7301 22.0608 13.1566L16.9143 8.01007C16.1333 7.22931 14.8673 7.22931 14.0863 8.01007L8.93979 13.1561C8.3638 13.7296 8.35067 14.6579 8.91021 15.2474C9.46976 15.837 10.3975 15.8723 11.0003 15.3271V16.0121C11.0003 16.2882 11.2241 16.5121 11.5003 16.5121C11.7764 16.5121 12.0003 16.2882 12.0003 16.0121V14.3381L15.5003 10.8381L19.0003 14.3381V18.7171H17.5003V16.2171C17.5003 15.6648 17.0526 15.2171 16.5003 15.2171H14.5003C13.948 15.2171 13.5003 15.6648 13.5003 16.2171V19.2171C13.5003 19.4932 13.7241 19.7171 14.0003 19.7171H19.5003ZM15.5003 9.63157C15.3676 9.63121 15.2403 9.68397 15.1468 9.77807L11.1598 13.7671L11.1378 13.7891L10.3538 14.5731C10.2283 14.703 10.0423 14.7552 9.86753 14.7094C9.69272 14.6637 9.5562 14.5271 9.51044 14.3523C9.46468 14.1775 9.51681 13.9916 9.64679 13.8661L14.7933 8.71707C15.1838 8.32669 15.8168 8.32669 16.2073 8.71707L21.3538 13.8636C21.549 14.0588 21.549 14.3753 21.3538 14.5706C21.156 14.7596 20.8445 14.7596 20.6468 14.5706L19.8628 13.7866L19.8408 13.7646L15.8538 9.77807C15.7603 9.68397 15.633 9.63121 15.5003 9.63157ZM14.5003 18.7171V16.2171H16.5003V18.7171H14.5003Z" fill="#D92C0A"/>
<path d="M8.49999 21.467C8.49999 21.7431 8.72385 21.967 8.99999 21.967C9.27614 21.967 9.49999 21.7431 9.49999 21.467C9.45172 20.3462 8.61082 19.4193 7.5 19.2625V19.217C7.5 18.9408 7.27614 18.717 7 18.717C6.72385 18.717 6.5 18.9408 6.5 19.217V19.2625C5.36553 19.3733 4.50042 20.3271 4.50042 21.467C4.50042 22.6069 5.36553 23.5606 6.5 23.6715V26.14C5.94358 26.0137 5.5366 25.5364 5.5 24.967C5.5 24.6908 5.27614 24.467 5 24.467C4.72386 24.467 4.5 24.6908 4.5 24.967C4.54827 26.0878 5.38917 27.0147 6.5 27.1715V27.217C6.5 27.4931 6.72385 27.717 7 27.717C7.27614 27.717 7.5 27.4931 7.5 27.217V27.1715C8.63447 27.0606 9.49958 26.1069 9.49958 24.967C9.49958 23.8271 8.63447 22.8733 7.5 22.7625V20.294C8.05642 20.4202 8.46339 20.8976 8.49999 21.467ZM5.5 21.467C5.5366 20.8976 5.94358 20.4202 6.5 20.294V22.64C5.94358 22.5137 5.5366 22.0364 5.5 21.467ZM8.49999 24.967C8.46339 25.5364 8.05642 26.0137 7.5 26.14V23.794C8.05642 23.9202 8.46339 24.3976 8.49999 24.967Z" fill="#17161A"/>
<path d="M7 16.217C3.13401 16.217 0 19.351 0 23.217C0 27.083 3.13401 30.217 7 30.217C10.866 30.217 14 27.083 14 23.217C13.9959 19.3528 10.8643 16.2212 7 16.217ZM7 29.217C3.68629 29.217 1 26.5307 1 23.217C1 19.9033 3.68629 17.217 7 17.217C10.3137 17.217 13 19.9033 13 23.217C12.9964 26.5293 10.3122 29.2135 7 29.217Z" fill="#17161A"/>
<path d="M9 8.71704V8.21704H9.5C9.77615 8.21704 10 7.99318 10 7.71704C10 7.4409 9.77615 7.21704 9.5 7.21704H8.5C8.22386 7.21704 8 7.4409 8 7.71704V8.71704C8 8.99319 8.22386 9.21704 8.5 9.21704C8.77614 9.21704 9 8.99319 9 8.71704Z" fill="#17161A"/>
<path d="M25.4995 2.71704C25.2234 2.71704 24.9995 2.9409 24.9995 3.21704V4.71704C24.9995 4.99318 25.2234 5.21704 25.4995 5.21704C25.7756 5.21704 25.9995 4.99318 25.9995 4.71704V3.21704C25.9995 2.9409 25.7756 2.71704 25.4995 2.71704Z" fill="#17161A"/>
<path d="M25.4995 6.21704C25.2234 6.21704 24.9995 6.4409 24.9995 6.71704V14.717C24.9995 14.9932 25.2234 15.217 25.4995 15.217C25.7756 15.217 25.9995 14.9932 25.9995 14.717V6.71704C25.9995 6.4409 25.7756 6.21704 25.4995 6.21704Z" fill="#17161A"/>
</g>
<defs>
<clipPath id="clip0_2205_265">
<rect width="30" height="30" fill="white" transform="translate(0 0.217041)"/>
</clipPath>
</defs>
</svg>
