<svg width="30" height="31" viewBox="0 0 30 31" fill="none" xmlns="http://www.w3.org/2000/svg">
<g clip-path="url(#clip0_2205_287)">
<path d="M23.2368 15.6932C22.5451 15.6932 21.8918 15.3888 21.4397 14.8544C21.0248 14.3641 20.8243 13.7389 20.8722 13.1073H17.1411C16.8176 13.1073 16.5552 12.845 16.5552 12.5213V8.5699C16.5552 8.396 16.6324 8.23106 16.7661 8.11973C16.8996 8.0084 17.0761 7.96229 17.2469 7.99357L17.282 8.00002C17.6344 8.06459 17.9944 7.96979 18.2696 7.74033C18.5448 7.51082 18.7028 7.17367 18.7028 6.81525C18.7028 6.45689 18.5449 6.1198 18.2696 5.89035C17.9944 5.66096 17.6344 5.56639 17.2819 5.63084L17.2468 5.63729C17.0757 5.66863 16.8996 5.6224 16.7661 5.51107C16.6325 5.39975 16.5552 5.23486 16.5552 5.06096V0.731934C16.5552 0.40832 16.8176 0.145996 17.1412 0.145996H26.8615C28.3254 0.145996 29.5165 1.33703 29.5165 2.80105V12.5213C29.5165 12.845 29.2542 13.1073 28.9306 13.1073H25.6026C25.6578 13.725 25.4697 14.3408 25.072 14.8251C24.6274 15.3664 23.9711 15.6827 23.2713 15.693C23.2598 15.6931 23.2483 15.6932 23.2368 15.6932ZM17.7271 11.9354H21.5614C21.7353 11.9354 21.9002 12.0126 22.0115 12.1462C22.1228 12.2797 22.1692 12.4558 22.1378 12.6268L22.0579 13.0633C21.9903 13.4329 22.0911 13.8099 22.3343 14.0975C22.5699 14.3759 22.8971 14.5257 23.2541 14.5212C23.6085 14.516 23.941 14.3556 24.1664 14.0813C24.3916 13.807 24.4841 13.4495 24.4202 13.1003L24.3336 12.6268C24.3023 12.4557 24.3486 12.2796 24.4599 12.1461C24.5713 12.0126 24.7362 11.9354 24.91 11.9354H28.3446V2.80105C28.3446 1.9832 27.6793 1.31787 26.8615 1.31787H17.7271V4.44982C18.1975 4.49488 18.648 4.68016 19.0199 4.99023C19.5631 5.44299 19.8746 6.1082 19.8746 6.81525C19.8746 7.52236 19.5631 8.18764 19.0199 8.64039C18.6479 8.95053 18.1975 9.13586 17.7271 9.18098V11.9354Z" fill="#D92C0A"/>
<path d="M24.6481 20.478C24.9717 20.478 25.234 20.2157 25.234 19.8921V17.7706C25.234 17.447 24.9717 17.1847 24.6481 17.1847H20.6276C20.4537 17.1847 20.2888 17.2619 20.1775 17.3954C20.0662 17.529 20.0199 17.705 20.0512 17.8761L20.1379 18.3496C20.2018 18.6988 20.1093 19.0563 19.884 19.3306C19.6586 19.605 19.3261 19.7653 18.9718 19.7705C18.6144 19.7745 18.2875 19.6252 18.052 19.3468C17.8087 19.0592 17.708 18.6823 17.7756 18.3127L17.8554 17.8761C17.8867 17.7051 17.8405 17.529 17.7292 17.3954C17.6179 17.2619 17.4529 17.1847 17.2791 17.1847H13.4447V14.4302C13.9151 14.3851 14.3655 14.1999 14.7376 13.8897C15.2807 13.4369 15.5921 12.7717 15.5921 12.0646C15.5921 11.3575 15.2807 10.6923 14.7375 10.2395C14.3655 9.92942 13.9151 9.74415 13.4447 9.69909V5.9812C13.4447 5.65759 13.1824 5.39526 12.8587 5.39526H3.13846C1.67443 5.39526 0.483398 6.5863 0.483398 8.05032V27.4909C0.483398 28.9549 1.67443 30.146 3.13846 30.146H22.579C24.043 30.146 25.2341 28.9549 25.2341 27.4909V25.7905C25.2341 25.4668 24.9718 25.2045 24.6482 25.2045C24.3246 25.2045 24.0622 25.4668 24.0622 25.7905V27.4909C24.0622 28.3087 23.3969 28.9741 22.579 28.9741H13.4447V25.1947C13.4447 25.0209 13.3675 24.856 13.234 24.7447C13.1006 24.6333 12.9244 24.587 12.7535 24.6182L12.7181 24.6247C12.3656 24.6892 12.0055 24.5947 11.7304 24.3653C11.4551 24.1359 11.2972 23.7988 11.2972 23.4401C11.2972 23.0817 11.455 22.7446 11.7304 22.5151C12.0056 22.2856 12.3656 22.191 12.7184 22.2556L12.7535 22.262C12.9243 22.2931 13.1005 22.2469 13.234 22.1356C13.3675 22.0242 13.4447 21.8594 13.4447 21.6856V18.3564H16.5899C16.5418 18.9881 16.7424 19.6132 17.1573 20.1035C17.6169 20.6467 18.2865 20.9531 18.9888 20.9421C19.6886 20.9319 20.345 20.6156 20.7896 20.0742C21.1873 19.59 21.3754 18.9742 21.3202 18.3564H24.0622V19.8921C24.0622 20.2157 24.3246 20.478 24.6481 20.478ZM1.65527 8.05032C1.65527 7.23253 2.32066 6.56714 3.13846 6.56714H12.2728V10.3102C12.2728 10.484 12.35 10.6488 12.4835 10.7602C12.6171 10.8714 12.7931 10.9177 12.9641 10.8866L12.9992 10.8802C12.9992 10.8802 12.9993 10.8801 12.9994 10.8801C13.3518 10.8157 13.7119 10.9102 13.9872 11.1396C14.2625 11.3691 14.4203 11.7062 14.4203 12.0646C14.4203 12.4229 14.2625 12.7601 13.9872 12.9896C13.7119 13.2191 13.3519 13.3137 12.9994 13.2492L12.9642 13.2428C12.7932 13.2115 12.6171 13.2578 12.4836 13.3691C12.35 13.4804 12.2728 13.6453 12.2728 13.8192V17.1847H9.75867C9.47133 16.1916 8.55732 15.4756 7.47592 15.4756C6.39451 15.4756 5.48057 16.1916 5.19322 17.1847H1.65527V8.05032ZM10.98 21.615C10.4368 22.0678 10.1253 22.733 10.1253 23.4405C10.1253 24.1476 10.4368 24.8128 10.98 25.2656C11.352 25.5757 11.8025 25.7609 12.2728 25.8059V28.9741H3.13846C2.32066 28.9741 1.65527 28.3088 1.65527 27.4909V18.3566H5.68705C6.00076 18.3566 6.25881 18.1095 6.27246 17.7961C6.30047 17.152 6.8291 16.6475 7.47598 16.6475C8.12279 16.6475 8.65148 17.152 8.67949 17.7961C8.69314 18.1095 8.95119 18.3566 9.2649 18.3566H12.2729V21.0746C11.8024 21.1197 11.352 21.3049 10.98 21.615Z" fill="#17161A"/>
<path d="M24.6479 23.3966C24.4025 23.3966 24.1797 23.2386 24.0967 23.008C24.0152 22.7815 24.0849 22.5196 24.2688 22.364C24.4611 22.2014 24.7431 22.1811 24.9571 22.3134C25.1623 22.4404 25.27 22.6888 25.2227 22.9255C25.1686 23.1961 24.9236 23.3966 24.6479 23.3966Z" fill="#17161A"/>
</g>
<defs>
<clipPath id="clip0_2205_287">
<rect width="30" height="30" fill="white" transform="translate(0 0.145996)"/>
</clipPath>
</defs>
</svg>
