<svg width="76" height="75" viewBox="0 0 76 75" fill="none" xmlns="http://www.w3.org/2000/svg">
<path d="M70.4726 51.8944V22.8076C70.4712 21.5324 70.1346 20.28 69.4965 19.176C68.8583 18.072 67.9411 17.1552 66.8367 16.5176L41.3858 1.97422C40.2804 1.336 39.0264 1 37.75 1C36.4735 1 35.2195 1.336 34.1141 1.97422L8.66319 16.5176C7.55885 17.1552 6.64159 18.072 6.00343 19.176C5.36527 20.28 5.02865 21.5324 5.02734 22.8076V51.8944C5.02865 53.1696 5.36527 54.422 6.00343 55.526C6.64159 56.63 7.55885 57.5468 8.66319 58.1844L34.1141 72.7278C35.2195 73.366 36.4735 73.702 37.75 73.702C39.0264 73.702 40.2804 73.366 41.3858 72.7278L66.8367 58.1844C67.9411 57.5468 68.8583 56.63 69.4965 55.526C70.1346 54.422 70.4712 53.1696 70.4726 51.8944Z" stroke="#17161A" stroke-width="2" stroke-linecap="round" stroke-linejoin="round"/>
<path d="M6.00806 19.0254L37.749 37.3864L69.4899 19.0254" stroke="#17161A" stroke-width="2" stroke-linecap="round" stroke-linejoin="round"/>
<path d="M37.749 73.9999V37.3506" stroke="#17161A" stroke-width="2" stroke-linecap="round" stroke-linejoin="round"/>
</svg>
