<svg width="30" height="31" viewBox="0 0 30 31" fill="none" xmlns="http://www.w3.org/2000/svg">
<g clip-path="url(#clip0_2097_51142)">
<path d="M16.7349 29.2204H13.2646C13.0789 29.2191 12.8992 29.1546 12.7551 29.0376C12.6109 28.9206 12.5108 28.7581 12.4712 28.5766L12.0954 26.7008C10.9362 26.4122 9.82687 25.9514 8.80433 25.3338L7.21352 26.3915C7.05878 26.4949 6.87319 26.5418 6.68791 26.5246C6.50263 26.5073 6.32892 26.4268 6.19595 26.2966L3.74244 23.8395C3.61014 23.7054 3.52845 23.5296 3.5113 23.3421C3.49415 23.1545 3.5426 22.9668 3.64838 22.811L4.70244 21.2299C4.08353 20.2073 3.62304 19.0969 3.33663 17.9364L1.4592 17.561C1.27682 17.522 1.11316 17.4221 0.995233 17.2777C0.877306 17.1332 0.81216 16.9528 0.810547 16.7664V13.2961C0.811896 13.1104 0.876366 12.9307 0.993361 12.7866C1.11036 12.6424 1.27292 12.5423 1.45433 12.5027L3.33379 12.1257C3.62027 10.9654 4.08061 9.85515 4.6992 8.83258L3.63947 7.24745C3.5359 7.09263 3.48879 6.90687 3.50607 6.72141C3.52335 6.53595 3.60395 6.36209 3.73433 6.22907L6.19149 3.77231C6.32529 3.6398 6.50092 3.55782 6.68842 3.54038C6.87591 3.52293 7.06365 3.57109 7.2196 3.67664L8.80068 4.73272C9.82393 4.11405 10.9343 3.65255 12.0946 3.36366L12.47 1.49069C12.5089 1.30831 12.6089 1.14465 12.7533 1.02673C12.8978 0.9088 13.0781 0.843654 13.2646 0.842041H16.7349C16.9205 0.843391 17.1002 0.90786 17.2444 1.02485C17.3886 1.14185 17.4887 1.30441 17.5282 1.48582L17.9041 3.36164C19.0663 3.64931 20.1784 4.11115 21.2024 4.7315L22.7835 3.67137C22.9383 3.5678 23.1241 3.52069 23.3096 3.53797C23.495 3.55524 23.6689 3.63585 23.8019 3.76623L26.2591 6.22299C26.392 6.35654 26.4743 6.53222 26.4917 6.71984C26.5092 6.90746 26.4607 7.09531 26.3547 7.2511L25.3007 8.83583C25.9185 9.8581 26.3793 10.9674 26.6677 12.1265L28.537 12.5015C28.72 12.5398 28.8844 12.6394 29.003 12.7839C29.1215 12.9285 29.1872 13.1092 29.1889 13.2961V16.7664C29.1876 16.952 29.1231 17.1317 29.0061 17.2759C28.8891 17.4201 28.7266 17.5202 28.5451 17.5597L26.6693 17.936C26.381 19.0951 25.9201 20.2044 25.3023 21.2266L26.3604 22.8174C26.4637 22.9722 26.5106 23.1578 26.4933 23.3431C26.4759 23.5284 26.3954 23.7021 26.2651 23.835L23.808 26.2922C23.6741 26.4246 23.4985 26.5065 23.311 26.524C23.1236 26.5414 22.9358 26.4933 22.7799 26.3879L21.1988 25.331C20.1753 25.9511 19.064 26.413 17.9024 26.7008L17.5295 28.5718C17.4906 28.7542 17.3906 28.9178 17.2462 29.0357C17.1017 29.1537 16.9213 29.2188 16.7349 29.2204ZM8.79703 24.446C8.87292 24.4458 8.9473 24.4671 9.01149 24.5076C10.0923 25.1941 11.2834 25.6891 12.5324 25.9707C12.6089 25.988 12.6786 26.0271 12.7333 26.0832C12.788 26.1393 12.8252 26.2101 12.8405 26.2869L13.265 28.4096H16.7312L17.1601 26.2869C17.1755 26.21 17.2128 26.1392 17.2675 26.0831C17.3223 26.027 17.3922 25.9879 17.4687 25.9707C18.7177 25.6905 19.9086 25.1956 20.9884 24.508C21.0557 24.4669 21.1332 24.4456 21.2121 24.4465C21.291 24.4475 21.368 24.4706 21.4343 24.5133L23.2339 25.7173L25.6858 23.2662L24.5037 21.4926C24.4884 21.4741 24.4748 21.4543 24.4631 21.4334C24.4278 21.37 24.4102 21.2983 24.412 21.2258C24.4139 21.1533 24.4352 21.0826 24.4737 21.0211C25.1604 19.9404 25.6553 18.7493 25.9368 17.5002C25.9541 17.4237 25.9931 17.354 26.0493 17.2993C26.1054 17.2446 26.1761 17.2073 26.253 17.192L28.3781 16.766V13.2961L26.2554 12.8704C26.1786 12.8551 26.1078 12.8179 26.0517 12.7632C25.9956 12.7085 25.9565 12.6387 25.9392 12.5623C25.6578 11.3132 25.1628 10.1221 24.4761 9.04137C24.4373 8.98006 24.4157 8.90946 24.4134 8.83694C24.4112 8.76441 24.4285 8.69263 24.4635 8.62907C24.4776 8.60318 24.4946 8.57897 24.5142 8.55691L25.685 6.79623L23.2343 4.34353L21.436 5.5492C21.3696 5.59196 21.2926 5.61513 21.2137 5.61606C21.1349 5.617 21.0573 5.59565 20.99 5.55447C19.9103 4.86688 18.7193 4.37197 17.4703 4.09177C17.3938 4.07454 17.3239 4.0355 17.2692 3.97938C17.2144 3.92325 17.1771 3.85245 17.1618 3.77555L16.7345 1.65285H13.2646L12.8393 3.77555C12.824 3.8524 12.7868 3.92316 12.7321 3.97928C12.6774 4.0354 12.6076 4.07448 12.5312 4.09177C11.2822 4.37341 10.0911 4.86837 9.01028 5.55488C8.94401 5.59684 8.86699 5.61868 8.78855 5.61775C8.71012 5.61681 8.63364 5.59314 8.56839 5.54961L6.76433 4.34555L4.31203 6.79623L5.51812 8.59947C5.56165 8.66472 5.58532 8.7412 5.58625 8.81964C5.58719 8.89807 5.56535 8.9751 5.52339 9.04137C4.8369 10.1213 4.34309 11.3122 4.06393 12.5611C4.04599 12.6419 4.00374 12.7153 3.94286 12.7714C3.88199 12.8275 3.80539 12.8636 3.72339 12.8749L1.62136 13.2965V16.7664L3.73717 17.1904C3.81621 17.2044 3.88939 17.2413 3.94757 17.2966C4.00576 17.3519 4.04636 17.4231 4.06433 17.5014C4.34351 18.7502 4.83732 19.9411 5.52379 21.0211C5.56573 21.0873 5.58759 21.1642 5.58673 21.2426C5.58587 21.3209 5.56232 21.3973 5.51893 21.4626L4.31893 23.2662L6.76555 25.7193L8.5392 24.5364C8.61212 24.4779 8.70277 24.446 8.79622 24.446H8.79703Z" fill="#17161A"/>
<path d="M18.5798 22.7101C18.488 22.7101 18.3989 22.679 18.3272 22.6218C18.2554 22.5647 18.2051 22.4848 18.1846 22.3954C18.1641 22.3059 18.1745 22.2122 18.2142 22.1294C18.2538 22.0467 18.3204 21.9799 18.403 21.9399C18.7521 21.7716 19.0859 21.5733 19.4007 21.3471C19.4881 21.2888 19.5947 21.2666 19.6981 21.2853C19.8015 21.304 19.8936 21.3621 19.9549 21.4473C20.0163 21.5326 20.0422 21.6383 20.0272 21.7423C20.0121 21.8463 19.9573 21.9404 19.8742 22.0047C19.5213 22.2578 19.1472 22.48 18.7561 22.6688C18.7012 22.6957 18.6409 22.7098 18.5798 22.7101Z" fill="#17161A"/>
<path d="M14.9994 23.5444C13.3155 23.5444 11.6695 23.0451 10.2695 22.1096C8.86946 21.1741 7.77826 19.8445 7.1339 18.2888C6.48953 16.7332 6.32093 15.0214 6.64943 13.3699C6.97792 11.7185 7.78876 10.2015 8.97939 9.01089C10.17 7.82025 11.687 7.00942 13.3385 6.68092C14.9899 6.35243 16.7017 6.52102 18.2573 7.16539C19.813 7.80976 21.1426 8.90096 22.0781 10.301C23.0136 11.701 23.5129 13.347 23.5129 15.0309C23.5129 15.1731 23.5084 15.311 23.4999 15.4533C23.4916 15.56 23.4421 15.6592 23.3619 15.73C23.2817 15.8009 23.1771 15.8377 23.0702 15.8327C22.9629 15.8261 22.8626 15.777 22.7914 15.6965C22.7203 15.6159 22.6841 15.5103 22.6907 15.403C22.6984 15.2777 22.7021 15.1561 22.7021 15.0309C22.7021 13.5074 22.2503 12.0182 21.4039 10.7515C20.5575 9.48476 19.3545 8.49748 17.9471 7.91448C16.5396 7.33148 14.9908 7.17894 13.4966 7.47615C12.0025 7.77336 10.63 8.50698 9.55272 9.58422C8.47548 10.6615 7.74187 12.034 7.44466 13.5281C7.14745 15.0223 7.29999 16.5711 7.88299 17.9785C8.46599 19.386 9.45326 20.589 10.72 21.4354C11.9867 22.2818 13.4759 22.7336 14.9994 22.7336C15.121 22.7336 15.2426 22.7299 15.3642 22.7222C15.4175 22.7189 15.4708 22.7261 15.5213 22.7434C15.5718 22.7607 15.6183 22.7877 15.6583 22.823C15.6983 22.8583 15.731 22.9011 15.7544 22.9491C15.7779 22.997 15.7916 23.049 15.795 23.1023C15.7983 23.1555 15.7911 23.2089 15.7738 23.2593C15.7565 23.3098 15.7294 23.3564 15.6941 23.3964C15.6588 23.4364 15.616 23.469 15.5681 23.4925C15.5202 23.5159 15.4681 23.5297 15.4149 23.533C15.2758 23.5403 15.1376 23.5444 14.9994 23.5444Z" fill="#17161A"/>
<path d="M21.6451 20.0741C21.5705 20.0741 21.4973 20.0535 21.4336 20.0145C21.3699 19.9756 21.3182 19.9198 21.2842 19.8534C21.2502 19.7869 21.2353 19.7124 21.2409 19.6379C21.2466 19.5635 21.2727 19.4921 21.3164 19.4315C21.5419 19.118 21.7407 18.786 21.9107 18.4391C21.9587 18.3434 22.0427 18.2706 22.1442 18.2366C22.2457 18.2026 22.3566 18.2101 22.4526 18.2575C22.5486 18.305 22.622 18.3885 22.6566 18.4898C22.6913 18.5911 22.6844 18.702 22.6376 18.7983C22.4478 19.1853 22.2258 19.5557 21.9739 19.9055C21.9364 19.9576 21.887 20.0001 21.8299 20.0294C21.7727 20.0587 21.7094 20.0741 21.6451 20.0741Z" fill="#17161A"/>
<path d="M17.3406 17.1108C17.2577 17.1107 17.1769 17.0852 17.1089 17.0378C17.0409 16.9903 16.9891 16.9232 16.9605 16.8454C16.9319 16.7676 16.9278 16.6829 16.9488 16.6027C16.9698 16.5225 17.0149 16.4506 17.0779 16.3968L18.6825 15.0314L17.0779 13.666C17.0374 13.6314 17.0041 13.5892 16.9799 13.5417C16.9557 13.4942 16.941 13.4424 16.9368 13.3893C16.9326 13.3361 16.9389 13.2827 16.9554 13.232C16.9719 13.1813 16.9981 13.1343 17.0327 13.0938C17.0673 13.0532 17.1096 13.0199 17.1571 12.9957C17.2046 12.9715 17.2564 12.9569 17.3095 12.9527C17.3626 12.9485 17.4161 12.9548 17.4668 12.9712C17.5175 12.9877 17.5644 13.014 17.605 13.0486L19.572 14.7225C19.6168 14.7606 19.6527 14.8079 19.6774 14.8613C19.7021 14.9146 19.7149 14.9727 19.7149 15.0314C19.7149 15.0902 19.7021 15.1483 19.6774 15.2016C19.6527 15.255 19.6168 15.3023 19.572 15.3404L17.605 17.0143C17.5312 17.077 17.4374 17.1112 17.3406 17.1108Z" fill="#17161A"/>
<path d="M12.6601 17.1108C12.5637 17.1109 12.4705 17.0767 12.397 17.0143L10.43 15.3404C10.3852 15.3023 10.3492 15.255 10.3246 15.2016C10.2999 15.1483 10.2871 15.0902 10.2871 15.0314C10.2871 14.9727 10.2999 14.9146 10.3246 14.8613C10.3492 14.8079 10.3852 14.7606 10.43 14.7225L12.397 13.0486C12.4789 12.9787 12.5852 12.9442 12.6925 12.9527C12.7998 12.9612 12.8993 13.0119 12.9692 13.0938C13.0391 13.1757 13.0736 13.282 13.0651 13.3893C13.0567 13.4966 13.0059 13.5961 12.924 13.666L11.3182 15.0314L12.9228 16.3968C12.9859 16.4506 13.031 16.5225 13.052 16.6026C13.073 16.6828 13.0689 16.7676 13.0403 16.8454C13.0116 16.9232 12.9599 16.9903 12.8919 17.0378C12.8239 17.0852 12.743 17.1107 12.6601 17.1108Z" fill="#17161A"/>
<path d="M13.6345 19.12C13.5864 19.1198 13.5386 19.1111 13.4934 19.0944C13.3927 19.057 13.3108 18.9812 13.266 18.8835C13.2211 18.7858 13.2169 18.6743 13.2543 18.5735L15.9871 11.2076C16.0057 11.1577 16.034 11.112 16.0703 11.073C16.1066 11.034 16.1503 11.0026 16.1987 10.9805C16.2472 10.9583 16.2996 10.946 16.3528 10.9441C16.406 10.9422 16.4591 10.9508 16.509 10.9695C16.559 10.9881 16.6047 11.0164 16.6437 11.0527C16.6827 11.089 16.7141 11.1327 16.7362 11.1811C16.7583 11.2296 16.7707 11.2819 16.7726 11.3352C16.7745 11.3884 16.7658 11.4415 16.7472 11.4914L14.0144 18.8552C13.9857 18.9329 13.9339 18.9998 13.866 19.0472C13.7981 19.0945 13.7173 19.1199 13.6345 19.12Z" fill="#17161A"/>
</g>
<defs>
<clipPath id="clip0_2097_51142">
<rect width="30" height="30" fill="white" transform="translate(0 0.03125)"/>
</clipPath>
</defs>
</svg>
