<svg width="30" height="31" viewBox="0 0 30 31" fill="none" xmlns="http://www.w3.org/2000/svg">
<g clip-path="url(#clip0_2097_51098)">
<path d="M12.4629 8.07475C13.7683 8.07475 14.8304 7.01273 14.8304 5.70732C14.8304 4.40191 13.7683 3.33984 12.4629 3.33984C11.1575 3.33984 10.0955 4.40191 10.0955 5.70732C10.0955 7.01273 11.1575 8.07475 12.4629 8.07475ZM12.4629 4.21875C13.2837 4.21875 13.9515 4.88648 13.9515 5.70732C13.9515 6.52811 13.2837 7.19584 12.4629 7.19584C11.6421 7.19584 10.9744 6.52811 10.9744 5.70732C10.9744 4.88654 11.6421 4.21875 12.4629 4.21875Z" fill="#17161A"/>
<path d="M11.5924 25.6386C13.0863 25.6386 14.3017 24.4232 14.3017 22.9293C14.3017 21.4354 13.0863 20.22 11.5924 20.22C10.0985 20.22 8.88306 21.4354 8.88306 22.9293C8.88306 24.4232 10.0985 25.6386 11.5924 25.6386ZM11.5924 21.0989C12.6017 21.0989 13.4228 21.92 13.4228 22.9293C13.4228 23.9386 12.6017 24.7597 11.5924 24.7597C10.5831 24.7597 9.76196 23.9386 9.76196 22.9293C9.76196 21.92 10.583 21.0989 11.5924 21.0989Z" fill="#17161A"/>
<path d="M7.71173 7.74609C6.12789 7.74609 4.83936 9.03463 4.83936 10.6185C4.83936 12.2023 6.12789 13.4909 7.71173 13.4909C9.29558 13.4909 10.5841 12.2023 10.5841 10.6185C10.5841 9.03463 9.29558 7.74609 7.71173 7.74609ZM7.71173 12.612C6.61252 12.612 5.71826 11.7178 5.71826 10.6185C5.71826 9.51932 6.61258 8.62506 7.71173 8.62506C8.81089 8.62506 9.70521 9.51932 9.70521 10.6185C9.70521 11.7178 8.81095 12.612 7.71173 12.612Z" fill="#17161A"/>
<path d="M6.89021 20.4664C8.47405 20.4664 9.76259 19.1779 9.76259 17.5941C9.76259 16.0102 8.47405 14.7217 6.89021 14.7217C5.30636 14.7217 4.01782 16.0102 4.01782 17.5941C4.01782 19.1779 5.30636 20.4664 6.89021 20.4664ZM6.89021 15.6005C7.98942 15.6005 8.88368 16.4948 8.88368 17.594C8.88368 18.6932 7.98937 19.5875 6.89021 19.5875C5.79105 19.5875 4.89673 18.6932 4.89673 17.594C4.89673 16.4948 5.79099 15.6005 6.89021 15.6005Z" fill="#17161A"/>
<path d="M9.75256 28.7707C9.99098 28.8146 10.2201 28.6561 10.2638 28.4173C10.3074 28.1785 10.1492 27.9497 9.91041 27.9061C8.22603 27.5985 6.71925 26.7629 5.55295 25.4896C2.15577 21.7807 0.643238 17.7804 1.05732 13.5998C1.9917 4.16491 11.9411 -0.531227 21.1167 1.30397C22.3563 1.55188 22.8391 2.56226 22.8757 3.3521C22.912 4.13174 22.5302 5.16879 21.335 5.52586C19.7908 5.98716 18.5699 6.66046 17.7061 7.52699C15.7263 9.51313 15.5548 12.8643 17.4452 15.1216C18.3787 16.2362 18.9758 17.5878 19.1763 19.0372C18.1811 21.2991 17.1635 23.8605 16.3759 26.2314C15.1106 27.2766 13.5097 27.9099 11.8536 28.0181C11.6114 28.0339 11.4279 28.243 11.4437 28.4852C11.4589 28.7177 11.6522 28.8961 11.8818 28.8961C11.8915 28.8961 11.9011 28.8958 11.9109 28.8951C13.3369 28.802 14.7265 28.3576 15.9347 27.621C15.6792 28.5114 16.0964 29.4442 16.9356 29.8474C17.8317 30.2781 18.9166 29.9368 19.4056 29.0716C20.2518 27.5743 21.1687 25.7571 22.057 23.8164C22.1581 23.5957 22.061 23.3349 21.8404 23.2339C21.6196 23.1328 21.359 23.23 21.2579 23.4506C20.3798 25.3691 19.4747 27.1632 18.6405 28.6392C18.3781 29.1033 17.7966 29.2859 17.3163 29.0553C16.8617 28.8368 16.6377 28.3292 16.7836 27.8482C17.9181 24.1061 19.81 19.551 21.5431 16.0289L23.9051 17.04C23.3544 18.5408 22.727 20.1035 22.0869 21.5851C21.9908 21.8079 22.0935 22.0665 22.3163 22.1627C22.5395 22.2589 22.7978 22.1561 22.8939 21.9333C24.0997 19.1352 25.4454 15.6403 26.2307 12.7001C26.5098 12.5998 26.7116 12.3979 26.8185 12.1481L27.1988 11.2596C27.2803 11.0692 27.2983 10.8675 27.2628 10.6777C27.9942 10.2108 29.0181 9.3779 29.5487 8.13841C30.2041 6.60737 29.7686 4.0135 29.4506 2.60363C29.3897 2.33352 29.2013 2.10711 28.9467 1.99813C28.692 1.88915 28.3982 1.90901 28.1607 2.05145C26.9211 2.7947 24.7436 4.27008 24.0882 5.80101C23.5578 7.03996 23.6617 8.35533 23.8287 9.20692C23.6624 9.31479 23.5317 9.4693 23.452 9.65563L23.0716 10.5441C22.9638 10.7959 22.9586 11.0803 23.078 11.3504C21.8988 13.2828 20.7281 15.628 19.7837 17.6857C19.452 16.5407 18.889 15.4767 18.1191 14.5574C17.3819 13.6771 17.0082 12.6454 17.0082 11.4908C17.0082 8.99921 18.5486 7.27568 21.5866 6.36807C22.9702 5.95476 23.8208 4.75494 23.7537 3.31144C23.6982 2.11754 22.9146 0.767376 21.2891 0.442242C11.6164 -1.49239 1.17116 3.53445 0.182636 13.5132C-0.257106 17.953 1.33165 22.1822 4.90485 26.0833C6.20169 27.4991 7.87799 28.4284 9.75256 28.7707ZM23.752 11.9334C24.3279 12.1799 24.7676 12.3681 25.3435 12.6146C25.0563 13.6713 24.6671 14.8991 24.2034 16.2116L21.9365 15.2411C22.5662 13.9995 23.186 12.8703 23.752 11.9334ZM26.3908 10.9136L26.0105 11.8021C25.9797 11.8739 25.8994 11.8966 25.8391 11.8707L23.9481 11.0613C23.8868 11.035 23.8492 10.9609 23.8795 10.89L24.2598 10.0014C24.2895 9.9323 24.3679 9.90559 24.4314 9.93283L26.3222 10.7422C26.3832 10.7684 26.4207 10.844 26.3908 10.9136ZM24.8961 6.14683C25.0885 5.6973 25.8344 4.47375 28.597 2.81445C29.3037 5.95898 28.933 7.34289 28.7406 7.79248C28.2868 8.85255 27.3741 9.57225 26.74 9.96857C26.7165 9.95621 26.6924 9.94473 26.668 9.9343L24.7771 9.12483H24.777C24.7526 9.1144 24.7277 9.10491 24.7025 9.09647C24.5517 8.364 24.4424 7.20678 24.8961 6.14683Z" fill="#17161A"/>
</g>
<defs>
<clipPath id="clip0_2097_51098">
<rect width="30" height="30" fill="white" transform="translate(0 0.0332031)"/>
</clipPath>
</defs>
</svg>
