<svg width="30" height="31" viewBox="0 0 30 31" fill="none" xmlns="http://www.w3.org/2000/svg">
<g clip-path="url(#clip0_2097_51181)">
<path d="M24.2595 11.227C26.2109 9.63305 25.5369 6.48097 23.0985 5.8277C22.4614 5.65701 21.8018 5.69251 21.1971 5.92283L19.2597 2.56706C18.4713 1.20146 16.516 1.16528 15.6764 2.49675C13.2934 6.27647 10.1187 9.49117 6.34964 11.9307C6.13501 12.0693 6.05544 12.3558 6.18244 12.589C6.20282 12.6263 9.41203 18.1841 9.43328 18.221C9.57128 18.46 9.87691 18.5421 10.1163 18.404C10.3554 18.2659 10.4374 17.9601 10.2993 17.7209L7.28985 12.5083C10.8837 10.1058 14.0667 6.92498 16.5224 3.03007C16.9616 2.33337 17.9825 2.35499 18.3936 3.06707L25.331 15.0831C25.7427 15.7961 25.2492 16.6901 24.4275 16.7221C19.8175 16.9017 15.3041 18.0808 11.1776 20.1914C11.16 20.2003 6.48139 22.9019 6.15919 23.0879C5.32286 23.5708 4.24971 23.2833 3.76695 22.4469L1.23432 18.0601C0.751496 17.2239 1.03907 16.1507 1.87534 15.6679L4.92347 13.908C5.16261 13.77 5.24455 13.4641 5.10648 13.225C4.96841 12.9858 4.66253 12.9039 4.42346 13.042L1.37532 14.8019C0.0615407 15.5603 -0.39022 17.2463 0.368299 18.5601L2.90099 22.9469C3.65957 24.2608 5.34555 24.7124 6.65933 23.9539L6.77465 23.8873L9.90154 29.3033C10.3507 30.0812 11.3438 30.3477 12.1222 29.8984L13.2189 29.2652C13.9971 28.8159 14.2632 27.8227 13.8139 27.0445L11.5978 23.2061C11.4598 22.9669 11.1539 22.885 10.9148 23.0231C10.6757 23.1611 10.5937 23.467 10.7318 23.7061L12.9479 27.5445C13.1208 27.8439 13.0184 28.2262 12.7189 28.3991L11.6222 29.0323C11.3228 29.2052 10.9405 29.1027 10.7676 28.8033L7.64073 23.3873L11.6443 21.0758C15.5619 19.0742 19.9203 17.8984 24.4665 17.7213C26.042 17.6599 26.9843 15.9463 26.1971 14.583L24.2595 11.227ZM24.1167 7.7735C24.6103 8.62853 24.433 9.68955 23.7497 10.3439L21.7068 6.80548C22.6024 6.54279 23.6151 6.90467 24.1167 7.7735ZM29.0072 5.55051L27.7135 6.29747C27.4742 6.4356 27.1685 6.35353 27.0305 6.11446C26.8923 5.87533 26.9743 5.56951 27.2135 5.43145L28.5072 4.68449C28.7465 4.54636 29.0522 4.62843 29.1902 4.86749C29.3283 5.10662 29.2463 5.41245 29.0072 5.55051ZM23.4434 2.70069L23.7589 1.52341C23.8304 1.25665 24.1045 1.09846 24.3714 1.16984C24.6382 1.24134 24.7964 1.51554 24.7249 1.78223L24.4094 2.95951C24.3381 3.22558 24.0646 3.38458 23.7969 3.31308C23.5303 3.24158 23.372 2.96745 23.4434 2.70069ZM29.983 10.8896C29.9232 11.113 29.7212 11.2603 29.5003 11.2603C29.4098 11.2603 29.4732 11.2706 28.1933 10.9276C27.9266 10.8561 27.7682 10.582 27.8397 10.3153C27.9112 10.0485 28.1854 9.89037 28.4521 9.96168L29.6295 10.2771C29.8962 10.3486 30.0545 10.6228 29.983 10.8896Z" fill="#17161A"/>
</g>
<defs>
<clipPath id="clip0_2097_51181">
<rect width="30" height="30" fill="white" transform="translate(0 0.634766)"/>
</clipPath>
</defs>
</svg>
