<svg width="30" height="30" viewBox="0 0 30 30" fill="none" xmlns="http://www.w3.org/2000/svg">
<g clip-path="url(#clip0_2097_51054)">
<path d="M15.001 3.85036C15.2443 3.85036 15.4415 3.65321 15.4415 3.4099V0.440457C15.4415 0.197149 15.2443 0 15.001 0C14.7577 0 14.5605 0.197149 14.5605 0.440457V3.4099C14.5605 3.65321 14.7577 3.85036 15.001 3.85036Z" fill="#17161A"/>
<path d="M6.78247 6.99623C6.95454 7.16818 7.23332 7.16818 7.40539 6.99623C7.5774 6.82416 7.5774 6.54532 7.40539 6.37331L5.30564 4.2735C5.13363 4.1016 4.85479 4.10148 4.68272 4.2735C4.51071 4.44557 4.51071 4.72441 4.68272 4.89642L6.78247 6.99623Z" fill="#17161A"/>
<path d="M3.81914 14.1501H0.849637C0.606328 14.1501 0.40918 14.3473 0.40918 14.5906C0.40918 14.8339 0.606328 15.0311 0.849637 15.0311H3.81908C4.06239 15.0311 4.25954 14.8339 4.25954 14.5906C4.25954 14.3473 4.06239 14.1501 3.81914 14.1501Z" fill="#17161A"/>
<path d="M6.78247 22.1861L4.68272 24.2858C4.51071 24.4579 4.51071 24.7367 4.68272 24.9087C4.85479 25.0807 5.13357 25.0807 5.30564 24.9087L7.40539 22.809C7.5774 22.6369 7.5774 22.3581 7.40539 22.1861C7.23338 22.0142 6.95454 22.0142 6.78247 22.1861Z" fill="#17161A"/>
<path d="M23.2178 22.1863C23.0457 22.0144 22.7668 22.0144 22.5948 22.1863C22.4228 22.3584 22.4228 22.6373 22.5948 22.8093L24.6946 24.909C24.8666 25.081 25.1454 25.081 25.3175 24.909C25.4895 24.7369 25.4895 24.4581 25.3175 24.2861L23.2178 22.1863Z" fill="#17161A"/>
<path d="M29.1501 14.1501H26.1807C25.9374 14.1501 25.7402 14.3473 25.7402 14.5906C25.7402 14.8339 25.9374 15.0311 26.1807 15.0311H29.1501C29.3934 15.0311 29.5906 14.8339 29.5906 14.5906C29.5906 14.3473 29.3934 14.1501 29.1501 14.1501Z" fill="#17161A"/>
<path d="M24.6946 4.2735L22.5948 6.37331C22.4228 6.54538 22.4228 6.82422 22.5948 6.99623C22.7669 7.16818 23.0457 7.16818 23.2178 6.99623L25.3175 4.89642C25.4895 4.72435 25.4895 4.44551 25.3175 4.2735C25.1454 4.10154 24.8666 4.10154 24.6946 4.2735Z" fill="#17161A"/>
<path d="M23.7012 13.7009C23.7012 8.83399 19.7979 4.87451 15 4.87451C13.3194 4.87451 11.6881 5.36154 10.2828 6.28292C8.9155 7.17939 7.82551 8.44057 7.1307 9.93008C7.02787 10.1505 7.12325 10.4126 7.34365 10.5155C7.56429 10.6184 7.82622 10.5229 7.92905 10.3025C9.21747 7.54028 11.993 5.75543 15 5.75543C19.3122 5.75543 22.8203 9.31972 22.8203 13.7009C22.8203 15.7818 22.034 17.7492 20.6062 19.2405C19.7832 20.0999 19.0827 20.9212 18.9025 22.0719H11.2127C10.9856 20.8773 10.1708 20.0392 9.43858 19.2867C7.98196 17.7898 7.17974 15.806 7.17974 13.7009C7.17974 13.1811 7.22948 12.6612 7.3275 12.1556C7.37384 11.9168 7.2178 11.6857 6.97895 11.6393C6.74017 11.5934 6.50901 11.7491 6.46268 11.988C6.35391 12.5486 6.29883 13.1249 6.29883 13.7009C6.29883 16.0368 7.18967 18.2387 8.80726 19.9011C9.73627 20.8558 10.3939 21.6178 10.3939 22.7348C10.3939 22.7386 10.394 22.7426 10.3941 22.7465L10.4193 25.3313C10.4193 26.1698 10.8667 26.9059 11.5352 27.3134V27.7978C11.5352 29.0122 12.5231 30.0001 13.7374 30.0001H16.4389C17.6533 30.0001 18.6412 29.0122 18.6412 27.7978V27.3134C19.3097 26.9059 19.757 26.1698 19.757 25.3313C19.757 25.3313 19.7539 22.4521 19.748 22.4234C19.8316 21.4026 20.4504 20.677 21.2425 19.8496C22.8279 18.1936 23.7012 16.0099 23.7012 13.7009ZM17.7602 27.7978C17.7602 28.5264 17.1674 29.1192 16.4389 29.1192H13.7374C13.0088 29.1192 12.416 28.5264 12.416 27.7978V27.6281C12.5217 27.6429 12.6294 27.651 12.739 27.651H17.4372C17.5469 27.651 17.6546 27.6428 17.7602 27.6281V27.7978ZM17.4372 26.7701H12.739C11.9456 26.7701 11.3002 26.1247 11.3002 25.3313V25.3019H15.7635C16.0068 25.3019 16.2039 25.1048 16.2039 24.8615C16.2039 24.6181 16.0068 24.421 15.7635 24.421H11.3002V22.9528H18.8624L18.876 24.421H17.819C17.5756 24.421 17.3785 24.6181 17.3785 24.8615C17.3785 25.1048 17.5756 25.3019 17.819 25.3019H18.876V25.3313C18.876 26.1247 18.2306 26.7701 17.4372 26.7701Z" fill="#17161A"/>
<path d="M17.8632 13.7593C17.7141 13.9514 17.7489 14.2282 17.941 14.3773C18.133 14.5266 18.4098 14.4918 18.559 14.2996L19.431 13.1766C19.6619 12.8793 19.7631 12.5099 19.7162 12.1363C19.6691 11.7627 19.4795 11.4298 19.1821 11.1989C18.8848 10.968 18.5151 10.8662 18.1417 10.9138C17.7682 10.9608 17.4353 11.1504 17.2044 11.4478L14.3597 15.1115L12.7271 13.3051C12.2059 12.7286 11.3128 12.6836 10.7364 13.2046C10.4571 13.4571 10.2928 13.8032 10.2738 14.1792C10.2548 14.5552 10.3834 14.916 10.6358 15.1954L13.3961 18.2492C13.9517 18.8937 15.0496 18.8542 15.555 18.1686L17.2983 15.9234C17.4475 15.7313 17.4126 15.4546 17.2205 15.3054C17.0284 15.1562 16.7518 15.1909 16.6025 15.3832L14.8592 17.6283C14.67 17.8854 14.2571 17.9004 14.0496 17.6586L11.2894 14.6047C11.094 14.3885 11.1109 14.0536 11.3272 13.8582C11.5433 13.663 11.8782 13.6796 12.0737 13.8959L14.0587 16.0921C14.2317 16.2927 14.5756 16.2812 14.7334 16.0669L17.9004 11.9882C18.0699 11.7602 18.4215 11.716 18.642 11.8949C18.87 12.0645 18.9142 12.4157 18.7353 12.6365L17.8632 13.7593Z" fill="#17161A"/>
</g>
<defs>
<clipPath id="clip0_2097_51054">
<rect width="30" height="30" fill="white"/>
</clipPath>
</defs>
</svg>
