<svg width="16" height="16" viewBox="0 0 16 16" fill="none" xmlns="http://www.w3.org/2000/svg">
<g clip-path="url(#clip0_2097_12706)">
<path d="M13.6667 1.33325H13C12.816 1.33325 12.6667 1.4826 12.6667 1.6666C12.6667 1.8506 12.816 1.99991 13 1.99991H13.6667C14.586 1.99991 15.3333 2.74725 15.3333 3.66656V13.6666C15.3333 14.5859 14.586 15.3332 13.6667 15.3332H2.33334C1.414 15.3332 0.666687 14.5859 0.666687 13.6666V3.66656C0.666656 2.74725 1.414 1.99991 2.33334 1.99991H3C3.184 1.99991 3.33334 1.85056 3.33334 1.66656C3.33334 1.48256 3.184 1.33325 3 1.33325H2.33334C1.04666 1.33325 0 2.37991 0 3.66656V13.6666C0 14.9533 1.04666 15.9999 2.33334 15.9999H13.6667C14.9533 15.9999 16 14.9533 16 13.6666V3.66656C16 2.37991 14.9533 1.33325 13.6667 1.33325Z" fill="#17161A"/>
<path d="M10.336 1.33325H5.66928C5.48528 1.33325 5.33594 1.4826 5.33594 1.6666C5.33594 1.8506 5.48528 1.99991 5.66928 1.99991H10.336C10.52 1.99991 10.6693 1.85056 10.6693 1.66656C10.6693 1.48256 10.52 1.33325 10.336 1.33325Z" fill="#17161A"/>
<path d="M15.6667 4.66675H0.333344C0.149344 4.66675 0 4.81609 0 5.00009C0 5.18409 0.149344 5.33344 0.333344 5.33344H15.6667C15.8507 5.33344 16 5.18409 16 5.00009C16 4.81609 15.8507 4.66675 15.6667 4.66675Z" fill="#17161A"/>
<path d="M4.33334 0C4.14934 0 4 0.149344 4 0.333344V3C4 3.184 4.14934 3.33334 4.33334 3.33334C4.51734 3.33334 4.66669 3.184 4.66669 3V0.333344C4.66666 0.149344 4.51734 0 4.33334 0Z" fill="#17161A"/>
<path d="M11.6693 0C11.4853 0 11.3359 0.149344 11.3359 0.333344V3C11.3359 3.184 11.4853 3.33334 11.6693 3.33334C11.8533 3.33334 12.0026 3.184 12.0026 3V0.333344C12.0026 0.149344 11.8533 0 11.6693 0Z" fill="#17161A"/>
<path d="M6.66534 10.3333C7.07069 10.0293 7.33334 9.54391 7.33334 8.99991C7.33334 8.08057 6.586 7.33325 5.66669 7.33325C4.74734 7.33325 4 8.08057 4 8.99991C4 9.18391 4.14934 9.33326 4.33334 9.33326C4.51734 9.33326 4.66669 9.18391 4.66669 8.99991C4.66669 8.44857 5.11534 7.99991 5.66669 7.99991C6.21803 7.99991 6.66669 8.44857 6.66669 8.99991C6.66669 9.55126 6.21803 9.99991 5.66669 9.99991H5C4.816 9.99991 4.66666 10.1493 4.66666 10.3333C4.66666 10.5173 4.816 10.6666 5 10.6666H5.66666C6.218 10.6666 6.66666 11.1153 6.66666 11.6666C6.66666 12.218 6.218 12.6666 5.66666 12.6666C5.11531 12.6666 4.66666 12.218 4.66666 11.6666C4.66666 11.4826 4.51731 11.3333 4.33331 11.3333C4.14931 11.3333 4 11.4826 4 11.6666C4 12.5859 4.74734 13.3332 5.66666 13.3332C6.586 13.3332 7.33331 12.5859 7.33331 11.6666C7.33334 11.1226 7.07066 10.6373 6.66534 10.3333Z" fill="#17161A"/>
<path d="M10.4622 7.35898C10.3382 7.30764 10.1948 7.33498 10.0988 7.43098L8.76547 8.76432C8.63547 8.89432 8.63547 9.10567 8.76547 9.23567C8.89547 9.36566 9.10681 9.36566 9.23681 9.23567L10.0008 8.47167V13.0003C10.0008 13.1843 10.1502 13.3337 10.3342 13.3337C10.5182 13.3337 10.6675 13.1843 10.6675 13.0003V7.66698C10.6675 7.53233 10.5862 7.41033 10.4622 7.35898Z" fill="#17161A"/>
<path d="M11.668 12.6667H9.00131C8.81731 12.6667 8.66797 12.8161 8.66797 13.0001C8.66797 13.1841 8.81731 13.3334 9.00131 13.3334H11.668C11.852 13.3334 12.0013 13.1841 12.0013 13.0001C12.0013 12.8161 11.852 12.6667 11.668 12.6667Z" fill="#17161A"/>
</g>
<defs>
<clipPath id="clip0_2097_12706">
<rect width="16" height="16" fill="white"/>
</clipPath>
</defs>
</svg>
