<svg width="16" height="16" viewBox="0 0 16 16" fill="none" xmlns="http://www.w3.org/2000/svg">
<g clip-path="url(#clip0_2097_12684)">
<path d="M8.00121 2.78247C6.6586 2.78247 5.56641 3.87463 5.56641 5.21726C5.56641 6.55989 6.65857 7.65205 8.00121 7.65205C9.34384 7.65205 10.436 6.55986 10.436 5.21726C10.436 3.87467 9.34384 2.78247 8.00121 2.78247ZM8.00121 6.95638C7.04261 6.95638 6.26208 6.17586 6.26208 5.21726C6.26208 4.25867 7.04261 3.47814 8.00121 3.47814C8.95981 3.47814 9.74033 4.25867 9.74033 5.21726C9.74033 6.17586 8.95984 6.95638 8.00121 6.95638Z" fill="#17161A"/>
<path d="M12.868 5.56519C11.9094 5.56519 11.1289 6.34571 11.1289 7.30431C11.1289 8.26291 11.9094 9.04344 12.868 9.04344C13.8266 9.04344 14.6071 8.26291 14.6071 7.30431C14.6071 6.34571 13.8266 5.56519 12.868 5.56519ZM12.868 8.34779C12.2927 8.34779 11.8245 7.87963 11.8245 7.30431C11.8245 6.72899 12.2927 6.26083 12.868 6.26083C13.4433 6.26083 13.9115 6.72899 13.9115 7.30431C13.9115 7.87963 13.4433 8.34779 12.868 8.34779Z" fill="#17161A"/>
<path d="M3.17858 5.56519C2.21926 5.56519 1.43945 6.34571 1.43945 7.30431C1.43945 8.26291 2.21998 9.04344 3.17858 9.04344C4.13717 9.04344 4.9177 8.26291 4.9177 7.30431C4.9177 6.34571 4.13786 5.56519 3.17858 5.56519ZM3.17858 8.34779C2.60326 8.34779 2.1351 7.87963 2.1351 7.30431C2.1351 6.72899 2.60326 6.26083 3.17858 6.26083C3.75389 6.26083 4.22206 6.72899 4.22206 7.30431C4.22206 7.87963 3.75386 8.34779 3.17858 8.34779Z" fill="#17161A"/>
<path d="M8.00222 8.3479C5.50899 8.3479 3.48047 10.3764 3.48047 12.8696C3.48047 13.0616 3.63631 13.2175 3.82831 13.2175C4.02031 13.2175 4.17614 13.0616 4.17614 12.8696C4.17614 10.7597 5.8923 9.04357 8.00222 9.04357C10.1121 9.04357 11.8283 10.7597 11.8283 12.8696C11.8283 13.0616 11.9841 13.2175 12.1761 13.2175C12.3681 13.2175 12.524 13.0616 12.524 12.8696C12.524 10.3764 10.4954 8.3479 8.00222 8.3479Z" fill="#17161A"/>
<path d="M12.8707 9.73901C12.2982 9.73901 11.7375 9.89554 11.2492 10.1912C11.0857 10.2914 11.0328 10.5049 11.1323 10.6691C11.2332 10.8333 11.446 10.8855 11.6102 10.786C11.9893 10.5557 12.4248 10.4347 12.8707 10.4347C14.2133 10.4347 15.3055 11.5268 15.3055 12.8694C15.3055 13.0614 15.4614 13.2173 15.6534 13.2173C15.8454 13.2173 16.0012 13.0614 16.0012 12.8694C16.0012 11.1435 14.5967 9.73901 12.8707 9.73901Z" fill="#17161A"/>
<path d="M4.75131 10.1905C4.26365 9.89554 3.70298 9.73901 3.13043 9.73901C1.40452 9.73901 0 11.1435 0 12.8694C0 13.0614 0.155837 13.2173 0.347837 13.2173C0.539837 13.2173 0.695674 13.0614 0.695674 12.8694C0.695641 11.5268 1.78784 10.4347 3.13043 10.4347C3.57636 10.4347 4.01181 10.5557 4.39027 10.7853C4.55374 10.8848 4.76801 10.8326 4.86818 10.6684C4.96836 10.5042 4.91546 10.2907 4.75131 10.1905Z" fill="#17161A"/>
</g>
<defs>
<clipPath id="clip0_2097_12684">
<rect width="16" height="16" fill="white"/>
</clipPath>
</defs>
</svg>
