<svg width="20" height="21" viewBox="0 0 20 21" fill="none" xmlns="http://www.w3.org/2000/svg">
<path d="M16.25 3.90381H3.75C2.71447 3.90381 1.875 4.74327 1.875 5.77881V17.0288C1.875 18.0643 2.71447 18.9038 3.75 18.9038H16.25C17.2855 18.9038 18.125 18.0643 18.125 17.0288V5.77881C18.125 4.74327 17.2855 3.90381 16.25 3.90381Z" stroke="#747376" stroke-linejoin="round"/>
<path d="M11.5625 10.7788C12.0803 10.7788 12.5 10.3591 12.5 9.84131C12.5 9.32354 12.0803 8.90381 11.5625 8.90381C11.0447 8.90381 10.625 9.32354 10.625 9.84131C10.625 10.3591 11.0447 10.7788 11.5625 10.7788Z" fill="#747376"/>
<path d="M14.6875 10.7788C15.2053 10.7788 15.625 10.3591 15.625 9.84131C15.625 9.32354 15.2053 8.90381 14.6875 8.90381C14.1697 8.90381 13.75 9.32354 13.75 9.84131C13.75 10.3591 14.1697 10.7788 14.6875 10.7788Z" fill="#747376"/>
<path d="M11.5625 13.9038C12.0803 13.9038 12.5 13.4841 12.5 12.9663C12.5 12.4485 12.0803 12.0288 11.5625 12.0288C11.0447 12.0288 10.625 12.4485 10.625 12.9663C10.625 13.4841 11.0447 13.9038 11.5625 13.9038Z" fill="#747376"/>
<path d="M14.6875 13.9038C15.2053 13.9038 15.625 13.4841 15.625 12.9663C15.625 12.4485 15.2053 12.0288 14.6875 12.0288C14.1697 12.0288 13.75 12.4485 13.75 12.9663C13.75 13.4841 14.1697 13.9038 14.6875 13.9038Z" fill="#747376"/>
<path d="M5.3125 13.9038C5.83027 13.9038 6.25 13.4841 6.25 12.9663C6.25 12.4485 5.83027 12.0288 5.3125 12.0288C4.79473 12.0288 4.375 12.4485 4.375 12.9663C4.375 13.4841 4.79473 13.9038 5.3125 13.9038Z" fill="#747376"/>
<path d="M8.4375 13.9038C8.95527 13.9038 9.375 13.4841 9.375 12.9663C9.375 12.4485 8.95527 12.0288 8.4375 12.0288C7.91973 12.0288 7.5 12.4485 7.5 12.9663C7.5 13.4841 7.91973 13.9038 8.4375 13.9038Z" fill="#747376"/>
<path d="M5.3125 17.0288C5.83027 17.0288 6.25 16.6091 6.25 16.0913C6.25 15.5735 5.83027 15.1538 5.3125 15.1538C4.79473 15.1538 4.375 15.5735 4.375 16.0913C4.375 16.6091 4.79473 17.0288 5.3125 17.0288Z" fill="#747376"/>
<path d="M8.4375 17.0288C8.95527 17.0288 9.375 16.6091 9.375 16.0913C9.375 15.5735 8.95527 15.1538 8.4375 15.1538C7.91973 15.1538 7.5 15.5735 7.5 16.0913C7.5 16.6091 7.91973 17.0288 8.4375 17.0288Z" fill="#747376"/>
<path d="M11.5625 17.0288C12.0803 17.0288 12.5 16.6091 12.5 16.0913C12.5 15.5735 12.0803 15.1538 11.5625 15.1538C11.0447 15.1538 10.625 15.5735 10.625 16.0913C10.625 16.6091 11.0447 17.0288 11.5625 17.0288Z" fill="#747376"/>
<path d="M15 2.65381V3.90381M5 2.65381V3.90381V2.65381Z" stroke="#747376" stroke-linecap="round" stroke-linejoin="round"/>
<path d="M18.125 7.02881H1.875" stroke="#747376" stroke-linejoin="round"/>
</svg>
