<svg width="18" height="19" viewBox="0 0 18 19" fill="none" xmlns="http://www.w3.org/2000/svg">
<path d="M14.4789 9.40613L11.2587 3.31025C11.1825 3.16604 11.0338 3.07618 10.8707 3.07568C10.8703 3.07568 10.8698 3.07568 10.8694 3.07568C10.7068 3.07568 10.5582 3.16459 10.4814 3.308L7.53073 8.81557C7.48201 8.90649 7.49087 9.01751 7.55344 9.09953L8.27569 10.0467C8.35561 10.1515 8.47693 10.2145 8.60862 10.2197C8.7399 10.2251 8.86618 10.1714 8.95396 10.0731L10.0959 8.79529L12.3155 11.4157C12.3984 11.5135 12.5195 11.5703 12.6477 11.5714C12.6489 11.5714 12.6502 11.5714 12.6515 11.5714C12.7783 11.5714 12.8987 11.5168 12.9824 11.4214L14.2979 9.92138C14.3055 9.91273 14.3125 9.90363 14.3189 9.89406L14.465 9.67539C14.5187 9.59499 14.5241 9.49163 14.4789 9.40613ZM13.8907 9.58718L12.6526 10.999L10.4335 8.37921C10.3512 8.28204 10.2309 8.2253 10.1035 8.22361C10.1015 8.22358 10.0996 8.22358 10.0976 8.22358C9.97237 8.22358 9.85302 8.27688 9.76941 8.37046L8.63102 9.64435L8.07485 8.91496L10.8689 3.69971L13.9401 9.51332L13.8907 9.58718Z" fill="#3D3D4E"/>
<path d="M17.9485 15.9737L15.8814 12.061C15.8135 11.9324 15.6543 11.8832 15.5257 11.9512C15.3971 12.0191 15.348 12.1783 15.4159 12.3069L17.4161 16.0931H10.4037C10.3954 16.0522 7.34843 10.2702 7.34843 10.2702L7.80131 9.42491L8.2754 10.0466C8.35531 10.1514 8.47666 10.2145 8.60833 10.2196C8.7396 10.2251 8.86588 10.1713 8.95366 10.0731L10.0956 8.79522L12.3152 11.4156C12.3981 11.5135 12.5192 11.5702 12.6474 11.5713C12.6486 11.5713 12.6499 11.5713 12.6512 11.5713C12.778 11.5713 12.8984 11.5168 12.9821 11.4213C12.983 11.4203 12.9839 11.4193 12.9847 11.4183L14.1947 9.99553L14.6866 10.9266C14.7545 11.0552 14.9138 11.1044 15.0423 11.0364C15.1709 10.9685 15.2201 10.8092 15.1521 10.6807L11.2583 3.31C11.1821 3.16579 11.0335 3.07593 10.8704 3.07544H10.8691C10.7065 3.07544 10.5579 3.16435 10.4811 3.30779L7.71669 8.46788L7.53047 8.81547C7.53047 8.81551 7.53043 8.81554 7.53043 8.81558L7.05189 9.70883L5.62908 7.01561C5.57191 6.90744 5.474 6.82985 5.35978 6.79761C5.32167 6.78685 5.28177 6.78112 5.24095 6.78101C5.24053 6.78101 5.24011 6.78101 5.23969 6.78101C5.23424 6.78101 5.22886 6.78137 5.22345 6.78158C5.21898 6.78172 5.21448 6.78175 5.21005 6.78203C5.20601 6.78232 5.20204 6.78284 5.19803 6.78323C5.19205 6.78379 5.18607 6.78425 5.18017 6.78506C5.17486 6.78576 5.16962 6.78682 5.16438 6.78773C5.15999 6.7885 5.15552 6.7891 5.15116 6.79001C5.02453 6.81589 4.91428 6.89654 4.85167 7.0134L3.88804 8.8122L2.26726 11.8376C2.26698 11.8381 2.26677 11.8387 2.26649 11.8392L0.052699 15.9715C-0.0210588 16.1092 -0.0171917 16.2715 0.0630349 16.4055C0.143297 16.5396 0.284484 16.6196 0.440719 16.6196H17.5592C17.715 16.6196 17.8559 16.54 17.9363 16.4066C18.0167 16.2733 18.0212 16.1114 17.9485 15.9737ZM8.15428 8.76604L10.8686 3.69964L13.9298 9.49434L12.6513 10.9976L10.4332 8.37911C10.3508 8.2819 10.2305 8.22516 10.1032 8.22351C10.1012 8.22348 10.0993 8.22347 10.0973 8.22347C9.97207 8.22347 9.85272 8.27681 9.76911 8.37036L8.63072 9.64425L8.07455 8.91486L8.15428 8.76604ZM0.584965 16.093L2.57854 12.3717L3.34712 13.0155C3.43002 13.0849 3.53029 13.119 3.62999 13.119C3.75089 13.119 3.87095 13.0689 3.95824 12.9711L4.83979 11.9831L5.40756 12.5464C5.51078 12.6488 5.67749 12.6481 5.7799 12.545C5.88231 12.4417 5.88164 12.275 5.77846 12.1726L5.14603 11.5451C5.06067 11.4605 4.94318 11.4142 4.82259 11.4176C4.70239 11.4213 4.58754 11.4748 4.50752 11.5646L3.62109 12.5581L2.83254 11.8976L5.23923 7.40514L8.34486 13.284L7.59512 13.975L6.90926 13.2944C6.80608 13.192 6.63936 13.1927 6.53692 13.2959C6.43451 13.3991 6.43518 13.5658 6.5384 13.6682L7.28286 14.4069C7.36875 14.4921 7.48072 14.5349 7.59291 14.5349C7.69968 14.5349 7.80662 14.4961 7.89124 14.4181L8.59943 13.7654L9.82909 16.093H0.584965Z" fill="#3D3D4E"/>
</svg>
