<svg width="18" height="19" viewBox="0 0 18 19" fill="none" xmlns="http://www.w3.org/2000/svg">
<g clip-path="url(#clip0_2097_56148)">
<path d="M11.4001 3.94766C12.3942 3.94766 13.2001 3.14177 13.2001 2.14766C13.2001 1.15354 12.3942 0.347656 11.4001 0.347656C10.406 0.347656 9.6001 1.15354 9.6001 2.14766C9.60109 3.14136 10.4064 3.94666 11.4001 3.94766ZM11.4001 0.947656C12.0628 0.947656 12.6001 1.48491 12.6001 2.14766C12.6001 2.8104 12.0628 3.34766 11.4001 3.34766C10.7373 3.34766 10.2001 2.8104 10.2001 2.14766C10.2001 1.48491 10.7373 0.947656 11.4001 0.947656Z" fill="#3D3D4E"/>
<path d="M0.600396 18.3472H17.4004C17.6088 18.3475 17.8025 18.2397 17.9119 18.0623C18.0214 17.8849 18.0309 17.6634 17.9371 17.4772L17.6371 16.8772C17.5356 16.6741 17.3275 16.5461 17.1004 16.5472H14.4004V8.69206C14.7589 8.566 14.9989 8.22733 14.9989 7.84727C14.9989 7.4672 14.7589 7.12854 14.4004 7.00247V5.44727C14.4004 5.28159 14.2661 5.14727 14.1004 5.14727C13.9347 5.14727 13.8004 5.28159 13.8004 5.44727V6.94727H12.9214C12.8211 6.94728 12.7275 6.89719 12.6718 6.81377L11.2534 4.68617C10.7975 4.00115 9.91249 3.74717 9.1627 4.08617C9.11383 3.75766 8.88715 3.48318 8.5738 3.37308L6.8725 2.78208C6.40202 2.62063 5.88954 2.86976 5.7259 3.33948L5.4304 4.18877C5.27652 4.14295 5.11384 4.22639 5.06129 4.3781C5.00874 4.52981 5.08495 4.696 5.2342 4.75517L4.8412 5.88947C4.68797 5.84542 4.52706 5.92891 4.47485 6.07955C4.42264 6.23019 4.49737 6.39535 4.645 6.45557C4.3546 7.29407 4.2586 7.45487 4.315 7.76297C3.9203 7.85763 3.63781 8.20477 3.62533 8.61047C3.61285 9.01617 3.87347 9.38001 4.2616 9.49876C6.2932 10.2059 6.4012 10.2986 6.7756 10.1819L6.5056 12.0833C6.4756 12.2897 6.6019 12.1316 4.3171 15.211C4.02109 15.5986 3.98908 16.1268 4.2361 16.5472H0.900396C0.67329 16.5462 0.465264 16.6741 0.363696 16.8772L0.0636955 17.4772C-0.0301013 17.6634 -0.0205734 17.8849 0.0888622 18.0623C0.198298 18.2397 0.391959 18.3475 0.600396 18.3472ZM12.1225 16.5472C12.2387 16.3501 12.3001 16.1254 12.3004 15.8965V12.9173C12.3009 12.4767 12.1395 12.0513 11.8468 11.7221L10.0537 9.70396C9.98276 9.62442 9.96059 9.51265 9.9958 9.41206L10.5448 7.76597L10.7974 8.11937C11.0793 8.51306 11.5336 8.74681 12.0178 8.74726H13.8004V16.5472H12.1225ZM9.4225 4.62497C9.90332 4.41783 10.4635 4.58397 10.7536 5.01977L12.1714 7.14647C12.3385 7.3972 12.6201 7.54765 12.9214 7.54727H14.1004C14.2661 7.54727 14.4004 7.68158 14.4004 7.84727C14.4004 8.01295 14.2661 8.14727 14.1004 8.14727H12.0178C11.7273 8.14692 11.4547 8.00666 11.2855 7.77047L10.1455 6.17297C10.0851 6.08115 9.97924 6.02974 9.86971 6.03897C9.76017 6.04821 9.66446 6.11661 9.62024 6.21725C9.57603 6.31789 9.5904 6.43465 9.6577 6.52157L10.1149 7.16207L9.4285 9.22096C9.32446 9.52635 9.39327 9.86412 9.6085 10.1045L11.4001 12.1208C11.5946 12.3404 11.7014 12.6239 11.7004 12.9173V15.8965C11.7093 16.2238 11.4694 16.5048 11.1448 16.5472C10.9781 16.5596 10.8138 16.5019 10.6915 16.388C10.5692 16.2741 10.4999 16.1144 10.5004 15.9472V14.0573C10.4988 13.6528 10.3622 13.2604 10.1122 12.9425L7.8106 10.3652C7.51626 9.98528 7.42311 9.4868 7.5604 9.02626C8.6878 5.46797 8.7004 5.66777 8.7052 5.63777C8.8426 5.23127 8.9293 4.83917 9.4237 4.62497H9.4225ZM7.6561 6.86447L5.4082 6.08447L5.8009 4.95107L8.0404 5.72897L7.6561 6.86447ZM6.292 3.53448C6.34726 3.37821 6.51773 3.29525 6.6748 3.34818L8.3761 3.93917C8.53132 3.99411 8.61326 4.16388 8.5597 4.31957L8.4097 4.75547C8.34081 4.8722 8.28545 4.9964 8.2447 5.12567C8.2291 5.17547 8.4802 5.24567 5.9983 4.38437L6.292 3.53448ZM6.4093 9.60616L4.4593 8.93146C4.30226 8.88472 4.20429 8.72871 4.2304 8.56696C4.25142 8.48502 4.30543 8.41543 4.3796 8.37474C4.45378 8.33404 4.54148 8.32587 4.6219 8.35217C4.9282 8.45866 4.9462 8.47396 5.0383 8.46376C5.9623 8.84386 5.935 8.84206 6.0172 8.84206C6.16054 8.84221 6.28397 8.74093 6.3118 8.60031C6.33963 8.45969 6.26409 8.31903 6.1315 8.26457C4.774 7.70627 5.0647 7.82207 4.9846 7.80077C4.90613 7.72215 4.87986 7.60542 4.9171 7.50077L5.2111 6.65177L7.4629 7.43177C7.351 7.76327 6.9055 9.09106 6.7918 9.42196C6.73736 9.57814 6.56681 9.6608 6.4105 9.60676L6.4093 9.60616ZM4.8004 15.5686L6.8803 12.7073C7.1173 12.3884 7.093 12.2273 7.3117 10.6934C7.3819 10.7909 7.1527 10.5287 8.464 11.9972L8.3104 12.8771C8.2762 13.0811 8.3986 12.8864 5.7772 16.27C5.63729 16.4776 5.38435 16.5779 5.14024 16.5227C4.89613 16.4676 4.7109 16.2682 4.6738 16.0207C4.65465 15.8592 4.70016 15.6967 4.8004 15.5686ZM8.6704 13.505C8.85538 13.2261 8.9601 12.9018 8.9731 12.5675L9.6502 13.3256C9.81297 13.5347 9.90105 13.7923 9.9004 14.0573V15.9472C9.90144 16.1585 9.95882 16.3656 10.0666 16.5472H6.3226L8.6704 13.505ZM0.600396 17.7472L0.900396 17.1472H17.1004L17.4004 17.7472H0.600396Z" fill="#3D3D4E"/>
</g>
<defs>
<clipPath id="clip0_2097_56148">
<rect width="18" height="18" fill="white" transform="translate(0 0.347656)"/>
</clipPath>
</defs>
</svg>
