<svg width="18" height="19" viewBox="0 0 18 19" fill="none" xmlns="http://www.w3.org/2000/svg">
<g clip-path="url(#clip0_2097_56163)">
<path d="M17.8436 16.7765C17.6821 16.6689 17.4638 16.7126 17.3561 16.8741C17.2645 17.0116 17.0912 17.0937 16.8928 17.0937C16.6943 17.0937 16.5211 17.0116 16.4295 16.8741C16.2071 16.5405 15.8152 16.3413 15.3811 16.3413C14.947 16.3413 14.555 16.5405 14.3327 16.8741C14.2397 17.0137 14.09 17.0937 13.9221 17.0937C13.7542 17.0937 13.6046 17.0137 13.5115 16.8741C13.2891 16.5405 12.9169 16.3413 12.5158 16.3413C12.4951 16.3413 12.4745 16.3421 12.454 16.3432C12.7217 15.8105 12.8674 15.2168 12.8674 14.6081C12.8674 12.4758 11.1326 10.741 9.00024 10.741C6.86788 10.741 5.13306 12.4758 5.13306 14.6081C5.13306 15.4297 5.39747 16.2296 5.88171 16.8919C5.78806 17.0201 5.64497 17.0937 5.48463 17.0937C5.31672 17.0937 5.1671 17.0137 5.07404 16.8741C4.85168 16.5405 4.47948 16.3413 4.07838 16.3413C3.67728 16.3413 3.30505 16.5405 3.08272 16.8741C2.99107 17.0116 2.81786 17.0937 2.6194 17.0937C2.42095 17.0937 2.24777 17.0116 2.15608 16.8741C1.93372 16.5405 1.5418 16.3413 1.10769 16.3413C0.673582 16.3413 0.281661 16.5405 0.059299 16.8741C-0.0483842 17.0357 -0.00468515 17.254 0.156857 17.3616C0.31847 17.4693 0.536719 17.4256 0.644367 17.264C0.736019 17.1265 0.909233 17.0444 1.10769 17.0444C1.30615 17.0444 1.47932 17.1265 1.57101 17.264C1.79337 17.5977 2.18529 17.7969 2.6194 17.7969C3.05351 17.7969 3.44547 17.5977 3.66779 17.264C3.76082 17.1244 3.91048 17.0444 4.07838 17.0444C4.24629 17.0444 4.39591 17.1244 4.48897 17.264C4.71133 17.5977 5.08353 17.7969 5.48463 17.7969C5.88572 17.7969 6.25795 17.5977 6.48 17.2644C6.50535 17.2265 6.53474 17.1928 6.56701 17.1644C6.67259 17.072 6.8149 17.0298 6.95756 17.0488C7.09942 17.0676 7.22151 17.144 7.30146 17.264C7.52382 17.5976 7.89602 17.7968 8.29711 17.7968C8.69821 17.7968 9.07041 17.5976 9.29277 17.264C9.38579 17.1244 9.53545 17.0444 9.70336 17.0444C9.87126 17.0444 10.0209 17.1244 10.1141 17.2642C10.325 17.5803 10.6606 17.772 11.0376 17.7941C11.0456 17.7949 11.0537 17.7953 11.0618 17.7956C11.0626 17.7957 11.0634 17.7958 11.0643 17.7958C11.0645 17.7958 11.0648 17.7958 11.0651 17.7958C11.0692 17.796 11.0731 17.7964 11.0773 17.7964C11.0813 17.7964 11.0853 17.7961 11.0894 17.796C11.4995 17.8024 11.8776 17.6059 12.1053 17.264C12.1983 17.1244 12.3479 17.0444 12.5158 17.0444C12.6838 17.0444 12.8334 17.1244 12.9264 17.264C13.1488 17.5977 13.521 17.7969 13.9221 17.7969C14.3232 17.7969 14.6954 17.5977 14.9177 17.264C15.0094 17.1265 15.1826 17.0444 15.3811 17.0444C15.5795 17.0444 15.7527 17.1265 15.8444 17.264C16.0668 17.5977 16.4587 17.7969 16.8928 17.7969C17.3269 17.7969 17.7188 17.5977 17.9412 17.264C18.0489 17.1025 18.0052 16.8842 17.8436 16.7765ZM10.9794 17.0763C10.8656 17.0458 10.7667 16.9756 10.699 16.8741C10.4767 16.5405 10.1045 16.3413 9.70336 16.3413C9.30226 16.3413 8.93006 16.5405 8.7077 16.8741C8.61468 17.0137 8.46502 17.0937 8.29711 17.0937C8.12921 17.0937 7.97958 17.0137 7.8866 16.8742C7.69556 16.5874 7.39068 16.397 7.05009 16.3518C6.83332 16.3231 6.61598 16.3539 6.42016 16.4372C6.04195 15.9028 5.83619 15.2637 5.83619 14.6081C5.83619 12.8635 7.25558 11.4441 9.00024 11.4441C10.7449 11.4441 12.1643 12.8635 12.1643 14.6081C12.1643 15.5655 11.7237 16.4778 10.9794 17.0763Z" fill="#3D3D4E"/>
<path d="M8.99902 6.52222C8.80489 6.52222 8.64746 6.67965 8.64746 6.87378V8.98314C8.64746 9.17728 8.80489 9.33471 8.99902 9.33471C9.19315 9.33471 9.35058 9.17728 9.35058 8.98314V6.87378C9.35058 6.67961 9.19319 6.52222 8.99902 6.52222Z" fill="#3D3D4E"/>
<path d="M3.37414 14.2566H1.26477C1.0706 14.2566 0.913208 14.414 0.913208 14.6082C0.913208 14.8023 1.0706 14.9597 1.26477 14.9597H3.37414C3.5683 14.9597 3.7257 14.8023 3.7257 14.6082C3.7257 14.414 3.5683 14.2566 3.37414 14.2566Z" fill="#3D3D4E"/>
<path d="M16.7334 14.2566H14.624C14.4299 14.2566 14.2725 14.414 14.2725 14.6082C14.2725 14.8023 14.4299 14.9597 14.624 14.9597H16.7334C16.9275 14.9597 17.0849 14.8023 17.0849 14.6082C17.0849 14.414 16.9275 14.2566 16.7334 14.2566Z" fill="#3D3D4E"/>
<path d="M16.0024 10.566C15.9053 10.3979 15.6903 10.3402 15.5221 10.4373L13.695 11.492C13.5269 11.5891 13.4692 11.8041 13.5663 11.9722C13.6314 12.085 13.7496 12.1481 13.8711 12.1481C13.9307 12.1481 13.9912 12.1329 14.0465 12.1009L15.8736 11.0462C16.0418 10.9492 16.0994 10.7342 16.0024 10.566Z" fill="#3D3D4E"/>
<path d="M13.0425 7.60621C12.8743 7.50918 12.6593 7.56677 12.5623 7.73495L11.5076 9.56204C11.4105 9.73019 11.4682 9.94517 11.6363 10.0423C11.6917 10.0742 11.7521 10.0894 11.8117 10.0894C11.9332 10.0894 12.0514 10.0263 12.1165 9.91353L13.1712 8.08644C13.2683 7.91829 13.2107 7.70331 13.0425 7.60621Z" fill="#3D3D4E"/>
<path d="M6.49189 9.56229L5.43721 7.73519C5.34018 7.56697 5.12513 7.50945 4.95698 7.60645C4.78883 7.70355 4.73121 7.91853 4.82827 8.08668L5.88295 9.91378C5.94806 10.0266 6.06622 10.0897 6.18776 10.0897C6.24738 10.0897 6.30785 10.0744 6.36319 10.0425C6.53134 9.94542 6.58896 9.73044 6.49189 9.56229Z" fill="#3D3D4E"/>
<path d="M4.30366 11.4918L2.4766 10.4371C2.30845 10.34 2.09343 10.3976 1.99637 10.5658C1.8993 10.7339 1.95692 10.9489 2.12507 11.046L3.95213 12.1007C4.00747 12.1326 4.06794 12.1478 4.12756 12.1478C4.24906 12.1478 4.36726 12.0848 4.43237 11.972C4.52943 11.8038 4.47181 11.5888 4.30366 11.4918Z" fill="#3D3D4E"/>
<path d="M15.2669 1.30921C15.0012 1.04354 14.6481 0.897217 14.2726 0.897217C13.8529 0.897217 13.4758 1.08228 13.2179 1.37481C12.9601 1.08228 12.583 0.897217 12.1633 0.897217C11.7878 0.897217 11.4347 1.04354 11.169 1.30921C11.0317 1.4465 11.0317 1.6691 11.169 1.80642C11.3063 1.94371 11.5288 1.94371 11.6661 1.80642C11.799 1.67353 11.9756 1.60037 12.1632 1.60037C12.5509 1.60037 12.8663 1.9158 12.8663 2.3035C12.8663 2.49763 13.0238 2.65506 13.2179 2.65506C13.412 2.65506 13.5695 2.49763 13.5695 2.3035C13.5695 1.9158 13.8849 1.60037 14.2726 1.60037C14.4603 1.60037 14.6368 1.67353 14.7697 1.80642C14.907 1.94367 15.1295 1.94367 15.2669 1.80642C15.4042 1.66914 15.4042 1.44653 15.2669 1.30921Z" fill="#3D3D4E"/>
<path d="M16.6731 4.82484C16.4074 4.55916 16.0543 4.41284 15.6789 4.41284C15.2592 4.41284 14.882 4.5979 14.6242 4.89044C14.3663 4.5979 13.9892 4.41284 13.5695 4.41284C13.194 4.41284 12.8409 4.55916 12.5753 4.82484C12.438 4.96212 12.438 5.18473 12.5753 5.32205C12.7126 5.4593 12.9351 5.4593 13.0725 5.32205C13.2053 5.18916 13.3819 5.116 13.5695 5.116C13.9572 5.116 14.2726 5.43142 14.2726 5.81912C14.2726 6.01325 14.43 6.17068 14.6241 6.17068C14.8183 6.17068 14.9757 6.01325 14.9757 5.81912C14.9757 5.43142 15.2911 5.116 15.6788 5.116C15.8665 5.116 16.043 5.18916 16.1759 5.32205C16.3132 5.4593 16.5357 5.4593 16.6731 5.32205C16.8104 5.18476 16.8104 4.96216 16.6731 4.82484Z" fill="#3D3D4E"/>
<path d="M11.0499 3.41859C10.7841 3.15291 10.4311 3.00659 10.0556 3.00659C9.63591 3.00659 9.25879 3.19165 9.00092 3.48419C8.74304 3.19165 8.36592 3.00659 7.94623 3.00659C7.57076 3.00659 7.21769 3.15291 6.95198 3.41859C6.81469 3.55587 6.81466 3.77844 6.95198 3.91576C7.0893 4.05312 7.31187 4.05308 7.44916 3.9158C7.58205 3.78294 7.75856 3.70975 7.94623 3.70975C8.33393 3.70975 8.64935 4.02517 8.64935 4.41287C8.64935 4.607 8.80678 4.76443 9.00092 4.76443C9.19505 4.76443 9.35248 4.607 9.35248 4.41287C9.35244 4.02517 9.66786 3.70975 10.0556 3.70975C10.2432 3.70975 10.4197 3.78291 10.5526 3.9158C10.69 4.05305 10.9125 4.05305 11.0499 3.9158C11.1871 3.77851 11.1871 3.55591 11.0499 3.41859Z" fill="#3D3D4E"/>
</g>
<defs>
<clipPath id="clip0_2097_56163">
<rect width="18" height="18" fill="white" transform="translate(0 0.347656)"/>
</clipPath>
</defs>
</svg>
