<svg width="16" height="17" viewBox="0 0 16 17" fill="none" xmlns="http://www.w3.org/2000/svg">
<g clip-path="url(#clip0_2097_55894)">
<path d="M13.601 2.40918H9.76036C9.64094 2.40909 9.52634 2.45628 9.4416 2.54043L1.76348 10.2186C1.59536 10.3875 1.50098 10.6162 1.50098 10.8545C1.50098 11.0928 1.59536 11.3215 1.76348 11.4904L5.41973 15.1467C5.58868 15.3148 5.81732 15.4092 6.05567 15.4092C6.29401 15.4092 6.52266 15.3148 6.6916 15.1467L14.3666 7.47168C14.4508 7.38695 14.4979 7.27235 14.4979 7.15293V3.30918C14.4984 3.19109 14.4757 3.07406 14.4308 2.96481C14.386 2.85556 14.32 2.75625 14.2366 2.6726C14.1533 2.58896 14.0542 2.52262 13.9451 2.47741C13.836 2.4322 13.7191 2.40901 13.601 2.40918V2.40918Z" stroke="#747376" stroke-width="1.2" stroke-linecap="round" stroke-linejoin="round"/>
<path d="M12 5.90918C11.8022 5.90918 11.6089 5.85053 11.4444 5.74065C11.28 5.63077 11.1518 5.47459 11.0761 5.29186C11.0004 5.10914 10.9806 4.90807 11.0192 4.71409C11.0578 4.52011 11.153 4.34193 11.2929 4.20207C11.4327 4.06222 11.6109 3.96698 11.8049 3.92839C11.9989 3.88981 12.2 3.90961 12.3827 3.9853C12.5654 4.06099 12.7216 4.18916 12.8315 4.35361C12.9414 4.51806 13 4.7114 13 4.90918C13 5.1744 12.8947 5.42875 12.7071 5.61629C12.5196 5.80382 12.2652 5.90918 12 5.90918Z" fill="#747376"/>
</g>
<defs>
<clipPath id="clip0_2097_55894">
<rect width="16" height="16" fill="white" transform="translate(0 0.90918)"/>
</clipPath>
</defs>
</svg>
