<svg width="20" height="21" viewBox="0 0 20 21" fill="none" xmlns="http://www.w3.org/2000/svg">
<g clip-path="url(#clip0_2097_55797)">
<path d="M10.012 5.41748C6.74813 5.41748 4.09277 8.07283 4.09277 11.3367C4.09277 14.6006 6.74816 17.256 10.012 17.256C13.2759 17.256 15.9313 14.6006 15.9313 11.3367C15.9313 8.07283 13.2759 5.41748 10.012 5.41748ZM10.012 16.4747C7.17891 16.4747 4.87398 14.1698 4.87398 11.3367C4.87398 8.50361 7.17887 6.19869 10.012 6.19869C12.8452 6.19869 15.1501 8.50357 15.1501 11.3367C15.1501 14.1698 12.8452 16.4747 10.012 16.4747Z" fill="white"/>
<path d="M13.5155 9.4278C13.4121 9.23846 13.1749 9.16878 12.9855 9.27214C12.9792 9.27561 12.9733 9.2796 12.9672 9.28335C12.792 9.39174 12.7299 9.61917 12.8298 9.80217C13.0851 10.2698 13.22 10.8006 13.22 11.3372C13.22 13.1063 11.7807 14.5457 10.0115 14.5457C8.24231 14.5457 6.80302 13.1063 6.80302 11.3372C6.80302 9.56799 8.24235 8.12866 10.0115 8.12866C10.1813 8.12866 10.3517 8.14202 10.5179 8.16839C10.7241 8.20112 10.9172 8.06612 10.9604 7.86476C10.962 7.85776 10.9637 7.85089 10.9649 7.8437C10.9986 7.63061 10.8533 7.4305 10.6402 7.39675C10.4336 7.36401 10.2221 7.34741 10.0115 7.34741C7.81157 7.34741 6.02173 9.13721 6.02173 11.3372C6.02173 13.5371 7.81153 15.3269 10.0115 15.3269C12.2115 15.3269 14.0013 13.5371 14.0013 11.3372C14.0013 10.6701 13.8333 10.0099 13.5155 9.4278Z" fill="white"/>
<path d="M12.5073 8.07251C12.4894 8.05454 12.4694 8.03813 12.448 8.02407C12.4269 8.01001 12.4042 7.9979 12.3804 7.98813C12.3569 7.97837 12.3323 7.97095 12.3073 7.96587C12.2569 7.95571 12.205 7.95571 12.1546 7.96587C12.1296 7.97095 12.1054 7.97837 12.0816 7.98813C12.0581 7.9979 12.0355 8.01001 12.0144 8.02407C11.9929 8.03813 11.973 8.05454 11.9546 8.07251C11.9366 8.09048 11.9206 8.1104 11.9062 8.13188C11.8921 8.15298 11.88 8.17563 11.8702 8.19946C11.8641 8.21423 11.8592 8.22954 11.8549 8.24505C11.8524 8.25415 11.8499 8.26325 11.848 8.27251C11.843 8.29747 11.8406 8.32325 11.8406 8.34864C11.8406 8.37442 11.8429 8.39985 11.848 8.42524C11.8531 8.45024 11.8605 8.47446 11.8703 8.49825C11.88 8.52172 11.8921 8.54438 11.9062 8.56547C11.9207 8.58696 11.9367 8.60688 11.9546 8.62485C11.973 8.64282 11.9929 8.65922 12.0144 8.67368C12.0355 8.68774 12.0582 8.69985 12.0816 8.70961C12.1054 8.71938 12.1296 8.7268 12.1546 8.73188C12.18 8.73696 12.2058 8.73926 12.2312 8.73926C12.2566 8.73926 12.2824 8.73692 12.3074 8.73188C12.3324 8.72684 12.357 8.71938 12.3804 8.70961C12.4009 8.70121 12.4202 8.69082 12.4387 8.67922C12.4417 8.67731 12.445 8.67567 12.448 8.67368C12.4694 8.65922 12.4894 8.64282 12.5073 8.62485C12.5253 8.60688 12.5417 8.58696 12.5558 8.56547C12.5698 8.54438 12.5819 8.52172 12.5917 8.49825C12.6015 8.47446 12.6089 8.44985 12.614 8.42524C12.6191 8.39985 12.6218 8.37442 12.6218 8.34864C12.6218 8.24591 12.58 8.14513 12.5073 8.07251Z" fill="white"/>
<path d="M19.9896 16.9312L18.7227 6.61307C18.6345 5.89495 18.409 5.21155 18.0523 4.58194C17.8334 4.19542 17.5675 3.836 17.262 3.51366L17.2279 3.47768C16.9675 3.20303 16.5782 3.12983 16.2357 3.2912C15.8934 3.45253 15.702 3.79952 15.7481 4.17514L17.3541 17.2549C17.3593 17.2969 17.3663 17.3382 17.3752 17.3787C17.5087 17.9866 18.0516 18.4209 18.6709 18.4208C18.7246 18.4208 18.779 18.4176 18.8336 18.4108C19.265 18.3579 19.6231 18.1024 19.8242 17.7514C19.8453 17.7144 19.8648 17.6765 19.8823 17.6375C19.8999 17.5986 19.9157 17.5587 19.9295 17.518C19.9917 17.335 20.0147 17.1356 19.9896 16.9312ZM16.5236 4.07991C16.5217 4.06425 16.5166 4.02249 16.5689 3.99784C16.5832 3.99108 16.5958 3.98846 16.6067 3.98846C16.6357 3.98846 16.6531 4.00682 16.6609 4.01511L16.695 4.05108C16.957 4.32749 17.185 4.63561 17.3726 4.96694C17.6784 5.50671 17.8717 6.09261 17.9473 6.70827L18.6225 12.2075L17.5379 12.3407L16.5236 4.07991ZM19.1804 17.2928C19.1092 17.4731 18.9441 17.6101 18.7385 17.6354C18.4393 17.6723 18.1663 17.4587 18.1296 17.1596L17.6331 13.1161L18.7177 12.9829L19.2142 17.0265C19.2257 17.1199 19.2127 17.2108 19.1804 17.2928Z" fill="white"/>
<path d="M4.81707 3.58154C4.60285 3.55513 4.40805 3.70755 4.38176 3.92166L4.02648 6.81509C3.97109 7.26603 3.60668 7.60623 3.1557 7.63373L2.89676 7.60193L3.36398 3.79673C3.39027 3.58263 3.23801 3.38771 3.02387 3.36138C2.80969 3.33486 2.61484 3.4874 2.58855 3.7015L2.12133 7.5067L1.86215 7.4749C1.43129 7.33904 1.16008 6.92084 1.21543 6.46994L1.5707 3.57654C1.59699 3.36244 1.44473 3.16752 1.23058 3.14119C1.01648 3.11462 0.821561 3.2672 0.795272 3.4813L0.439999 6.3747C0.351132 7.09865 0.720624 7.7774 1.34391 8.10294L0.0149989 16.6552C0.0148427 16.6561 0.0146864 16.6571 0.0145302 16.6581C-0.0394151 17.0237 0.0542177 17.3869 0.278163 17.6809C0.502108 17.9748 0.82746 18.1615 1.19394 18.2065L1.20105 18.2074C1.25766 18.2144 1.31414 18.2178 1.37019 18.2178C1.67914 18.2178 1.97613 18.1133 2.22074 17.916C2.50976 17.6828 2.6875 17.3508 2.72121 16.981L3.50668 8.36857C4.19027 8.20353 4.71309 7.63431 4.80195 6.91033L5.15723 4.01689C5.18348 3.80279 5.03121 3.60787 4.81707 3.58154ZM1.94324 16.9101C1.92887 17.0674 1.85324 17.2087 1.73023 17.308C1.60723 17.4072 1.45324 17.4515 1.29656 17.432L1.28945 17.4312C1.13336 17.412 0.994882 17.3326 0.899608 17.2075C0.80453 17.0827 0.764647 16.9286 0.787225 16.7735L2.10523 8.29189L2.41348 8.32974C2.41363 8.32974 2.41375 8.32978 2.41391 8.32982C2.41402 8.32982 2.41414 8.32982 2.41426 8.32982L2.72226 8.36763L1.94324 16.9101Z" fill="white"/>
</g>
<defs>
<clipPath id="clip0_2097_55797">
<rect width="20" height="20" fill="white" transform="translate(0 0.779297)"/>
</clipPath>
</defs>
</svg>
