<svg width="50" height="51" viewBox="0 0 50 51" fill="none" xmlns="http://www.w3.org/2000/svg">
<path d="M15.8785 43.6768H13.892C13.7128 43.6768 13.5409 43.6056 13.4142 43.4789C13.2875 43.3522 13.2163 43.1803 13.2163 43.0011C13.2163 42.8219 13.2875 42.6501 13.4142 42.5233C13.5409 42.3966 13.7128 42.3254 13.892 42.3254H15.8785C16.0577 42.3254 16.2295 42.3966 16.3562 42.5233C16.483 42.6501 16.5541 42.8219 16.5541 43.0011C16.5541 43.1803 16.483 43.3522 16.3562 43.4789C16.2295 43.6056 16.0577 43.6768 15.8785 43.6768Z" fill="white"/>
<path d="M44.5946 43.6768H27.3243C27.1451 43.6768 26.9732 43.6056 26.8465 43.4789C26.7198 43.3522 26.6486 43.1803 26.6486 43.0011C26.6486 42.8219 26.7198 42.6501 26.8465 42.5234C26.9732 42.3966 27.1451 42.3255 27.3243 42.3255H44.5946C45.3114 42.3255 45.9988 42.0407 46.5057 41.5338C47.0125 41.027 47.2973 40.3396 47.2973 39.6227V15.9741C47.2973 15.2573 47.0125 14.5699 46.5057 14.063C45.9988 13.5561 45.3114 13.2714 44.5946 13.2714H34.2838C34.0214 13.271 33.7648 13.1947 33.5449 13.0516C33.3251 12.9086 33.1513 12.705 33.0446 12.4653L31.8121 9.62275C31.7602 9.50242 31.6742 9.39992 31.5647 9.32788C31.4552 9.25584 31.327 9.21742 31.1959 9.21734H18.804C18.6739 9.21704 18.5465 9.25464 18.4375 9.32556C18.3284 9.39648 18.2423 9.49763 18.1898 9.61667L16.9594 12.4606C16.853 12.7014 16.6791 12.9061 16.4587 13.05C16.2382 13.194 15.9808 13.2709 15.7175 13.2714H5.40537C4.68857 13.2714 4.00113 13.5561 3.49427 14.063C2.98742 14.5699 2.70267 15.2573 2.70267 15.9741V39.6227C2.70267 40.3396 2.98742 41.027 3.49427 41.5338C4.00113 42.0407 4.68857 42.3255 5.40537 42.3255H9.16213C9.34133 42.3255 9.51319 42.3966 9.6399 42.5234C9.76662 42.6501 9.83781 42.8219 9.83781 43.0011C9.83781 43.1803 9.76662 43.3522 9.6399 43.4789C9.51319 43.6056 9.34133 43.6768 9.16213 43.6768H5.40537C4.3305 43.6757 3.29996 43.2483 2.53991 42.4882C1.77986 41.7282 1.35239 40.6976 1.35132 39.6227V15.9741C1.35239 14.8992 1.77986 13.8687 2.53991 13.1086C3.29996 12.3486 4.3305 11.9211 5.40537 11.92H15.7162L16.9473 9.08221C17.1032 8.71958 17.3624 8.41087 17.6926 8.19459C18.0227 7.9783 18.4093 7.86402 18.804 7.86599H31.1959C31.5917 7.86436 31.9792 7.97953 32.3098 8.19707C32.6404 8.41461 32.8996 8.72486 33.0547 9.08897L34.2824 11.92H44.5946C45.6694 11.9211 46.7 12.3486 47.46 13.1086C48.2201 13.8687 48.6475 14.8992 48.6486 15.9741V39.6227C48.6475 40.6976 48.2201 41.7282 47.46 42.4882C46.7 43.2483 45.6694 43.6757 44.5946 43.6768Z" fill="white"/>
<path d="M22.5953 43.6768H20.6088C20.4296 43.6768 20.2577 43.6056 20.131 43.4789C20.0043 43.3522 19.9331 43.1803 19.9331 43.0011C19.9331 42.8219 20.0043 42.6501 20.131 42.5233C20.2577 42.3966 20.4296 42.3254 20.6088 42.3254H22.5953C22.7745 42.3254 22.9463 42.3966 23.073 42.5233C23.1998 42.6501 23.271 42.8219 23.271 43.0011C23.271 43.1803 23.1998 43.3522 23.073 43.4789C22.9463 43.6056 22.7745 43.6768 22.5953 43.6768Z" fill="white"/>
<path d="M12.3098 13.2716H7.12941C6.95021 13.2716 6.77835 13.2004 6.65164 13.0737C6.52492 12.947 6.45374 12.7751 6.45374 12.5959V9.01013C6.45498 8.70713 6.5759 8.41689 6.79016 8.20263C7.00441 7.98838 7.29465 7.86746 7.59765 7.86621H11.8416C12.1449 7.86639 12.4358 7.98697 12.6502 8.20145C12.8647 8.41594 12.9853 8.7068 12.9855 9.01013V12.5959C12.9855 12.7751 12.9143 12.947 12.7876 13.0737C12.6609 13.2004 12.489 13.2716 12.3098 13.2716ZM7.80509 11.9203H11.6341V9.21756H7.80509V11.9203Z" fill="white"/>
<path d="M22.9738 38.3134C20.7939 38.3134 18.663 37.667 16.8505 36.4559C15.038 35.2448 13.6253 33.5235 12.7911 31.5096C11.9569 29.4956 11.7387 27.2795 12.1639 25.1416C12.5892 23.0036 13.6389 21.0397 15.1803 19.4983C16.7217 17.9569 18.6856 16.9072 20.8236 16.4819C22.9615 16.0567 25.1776 16.2749 27.1916 17.1091C29.2055 17.9433 30.9268 19.356 32.1379 21.1685C33.349 22.981 33.9954 25.1119 33.9954 27.2918C33.9922 30.2139 32.8299 33.0154 30.7637 35.0817C28.6974 37.1479 25.8959 38.3102 22.9738 38.3134ZM22.9738 17.6215C21.0612 17.6215 19.1915 18.1886 17.6013 19.2512C16.011 20.3138 14.7715 21.8241 14.0396 23.5911C13.3077 25.3581 13.1162 27.3025 13.4893 29.1783C13.8624 31.0542 14.7834 32.7773 16.1359 34.1297C17.4883 35.4821 19.2113 36.4031 21.0872 36.7762C22.963 37.1494 24.9074 36.9579 26.6744 36.2259C28.4414 35.494 29.9517 34.2545 31.0143 32.6643C32.0769 31.074 32.644 29.2044 32.644 27.2918C32.6412 24.7279 31.6214 22.2699 29.8085 20.457C27.9956 18.6441 25.5376 17.6244 22.9738 17.6215Z" fill="white"/>
<path d="M22.9733 34.0009C21.6464 34.0009 20.3494 33.6075 19.2461 32.8703C18.1429 32.1331 17.283 31.0854 16.7752 29.8595C16.2674 28.6336 16.1346 27.2847 16.3934 25.9833C16.6523 24.682 17.2912 23.4866 18.2295 22.5483C19.1677 21.6101 20.3631 20.9711 21.6645 20.7123C22.9659 20.4534 24.3148 20.5863 25.5407 21.0941C26.7665 21.6018 27.8143 22.4617 28.5515 23.565C29.2886 24.6682 29.6821 25.9653 29.6821 27.2922C29.6801 29.0708 28.9727 30.7761 27.715 32.0338C26.4573 33.2915 24.752 33.999 22.9733 34.0009ZM22.9733 21.9347C21.9137 21.9347 20.8779 22.2489 19.9969 22.8376C19.1159 23.4263 18.4292 24.263 18.0237 25.242C17.6182 26.2209 17.5121 27.2981 17.7188 28.3373C17.9255 29.3766 18.4358 30.3312 19.185 31.0804C19.9343 31.8297 20.8889 32.3399 21.9281 32.5467C22.9674 32.7534 24.0446 32.6473 25.0235 32.2418C26.0025 31.8363 26.8392 31.1496 27.4279 30.2686C28.0165 29.3876 28.3307 28.3518 28.3307 27.2922C28.3291 25.8718 27.7642 24.51 26.7598 23.5057C25.7554 22.5013 24.3937 21.9363 22.9733 21.9347Z" fill="white"/>
<path d="M42.6726 21.0416H37.0564C36.726 21.0413 36.4093 20.9099 36.1757 20.6763C35.9422 20.4427 35.8108 20.126 35.8104 19.7957V17.093C35.8108 16.7627 35.9422 16.446 36.1757 16.2124C36.4093 15.9788 36.726 15.8474 37.0564 15.847H42.6726C43.0029 15.8474 43.3196 15.9788 43.5532 16.2124C43.7868 16.446 43.9182 16.7627 43.9185 17.093V19.7957C43.9182 20.126 43.7868 20.4427 43.5532 20.6763C43.3196 20.9099 43.0029 21.0413 42.6726 21.0416ZM37.1618 19.6903H42.5672V17.1984H37.1618V19.6903Z" fill="white"/>
</svg>
