<svg width="var(--icon-size)" height="var(--icon-size)" viewBox="0 0 46 46" fill="none" xmlns="http://www.w3.org/2000/svg">
<g clip-path="url(#clip0_2492_31680)">
<path d="M28.4502 19.3538C26.9724 19.3538 25.5371 19.6404 24.1843 20.2054C23.7364 20.3925 23.525 20.9073 23.712 21.3552C23.8991 21.8032 24.4139 22.0143 24.8618 21.8274C25.9989 21.3524 27.2062 21.1116 28.4502 21.1116C33.5873 21.1116 37.7666 25.2909 37.7666 30.428C37.7666 35.565 33.5873 39.7444 28.4502 39.7444C23.3131 39.7444 19.1338 35.565 19.1338 30.428C19.1338 29.1859 19.3739 27.9802 19.8476 26.8447C20.0344 26.3966 19.8227 25.882 19.3747 25.6952C18.927 25.5086 18.412 25.72 18.2252 26.168C17.6617 27.5192 17.376 28.9524 17.376 30.428C17.376 36.5344 22.3438 41.5022 28.4502 41.5022C34.5566 41.5022 39.5244 36.5344 39.5244 30.428C39.5244 24.3216 34.5566 19.3538 28.4502 19.3538Z" fill="#D92C0A"/>
<path d="M28.4502 37.635C32.4242 37.635 35.6572 34.402 35.6572 30.428C35.6572 26.454 32.4242 23.2209 28.4502 23.2209C24.4762 23.2209 21.2432 26.454 21.2432 30.428C21.2432 34.402 24.4763 37.635 28.4502 37.635ZM28.4502 24.9788C31.4549 24.9788 33.8994 27.4233 33.8994 30.428C33.8994 33.4326 31.4549 35.8772 28.4502 35.8772C25.4455 35.8772 23.001 33.4327 23.001 30.428C23.001 27.4233 25.4455 24.9788 28.4502 24.9788Z" fill="#17161A"/>
<path d="M41.0425 15.135H38.3689L35.3002 9.94182C35.1421 9.67419 34.8543 9.51001 34.5436 9.51001H22.356C22.0452 9.51001 21.7575 9.67419 21.5994 9.94182L18.5307 15.135H13.5078V14.0803C13.5078 12.3356 12.0885 10.9163 10.3438 10.9163C8.59903 10.9163 7.17969 12.3356 7.17969 14.0803V15.135H4.95746C2.4996 15.135 0.5 17.1346 0.5 19.5926V41.2634C0.5 43.7213 2.4996 45.7209 4.95746 45.7209H41.0424C43.5003 45.7209 45.4999 43.7213 45.4999 41.2634V19.5926C45.5 17.1346 43.5003 15.135 41.0425 15.135ZM22.8575 11.2678H34.042L36.3271 15.135H20.5724L22.8575 11.2678ZM8.9375 14.0803C8.9375 13.305 9.56838 12.6741 10.3438 12.6741C11.1191 12.6741 11.75 13.305 11.75 14.0803V15.135H8.9375V14.0803ZM43.7422 41.2634C43.7422 42.7521 42.5311 43.9631 41.0425 43.9631H4.95746C3.46886 43.9631 2.25781 42.752 2.25781 41.2634V19.5926C2.25781 18.1039 3.46886 16.8928 4.95746 16.8928H41.0424C42.5311 16.8928 43.7421 18.1039 43.7421 19.5926V41.2634H43.7422Z" fill="#17161A"/>
<path d="M28.4502 28.7141C29.3953 28.7141 30.1641 29.483 30.1641 30.428C30.1641 30.9134 30.5575 31.3069 31.043 31.3069C31.5284 31.3069 31.9219 30.9134 31.9219 30.428C31.9219 28.5137 30.3645 26.9563 28.4502 26.9563C27.9648 26.9563 27.5713 27.3499 27.5713 27.8352C27.5713 28.3205 27.9648 28.7141 28.4502 28.7141Z" fill="#D92C0A"/>
<path d="M28.4502 7.19758C28.9356 7.19758 29.3291 6.804 29.3291 6.31867V1.62769C29.3291 1.14235 28.9356 0.748779 28.4502 0.748779C27.9648 0.748779 27.5713 1.14227 27.5713 1.62769V6.31867C27.5713 6.80409 27.9648 7.19758 28.4502 7.19758Z" fill="#D92C0A"/>
<path d="M32.6318 7.19745C32.8567 7.19745 33.0817 7.11159 33.2533 6.94002L36.4781 3.71523C36.8213 3.37201 36.8213 2.81549 36.478 2.47219C36.1348 2.12906 35.5783 2.12906 35.2351 2.47219L32.0103 5.69707C31.6671 6.04029 31.6671 6.59681 32.0103 6.94011C32.182 7.11167 32.4069 7.19745 32.6318 7.19745Z" fill="#D92C0A"/>
<path d="M23.6462 6.94023C23.8179 7.11179 24.0428 7.19766 24.2677 7.19766C24.4926 7.19766 24.7176 7.11179 24.8892 6.94023C25.2324 6.59702 25.2325 6.04049 24.8893 5.69719L21.6645 2.4724C21.3213 2.12936 20.7647 2.12927 20.4215 2.4724C20.0783 2.81561 20.0782 3.37213 20.4214 3.71544L23.6462 6.94023Z" fill="#D92C0A"/>
<path d="M12.6289 22.342H8.05859C7.57317 22.342 7.17969 22.7356 7.17969 23.2209C7.17969 23.7064 7.57317 24.0999 8.05859 24.0999H12.6289C13.1143 24.0999 13.5078 23.7064 13.5078 23.2209C13.5078 22.7355 13.1143 22.342 12.6289 22.342Z" fill="#17161A"/>
<path d="M21.2383 24.0996C21.4694 24.0996 21.6962 24.0056 21.8597 23.8421C22.0231 23.6786 22.1172 23.4526 22.1172 23.2207C22.1172 22.9896 22.0231 22.7628 21.8597 22.5993C21.6962 22.4359 21.4694 22.3418 21.2383 22.3418C21.0071 22.3418 20.7804 22.4358 20.6169 22.5993C20.4525 22.7628 20.3594 22.9896 20.3594 23.2207C20.3594 23.4519 20.4525 23.6786 20.6169 23.8421C20.7804 24.0056 21.0062 24.0996 21.2383 24.0996Z" fill="#D92C0A"/>
</g>
<defs>
<clipPath id="clip0_2492_31680">
<rect width="var(--icon-size)" height="var(--icon-size)" fill="white" transform="translate(0.5 0.734863)"/>
</clipPath>
</defs>
</svg>
