<svg width="var(--icon-size)" height="var(--icon-size)" viewBox="0 0 46 46" fill="none" xmlns="http://www.w3.org/2000/svg">
<g clip-path="url(#clip0_2492_31652)">
<path d="M42.0491 29.4328C41.6482 29.4328 41.2685 29.5242 40.93 29.6871C40.7509 29.3569 40.4998 29.0713 40.199 28.8482C41.2527 26.3607 41.8084 23.6482 41.8084 20.9496C41.8084 16.9923 40.6636 13.1584 38.4976 9.86253C38.2311 9.45683 37.6861 9.34416 37.2804 9.61073C36.8747 9.8773 36.762 10.4222 37.0286 10.8279C39.0057 13.8362 40.0506 17.3363 40.0506 20.9496C40.0506 23.4803 39.5163 26.0247 38.5028 28.3459C38.1682 28.3663 37.8506 28.4503 37.5624 28.586C37.3892 28.2544 37.1438 27.9661 36.8483 27.7391C37.7947 25.6091 38.2928 23.2799 38.2928 20.9496C38.2928 11.7416 30.8017 4.25047 21.5937 4.25047C12.3857 4.25047 4.89452 11.7416 4.89452 20.9496C4.89452 23.9501 5.70038 26.8935 7.22519 29.4615C7.38946 29.7382 7.68178 29.8918 7.98175 29.8918C8.13433 29.8918 8.28893 29.8521 8.42964 29.7685C8.84703 29.5208 8.98449 28.9815 8.73664 28.5641C7.37311 26.2675 6.65232 23.6344 6.65232 20.9496C6.65232 12.711 13.355 6.00828 21.5937 6.00828C29.8323 6.00828 36.535 12.711 36.535 20.9496C36.535 23.1022 36.0597 25.2539 35.1587 27.2093C34.9167 27.2203 34.6828 27.2624 34.4627 27.3355V23.774C34.4627 22.3137 33.2642 21.1257 31.7911 21.1257C30.3181 21.1257 29.1195 22.3137 29.1195 23.774V33.1555C28.5953 33.472 28.245 33.8938 28.0657 34.4155C26.0539 35.3813 23.825 35.891 21.5937 35.891C18.9096 35.891 16.2767 35.1704 13.9796 33.807C13.5622 33.5592 13.023 33.6968 12.7752 34.1143C12.5274 34.5318 12.665 35.0709 13.0825 35.3187C15.6509 36.843 18.5941 37.6488 21.5937 37.6488C23.8082 37.6488 26.0203 37.1985 28.0625 36.3422C28.0742 36.3902 28.0845 36.4373 28.0977 36.4861C28.099 36.4907 28.1003 36.4952 28.1016 36.4998L28.548 38.0446C26.3331 38.9477 23.9975 39.4066 21.5937 39.4066C11.4165 39.4066 3.13671 31.1268 3.13671 20.9496C3.13671 10.7725 11.4165 2.49267 21.5937 2.49267C25.208 2.49267 28.7081 3.53777 31.7159 5.51495C32.1214 5.78152 32.6664 5.66885 32.9332 5.26332C33.1998 4.85771 33.0871 4.3127 32.6816 4.04604C29.3862 1.87981 25.5522 0.734863 21.5937 0.734863C16.1941 0.734863 11.1178 2.83755 7.29972 6.65559C3.48168 10.4737 1.37891 15.55 1.37891 20.9496C1.37891 26.3493 3.48159 31.4255 7.29963 35.2437C11.1178 39.0617 16.1941 41.1644 21.5937 41.1644C24.1643 41.1644 26.6639 40.6859 29.0386 39.7427L29.6748 41.9448V43.6764C29.6748 44.8115 30.6052 45.7349 31.7489 45.7349H40.7122C41.8558 45.7349 42.7862 44.8114 42.7862 43.6764V42.1177L43.69 40.9351C44.4866 39.8927 44.6211 39.1338 44.6211 37.827V31.9828C44.621 30.5768 43.4673 29.4328 42.0491 29.4328ZM42.8632 37.827C42.8632 38.9607 42.7417 39.2809 42.2933 39.8677L41.209 41.2866C41.0919 41.4399 41.0284 41.6274 41.0284 41.8203V43.6764C41.0284 43.8393 40.8837 43.9771 40.7122 43.9771H31.7489C31.5775 43.9771 31.4326 43.8393 31.4326 43.6764V41.8203C31.4326 41.7378 31.421 41.6556 31.3981 41.5763L29.7924 36.0191C29.5057 34.9573 29.8258 34.7749 30.0597 34.6416L30.4336 34.4286C30.708 34.2722 30.8773 33.9808 30.8773 33.665V23.774C30.8773 23.2829 31.2873 22.8835 31.7911 22.8835C32.2949 22.8835 32.7048 23.2829 32.7048 23.774V31.5836C32.7048 32.0691 33.0983 32.4626 33.5838 32.4626C34.0692 32.4626 34.4627 32.0691 34.4627 31.5836V29.7546C34.4627 29.3177 34.8279 28.9623 35.2769 28.9623C35.7257 28.9623 36.091 29.3177 36.091 29.7546V30.8906C36.091 31.3761 36.4845 31.7695 36.9699 31.7695C37.4553 31.7695 37.8488 31.3761 37.8488 30.8906C37.8488 30.4538 38.2141 30.0984 38.663 30.0984C39.112 30.0984 39.4771 30.4538 39.4771 30.8906V31.9828C39.4771 32.4683 39.8706 32.8617 40.356 32.8617C40.8415 32.8617 41.235 32.4683 41.235 31.9828C41.235 31.546 41.6002 31.1906 42.0492 31.1906C42.4981 31.1906 42.8633 31.546 42.8633 31.9828V37.827H42.8632Z" fill="#17161A"/>
<path d="M35.2666 8.15658C35.4915 8.15658 35.7164 8.07071 35.8881 7.89915C36.2313 7.55594 36.2313 6.99941 35.8881 6.6562L35.8876 6.65576C35.5444 6.31255 34.9883 6.31272 34.645 6.65594C34.3018 6.99915 34.302 7.55594 34.6452 7.89915C34.8168 8.07071 35.0417 8.15658 35.2666 8.15658Z" fill="#17161A"/>
<path d="M11.0287 32.7583C11.3719 32.4151 11.3719 31.8585 11.0287 31.5153L11.0283 31.5149C10.6851 31.1717 10.1289 31.1719 9.7856 31.5151C9.44239 31.8583 9.44265 32.4151 9.78586 32.7583C9.95751 32.9299 10.1824 33.0157 10.4073 33.0157C10.6322 33.0157 10.8572 32.9299 11.0287 32.7583Z" fill="#17161A"/>
<path d="M21.5935 9.68018C20.1396 9.68018 18.9568 10.863 18.9568 12.3169V17.0703C18.4728 16.6363 17.8542 16.399 17.199 16.399C16.4948 16.399 15.8327 16.6733 15.3347 17.1712C14.8367 17.6692 14.5625 18.3313 14.5625 19.0355C14.5625 19.7398 14.8368 20.4019 15.3347 20.8999L19.7291 25.2944C20.2431 25.8084 20.9183 26.0654 21.5935 26.0654C22.2687 26.0654 22.9438 25.8084 23.4578 25.2944L27.8524 20.8999C28.8802 19.8719 28.8802 18.1992 27.8524 17.1713C27.3544 16.6733 26.6923 16.3991 25.988 16.3991C25.3328 16.3991 24.7142 16.6364 24.2302 17.0705V12.317C24.2302 10.863 23.0474 9.68018 21.5935 9.68018ZM25.3667 18.4142C25.5327 18.2482 25.7534 18.1569 25.9881 18.1569C26.2228 18.1569 26.4435 18.2483 26.6094 18.4142C26.952 18.7568 26.952 19.3143 26.6094 19.6569L22.2149 24.0514C22.0489 24.2175 21.8282 24.3088 21.5936 24.3088C21.3588 24.3088 21.1381 24.2174 20.9722 24.0514L16.5777 19.6569C16.4117 19.491 16.3204 19.2703 16.3204 19.0356C16.3204 18.8009 16.4118 18.5802 16.5777 18.4142C16.7437 18.2483 16.9643 18.1569 17.199 18.1569C17.4337 18.1569 17.6544 18.2483 17.8203 18.4142L19.2141 19.8081C19.4654 20.0594 19.8435 20.1347 20.1719 19.9986C20.5004 19.8626 20.7145 19.5421 20.7145 19.1866V12.3169C20.7145 11.8323 21.1088 11.438 21.5934 11.438C22.078 11.438 22.4723 11.8323 22.4723 12.3169V19.1866C22.4723 19.542 22.6865 19.8626 23.0149 19.9986C23.3433 20.1347 23.7213 20.0594 23.9727 19.8082L25.3667 18.4142Z" fill="#D92C0A"/>
<path d="M25.7035 26.9458H17.4834C16.0295 26.9458 14.8467 28.1286 14.8467 29.5825C14.8467 31.0364 16.0295 32.2192 17.4834 32.2192H25.7035C27.1573 32.2192 28.3402 31.0364 28.3402 29.5825C28.3402 28.1286 27.1573 26.9458 25.7035 26.9458ZM25.7035 30.4614H17.4834C16.9988 30.4614 16.6045 30.0671 16.6045 29.5825C16.6045 29.0979 16.9988 28.7036 17.4834 28.7036H25.7035C26.1881 28.7036 26.5824 29.0979 26.5824 29.5825C26.5824 30.0671 26.1881 30.4614 25.7035 30.4614Z" fill="#D92C0A"/>
</g>
<defs>
<clipPath id="clip0_2492_31652">
<rect width="45" height="45" fill="white" transform="translate(0.5 0.734863)"/>
</clipPath>
</defs>
</svg>
