<svg width="60" height="62" viewBox="0 0 60 62" fill="none" xmlns="http://www.w3.org/2000/svg">
<path d="M59.999 6.87953V2.07997H49.3539C48.0941 2.07997 47.0295 2.9106 46.6288 4.06033H39.4482L35.9959 5.82602L32.8569 2.61374C32.6409 1.19374 31.4478 0.0996094 29.999 0.0996094H20.3216C18.7211 0.0996094 17.4184 1.43258 17.4184 3.07015V4.06033H14.5152C12.9147 4.06033 11.6119 5.3933 11.6119 7.03086V18.913C11.6119 20.5506 12.9147 21.8836 14.5152 21.8836H17.4184V22.8737C17.4184 23.2223 17.4878 23.553 17.5965 23.8639H9.67644C9.67644 22.7717 8.8084 21.8836 7.74096 21.8836H1.93451C0.867061 21.8836 -0.000976562 22.7717 -0.000976562 23.8639V25.8443C-0.000976562 26.9365 0.867061 27.8246 1.93451 27.8246H7.74096C8.8084 27.8246 9.67644 26.9365 9.67644 25.8443H19.3539V26.8344C19.3539 27.2362 19.4342 27.6196 19.5764 27.9702L4.27448 56.5219C4.01033 57.0151 3.86999 57.5726 3.86999 58.1358C3.86999 59.9856 5.34098 61.4907 7.14888 61.4907H7.35679C8.53953 61.4907 9.63486 60.8351 10.2147 59.7806L21.2893 39.6367V58.1358C21.2893 59.9856 22.7603 61.4907 24.5682 61.4907H25.7524C27.5603 61.4907 29.0313 59.9856 29.0313 58.1358V39.6367L40.106 59.7806C40.6858 60.8351 41.7801 61.4907 42.9629 61.4907H43.1708C44.9796 61.4907 46.4506 59.9856 46.4506 58.1358C46.4506 57.5735 46.3103 57.0151 46.0471 56.5229L30.7442 27.9702C30.8864 27.6206 30.9668 27.2377 30.9668 26.8344V25.662C31.9548 25.3018 32.6915 24.4165 32.8569 23.3301L35.9959 20.1179L39.4482 21.8836H46.6288C47.0295 23.0333 48.0941 23.8639 49.3539 23.8639H59.999V19.0643L54.1926 18.0742V17.7058L58.0635 16.7156V9.22831L54.1926 8.23813V7.86971L59.999 6.87953ZM7.74096 25.8443H1.93451V23.8639H7.74096V25.8443ZM36.7732 7.64296L38.7087 6.65278V19.2911L36.7732 18.3009V7.64296ZM40.6442 17.9228H46.4506V19.9032H40.6442V17.9228ZM40.6442 15.9425V13.9621H46.4506V15.9425H40.6442ZM40.6442 11.9818V10.0014H46.4506V11.9818H40.6442ZM40.6442 8.02104V6.04068H46.4506V8.02104H40.6442ZM23.2248 2.07997H25.1603V4.06033H23.2248V2.07997ZM14.5152 19.9032C13.9821 19.9032 13.5474 19.4584 13.5474 18.913V7.03086C13.5474 6.48549 13.9821 6.04068 14.5152 6.04068H17.4184V19.9032H14.5152ZM27.0958 29.805V55.5496H23.2248V29.805H27.0958ZM28.0635 27.8246H22.2571C21.7241 27.8246 21.2893 27.3798 21.2893 26.8344V25.8443H29.0313V26.8344C29.0313 27.3798 28.5966 27.8246 28.0635 27.8246ZM27.0958 23.8639H23.2248V13.9621H27.0958V23.8639ZM7.35774 59.5104H7.14888C6.40842 59.5104 5.80547 58.8934 5.80547 58.1358C5.80547 57.925 5.85887 57.719 5.9496 57.53H9.23132L8.52772 58.8093C8.28957 59.242 7.84161 59.5104 7.35774 59.5104ZM10.32 55.5496H7.00334L20.9727 29.4849C21.0753 29.5376 21.1802 29.5831 21.2893 29.6227V35.5976L10.32 55.5496ZM25.7524 59.5104H24.5682C23.8278 59.5104 23.2248 58.8934 23.2248 58.1358V57.53H27.0958V58.1358C27.0958 58.8934 26.4928 59.5104 25.7524 59.5104ZM29.0313 29.6227C29.1404 29.5831 29.2453 29.5376 29.3479 29.4849L43.3182 55.5496H40.0006L29.0313 35.5967V29.6227ZM43.1717 59.5104H42.9638C42.48 59.5104 42.0311 59.242 41.7938 58.8093L41.0893 57.53H44.371C44.4618 57.7181 44.5152 57.925 44.5152 58.1358C44.5152 58.8934 43.9122 59.5104 43.1717 59.5104ZM30.9668 22.8737C30.9668 23.4191 30.532 23.8639 29.999 23.8639H29.0313V11.9818H21.2893V23.8639H20.3216C19.7886 23.8639 19.3539 23.4191 19.3539 22.8737V3.07015C19.3539 2.52478 19.7886 2.07997 20.3216 2.07997H21.2893V6.04068H27.0958V2.07997H29.999C30.532 2.07997 30.9668 2.52478 30.9668 3.07015V22.8737ZM34.8377 18.503L32.9022 20.4834V5.4605L34.8377 7.44086V18.503ZM56.1281 10.7745V15.1694L52.2571 16.1596V19.7519L58.0635 20.742V21.8836H49.3539C48.8208 21.8836 48.3861 21.4387 48.3861 20.8934V5.05051C48.3861 4.50513 48.8208 4.06033 49.3539 4.06033H58.0635V5.20184L52.2571 6.19202V9.78432L56.1281 10.7745Z" fill="#17161A"/>
</svg>
