<svg width="30" height="31" viewBox="0 0 30 31" fill="none" xmlns="http://www.w3.org/2000/svg">
<g clip-path="url(#clip0_2205_275)">
<path d="M22.0833 13.7027L20.6658 13.2303C20.5901 13.0114 20.5018 12.7971 20.4013 12.5885L21.0688 11.2537C21.153 11.0853 21.1355 10.8838 21.0234 10.7325C20.5839 10.1416 20.0604 9.61804 19.4695 9.17853C19.3181 9.06644 19.1167 9.04886 18.9482 9.13312L17.6135 9.80062C17.4049 9.70001 17.1906 9.61171 16.9717 9.53619L16.4992 8.11869C16.4396 7.94015 16.285 7.81019 16.0989 7.78224C15.3703 7.67431 14.6297 7.67431 13.9011 7.78224C13.715 7.81019 13.5604 7.94015 13.5008 8.11869L13.0284 9.53619C12.8095 9.61171 12.5951 9.70001 12.3865 9.80062L11.0518 9.13312C10.8833 9.04915 10.6821 9.06673 10.5306 9.17853C9.93967 9.61804 9.41613 10.1416 8.97662 10.7324C8.86453 10.8838 8.84701 11.0852 8.93121 11.2537L9.59871 12.5884C9.49822 12.797 9.40998 13.0114 9.33428 13.2302L7.91678 13.7026C7.73824 13.7622 7.60828 13.9169 7.58033 14.103C7.47322 14.8317 7.47322 15.572 7.58033 16.3007C7.60828 16.4868 7.73824 16.6416 7.91678 16.7011L9.33428 17.1735C9.4098 17.3924 9.4981 17.6068 9.59871 17.8154L8.93121 19.1501C8.84695 19.3185 8.86453 19.52 8.97662 19.6714C9.41613 20.2623 9.93967 20.7858 10.5305 21.2253C10.6818 21.3376 10.8834 21.3551 11.0518 21.2708L12.3865 20.6033C12.5951 20.7037 12.8095 20.792 13.0283 20.8677L13.5007 22.2852C13.5603 22.4637 13.715 22.5937 13.9011 22.6216C14.6297 22.7287 15.3701 22.7287 16.0988 22.6216C16.2849 22.5937 16.4396 22.4637 16.4992 22.2852L16.9716 20.8677C17.1905 20.792 17.4048 20.7037 17.6135 20.6033L18.9482 21.2708C19.1166 21.3552 19.3182 21.3377 19.4694 21.2253C20.0603 20.7858 20.5839 20.2623 21.0234 19.6714C21.1355 19.52 21.153 19.3186 21.0688 19.1501L20.4013 17.8154C20.5019 17.6068 20.5902 17.3925 20.6657 17.1736L22.0832 16.7011C22.2618 16.6416 22.3917 16.4869 22.4197 16.3008C22.5268 15.5721 22.5268 14.8317 22.4197 14.103C22.3918 13.9169 22.2618 13.7623 22.0833 13.7027ZM21.468 15.8521L20.1094 16.3049C19.9548 16.3564 19.8351 16.4801 19.7886 16.6362C19.692 16.9618 19.5622 17.2766 19.4014 17.5757C19.324 17.719 19.3213 17.8911 19.3941 18.0368L20.0334 19.3157C19.8977 19.4817 19.7529 19.6411 19.5962 19.7981C19.4392 19.9548 19.2797 20.0993 19.1138 20.2353L17.8349 19.5957C17.6892 19.5225 17.5168 19.5253 17.3735 19.6032C17.0745 19.7641 16.7598 19.8938 16.4343 19.9904C16.2782 20.0369 16.1545 20.1567 16.103 20.3112L15.6502 21.6698C15.2178 21.7128 14.7822 21.7128 14.3498 21.6698L13.897 20.3112C13.8455 20.1567 13.7218 20.0369 13.5657 19.9904C13.2402 19.8938 12.9255 19.764 12.6265 19.6032C12.4832 19.5253 12.3108 19.5225 12.1651 19.5957L10.8863 20.2353C10.7203 20.0993 10.5608 19.9549 10.4038 19.7981C10.2471 19.6411 10.1023 19.4817 9.96662 19.3157L10.606 18.0368C10.6788 17.8911 10.676 17.719 10.5987 17.5757C10.4378 17.2765 10.3081 16.9618 10.2115 16.6362C10.165 16.4801 10.0453 16.3564 9.89068 16.3049L8.53201 15.8521C8.48936 15.4197 8.48936 14.9842 8.53201 14.5518L9.89068 14.0989C10.0453 14.0474 10.165 13.9237 10.2115 13.7676C10.3081 13.4421 10.4379 13.1274 10.5987 12.8284C10.6762 12.685 10.6791 12.5128 10.6062 12.367L9.96656 11.0882C10.1026 10.9222 10.2471 10.7627 10.4038 10.6058C10.5608 10.449 10.7203 10.3042 10.8863 10.1685L12.1651 10.8079C12.3108 10.8806 12.4828 10.8778 12.6263 10.8006C12.9254 10.6397 13.2401 10.51 13.5657 10.4134C13.7218 10.3669 13.8455 10.2472 13.897 10.0926L14.3498 8.73392C14.7822 8.69097 15.2178 8.69097 15.6502 8.73392L16.103 10.0926C16.1545 10.2472 16.2782 10.3669 16.4343 10.4134C16.7599 10.51 17.0747 10.6398 17.3737 10.8006C17.5171 10.8778 17.6892 10.8806 17.8349 10.8079L19.1138 10.1685C19.2797 10.3043 19.4392 10.449 19.5962 10.6058C19.7529 10.7628 19.8974 10.9222 20.0334 11.0882L19.3937 12.367C19.3209 12.5128 19.3237 12.685 19.4013 12.8284C19.5621 13.1274 19.6918 13.4421 19.7885 13.7676C19.835 13.9237 19.9547 14.0474 20.1093 14.0989L21.4679 14.5518C21.5106 14.9842 21.5106 15.4196 21.468 15.8521Z" fill="#D92C0A"/>
<path d="M15.0005 11.702C13.0675 11.702 11.5005 13.269 11.5005 15.2019C11.5027 17.134 13.0684 18.6998 15.0005 18.7019C16.9335 18.7019 18.5005 17.1349 18.5005 15.2019C18.5005 13.269 16.9335 11.702 15.0005 11.702ZM15.0005 17.702C13.6198 17.702 12.5004 16.5826 12.5004 15.2019C12.5021 13.8219 13.6204 12.7036 15.0005 12.7019C16.3812 12.7019 17.5005 13.8212 17.5005 15.2019C17.5005 16.5827 16.3812 17.702 15.0005 17.702Z" fill="#D92C0A"/>
<path d="M27.989 13.2513C27.7589 6.01564 22.0227 0.201904 15 0.201904C7.9773 0.201904 2.24109 6.01564 2.011 13.2513C0.842988 13.4856 0.001875 14.5106 0 15.7019V22.7019C0.00164063 24.082 1.11996 25.2003 2.50002 25.2019C2.50289 27.686 4.51594 29.6991 7.00002 29.7019H11.6391C11.8162 30.0102 12.1444 30.2008 12.5 30.2019H17C17.552 30.2014 17.9994 29.754 18 29.2019V27.2019C17.9995 26.6498 17.552 26.2025 17 26.2019H12.5C12.1443 26.203 11.8162 26.3935 11.6391 26.7019H7.00002C6.17197 26.701 5.5009 26.0299 5.50002 25.2019C6.05209 25.2013 6.49945 24.7539 6.50004 24.2018V14.2019C6.49951 13.6498 6.05209 13.2025 5.50002 13.2019H5.02418C5.2752 7.64495 9.64682 3.2019 15 3.2019C20.3532 3.2019 24.7248 7.64495 24.9759 13.2019H24.5C23.948 13.2026 23.5007 13.6499 23.5 14.2019V24.2019C23.5007 24.7539 23.948 25.2013 24.5 25.2019H27.5C28.88 25.2003 29.9984 24.082 30 22.7019V15.7019C29.9981 14.5106 29.157 13.4856 27.989 13.2513ZM12.5 27.2019H17L17.0007 29.2019H12.5V27.2019ZM7.00002 27.7019H11.5V28.7019H7.00002C5.06795 28.6997 3.50221 27.134 3.50004 25.2019H4.5C4.50164 26.5819 5.61996 27.7003 7.00002 27.7019ZM5.50002 14.2019L5.50072 24.2019H2.50002C1.67197 24.201 1.0009 23.53 1.00002 22.7019V15.7019C1.0009 14.8738 1.67197 14.2028 2.50002 14.2019H5.50002ZM15 2.20188C9.09498 2.20188 4.26363 7.09206 4.01215 13.2019H3.01219C3.26531 6.54052 8.54432 1.20187 15 1.20187C21.4557 1.20187 26.7347 6.54052 26.9878 13.2019H25.9879C25.7364 7.09212 20.905 2.20188 15 2.20188ZM29 22.7019C28.9991 23.53 28.328 24.201 27.5 24.2019H24.5V14.2019H27.5C28.328 14.2028 28.9991 14.8738 29 15.7019V22.7019Z" fill="#17161A"/>
</g>
<defs>
<clipPath id="clip0_2205_275">
<rect width="30" height="30" fill="white" transform="translate(0 0.201904)"/>
</clipPath>
</defs>
</svg>
